# Blender v2.69 (sub 0) OBJ File: 'court.blend'
# www.blender.org
mtllib banner.mtl
o Cube.001
v 12.438072 2.538394 10.505101
v 12.438072 2.538394 -10.106412
v 12.807844 2.538394 -10.106412
v 12.807844 2.538394 10.505101
v 12.438072 4.295764 10.505101
v 12.438072 4.295764 -10.106412
v 12.807844 4.295764 -10.106412
v 12.807844 4.295764 10.505101
vt 0.000086 0.957535
vt 0.000086 0.037136
vt 0.186754 0.037137
vt 0.186754 0.957535
vt 0.186754 0.003651
vt 0.215365 0.003651
vt 0.215365 0.037137
vt 0.477121 0.037138
vt 0.477121 0.957535
vt 0.215365 0.957535
vt 0.215365 0.991021
vt 0.186754 0.991021
vt 0.519701 0.037137
vt 0.519702 0.957535
vn -1.000000 0.000000 0.000000
vn 0.000000 0.000000 -1.000000
vn 1.000000 0.000000 0.000000
vn 0.000000 0.000000 1.000000
vn 0.000000 -1.000000 0.000000
vn 0.000000 1.000000 0.000000
usemtl Material.013
s off
f 5/1/1 6/2/1 2/3/1 1/4/1
f 6/5/2 7/6/2 3/7/2 2/3/2
f 7/8/3 8/9/3 4/10/3 3/7/3
f 8/11/4 5/12/4 1/4/4 4/10/4
f 1/4/5 2/3/5 3/7/5 4/10/5
f 8/9/6 7/8/6 6/13/6 5/14/6
