# Blender v2.69 (sub 0) OBJ File: 'interior.blend'
# www.blender.org
mtllib interior.mtl
o Hidden_Cube
v -17.117325 -0.072273 12.296555
v -17.117325 -0.072273 10.296555
v -15.117325 -0.072273 10.296555
v -15.117325 -0.072273 12.296555
v -17.117325 1.927727 12.296555
v -17.117325 1.927727 10.296555
v -15.117325 1.927727 10.296555
v -15.117325 1.927727 12.296555
vn -1.000000 0.000000 0.000000
vn 0.000000 0.000000 -1.000000
vn 1.000000 0.000000 0.000000
vn 0.000000 0.000000 1.000000
vn 0.000000 -1.000000 0.000000
vn 0.000000 1.000000 0.000000
usemtl None
s off
f 5//1 6//1 2//1 1//1
f 6//2 7//2 3//2 2//2
f 7//3 8//3 4//3 3//3
f 8//4 5//4 1//4 4//4
f 1//5 2//5 3//5 4//5
f 8//6 7//6 6//6 5//6
o Plane.006_Plane.004
v -2.369162 9.608953 18.592155
v -22.369162 9.608953 18.592155
v -2.369162 9.608953 8.592155
v -22.369162 9.608953 8.592155
vn 0.000000 1.000000 0.000000
usemtl None
s off
f 10//7 9//7 11//7 12//7
o Plane.003
v -0.908706 -0.170613 8.658237
v -20.908707 -0.170613 8.658237
v -0.908706 9.829387 8.658237
v -20.908707 9.829387 8.658237
vn 0.000000 0.000000 1.000000
usemtl None
s off
f 14//8 13//8 15//8 16//8
o Plane.005_Plane.002
v -20.042301 -0.429739 -19.412653
v -20.042305 27.722204 -19.412653
v 19.957699 -0.429735 -19.412653
v 19.957695 27.722208 -19.412653
vn 0.000000 0.000000 1.000000
usemtl None
s off
f 18//9 17//9 19//9 20//9
o LeftWall_Plane.002
v 19.957699 -0.429735 18.645657
v 19.957695 27.722208 18.645657
v -20.042301 -0.429739 18.645653
v -20.042305 27.722204 18.645653
vn 0.000000 0.000000 -1.000000
usemtl None
s off
f 22//10 21//10 23//10 24//10
o Plane.002
v -19.587820 -0.429737 19.911715
v -19.587824 27.722206 19.911715
v -19.587820 -0.429737 -20.088285
v -19.587824 27.722206 -20.088285
vn 1.000000 0.000000 0.000000
usemtl None
s off
f 26//11 25//11 27//11 28//11
o Roof_Plane.001
v 20.000000 26.820189 -20.000000
v -20.000000 26.820189 -20.000000
v 20.000000 26.820196 20.000000
v -20.000000 26.820196 20.000000
vn 0.000000 -1.000000 0.000000
usemtl None
s off
f 30//12 29//12 31//12 32//12
o Floor_Plane
v 20.000000 0.000000 20.000000
v -20.000000 0.000000 20.000000
v 20.000000 0.000000 -20.000000
v -20.000000 0.000000 -20.000000
vt -4.499000 -4.499001
vt 5.499001 -4.499000
vt 5.499001 5.499001
vt -4.499001 5.499001
vn 0.000000 1.000000 0.000000
usemtl Material.001
s off
f 34/1/13 33/2/13 35/3/13 36/4/13
o Cube.003_Cabinet
v -2.151272 -0.202351 4.352038
v -2.151272 -0.202351 -6.262530
v 3.663271 -0.202351 -6.262530
v 3.663271 -0.202351 4.352038
v -2.151272 4.612140 4.352038
v -2.151272 4.612140 -6.262530
v 3.663271 4.612140 -6.262530
v 3.663271 4.612140 4.352038
v -2.151272 4.612140 0.239553
v -2.151272 -0.202351 0.239553
v 3.663271 4.612140 0.239553
v 3.663271 -0.202351 0.239553
v -2.151272 4.612140 -3.294369
v 3.663271 -0.202351 -3.294369
v -2.151272 -0.202351 -3.294369
v 3.663271 4.612140 -3.294369
vt 0.240575 0.902788
vt 0.240575 0.875004
vt 0.339934 0.875004
vt 0.339934 0.902788
vt 0.999212 0.333176
vt 0.666194 0.333176
vt 0.666193 0.000158
vt 0.999212 0.000158
vt 0.462199 0.333176
vt 0.333175 0.333176
vt 0.333175 0.000158
vt 0.462199 0.000158
vt 0.000158 0.333176
vt 0.000158 0.000158
vt 0.041669 0.902788
vt 0.041669 0.875004
vt 0.141028 0.875004
vt 0.141028 0.902788
vt 0.240481 0.946579
vt 0.240481 0.974363
vt 0.141122 0.974363
vt 0.141122 0.946579
vt 0.240575 0.974363
vt 0.240575 0.935867
vt 0.339934 0.935867
vt 0.339934 0.974363
vt 0.573071 0.333176
vt 0.573071 0.000158
vt 0.041669 0.974363
vt 0.041669 0.935867
vt 0.141028 0.935867
vt 0.141028 0.974363
vt 0.240481 0.875004
vt 0.240481 0.913499
vt 0.141122 0.913499
vt 0.141122 0.875004
vn -1.000000 0.000000 0.000000
vn 0.000000 0.000000 -1.000000
vn 1.000000 0.000000 0.000000
vn 0.000000 0.000000 1.000000
vn 0.000000 -1.000000 0.000000
vn 0.000000 1.000000 0.000000
usemtl Material
s off
f 49/5/14 42/6/14 38/7/14 51/8/14
f 42/9/15 43/10/15 39/11/15 38/12/15
f 47/13/16 44/14/16 40/15/16 48/16/16
f 44/14/17 41/17/17 37/18/17 40/15/17
f 51/19/18 38/20/18 39/21/18 50/22/18
f 52/23/19 43/24/19 42/25/19 49/26/19
f 41/27/14 45/28/14 46/29/14 37/30/14
f 52/31/16 47/13/16 48/16/16 50/32/16
f 37/33/18 46/34/18 48/35/18 40/36/18
f 44/37/19 47/38/19 45/39/19 41/40/19
f 45/28/14 49/5/14 51/8/14 46/29/14
f 46/34/18 51/19/18 50/22/18 48/35/18
f 47/38/19 52/23/19 49/26/19 45/39/19
f 43/10/16 52/31/16 50/32/16 39/11/16
o Cube.002_Marble-Top
v -2.260214 4.637775 4.365559
v -2.260214 4.637775 -6.266634
v 3.739786 4.637775 -6.266634
v 3.739786 4.637775 4.365559
v -2.260214 4.787775 4.365559
v -2.260214 4.787775 -6.266634
v 3.739786 4.787775 -6.266634
v 3.739786 4.787775 4.365559
vt 1.175435 1.116485
vt 1.175435 -0.216411
vt -0.157462 -0.216411
vt -0.157462 1.116485
vn -1.000000 0.000000 0.000000
vn 0.000000 0.000000 -1.000000
vn 1.000000 0.000000 0.000000
vn 0.000000 0.000000 1.000000
vn 0.000000 -1.000000 0.000000
vn 0.000000 1.000000 0.000000
usemtl Material.009
s off
f 57/41/20 58/42/20 54/42/20 53/41/20
f 58/42/21 59/43/21 55/43/21 54/42/21
f 59/43/22 60/44/22 56/44/22 55/43/22
f 60/44/23 57/41/23 53/41/23 56/44/23
f 53/41/24 54/42/24 55/43/24 56/44/24
f 60/44/25 59/43/25 58/42/25 57/41/25
o Cube.001_Board
v 6.388097 3.972192 -5.636236
v 8.006892 3.972192 -6.810757
v 9.768674 3.972192 -4.382563
v 8.149879 3.972192 -3.208042
v 6.388097 4.072192 -5.636236
v 8.006892 4.072192 -6.810757
v 9.768674 4.072192 -4.382563
v 8.149879 4.072192 -3.208042
vt 0.494007 0.738104
vt 0.559886 0.738104
vt 0.559886 0.562426
vt 0.494007 0.562426
vn -0.587260 0.000000 -0.809398
vn 0.809399 0.000000 -0.587260
vn 0.587260 0.000000 0.809398
vn -0.809399 0.000000 0.587260
vn 0.000000 -1.000000 0.000000
vn 0.000000 1.000000 0.000000
usemtl Material.007
s off
f 65/45/26 66/46/26 62/46/26 61/45/26
f 66/46/27 67/47/27 63/47/27 62/46/27
f 67/47/28 68/48/28 64/48/28 63/47/28
f 68/48/29 65/45/29 61/45/29 64/48/29
f 61/45/30 62/46/30 63/47/30 64/48/30
f 68/48/31 67/47/31 66/46/31 65/45/31
o Cube_Table
v 6.021362 0.630626 -1.912399
v 9.356407 0.630626 -8.618319
v 6.021362 0.630626 -8.618319
v 9.356407 0.630626 -1.912399
v 5.980902 3.969164 -0.663409
v 5.980902 3.969164 -8.663409
v 9.980902 3.969164 -8.663409
v 9.980902 3.969164 -0.663409
v 5.980902 3.761240 -0.663409
v 5.980902 3.761240 -8.663409
v 9.980902 3.761240 -8.663409
v 9.980902 3.761240 -0.663409
v 5.980902 2.368369 -8.663409
v 9.980902 2.368369 -8.663409
v 9.980902 2.368369 -0.663409
v 5.980902 2.368369 -0.663409
v 5.980902 2.149552 -8.663409
v 9.980902 2.149552 -8.663409
v 9.980902 2.149552 -0.663409
v 5.980902 2.149552 -0.663409
v 5.980902 0.836870 -8.663409
v 9.980902 0.836870 -8.663409
v 9.980902 0.836870 -0.663409
v 5.980902 0.836870 -0.663409
v 5.980902 0.630626 -8.663409
v 9.980902 0.630626 -8.663409
v 9.980902 0.630626 -0.663409
v 5.980902 0.630626 -0.663409
v 6.021362 -0.208311 -1.912399
v 9.356407 -0.208311 -8.618319
v 6.021362 -0.208311 -8.618319
v 9.356407 -0.208311 -1.912399
v 6.148733 2.149552 -8.416505
v 8.688183 2.149552 -8.416505
v 8.688183 2.149552 -3.067498
v 6.148733 2.149552 -3.067498
v 6.148733 0.836870 -8.416505
v 8.688183 0.836870 -8.416505
v 8.688183 0.836870 -3.067498
v 6.148733 0.836870 -3.067498
v 6.148733 3.761240 -3.067498
v 6.148733 3.761240 -8.416505
v 8.688183 3.761240 -8.416505
v 8.688183 3.761240 -3.067498
v 6.148733 2.368369 -8.416505
v 8.688183 2.368369 -8.416505
v 8.688183 2.368369 -3.067498
v 6.148733 2.368369 -3.067498
vt 0.781761 -0.008984
vt 0.172625 -0.008984
vt 0.920039 -0.285539
vt 0.034348 -0.285539
vt 0.034348 1.485843
vt 0.172625 1.209288
vt 0.920039 1.485843
vt 0.781761 1.209288
vt 0.071509 0.246781
vt 0.071509 1.431173
vt 0.633801 1.431173
vt 0.633801 0.246781
vn 0.000000 0.000000 1.000000
vn 0.000000 -1.000000 -0.000000
vn 0.000000 1.000000 0.000000
vn -1.000000 0.000000 0.000000
vn 0.000000 0.000000 -1.000000
vn 1.000000 0.000000 0.000000
vn 0.000000 -1.000000 0.000001
usemtl Material.006
s off
f 72/49/32 69/50/32 97/50/32 100/49/32
f 95/51/33 96/52/33 69/50/33 72/49/33
f 96/52/33 93/53/33 71/54/33 69/50/33
f 93/53/33 94/55/33 70/56/33 71/54/33
f 94/55/33 95/51/33 72/49/33 70/56/33
f 76/51/34 75/55/34 74/53/34 73/52/34
f 73/52/35 74/53/35 78/53/35 77/52/35
f 74/53/36 75/55/36 79/55/36 78/53/36
f 75/55/37 76/51/37 80/51/37 79/55/37
f 76/51/32 73/52/32 77/52/32 80/51/32
f 81/53/34 84/52/34 116/57/34 113/58/34
f 82/55/34 81/53/34 113/58/34 114/59/34
f 83/51/34 82/55/34 114/59/34 115/60/34
f 84/52/34 83/51/34 115/60/34 116/57/34
f 84/52/35 81/53/35 85/53/35 88/52/35
f 81/53/36 82/55/36 86/55/36 85/53/36
f 82/55/37 83/51/37 87/51/37 86/55/37
f 83/51/32 84/52/32 88/52/32 87/51/32
f 89/53/34 92/52/34 108/57/34 105/58/34
f 90/55/34 89/53/34 105/58/34 106/59/34
f 91/51/34 90/55/34 106/59/34 107/60/34
f 92/52/34 91/51/34 107/60/34 108/57/34
f 92/52/35 89/53/35 93/53/35 96/52/35
f 89/53/36 90/55/36 94/55/36 93/53/36
f 90/55/37 91/51/37 95/51/37 94/55/37
f 91/51/32 92/52/32 96/52/32 95/51/32
f 69/50/35 71/54/35 99/54/35 97/50/35
f 71/54/36 70/56/36 98/56/36 99/54/36
f 70/56/37 72/49/37 100/49/37 98/56/37
f 104/57/35 101/58/35 105/58/35 108/57/35
f 101/58/36 102/59/36 106/59/36 105/58/36
f 102/59/37 103/60/37 107/60/37 106/59/37
f 103/60/32 104/57/32 108/57/32 107/60/32
f 87/51/33 88/52/33 104/57/33 103/60/33
f 86/55/33 87/51/33 103/60/33 102/59/33
f 85/53/38 86/55/38 102/59/38 101/58/38
f 88/52/33 85/53/33 101/58/33 104/57/33
f 109/57/35 110/58/35 113/58/35 116/57/35
f 110/58/36 111/59/36 114/59/36 113/58/36
f 111/59/37 112/60/37 115/60/37 114/59/37
f 112/60/32 109/57/32 116/57/32 115/60/32
f 80/51/33 77/52/33 109/57/33 112/60/33
f 79/55/33 80/51/33 112/60/33 111/59/33
f 78/53/33 79/55/33 111/59/33 110/58/33
f 77/52/33 78/53/33 110/58/33 109/57/33
f 100/49/33 97/50/33 99/54/33 98/56/33
o Plane.001_Light1
v 19.653206 26.202156 -8.470669
v 13.521749 26.202156 -13.609272
v 23.389658 20.710190 -12.929058
v 17.258202 20.710190 -18.067661
vn 0.440954 0.727134 -0.526152
usemtl Material.002
s off
f 118//39 117//39 119//39 120//39
