# Blender v2.69 (sub 0) OBJ File: 'court.blend'
# www.blender.org
mtllib lane.mtl
o Plane.016_Plane.002
v 21.012199 -0.551741 -3.799309
v -42.987801 -0.551741 -3.799309
v 21.012199 -0.551741 4.200691
v -42.987801 -0.551741 4.200691
v -88.011452 -0.551741 -3.799309
v -88.011452 -0.551741 4.200691
v -42.987801 -0.551741 9.869232
v -88.011452 -0.551741 9.869232
v -42.987801 -0.551741 -9.370754
v -88.011452 -0.551741 -9.370754
vt 0.003392 0.003828
vt 1.003544 0.003828
vt 1.003544 0.997916
vt 0.003392 0.997917
vt 0.003392 -0.749566
vt 1.003544 -0.749566
vt 1.712218 -0.749566
vt 1.712218 0.003828
vt -0.693145 0.003828
vt -0.693144 -0.749567
vn 0.000000 1.000000 0.000000
usemtl Material.001
s off
f 2/1/1 4/2/1 3/3/1 1/4/1
f 4/2/1 2/1/1 5/5/1 6/6/1
f 4/2/1 6/6/1 8/7/1 7/8/1
f 5/5/1 2/1/1 9/9/1 10/10/1
