# Blender v2.69 (sub 0) OBJ File: ''
# www.blender.org
mtllib pin-phy.mtl
o Cylinder
v 0.000000 -0.293282 -0.385949
v 0.000000 0.158132 -0.203303
v 0.272907 -0.293282 -0.272907
v 0.143756 0.158132 -0.143756
v 0.385949 -0.293282 -0.000000
v 0.203303 0.158132 0.000000
v 0.272907 -0.293282 0.272907
v 0.143756 0.158132 0.143756
v 0.000000 -0.293282 0.385949
v 0.000000 0.158132 0.203303
v -0.272907 -0.293282 0.272907
v -0.143756 0.158132 0.143756
v -0.385949 -0.293282 -0.000000
v 0.000000 0.996976 -0.202378
v -0.143104 0.996976 -0.143104
v 0.000000 1.185667 -0.130397
v -0.143756 0.158132 -0.143756
v -0.272907 -0.293282 -0.272907
v -0.203303 0.158132 0.000000
v -0.120059 -1.185802 -0.120059
v -0.000000 -1.185802 -0.169789
v -0.120059 -1.185802 -0.120059
v 0.092205 1.185667 -0.092205
v 0.130398 1.185667 0.000000
v -0.202378 0.996976 0.000000
v -0.092205 1.185667 -0.092205
v -0.143104 0.996976 0.143105
v -0.130398 1.185667 0.000000
v 0.000000 0.996975 0.202378
v -0.092205 1.185667 0.092205
v 0.143104 0.996976 0.143105
v 0.000000 1.185667 0.130398
v 0.202378 0.996976 0.000000
v 0.092205 1.185667 0.092205
v 0.143104 0.996976 -0.143104
v -0.000000 -1.185802 -0.169789
v 0.120059 -1.185802 -0.120059
v -0.169789 -1.185802 -0.000000
v -0.169789 -1.185802 -0.000000
v -0.120059 -1.185802 0.120058
v -0.120059 -1.185802 0.120058
v -0.000000 -1.185802 0.169789
v -0.000000 -1.185802 0.169789
v 0.120059 -1.185802 0.120058
v 0.120059 -1.185802 0.120058
v 0.169789 -1.185802 -0.000000
v 0.169789 -1.185802 -0.000000
v 0.120059 -1.185802 -0.120059
v -0.244724 -0.705615 -0.244724
v -0.346092 -0.705616 -0.000000
v -0.244724 -0.705616 0.244724
v -0.000000 -0.705616 0.346092
v 0.244724 -0.705616 0.244724
v 0.346092 -0.705616 -0.000000
v 0.244724 -0.705615 -0.244724
v -0.000000 -0.705615 -0.346093
v 0.000000 0.531709 -0.137227
v -0.097035 0.531709 -0.097035
v -0.137227 0.531709 0.000000
v -0.097035 0.531709 0.097035
v 0.000000 0.531709 0.137228
v 0.097035 0.531709 0.097035
v 0.137227 0.531709 0.000000
v 0.097035 0.531709 -0.097035
vn 0.000000 0.135929 -0.990692
vn 0.000000 0.283120 -0.959075
vn 0.700522 0.135929 -0.700522
vn 0.678152 0.283120 -0.678152
vn 0.990692 0.135929 0.000000
vn 0.959075 0.283120 0.000000
vn 0.700522 0.135929 0.700522
vn 0.678152 0.283120 0.678152
vn 0.000000 0.135929 0.990692
vn 0.000000 0.283120 0.959075
vn -0.700522 0.135929 0.700522
vn -0.678152 0.283120 0.678152
vn -0.990692 0.135929 0.000000
vn 0.000000 0.106174 -0.994324
vn -0.703085 0.106174 -0.703085
vn 0.000000 0.761040 -0.648671
vn -0.678152 0.283120 -0.678152
vn -0.700522 0.135929 -0.700522
vn -0.959075 0.283120 0.000000
vn -0.813623 -0.422468 0.399365
vn 0.000000 -0.989257 0.146001
vn 0.000000 -0.599994 0.799982
vn 0.458663 0.761040 -0.458663
vn 0.648671 0.761040 0.000000
vn -0.994324 0.106174 0.000000
vn -0.458663 0.761040 -0.458663
vn -0.703085 0.106174 0.703085
vn -0.648671 0.761040 0.000000
vn 0.000000 0.106174 0.994324
vn -0.458663 0.761040 0.458663
vn 0.703085 0.106174 0.703085
vn 0.000000 0.761040 0.648671
vn 0.994324 0.106174 0.000000
vn 0.458663 0.761040 0.458663
vn 0.703085 0.106174 -0.703085
vn -0.667226 -0.244972 0.703391
vn -0.365764 -0.189917 0.911100
vn 0.000000 -0.175939 0.984375
vn 0.365764 -0.189917 0.911100
vn 0.667226 -0.244972 0.703391
vn 0.813623 -0.422468 0.399365
vn -0.690420 -0.215766 -0.690420
vn -0.976409 -0.215766 0.000000
vn -0.690420 -0.215766 0.690420
vn 0.000000 -0.215766 0.976409
vn 0.690420 -0.215766 0.690420
vn 0.976409 -0.215766 0.000000
vn 0.690420 -0.215766 -0.690420
vn 0.000000 -0.215766 -0.976409
vn 0.000000 0.018677 -0.999817
vn -0.706961 0.018677 -0.706961
vn -0.999817 0.018677 0.000000
vn -0.706961 0.018677 0.706961
vn 0.000000 0.018677 0.999817
vn 0.706961 0.018677 0.706961
vn 0.999817 0.018677 0.000000
vn 0.706961 0.018677 -0.706961
usemtl None
s 1
f 1//1 2//2 3//3
f 3//3 4//4 5//5
f 5//5 6//6 7//7
f 7//7 8//8 9//9
f 9//9 10//10 11//11
f 11//11 12//12 13//13
f 14//14 15//15 16//16
f 17//17 1//1 18//18
f 13//13 19//19 18//18
f 20//20 21//21 22//22
f 23//23 16//16 24//24
f 15//15 25//25 26//26
f 25//25 27//27 28//28
f 27//27 29//29 30//30
f 29//29 31//31 32//32
f 31//31 33//33 34//34
f 33//33 35//35 24//24
f 35//35 14//14 23//23
f 36//22 37//22 22//22
f 38//36 20//20 39//22
f 40//37 38//36 41//22
f 42//38 40//37 43//22
f 44//39 42//38 45//22
f 46//40 44//39 47//22
f 48//41 46//40 37//22
f 21//21 48//41 36//22
f 18//18 1//1 49//42
f 13//13 18//18 50//43
f 11//11 13//13 51//44
f 9//9 11//11 52//45
f 7//7 9//9 53//46
f 5//5 7//7 54//47
f 3//3 5//5 55//48
f 1//1 3//3 56//49
f 2//2 17//17 57//50
f 17//17 19//19 58//51
f 19//19 12//12 59//52
f 12//12 10//10 60//53
f 10//10 8//8 61//54
f 8//8 6//6 62//55
f 6//6 4//4 63//56
f 4//4 2//2 64//57
f 57//50 58//51 14//14
f 58//51 59//52 15//15
f 59//52 60//53 25//25
f 60//53 61//54 27//27
f 61//54 62//55 29//29
f 62//55 63//56 31//31
f 63//56 64//57 33//33
f 64//57 57//50 35//35
f 49//42 56//49 20//20
f 50//43 49//42 38//36
f 51//44 50//43 40//37
f 52//45 51//44 42//38
f 53//46 52//45 44//39
f 54//47 53//46 46//40
f 55//48 54//47 48//41
f 56//49 55//48 21//21
f 2//2 4//4 3//3
f 4//4 6//6 5//5
f 6//6 8//8 7//7
f 8//8 10//10 9//9
f 10//10 12//12 11//11
f 12//12 19//19 13//13
f 15//15 26//26 16//16
f 2//2 1//1 17//17
f 19//19 17//17 18//18
f 21//21 36//22 22//22
f 16//16 26//26 24//24
f 26//26 28//28 24//24
f 24//24 28//28 34//34
f 28//28 30//30 34//34
f 30//30 32//32 34//34
f 25//25 28//28 26//26
f 27//27 30//30 28//28
f 29//29 32//32 30//30
f 31//31 34//34 32//32
f 33//33 24//24 34//34
f 35//35 23//23 24//24
f 14//14 16//16 23//23
f 22//22 41//22 39//22
f 22//22 37//22 41//22
f 37//22 47//22 41//22
f 47//22 45//22 41//22
f 45//22 43//22 41//22
f 20//20 22//22 39//22
f 38//36 39//22 41//22
f 40//37 41//22 43//22
f 42//38 43//22 45//22
f 44//39 45//22 47//22
f 46//40 47//22 37//22
f 48//41 37//22 36//22
f 1//1 56//49 49//42
f 18//18 49//42 50//43
f 13//13 50//43 51//44
f 11//11 51//44 52//45
f 9//9 52//45 53//46
f 7//7 53//46 54//47
f 5//5 54//47 55//48
f 3//3 55//48 56//49
f 17//17 58//51 57//50
f 19//19 59//52 58//51
f 12//12 60//53 59//52
f 10//10 61//54 60//53
f 8//8 62//55 61//54
f 6//6 63//56 62//55
f 4//4 64//57 63//56
f 2//2 57//50 64//57
f 58//51 15//15 14//14
f 59//52 25//25 15//15
f 60//53 27//27 25//25
f 61//54 29//29 27//27
f 62//55 31//31 29//29
f 63//56 33//33 31//31
f 64//57 35//35 33//33
f 57//50 14//14 35//35
f 56//49 21//21 20//20
f 49//42 20//20 38//36
f 50//43 38//36 40//37
f 51//44 40//37 42//38
f 52//45 42//38 44//39
f 53//46 44//39 46//40
f 54//47 46//40 48//41
f 55//48 48//41 21//21
