# Blender v2.69 (sub 0) OBJ File: 'court.blend'
# www.blender.org
mtllib right-ditch.mtl
o Plane.005_Plane.020
v 21.023146 -0.550587 12.074057
v -42.982941 -0.550587 12.074057
v 21.023146 -0.550587 4.226706
v -42.982941 -0.550587 4.226706
v -42.982941 -2.485116 5.347755
v -42.982941 -3.828539 6.468806
v -42.982941 -4.473382 7.589856
v -42.982941 -4.473382 8.710906
v -42.982941 -3.828539 9.831957
v -42.982941 -2.485116 10.953007
v 21.023146 -2.485116 10.953007
v 21.023146 -3.828539 9.831957
v 21.023146 -4.473382 8.710906
v 21.023146 -4.473382 7.589856
v 21.023146 -3.828539 6.468806
v 21.023146 -2.485116 5.347755
v 21.023146 -2.431379 12.074057
v -42.982941 -2.431379 12.074057
v 21.023146 -2.431379 4.226706
v -42.982941 -2.431379 4.226706
v -42.982941 -4.365908 5.347755
v -42.982941 -5.709331 6.468806
v -42.982941 -6.354174 7.589856
v -42.982941 -6.354174 8.710906
v -42.982941 -5.709331 9.831957
v -42.982941 -4.365908 10.953007
v 21.023146 -4.365908 10.953007
v 21.023146 -5.709331 9.831957
v 21.023146 -6.354174 8.710906
v 21.023146 -6.354174 7.589856
v 21.023146 -5.709331 6.468806
v 21.023146 -4.365908 5.347755
vn 0.000000 -0.501391 -0.865221
vn 0.000000 -0.501391 0.865221
vn 0.000000 -0.640700 0.767791
vn 0.000000 -0.866827 0.498610
vn 0.000000 -1.000000 0.000000
vn 0.000000 -0.866827 -0.498610
vn 0.000000 -0.640701 -0.767791
vn 0.000000 0.501391 0.865221
vn 0.000000 0.501391 -0.865221
vn 0.000000 0.640700 -0.767791
vn 0.000000 0.866827 -0.498610
vn 0.000000 1.000000 0.000000
vn 0.000000 0.866826 0.498610
vn 0.000000 0.640701 0.767791
vn 1.000000 0.000000 0.000000
vn -1.000000 0.000000 0.000000
vn 0.000000 0.000000 1.000000
vn 0.000000 0.000000 -1.000000
usemtl None
s off
f 5//1 4//1 3//1 16//1
f 2//2 10//2 11//2 1//2
f 10//3 9//3 12//3 11//3
f 9//4 8//4 13//4 12//4
f 8//5 7//5 14//5 13//5
f 7//6 6//6 15//6 14//6
f 6//7 5//7 16//7 15//7
f 21//8 32//8 19//8 20//8
f 18//9 17//9 27//9 26//9
f 26//10 27//10 28//10 25//10
f 25//11 28//11 29//11 24//11
f 24//12 29//12 30//12 23//12
f 23//13 30//13 31//13 22//13
f 22//14 31//14 32//14 21//14
f 7//15 8//15 24//15 23//15
f 5//15 6//15 22//15 21//15
f 16//16 3//16 19//16 32//16
f 14//16 15//16 31//16 30//16
f 3//17 4//17 20//17 19//17
f 12//16 13//16 29//16 28//16
f 1//16 11//16 27//16 17//16
f 8//15 9//15 25//15 24//15
f 6//15 7//15 23//15 22//15
f 4//15 5//15 21//15 20//15
f 15//16 16//16 32//16 31//16
f 10//15 2//15 18//15 26//15
f 13//16 14//16 30//16 29//16
f 2//18 1//18 17//18 18//18
f 11//16 12//16 28//16 27//16
f 9//15 10//15 26//15 25//15
