# Blender v2.69 (sub 0) OBJ File: 'court.blend'
# www.blender.org
mtllib simple.mtl
o Cube.002
v -38.966198 -0.541210 5.920243
v -38.966198 -0.541210 4.218925
v 21.033802 -0.541210 4.218925
v 21.033802 -0.541210 5.920243
v -38.966198 1.458790 5.920243
v -38.966198 1.458790 4.218925
v 21.033802 1.458790 4.218925
v 21.033802 1.458790 5.920243
vn -1.000000 0.000000 0.000000
vn 0.000000 0.000000 -1.000000
vn 1.000000 0.000000 0.000000
vn 0.000000 0.000000 1.000000
vn 0.000000 -1.000000 0.000000
vn 0.000000 1.000000 0.000000
usemtl None
s off
f 5//1 6//1 2//1 1//1
f 6//2 7//2 3//2 2//2
f 7//3 8//3 4//3 3//3
f 8//4 5//4 1//4 4//4
f 1//5 2//5 3//5 4//5
f 8//6 7//6 6//6 5//6
