o AnisSurface_Circle
o AnisSurface_Circle
v 4.875485 0.804424 2.145865
v 4.679142 0.749648 2.183057
v 4.475260 0.734638 2.216837
v 4.271674 0.759974 2.245909
v 4.076208 0.824680 2.269154
v 3.896373 0.926271 2.285679
v 3.739080 1.060842 2.294849
v 3.610375 1.223221 2.296312
v 3.515202 1.407169 2.290011
v 3.457220 1.605616 2.276189
v 3.438657 1.810937 2.255377
v 3.460226 2.015240 2.228374
v 3.521098 2.210676 2.196218
v 3.618934 2.389732 2.160146
v 3.749974 2.545529 2.121543
v 3.909183 2.672078 2.081892
v 4.090442 2.764518 2.042719
v 4.286785 2.819294 2.005527
v 4.490667 2.834303 1.971746
v 4.694253 2.808968 1.942675
v 4.889720 2.744261 1.919430
v 5.069555 2.642671 1.902905
v 5.226847 2.508100 1.893735
v 5.355553 2.345720 1.892272
v 5.450725 2.161772 1.898573
v 5.508707 1.963324 1.912395
v 5.527270 1.758004 1.933207
v 5.505701 1.553700 1.960210
v 5.444828 1.358265 1.992366
v 5.346992 1.179209 2.028438
v 5.215951 1.023412 2.067041
v 5.056743 0.896863 2.106691
vt 0.645814 0.019311
vt 0.736791 0.056994
vt 0.818667 0.111702
vt 0.888298 0.181332
vt 0.943006 0.263208
vt 0.980689 0.354184
vt 0.999900 0.450763
vt 0.999900 0.549235
vt 0.980689 0.645814
vt 0.943006 0.736790
vt 0.888298 0.818666
vt 0.818668 0.888296
vt 0.736792 0.943004
vt 0.645816 0.980688
vt 0.549237 0.999899
vt 0.450764 0.999899
vt 0.354184 0.980688
vt 0.263209 0.943005
vt 0.181333 0.888297
vt 0.111703 0.818668
vt 0.056995 0.736792
vt 0.019311 0.645816
vt 0.000100 0.549236
vt 0.000100 0.450764
vt 0.019311 0.354184
vt 0.056994 0.263208
vt 0.111701 0.181333
vt 0.181331 0.111703
vt 0.263207 0.056995
vt 0.354184 0.019311
vt 0.450765 0.000100
vt 0.549235 0.000100
vn -0.154271 -0.113437 -0.981495
usemtl None
s off
f 2/1/1 3/2/1 4/3/1 5/4/1 6/5/1 7/6/1 8/7/1 9/8/1 10/9/1 11/10/1 12/11/1 13/12/1 14/13/1 15/14/1 16/15/1 17/16/1 18/17/1 19/18/1 20/19/1 21/20/1 22/21/1 23/22/1 24/23/1 25/24/1 26/25/1 27/26/1 28/27/1 29/28/1 30/29/1 31/30/1 32/31/1 1/32/1 
