o BackBoards_Cube.006
o BackBoards_Cube.006
v -6.006078 3.824189 0.183643
v -4.094239 3.824189 0.183643
v -6.006078 3.925701 0.183643
v -4.094239 3.925701 0.183643
v -6.006078 3.824189 -4.951761
v -4.094239 3.824189 -4.951761
v -6.006078 3.925701 -4.951761
v -4.094239 3.925701 -4.951761
v -6.006078 3.925701 -3.793166
v -6.006078 3.925701 -1.127979
v -4.094239 3.925701 -1.127979
v -4.094239 3.925701 -3.793166
v -4.094239 3.824189 -3.793166
v -4.094239 3.824189 -1.127979
v -6.006078 3.824189 -1.127979
v -6.006078 3.824189 -3.793166
vn 0.000000 1.000000 0.000000
vn 0.000000 0.000000 -1.000000
vn 0.000000 -1.000000 0.000000
vn 1.000000 0.000000 0.000000
vn -1.000000 0.000000 0.000000
vn 0.000000 0.000000 1.000000
usemtl Material.019
s off
f 9//1 12//1 8//1 7//1 
f 7//2 8//2 6//2 5//2 
f 13//3 16//3 5//3 6//3 
f 12//4 13//4 6//4 8//4 
f 16//5 9//5 7//5 5//5 
f 3//1 4//1 11//1 10//1 
f 2//3 1//3 15//3 14//3 
f 4//4 2//4 14//4 11//4 
f 1//5 3//5 10//5 15//5 
f 11//2 14//2 15//2 10//2 
f 12//6 9//6 16//6 13//6 
f 1//6 2//6 4//6 3//6 
