o BackWall_Plane.005
o BackWall_Plane.005
v -6.042251 0.000000 7.949340
v -6.042251 0.000000 -5.000000
v -6.042251 7.500000 7.949340
v -6.042251 7.500000 -5.000000
v -6.042251 7.158823 7.949340
v -6.042251 7.158823 -5.000000
v -6.042251 0.135287 7.949340
v -6.042251 0.135287 -5.000000
v -6.042251 0.000000 -5.628189
v -6.042251 7.500000 -5.628189
v -6.042251 7.158823 -5.628189
v -6.042251 0.135287 -5.628189
vn 1.000000 0.000000 0.000000
usemtl Material.021
s off
f 5//1 6//1 4//1 3//1 
f 6//1 8//1 12//1 11//1 
f 7//1 8//1 6//1 5//1 
f 1//1 2//1 8//1 7//1 
f 8//1 2//1 9//1 12//1 
f 4//1 6//1 11//1 10//1 
