o Bowl_Cylinder.001
o Bowl_Cylinder.001
v 2.626243 1.255046 0.504994
v 2.679546 1.255046 0.558297
v 2.679546 1.255046 0.633679
v 2.626243 1.255046 0.686981
v 2.550861 1.255046 0.686981
v 2.497558 1.255046 0.633679
v 2.588552 1.267291 0.595988
v 2.550861 1.255046 0.504994
v 2.497558 1.255046 0.558297
v 2.588552 1.242800 0.595988
v 2.675676 1.341466 0.385652
v 2.798888 1.341466 0.508864
v 2.798888 1.341466 0.683112
v 2.675676 1.341466 0.806324
v 2.501428 1.341466 0.806324
v 2.378216 1.341466 0.683112
v 2.782540 1.329725 0.515636
v 2.501428 1.341466 0.385652
v 2.378216 1.341466 0.508864
v 2.588552 1.242800 0.595988
v 2.626243 1.248923 0.504994
v 2.679546 1.248923 0.558297
v 2.679546 1.248923 0.633679
v 2.626243 1.248923 0.686981
v 2.550861 1.248923 0.686981
v 2.497558 1.248923 0.633679
v 2.550861 1.248923 0.504994
v 2.497558 1.248923 0.558297
v 2.647051 1.275122 0.454758
v 2.729782 1.275122 0.537489
v 2.729782 1.275122 0.654487
v 2.647051 1.275122 0.737218
v 2.530053 1.275122 0.737218
v 2.447322 1.275122 0.654487
v 2.530053 1.275122 0.454758
v 2.447322 1.275122 0.537489
v 2.671484 1.316648 0.395774
v 2.788766 1.316648 0.513056
v 2.788766 1.316648 0.678919
v 2.671484 1.316648 0.796202
v 2.505620 1.316648 0.796202
v 2.388338 1.316648 0.678919
v 2.505620 1.316648 0.395774
v 2.388338 1.316648 0.513056
v 2.466227 1.292529 0.646657
v 2.782540 1.329725 0.676340
v 2.668904 1.329725 0.402000
v 2.668904 1.329725 0.789976
v 2.508200 1.329725 0.789976
v 2.394564 1.329725 0.676340
v 2.394564 1.329725 0.515636
v 2.508200 1.329725 0.402000
v 2.588552 1.270442 0.595988
v 2.710877 1.292529 0.545319
v 2.537883 1.292529 0.718313
v 2.537883 1.292529 0.473663
v 2.639221 1.292529 0.473663
v 2.639221 1.292529 0.718313
v 2.466227 1.292529 0.545319
v 2.710877 1.292529 0.646657
v 2.616820 1.245861 0.527743
v 2.616820 1.264230 0.527743
v 2.588552 1.255046 0.497188
v 2.658414 1.255046 0.526126
v 2.656797 1.245861 0.567720
v 2.656797 1.264230 0.567720
v 2.687351 1.255046 0.595988
v 2.656797 1.245861 0.624256
v 2.656797 1.264230 0.624256
v 2.658414 1.255046 0.665850
v 2.616820 1.245861 0.664233
v 2.616820 1.264230 0.664233
v 2.588552 1.255046 0.694788
v 2.560284 1.245861 0.664233
v 2.560284 1.264230 0.664233
v 2.518690 1.255046 0.665850
v 2.520307 1.245861 0.624256
v 2.520307 1.264230 0.624256
v 2.489753 1.255046 0.595988
v 2.520307 1.245861 0.567720
v 2.520307 1.264230 0.567720
v 2.518690 1.255046 0.526126
v 2.560284 1.245861 0.527743
v 2.560284 1.264230 0.527743
v 2.616820 1.244331 0.527743
v 2.674268 1.340215 0.389052
v 2.588552 1.341466 0.367608
v 2.658414 1.248923 0.526126
v 2.656797 1.244331 0.567720
v 2.795488 1.340215 0.510272
v 2.687351 1.248923 0.595988
v 2.656797 1.244331 0.624256
v 2.795488 1.340215 0.681704
v 2.658414 1.248923 0.665850
v 2.616820 1.244331 0.664233
v 2.674268 1.340215 0.802924
v 2.588552 1.248923 0.694788
v 2.560284 1.244331 0.664233
v 2.502836 1.340215 0.802924
v 2.518690 1.248923 0.665850
v 2.520307 1.244331 0.624256
v 2.381616 1.340215 0.681704
v 2.489753 1.248923 0.595988
v 2.520307 1.244331 0.567720
v 2.381616 1.340215 0.510272
v 2.518690 1.248923 0.526126
v 2.560284 1.244331 0.527743
v 2.502836 1.340215 0.389052
v 2.588552 1.248923 0.497188
v 2.750041 1.341466 0.434499
v 2.816932 1.341466 0.595988
v 2.750041 1.341466 0.757477
v 2.588552 1.341466 0.824368
v 2.427063 1.341466 0.757477
v 2.360172 1.341466 0.595988
v 2.427063 1.341466 0.434499
v 2.631445 1.258534 0.492435
v 2.692105 1.258534 0.553095
v 2.692105 1.258534 0.638881
v 2.631445 1.258534 0.699541
v 2.545659 1.258534 0.699541
v 2.484999 1.258534 0.638881
v 2.545659 1.258534 0.492435
v 2.484999 1.258534 0.553095
v 2.588552 1.275122 0.442642
v 2.696984 1.275122 0.487556
v 2.741898 1.275122 0.595988
v 2.696984 1.275122 0.704420
v 2.588552 1.275122 0.749333
v 2.480120 1.275122 0.704420
v 2.435206 1.275122 0.595988
v 2.480120 1.275122 0.487556
v 2.663564 1.295541 0.414894
v 2.769646 1.295541 0.520976
v 2.769646 1.295541 0.671000
v 2.663564 1.295541 0.777082
v 2.513540 1.295541 0.777082
v 2.407458 1.295541 0.671000
v 2.513540 1.295541 0.414894
v 2.407458 1.295541 0.520976
v 2.588552 1.316648 0.378598
v 2.742270 1.316648 0.442270
v 2.805942 1.316648 0.595988
v 2.742270 1.316648 0.749706
v 2.588552 1.316648 0.813378
v 2.434834 1.316648 0.749706
v 2.371162 1.316648 0.595988
v 2.434834 1.316648 0.442270
v 2.674343 1.333577 0.388869
v 2.795671 1.333577 0.510197
v 2.795671 1.333577 0.681779
v 2.674343 1.333577 0.803107
v 2.502761 1.333577 0.803107
v 2.381433 1.333577 0.681779
v 2.502761 1.333577 0.388869
v 2.381433 1.333577 0.510197
v 2.657813 1.312871 0.428777
v 2.755763 1.312871 0.526727
v 2.755763 1.312871 0.665249
v 2.657813 1.312871 0.763199
v 2.519291 1.312871 0.763199
v 2.421341 1.312871 0.665249
v 2.421341 1.312871 0.526727
v 2.519291 1.312871 0.428777
v 2.737489 1.329725 0.447051
v 2.799181 1.329725 0.595988
v 2.737489 1.329725 0.744925
v 2.588552 1.329725 0.385359
v 2.588552 1.329725 0.806617
v 2.439615 1.329725 0.744925
v 2.377923 1.329725 0.595988
v 2.439615 1.329725 0.447051
v 2.615382 1.275964 0.531214
v 2.653326 1.275964 0.569158
v 2.653326 1.275964 0.622818
v 2.615382 1.275964 0.660761
v 2.561722 1.275964 0.660761
v 2.523778 1.275964 0.622818
v 2.523778 1.275964 0.569158
v 2.561722 1.275964 0.531214
v 2.494635 1.292529 0.689905
v 2.455733 1.292529 0.595988
v 2.682469 1.292529 0.502071
v 2.721371 1.292529 0.595988
v 2.588552 1.292529 0.728807
v 2.494635 1.292529 0.502071
v 2.588552 1.292529 0.463169
v 2.682469 1.292529 0.689905
v 2.588552 1.248242 0.511635
v 2.588552 1.261849 0.511635
v 2.648198 1.248242 0.536342
v 2.648198 1.261849 0.536342
v 2.672904 1.248242 0.595988
v 2.672904 1.261849 0.595988
v 2.648198 1.248242 0.655634
v 2.648198 1.261849 0.655634
v 2.588552 1.248242 0.680340
v 2.588552 1.261849 0.680340
v 2.528906 1.248242 0.655634
v 2.528906 1.261849 0.655634
v 2.504200 1.248242 0.595988
v 2.504200 1.261849 0.595988
v 2.528906 1.248242 0.536342
v 2.528906 1.261849 0.536342
v 2.588552 1.245521 0.511635
v 2.588552 1.340215 0.371299
v 2.648198 1.245521 0.536342
v 2.747431 1.340215 0.437109
v 2.672904 1.245521 0.595988
v 2.813241 1.340215 0.595988
v 2.648198 1.245521 0.655634
v 2.747431 1.340215 0.754867
v 2.588552 1.245521 0.680340
v 2.588552 1.340215 0.820676
v 2.528906 1.245521 0.655634
v 2.429673 1.340215 0.754867
v 2.504200 1.245521 0.595988
v 2.363863 1.340215 0.595988
v 2.528906 1.245521 0.536342
v 2.429673 1.340215 0.437109
v 2.588552 1.258534 0.483552
v 2.668056 1.258534 0.516484
v 2.700988 1.258534 0.595988
v 2.668056 1.258534 0.675492
v 2.588552 1.258534 0.708424
v 2.509048 1.258534 0.675492
v 2.476116 1.258534 0.595988
v 2.509048 1.258534 0.516484
v 2.588552 1.295541 0.399358
v 2.727590 1.295541 0.456950
v 2.785182 1.295541 0.595988
v 2.727590 1.295541 0.735026
v 2.588552 1.295541 0.792618
v 2.449514 1.295541 0.735026
v 2.391922 1.295541 0.595988
v 2.449514 1.295541 0.456950
v 2.588552 1.333577 0.371101
v 2.747571 1.333577 0.436969
v 2.813439 1.333577 0.595988
v 2.747571 1.333577 0.755007
v 2.588552 1.333577 0.820875
v 2.429533 1.333577 0.755007
v 2.363665 1.333577 0.595988
v 2.429533 1.333577 0.436969
v 2.588552 1.312871 0.414433
v 2.716931 1.312871 0.467609
v 2.770107 1.312871 0.595988
v 2.716931 1.312871 0.724367
v 2.588552 1.312871 0.777543
v 2.460173 1.312871 0.724367
v 2.406997 1.312871 0.595988
v 2.460173 1.312871 0.467609
v 2.588552 1.280258 0.506564
v 2.651784 1.280258 0.532756
v 2.677976 1.280258 0.595988
v 2.651784 1.280258 0.659220
v 2.588552 1.280258 0.685412
v 2.525320 1.280258 0.659220
v 2.499128 1.280258 0.595988
v 2.525320 1.280258 0.532756
vn -0.382672 0.000000 0.923856
vn 0.000000 0.000000 1.000000
vn 0.000000 0.962310 0.271920
vn -0.080203 0.977783 0.193640
vn -0.192267 0.962310 0.192267
vn -0.707083 0.000000 0.707083
vn -0.192267 -0.962310 0.192267
vn -0.080203 -0.977783 0.193640
vn 0.000000 -0.962310 0.271920
vn -0.923856 0.000000 0.382672
vn -0.193640 0.977783 0.080203
vn -0.271920 0.962310 0.000000
vn -1.000000 0.000000 0.000000
vn -0.271920 -0.962310 0.000000
vn -0.193640 -0.977783 0.080203
vn -0.923856 0.000000 -0.382672
vn -0.193640 0.977783 -0.080203
vn -0.192267 0.962310 -0.192267
vn -0.707083 0.000000 -0.707083
vn -0.192267 -0.962310 -0.192267
vn -0.193640 -0.977783 -0.080203
vn -0.382672 0.000000 -0.923856
vn -0.080203 0.977783 -0.193640
vn 0.000000 0.962310 -0.271920
vn 0.000000 0.000000 -1.000000
vn 0.000000 -0.962310 -0.271920
vn -0.080203 -0.977783 -0.193640
vn 0.382672 0.000000 -0.923856
vn 0.080203 0.977783 -0.193640
vn 0.192267 0.962310 -0.192267
vn 0.707083 0.000000 -0.707083
vn 0.192267 -0.962310 -0.192267
vn 0.080203 -0.977783 -0.193640
vn 0.923856 0.000000 -0.382672
vn 0.193640 0.977783 -0.080203
vn 0.271920 0.962310 0.000000
vn 1.000000 0.000000 0.000000
vn 0.271920 -0.962310 0.000000
vn 0.193640 -0.977783 -0.080203
vn 0.000000 -0.999969 0.000000
vn 0.193640 -0.977783 0.080203
vn 0.192267 -0.962310 0.192267
vn 0.080203 -0.977783 0.193640
vn 0.382672 0.000000 0.923856
vn 0.707083 0.000000 0.707083
vn 0.192267 0.962310 0.192267
vn 0.080203 0.977783 0.193640
vn 0.923856 0.000000 0.382672
vn 0.193640 0.977783 0.080203
vn 0.000000 0.999969 0.000000
vn 0.298654 0.625233 -0.721000
vn 0.350078 -0.403821 -0.845180
vn 0.000000 -0.404889 -0.914335
vn 0.000000 0.620716 -0.784020
vn 0.000000 0.893521 0.448958
vn -0.172704 0.892361 0.416944
vn -0.317454 0.893521 0.317454
vn 0.554369 0.620685 -0.554399
vn 0.646535 -0.404889 -0.646535
vn 0.721000 0.625233 -0.298654
vn 0.845180 -0.403821 -0.350078
vn -0.416944 0.892361 0.172674
vn -0.448927 0.893551 0.000000
vn 0.784020 0.620716 0.000000
vn 0.914335 -0.404889 0.000000
vn 0.721000 0.625233 0.298654
vn 0.845180 -0.403821 0.350078
vn -0.416944 0.892361 -0.172674
vn -0.317454 0.893521 -0.317454
vn 0.554369 0.620685 0.554399
vn 0.646535 -0.404889 0.646535
vn 0.298654 0.625233 0.721000
vn 0.350078 -0.403821 0.845180
vn -0.172704 0.892361 -0.416944
vn 0.000000 0.893521 -0.448958
vn 0.000000 0.620716 0.784020
vn 0.000000 -0.404889 0.914335
vn -0.298654 0.625233 0.721000
vn -0.350078 -0.403821 0.845180
vn 0.172704 0.892361 -0.416944
vn 0.317454 0.893551 -0.317454
vn -0.554369 0.620716 0.554369
vn -0.646535 -0.404889 0.646535
vn -0.721000 0.625233 0.298654
vn -0.845180 -0.403821 0.350078
vn 0.416944 0.892361 -0.172674
vn 0.448958 0.893551 0.000000
vn -0.784020 0.620716 0.000000
vn -0.914335 -0.404889 0.000000
vn -0.514267 0.830714 0.213019
vn -0.555864 0.831263 0.000000
vn -0.393048 0.831263 0.393048
vn -0.318888 0.892514 0.318888
vn -0.417219 0.892209 0.172796
vn -0.451003 0.892514 0.000000
vn -0.298654 0.625233 -0.721000
vn -0.350078 -0.403821 -0.845180
vn -0.646535 -0.404889 -0.646535
vn -0.554369 0.620716 -0.554369
vn 0.317454 0.893521 0.317454
vn 0.172704 0.892361 0.416944
vn -0.721000 0.625233 -0.298654
vn -0.845180 -0.403821 -0.350078
vn 0.416944 0.892361 0.172704
vn 0.000000 -1.000000 0.000000
vn -0.041871 -0.993988 -0.101138
vn 0.000000 -0.989837 -0.142125
vn 0.041871 -0.993988 -0.101138
vn 0.100497 -0.989837 -0.100497
vn 0.101138 -0.993988 -0.041871
vn 0.142125 -0.989837 0.000000
vn 0.101138 -0.993988 0.041871
vn 0.100497 -0.989837 0.100497
vn 0.041871 -0.993988 0.101138
vn 0.000000 -0.989837 0.142125
vn -0.041871 -0.993988 0.101138
vn -0.100497 -0.989837 0.100497
vn -0.101138 -0.993988 0.041871
vn -0.142125 -0.989837 0.000000
vn -0.101138 -0.993988 -0.041871
vn -0.100497 -0.989837 -0.100497
vn 0.160131 -0.908200 -0.386608
vn 0.000000 -0.908811 -0.417158
vn 0.000000 -0.883969 -0.467483
vn 0.179662 -0.882900 -0.433760
vn 0.330546 -0.883999 -0.330546
vn 0.294961 -0.908811 -0.294961
vn 0.386608 -0.908200 -0.160131
vn 0.433760 -0.882900 -0.179662
vn 0.467483 -0.883969 0.000000
vn 0.417158 -0.908811 0.000000
vn 0.386608 -0.908200 0.160131
vn 0.433760 -0.882900 0.179662
vn 0.330546 -0.883999 0.330546
vn 0.294961 -0.908811 0.294961
vn 0.160131 -0.908200 0.386608
vn 0.179662 -0.882900 0.433760
vn 0.000000 -0.883969 0.467483
vn 0.000000 -0.908811 0.417158
vn -0.160131 -0.908200 0.386608
vn -0.179662 -0.882900 0.433760
vn -0.330546 -0.883969 0.330546
vn -0.294961 -0.908811 0.294961
vn -0.386608 -0.908200 0.160131
vn -0.433760 -0.882900 0.179662
vn -0.467483 -0.883999 0.000000
vn -0.417158 -0.908811 0.000000
vn -0.160131 -0.908200 -0.386608
vn -0.294961 -0.908811 -0.294961
vn -0.330546 -0.883999 -0.330546
vn -0.179662 -0.882900 -0.433760
vn -0.386608 -0.908200 -0.160131
vn -0.433760 -0.882900 -0.179662
vn 0.155065 -0.914212 -0.374340
vn 0.000000 -0.914579 -0.404370
vn 0.000000 -0.804804 -0.593524
vn 0.227119 -0.804804 -0.548357
vn 0.419660 -0.804804 -0.419660
vn 0.285928 -0.914579 -0.285928
vn 0.374340 -0.914212 -0.155065
vn 0.548357 -0.804804 -0.227119
vn 0.593524 -0.804804 0.000000
vn 0.404370 -0.914579 0.000000
vn 0.374340 -0.914212 0.155065
vn 0.548357 -0.804804 0.227119
vn 0.419660 -0.804804 0.419660
vn 0.285928 -0.914579 0.285928
vn 0.155065 -0.914212 0.374340
vn 0.227119 -0.804804 0.548357
vn 0.000000 -0.804804 0.593524
vn 0.000000 -0.914579 0.404370
vn -0.155065 -0.914212 0.374340
vn -0.227119 -0.804804 0.548357
vn -0.419660 -0.804804 0.419660
vn -0.285928 -0.914579 0.285928
vn -0.374340 -0.914212 0.155065
vn -0.548357 -0.804804 0.227119
vn -0.593524 -0.804804 0.000000
vn -0.404370 -0.914579 0.000000
vn -0.155065 -0.914212 -0.374340
vn -0.285928 -0.914579 -0.285928
vn -0.419660 -0.804804 -0.419660
vn -0.227119 -0.804804 -0.548357
vn -0.374340 -0.914212 -0.155065
vn -0.548357 -0.804804 -0.227119
vn 0.319254 -0.551317 -0.770775
vn 0.000000 -0.551622 -0.834071
vn 0.589770 -0.551622 -0.589770
vn 0.770775 -0.551317 -0.319254
vn 0.834071 -0.551622 0.000000
vn 0.770775 -0.551317 0.319254
vn 0.589770 -0.551622 0.589770
vn 0.319254 -0.551317 0.770775
vn 0.000000 -0.551622 0.834071
vn -0.319254 -0.551317 0.770775
vn -0.589770 -0.551622 0.589770
vn -0.770775 -0.551317 0.319254
vn -0.834071 -0.551622 0.000000
vn -0.319254 -0.551317 -0.770775
vn -0.589770 -0.551622 -0.589770
vn -0.770775 -0.551317 -0.319254
vn 0.307779 0.942869 -0.127476
vn 0.331156 0.943541 0.000000
vn 0.451003 0.892514 0.000000
vn 0.417219 0.892209 -0.172796
vn 0.318888 0.892514 -0.318888
vn 0.234169 0.943541 -0.234169
vn 0.156529 0.975158 -0.156529
vn 0.152013 0.986358 -0.062960
vn 0.221351 0.975158 0.000000
vn -0.514267 0.830714 -0.213019
vn -0.393048 0.831263 -0.393048
vn -0.417219 0.892209 -0.172796
vn -0.318888 0.892514 -0.318888
vn -0.213019 0.830714 0.514267
vn 0.000000 0.831263 0.555864
vn 0.000000 0.892514 0.451003
vn -0.172796 0.892209 0.417219
vn -0.213019 0.830714 -0.514267
vn 0.000000 0.831263 -0.555864
vn -0.172796 0.892209 -0.417219
vn 0.000000 0.892514 -0.451003
vn 0.213019 0.830714 -0.514267
vn 0.393048 0.831263 -0.393048
vn 0.172796 0.892209 -0.417219
vn 0.514267 0.830714 -0.213019
vn 0.555864 0.831263 0.000000
vn 0.514267 0.830714 0.213019
vn 0.393048 0.831263 0.393048
vn 0.417219 0.892209 0.172796
vn 0.318888 0.892514 0.318888
vn 0.213019 0.830714 0.514267
vn 0.172796 0.892209 0.417219
vn 0.000000 1.000000 0.000000
vn -0.152013 0.986358 0.062960
vn -0.156529 0.975158 0.156529
vn -0.062960 0.986358 0.152013
vn 0.000000 0.975158 0.221351
vn 0.062960 0.986358 0.152013
vn 0.156529 0.975158 0.156529
vn 0.152013 0.986358 0.062960
vn 0.062960 0.986358 -0.152013
vn 0.000000 0.975158 -0.221351
vn -0.062960 0.986358 -0.152013
vn -0.156529 0.975158 -0.156529
vn -0.152013 0.986358 -0.062960
vn -0.221351 0.975158 0.000000
vn -0.307779 0.942869 0.127476
vn -0.331156 0.943541 0.000000
vn -0.234169 0.943541 0.234169
vn 0.127476 0.942869 -0.307779
vn 0.000000 0.943541 -0.331156
vn 0.127476 0.942869 0.307779
vn 0.000000 0.943541 0.331156
vn 0.234169 0.943541 0.234169
vn -0.127476 0.942869 0.307779
vn -0.127476 0.942869 -0.307779
vn -0.234169 0.943541 -0.234169
vn 0.307779 0.942869 0.127476
vn -0.307779 0.942869 -0.127476
usemtl Material.018
s 1
f 1//1 63//2 189//3 61//4 
f 1//1 61//4 191//5 64//6 
f 1//1 64//6 192//7 62//8 
f 1//1 62//8 190//9 63//2 
f 2//10 64//6 191//5 65//11 
f 2//10 65//11 193//12 67//13 
f 2//10 67//13 194//14 66//15 
f 2//10 66//15 192//7 64//6 
f 3//16 67//13 193//12 68//17 
f 3//16 68//17 195//18 70//19 
f 3//16 70//19 196//20 69//21 
f 3//16 69//21 194//14 67//13 
f 4//22 70//19 195//18 71//23 
f 4//22 71//23 197//24 73//25 
f 4//22 73//25 198//26 72//27 
f 4//22 72//27 196//20 70//19 
f 5//28 73//25 197//24 74//29 
f 5//28 74//29 199//30 76//31 
f 5//28 76//31 200//32 75//33 
f 5//28 75//33 198//26 73//25 
f 6//34 76//31 199//30 77//35 
f 6//34 77//35 201//36 79//37 
f 6//34 79//37 202//38 78//39 
f 6//34 78//39 200//32 76//31 
f 7//40 62//8 192//7 66//15 
f 7//40 66//15 194//14 69//21 
f 7//40 69//21 196//20 72//27 
f 7//40 72//27 198//26 75//33 
f 7//40 75//33 200//32 78//39 
f 7//40 78//39 202//38 81//41 
f 7//40 81//41 204//42 84//43 
f 7//40 84//43 190//9 62//8 
f 8//44 82//45 203//46 83//47 
f 8//44 83//47 189//3 63//2 
f 8//44 63//2 190//9 84//43 
f 8//44 84//43 204//42 82//45 
f 9//48 79//37 201//36 80//49 
f 9//48 80//49 203//46 82//45 
f 9//48 82//45 204//42 81//41 
f 9//48 81//41 202//38 79//37 
f 10//50 61//4 189//3 83//47 
f 10//50 83//47 203//46 80//49 
f 10//50 80//49 201//36 77//35 
f 10//50 77//35 199//30 74//29 
f 10//50 74//29 197//24 71//23 
f 10//50 71//23 195//18 68//17 
f 10//50 68//17 193//12 65//11 
f 10//50 65//11 191//5 61//4 
f 11//51 149//52 237//53 87//54 
f 11//51 87//54 206//55 86//56 
f 11//51 86//56 208//57 110//58 
f 11//51 110//58 238//59 149//52 
f 12//60 150//61 238//59 110//58 
f 12//60 110//58 208//57 90//62 
f 12//60 90//62 210//63 111//64 
f 12//60 111//64 239//65 150//61 
f 13//66 151//67 239//65 111//64 
f 13//66 111//64 210//63 93//68 
f 13//66 93//68 212//69 112//70 
f 13//66 112//70 240//71 151//67 
f 14//72 152//73 240//71 112//70 
f 14//72 112//70 212//69 96//74 
f 14//72 96//74 214//75 113//76 
f 14//72 113//76 241//77 152//73 
f 15//78 153//79 241//77 113//76 
f 15//78 113//76 214//75 99//80 
f 15//78 99//80 216//81 114//82 
f 15//78 114//82 242//83 153//79 
f 16//84 154//85 242//83 114//82 
f 16//84 114//82 216//81 102//86 
f 16//84 102//86 218//87 115//88 
f 16//84 115//88 243//89 154//85 
f 17//90 166//91 210//63 90//62 
f 17//90 90//62 208//57 165//92 
f 17//90 165//92 246//93 158//94 
f 17//90 158//94 247//95 166//91 
f 18//96 155//97 244//98 116//99 
f 18//96 116//99 220//100 108//101 
f 18//96 108//101 206//55 87//54 
f 18//96 87//54 237//53 155//97 
f 19//102 156//103 243//89 115//88 
f 19//102 115//88 218//87 105//104 
f 19//102 105//104 220//100 116//99 
f 19//102 116//99 244//98 156//103 
f 20//105 107//106 205//107 85//108 
f 20//105 85//108 207//109 89//110 
f 20//105 89//110 209//111 92//112 
f 20//105 92//112 211//113 95//114 
f 20//105 95//114 213//115 98//116 
f 20//105 98//116 215//117 101//118 
f 20//105 101//118 217//119 104//120 
f 20//105 104//120 219//121 107//106 
f 21//122 85//108 205//107 109//123 
f 21//122 109//123 221//124 117//125 
f 21//122 117//125 222//126 88//127 
f 21//122 88//127 207//109 85//108 
f 22//128 89//110 207//109 88//127 
f 22//128 88//127 222//126 118//129 
f 22//128 118//129 223//130 91//131 
f 22//128 91//131 209//111 89//110 
f 23//132 92//112 209//111 91//131 
f 23//132 91//131 223//130 119//133 
f 23//132 119//133 224//134 94//135 
f 23//132 94//135 211//113 92//112 
f 24//136 95//114 211//113 94//135 
f 24//136 94//135 224//134 120//137 
f 24//136 120//137 225//138 97//139 
f 24//136 97//139 213//115 95//114 
f 25//140 98//116 213//115 97//139 
f 25//140 97//139 225//138 121//141 
f 25//140 121//141 226//142 100//143 
f 25//140 100//143 215//117 98//116 
f 26//144 101//118 215//117 100//143 
f 26//144 100//143 226//142 122//145 
f 26//144 122//145 227//146 103//147 
f 26//144 103//147 217//119 101//118 
f 27//148 107//106 219//121 106//149 
f 27//148 106//149 228//150 123//151 
f 27//148 123//151 221//124 109//123 
f 27//148 109//123 205//107 107//106 
f 28//152 104//120 217//119 103//147 
f 28//152 103//147 227//146 124//153 
f 28//152 124//153 228//150 106//149 
f 28//152 106//149 219//121 104//120 
f 29//154 117//125 221//124 125//155 
f 29//154 125//155 229//156 133//157 
f 29//154 133//157 230//158 126//159 
f 29//154 126//159 222//126 117//125 
f 30//160 118//129 222//126 126//159 
f 30//160 126//159 230//158 134//161 
f 30//160 134//161 231//162 127//163 
f 30//160 127//163 223//130 118//129 
f 31//164 119//133 223//130 127//163 
f 31//164 127//163 231//162 135//165 
f 31//164 135//165 232//166 128//167 
f 31//164 128//167 224//134 119//133 
f 32//168 120//137 224//134 128//167 
f 32//168 128//167 232//166 136//169 
f 32//168 136//169 233//170 129//171 
f 32//168 129//171 225//138 120//137 
f 33//172 121//141 225//138 129//171 
f 33//172 129//171 233//170 137//173 
f 33//172 137//173 234//174 130//175 
f 33//172 130//175 226//142 121//141 
f 34//176 122//145 226//142 130//175 
f 34//176 130//175 234//174 138//177 
f 34//176 138//177 235//178 131//179 
f 34//176 131//179 227//146 122//145 
f 35//180 123//151 228//150 132//181 
f 35//180 132//181 236//182 139//183 
f 35//180 139//183 229//156 125//155 
f 35//180 125//155 221//124 123//151 
f 36//184 124//153 227//146 131//179 
f 36//184 131//179 235//178 140//185 
f 36//184 140//185 236//182 132//181 
f 36//184 132//181 228//150 124//153 
f 37//186 133//157 229//156 141//187 
f 37//186 141//187 237//53 149//52 
f 37//186 149//52 238//59 142//188 
f 37//186 142//188 230//158 133//157 
f 38//189 134//161 230//158 142//188 
f 38//189 142//188 238//59 150//61 
f 38//189 150//61 239//65 143//190 
f 38//189 143//190 231//162 134//161 
f 39//191 135//165 231//162 143//190 
f 39//191 143//190 239//65 151//67 
f 39//191 151//67 240//71 144//192 
f 39//191 144//192 232//166 135//165 
f 40//193 136//169 232//166 144//192 
f 40//193 144//192 240//71 152//73 
f 40//193 152//73 241//77 145//194 
f 40//193 145//194 233//170 136//169 
f 41//195 137//173 233//170 145//194 
f 41//195 145//194 241//77 153//79 
f 41//195 153//79 242//83 146//196 
f 41//195 146//196 234//174 137//173 
f 42//197 138//177 234//174 146//196 
f 42//197 146//196 242//83 154//85 
f 42//197 154//85 243//89 147//198 
f 42//197 147//198 235//178 138//177 
f 43//199 139//183 236//182 148//200 
f 43//199 148//200 244//98 155//97 
f 43//199 155//97 237//53 141//187 
f 43//199 141//187 229//156 139//183 
f 44//201 140//185 235//178 147//198 
f 44//201 147//198 243//89 156//103 
f 44//201 156//103 244//98 148//200 
f 44//201 148//200 236//182 140//185 
f 45//202 182//203 251//204 162//205 
f 45//202 162//205 250//206 181//207 
f 45//202 181//207 258//208 178//209 
f 45//202 178//209 259//210 182//203 
f 46//211 167//212 212//69 93//68 
f 46//211 93//68 210//63 166//91 
f 46//211 166//91 247//95 159//213 
f 46//211 159//213 248//214 167//212 
f 47//215 165//92 208//57 86//56 
f 47//215 86//56 206//55 168//216 
f 47//215 168//216 245//217 157//218 
f 47//215 157//218 246//93 165//92 
f 48//219 169//220 214//75 96//74 
f 48//219 96//74 212//69 167//212 
f 48//219 167//212 248//214 160//221 
f 48//219 160//221 249//222 169//220 
f 49//223 170//224 216//81 99//80 
f 49//223 99//80 214//75 169//220 
f 49//223 169//220 249//222 161//225 
f 49//223 161//225 250//206 170//224 
f 50//226 171//227 218//87 102//86 
f 50//226 102//86 216//81 170//224 
f 50//226 170//224 250//206 162//205 
f 50//226 162//205 251//204 171//227 
f 51//228 172//229 220//100 105//104 
f 51//228 105//104 218//87 171//227 
f 51//228 171//227 251//204 163//230 
f 51//228 163//230 252//231 172//229 
f 52//232 168//216 206//55 108//101 
f 52//232 108//101 220//100 172//229 
f 52//232 172//229 252//231 164//233 
f 52//232 164//233 245//217 168//216 
f 53//234 174//235 254//236 173//237 
f 53//234 173//237 253//238 180//239 
f 53//234 180//239 260//240 179//241 
f 53//234 179//241 259//210 178//209 
f 53//234 178//209 258//208 177//242 
f 53//234 177//242 257//243 176//244 
f 53//234 176//244 256//245 175//246 
f 53//234 175//246 255//247 174//235 
f 54//248 184//249 247//95 158//94 
f 54//248 158//94 246//93 183//250 
f 54//248 183//250 254//236 174//235 
f 54//248 174//235 255//247 184//249 
f 55//251 181//207 250//206 161//225 
f 55//251 161//225 249//222 185//252 
f 55//251 185//252 257//243 177//242 
f 55//251 177//242 258//208 181//207 
f 56//253 187//254 245//217 164//233 
f 56//253 164//233 252//231 186//255 
f 56//253 186//255 260//240 180//239 
f 56//253 180//239 253//238 187//254 
f 57//256 183//250 246//93 157//218 
f 57//256 157//218 245//217 187//254 
f 57//256 187//254 253//238 173//237 
f 57//256 173//237 254//236 183//250 
f 58//257 185//252 249//222 160//221 
f 58//257 160//221 248//214 188//258 
f 58//257 188//258 256//245 176//244 
f 58//257 176//244 257//243 185//252 
f 59//259 186//255 252//231 163//230 
f 59//259 163//230 251//204 182//203 
f 59//259 182//203 259//210 179//241 
f 59//259 179//241 260//240 186//255 
f 60//260 188//258 248//214 159//213 
f 60//260 159//213 247//95 184//249 
f 60//260 184//249 255//247 175//246 
f 60//260 175//246 256//245 188//258 
