o Chair_4_Cube.005
o Chair_4_Cube.005
v 1.968843 0.000480 0.496286
v 1.794967 0.000480 1.085159
v 1.016634 0.000480 0.855342
v 1.190510 0.000480 0.266469
v 1.968843 0.050480 0.496286
v 1.794967 0.050480 1.085159
v 1.050518 0.050480 0.865347
v 1.224394 0.050480 0.276473
v 1.108163 0.050480 0.882368
v 1.108163 0.000480 0.882368
v 1.282039 0.050480 0.293494
v 1.282039 0.000480 0.293494
v 1.622781 0.769580 1.034318
v 1.796657 0.769580 0.445445
v 1.680426 0.769580 1.051339
v 1.854302 0.769580 0.462465
v 1.773246 0.732026 0.438532
v 1.830892 0.732026 0.455553
v 1.599371 0.732026 1.027406
v 1.657016 0.732026 1.044427
v 0.979243 0.774193 0.844302
v 1.153118 0.774193 0.255428
v 1.122086 0.736639 0.246265
v 0.948210 0.736639 0.835139
v 0.915699 1.450716 0.825539
v 1.089575 1.450716 0.236666
v 1.058542 1.443515 0.227503
v 0.884667 1.443515 0.816376
vn 0.959066 0.000000 0.283182
vn -0.283181 0.000000 0.959067
vn -0.783260 0.577076 -0.231272
vn 0.283182 0.000000 -0.959066
vn 0.000000 -1.000000 0.000000
vn 0.000000 1.000000 0.000000
vn -0.283182 0.000000 0.959066
vn 0.283181 0.000000 -0.959066
vn 0.006594 0.999976 0.001947
vn -0.283178 -0.000001 0.959067
vn 0.804129 -0.544978 0.237434
vn -0.734479 0.643047 -0.216868
vn -0.283182 -0.000001 0.959066
vn 0.734479 -0.643047 0.216868
vn 0.954500 0.097469 0.281834
vn -0.006517 -0.999977 -0.001924
vn 0.283182 0.000001 -0.959066
vn -0.208324 0.976124 -0.061511
vn -0.283184 -0.000000 0.959065
vn -0.954881 -0.093321 -0.281946
usemtl Material.009
s off
f 5//1 6//1 2//1 1//1 
f 9//2 7//2 3//2 10//2 
f 7//3 8//3 4//3 3//3 
f 11//4 5//4 1//4 12//4 
f 12//5 10//5 3//5 4//5 
f 11//6 9//6 6//6 5//6 
f 6//7 9//7 10//7 2//7 
f 8//8 11//8 12//8 4//8 
f 1//5 2//5 10//5 12//5 
f 18//4 17//4 14//4 16//4 
f 14//6 13//6 15//6 16//6 
f 13//9 14//9 22//9 21//9 
f 19//10 20//10 15//10 13//10 
f 20//11 18//11 16//11 15//11 
f 11//4 8//4 17//4 18//4 
f 8//12 7//12 19//12 17//12 
f 7//13 9//13 20//13 19//13 
f 9//14 11//14 18//14 20//14 
f 21//15 22//15 26//15 25//15 
f 17//16 19//16 24//16 23//16 
f 19//7 13//7 21//7 24//7 
f 14//17 17//17 23//17 22//17 
f 27//18 28//18 25//18 26//18 
f 22//4 23//4 27//4 26//4 
f 24//19 21//19 25//19 28//19 
f 23//20 24//20 28//20 27//20 
