o Chair_2_Cube.005
o Chair_2_Cube.005
v 3.187515 0.000480 1.072666
v 3.187515 0.000480 0.458658
v 3.999068 0.000480 0.458658
v 3.999068 0.000480 1.072666
v 3.187515 0.050480 1.072666
v 3.187515 0.050480 0.458658
v 3.963738 0.050480 0.458658
v 3.963738 0.050480 1.072666
v 3.903632 0.050480 0.458658
v 3.903632 0.000480 0.458658
v 3.903632 0.050480 1.072666
v 3.903632 0.000480 1.072666
v 3.367050 0.769580 0.458658
v 3.367050 0.769580 1.072666
v 3.306945 0.769580 0.458658
v 3.306945 0.769580 1.072666
v 3.391460 0.732026 1.072666
v 3.331354 0.732026 1.072666
v 3.391460 0.732026 0.458658
v 3.331354 0.732026 0.458658
v 4.038055 0.774193 0.458658
v 4.038055 0.774193 1.072666
v 4.070412 0.736639 1.072666
v 4.070412 0.736639 0.458658
v 4.104311 1.450716 0.458658
v 4.104311 1.450716 1.072666
v 4.136668 1.443515 1.072666
v 4.136668 1.443515 0.458658
vn -1.000000 0.000000 0.000000
vn 0.000000 0.000000 -1.000000
vn 0.816690 0.577076 0.000000
vn 0.000000 0.000000 1.000000
vn 0.000000 -1.000000 0.000000
vn 0.000000 1.000000 0.000000
vn -0.006876 0.999976 0.000000
vn -0.838448 -0.544981 0.000000
vn 0.765827 0.643047 0.000000
vn -0.765827 -0.643047 0.000000
vn -0.995239 0.097469 0.000000
vn 0.006795 -0.999977 0.000000
vn 0.217216 0.976124 0.000000
vn 0.000001 0.000000 -1.000000
vn 0.995636 -0.093321 0.000000
usemtl Material.009
s off
f 5//1 6//1 2//1 1//1 
f 9//2 7//2 3//2 10//2 
f 7//3 8//3 4//3 3//3 
f 11//4 5//4 1//4 12//4 
f 12//5 10//5 3//5 4//5 
f 11//6 9//6 6//6 5//6 
f 6//2 9//2 10//2 2//2 
f 8//4 11//4 12//4 4//4 
f 1//5 2//5 10//5 12//5 
f 18//4 17//4 14//4 16//4 
f 14//6 13//6 15//6 16//6 
f 13//7 14//7 22//7 21//7 
f 19//2 20//2 15//2 13//2 
f 20//8 18//8 16//8 15//8 
f 11//4 8//4 17//4 18//4 
f 8//9 7//9 19//9 17//9 
f 7//2 9//2 20//2 19//2 
f 9//10 11//10 18//10 20//10 
f 21//11 22//11 26//11 25//11 
f 17//12 19//12 24//12 23//12 
f 19//2 13//2 21//2 24//2 
f 14//4 17//4 23//4 22//4 
f 27//13 28//13 25//13 26//13 
f 22//4 23//4 27//4 26//4 
f 24//14 21//14 25//14 28//14 
f 23//15 24//15 28//15 27//15 
