o Chair_3_Cube.005
o Chair_3_Cube.005
v 2.799749 0.000480 0.030172
v 2.232384 0.000480 0.264909
v 1.922124 0.000480 -0.484996
v 2.489490 0.000480 -0.719733
v 2.799749 0.050480 0.030172
v 2.232384 0.050480 0.264909
v 1.935631 0.050480 -0.452350
v 2.502996 0.050480 -0.687087
v 1.958610 0.050480 -0.396810
v 1.958610 0.000480 -0.396810
v 2.525975 0.050480 -0.631547
v 2.525975 0.000480 -0.631547
v 2.163747 0.769580 0.099012
v 2.731112 0.769580 -0.135725
v 2.186726 0.769580 0.154552
v 2.754091 0.769580 -0.080186
v 2.721780 0.732026 -0.158281
v 2.744759 0.732026 -0.102741
v 2.154415 0.732026 0.076456
v 2.177394 0.732026 0.131996
v 1.907220 0.774193 -0.521022
v 2.474585 0.774193 -0.755759
v 2.462214 0.736639 -0.785658
v 1.894849 0.736639 -0.550921
v 1.881890 1.450716 -0.582244
v 2.449255 1.450716 -0.816981
v 2.436885 1.443515 -0.846880
v 1.869520 1.443515 -0.612143
vn 0.382303 0.000000 0.924037
vn -0.924037 0.000000 0.382304
vn -0.312223 0.577077 -0.754651
vn 0.924037 0.000000 -0.382304
vn 0.000000 -1.000000 -0.000000
vn 0.000000 1.000000 0.000000
vn -0.924037 0.000000 0.382303
vn 0.924036 0.000000 -0.382305
vn 0.924036 -0.000007 -0.382306
vn 0.000000 1.000000 0.000001
vn 0.002629 0.999976 0.006353
vn -0.924036 -0.000003 0.382304
vn 0.320541 -0.544981 0.774757
vn 0.924036 0.000001 -0.382305
vn -0.292778 0.643047 -0.707652
vn -0.924036 -0.000000 0.382305
vn 0.292778 -0.643047 0.707652
vn 0.380483 0.097469 0.919637
vn -0.002598 -0.999977 -0.006279
vn -0.924037 0.000006 0.382303
vn 0.924037 -0.000005 -0.382303
vn -0.083042 0.976124 -0.200713
vn -0.380635 -0.093321 -0.920004
usemtl Material.009
s off
f 5//1 6//1 2//1 1//1 
f 9//2 7//2 3//2 10//2 
f 7//3 8//3 4//3 3//3 
f 11//4 5//4 1//4 12//4 
f 12//5 10//5 3//5 4//5 
f 11//6 9//6 6//6 5//6 
f 6//7 9//7 10//7 2//7 
f 8//8 11//8 12//8 4//8 
f 1//5 2//5 10//5 12//5 
f 18//9 17//9 14//9 16//9 
f 14//10 13//10 15//10 16//10 
f 13//11 14//11 22//11 21//11 
f 19//12 20//12 15//12 13//12 
f 20//13 18//13 16//13 15//13 
f 11//14 8//14 17//14 18//14 
f 8//15 7//15 19//15 17//15 
f 7//16 9//16 20//16 19//16 
f 9//17 11//17 18//17 20//17 
f 21//18 22//18 26//18 25//18 
f 17//19 19//19 24//19 23//19 
f 19//20 13//20 21//20 24//20 
f 14//21 17//21 23//21 22//21 
f 27//22 28//22 25//22 26//22 
f 22//8 23//8 27//8 26//8 
f 24//16 21//16 25//16 28//16 
f 23//23 24//23 28//23 27//23 
