o ChairTop.002_Cube.003
o ChairTop.002_Cube.003
v 0.784608 1.397709 1.618541
v 0.953190 1.397709 0.431054
v 0.784608 1.422616 1.618541
v 0.953190 1.422616 0.431054
v 1.908136 1.422616 1.778042
v 1.908136 1.397709 1.778042
v 2.076717 1.422616 0.590556
v 2.076717 1.397709 0.590556
v 2.158751 1.422616 0.660050
v 2.158751 1.397709 0.660050
v 0.945139 1.422616 0.487760
v 0.945139 1.397709 0.487760
v 2.068667 1.397709 0.647261
v 2.068667 1.422616 0.647261
v 2.006249 1.422616 1.734267
v 0.792638 1.397709 1.561977
v 2.006249 1.397709 1.734267
v 0.792638 1.422616 1.561977
v 1.916166 1.397709 1.721478
v 1.916166 1.422616 1.721478
vn -0.140556 0.000000 0.990073
vn -0.990073 0.000000 -0.140555
vn 0.990073 0.000000 0.140555
vn 0.000000 -1.000000 -0.000000
vn 0.140556 0.000000 -0.990073
vn 0.000000 1.000000 0.000000
vn 0.000000 -1.000000 -0.000001
vn 0.000000 1.000000 -0.000001
usemtl Material.005
s off
f 5//1 3//1 1//1 6//1 
f 11//2 4//2 2//2 12//2 
f 19//3 20//3 5//3 6//3 
f 19//4 6//4 1//4 16//4 
f 4//5 7//5 8//5 2//5 
f 18//6 3//6 5//6 20//6 
f 19//1 17//1 15//1 20//1 
f 18//2 11//2 12//2 16//2 
f 8//7 13//7 12//7 2//7 
f 13//5 14//5 9//5 10//5 
f 7//3 14//3 13//3 8//3 
f 4//8 11//8 14//8 7//8 
f 9//3 15//3 17//3 10//3 
f 13//4 19//4 16//4 12//4 
f 14//6 20//6 15//6 9//6 
f 10//4 17//4 19//4 13//4 
f 11//6 18//6 20//6 14//6 
f 3//2 18//2 16//2 1//2 
