o ChairFrame.004_Cube.002
o ChairFrame.004_Cube.002
v -0.506666 1.284716 -2.668687
v -0.479268 1.284716 -1.479096
v -0.506666 1.403706 -2.668687
v -0.479268 1.403706 -1.479096
v -0.517964 0.743108 -2.700095
v -0.458214 0.743108 -2.701471
v -0.456241 0.743108 -2.615821
v -0.515991 0.743108 -2.614444
v -0.513721 2.688498 -2.786282
v -0.466420 2.688498 -2.787372
v -0.464717 2.690819 -2.713463
v -0.512019 2.690819 -2.712374
v -0.484778 1.283810 -1.583669
v -0.420540 1.283810 -1.585148
v -0.417800 1.283810 -1.466189
v -0.482038 1.283810 -1.464710
v -0.484778 1.402800 -1.583669
v -0.420540 1.402800 -1.585148
v -0.417800 1.402800 -1.466189
v -0.482038 1.402800 -1.464710
v -0.518036 1.402576 -2.678097
v -0.457129 1.402576 -2.679500
v -0.454937 1.402576 -2.584333
v -0.515844 1.402576 -2.582930
v -0.517274 -0.021672 -2.815419
v -0.464212 -0.021672 -2.816641
v -0.462476 -0.021672 -2.741269
v -0.515538 -0.021672 -2.740047
v -0.515124 0.488787 -2.649457
v -0.516979 0.488787 -2.729969
v -0.458718 0.488787 -2.650756
v -0.460573 0.488787 -2.731268
v -0.457597 0.991760 -2.684193
v -0.455542 0.991760 -2.594954
v -0.515728 0.991760 -2.593568
v -0.517784 0.991760 -2.682807
v -0.484177 -0.005050 -1.557580
v -0.419939 -0.005050 -1.559060
v -0.418401 -0.005050 -1.492278
v -0.482639 -0.005050 -1.490798
v -0.458041 0.812573 -2.696644
v -0.456046 0.812573 -2.609991
v -0.515918 0.812573 -2.608612
v -0.517913 0.812573 -2.695265
v -0.462757 0.750700 -2.615033
v -0.509446 0.750700 -2.613957
v -0.462604 0.804981 -2.610478
v -0.509388 0.804981 -2.609400
v -0.428446 0.753127 -1.562652
v -0.475135 0.753127 -1.561577
v -0.428294 0.807408 -1.558097
v -0.475078 0.807408 -1.557020
v -0.520746 2.675495 -2.795775
v -0.459839 2.675495 -2.797178
v -0.457647 2.679652 -2.702011
v -0.518554 2.679652 -2.700608
v -0.518163 2.681943 -2.792410
v -0.462264 2.681943 -2.793698
v -0.460253 2.685289 -2.706356
v -0.516151 2.685289 -2.705068
v -0.520710 2.658685 -2.794221
v -0.459803 2.658685 -2.795624
v -0.457611 2.662787 -2.700457
v -0.518519 2.662787 -2.699054
v -0.520432 2.528185 -2.782157
v -0.459525 2.528185 -2.783560
v -0.457334 2.531861 -2.688393
v -0.518241 2.531861 -2.686990
v -0.459453 2.648561 -2.780420
v -0.458017 2.652006 -2.718049
v -0.459220 2.538932 -2.770285
v -0.457783 2.542020 -2.707914
v -0.519696 2.182275 -2.750178
v -0.458789 2.182275 -2.751581
v -0.456597 2.184821 -2.656414
v -0.517504 2.184821 -2.655011
v -0.519518 2.098857 -2.742467
v -0.458611 2.098857 -2.743869
v -0.456419 2.101130 -2.648702
v -0.517326 2.101130 -2.647299
v -0.458461 2.171050 -2.737326
v -0.456876 2.172890 -2.668533
v -0.458332 2.110750 -2.731751
v -0.456748 2.112393 -2.662958
v 0.682925 1.284716 -2.696085
v 0.710323 1.284716 -1.506494
v 0.682925 1.403706 -2.696085
v 0.710323 1.403706 -1.506494
v 0.088129 1.403706 -2.682386
v 0.088129 1.284716 -2.682386
v 0.115527 1.403706 -1.492795
v 0.115527 1.284716 -1.492795
v 0.692764 0.743108 -2.727980
v 0.633014 0.743108 -2.726604
v 0.634987 0.743108 -2.640953
v 0.694737 0.743108 -2.642329
v 0.684558 2.688498 -2.813880
v 0.637257 2.688498 -2.812791
v 0.638959 2.690819 -2.738883
v 0.686260 2.690819 -2.739972
v 0.711012 1.283810 -1.611210
v 0.646774 1.283810 -1.609730
v 0.649514 1.283810 -1.490771
v 0.713752 1.283810 -1.492251
v 0.711012 1.402800 -1.611210
v 0.646774 1.402800 -1.609730
v 0.649514 1.402800 -1.490771
v 0.713752 1.402800 -1.492251
v 0.693849 1.402576 -2.706009
v 0.632942 1.402576 -2.704606
v 0.635134 1.402576 -2.609439
v 0.696041 1.402576 -2.610842
v 0.686766 -0.021672 -2.843150
v 0.633704 -0.021672 -2.841928
v 0.635439 -0.021672 -2.766556
v 0.688502 -0.021672 -2.767778
v 0.692259 0.488787 -2.677265
v 0.690405 0.488787 -2.757777
v 0.635853 0.488787 -2.675966
v 0.633999 0.488787 -2.756478
v 0.633194 0.991760 -2.709316
v 0.635249 0.991760 -2.620077
v 0.695436 0.991760 -2.621463
v 0.693380 0.991760 -2.710702
v 0.711613 -0.005050 -1.585121
v 0.647375 -0.005050 -1.583642
v 0.648913 -0.005050 -1.516860
v 0.713151 -0.005050 -1.518339
v 0.633064 0.812573 -2.721774
v 0.635060 0.812573 -2.635121
v 0.694932 0.812573 -2.636500
v 0.692936 0.812573 -2.723153
v 0.641532 0.750700 -2.640466
v 0.688221 0.750700 -2.641542
v 0.641589 0.804981 -2.635909
v 0.688373 0.804981 -2.636987
v 0.655708 0.753127 -1.587622
v 0.702397 0.753127 -1.588698
v 0.655766 0.807408 -1.583065
v 0.702550 0.807408 -1.584142
v 0.691139 2.675495 -2.823687
v 0.630231 2.675495 -2.822284
v 0.632423 2.679652 -2.727117
v 0.693330 2.679652 -2.728520
v 0.688713 2.681943 -2.820207
v 0.632814 2.681943 -2.818919
v 0.634826 2.685289 -2.731577
v 0.690725 2.685289 -2.732865
v 0.691174 2.658685 -2.822133
v 0.630267 2.658685 -2.820730
v 0.632459 2.662787 -2.725563
v 0.693366 2.662787 -2.726966
v 0.691452 2.528185 -2.810069
v 0.630545 2.528185 -2.808666
v 0.632737 2.531861 -2.713499
v 0.693644 2.531861 -2.714902
v 0.630617 2.648561 -2.805526
v 0.632054 2.652006 -2.743155
v 0.630851 2.538932 -2.795391
v 0.632287 2.542020 -2.733021
v 0.085582 2.648561 -2.792973
v 0.087019 2.652006 -2.730602
v 0.085816 2.538932 -2.782838
v 0.087252 2.542020 -2.720467
v 0.692189 2.182275 -2.778090
v 0.631282 2.182275 -2.776687
v 0.633474 2.184821 -2.681520
v 0.694381 2.184821 -2.682923
v 0.692366 2.098857 -2.770378
v 0.631459 2.098857 -2.768976
v 0.633651 2.101130 -2.673808
v 0.694558 2.101130 -2.675211
v 0.631610 2.171050 -2.762432
v 0.633194 2.172890 -2.693639
v 0.631738 2.110750 -2.756857
v 0.633323 2.112393 -2.688064
v 0.086575 2.171050 -2.749879
v 0.088159 2.172890 -2.681086
v 0.086703 2.110750 -2.744304
v 0.088288 2.112393 -2.675511
vn 0.023026 0.000000 0.999735
vn -0.999735 0.000000 0.023026
vn -0.023026 0.000000 -0.999735
vn 0.000000 -1.000000 -0.000000
vn 0.000000 1.000000 0.000000
vn -0.022971 0.069358 -0.997327
vn 0.999734 -0.000878 -0.023025
vn 0.022938 -0.083681 0.996229
vn -0.999734 -0.000877 0.023025
vn -0.999729 -0.003276 0.023025
vn -0.000722 0.999508 -0.031365
vn -0.023029 0.000000 -0.999735
vn 0.999735 0.000000 -0.023026
vn 0.023025 0.000000 0.999735
vn -0.022929 -0.092079 -0.995488
vn 0.022931 0.091782 0.995515
vn 0.022671 -0.174709 0.984359
vn 0.999729 -0.003276 -0.023025
vn -0.022710 0.165072 -0.986020
vn -0.999713 -0.006576 0.023025
vn 0.022809 -0.136273 0.990409
vn 0.999713 -0.006576 -0.023025
vn -0.022867 0.116545 -0.992922
vn -0.023026 0.011446 -0.999669
vn 0.999735 -0.000878 -0.023026
vn 0.023024 -0.025873 0.999400
vn -0.999735 -0.000878 0.023026
vn 0.023019 -0.020243 0.999530
vn -0.023024 -0.020243 -0.999530
vn -0.022968 0.069359 -0.997327
vn 0.999734 -0.000877 -0.023025
vn 0.022946 -0.083666 0.996230
vn -0.999735 -0.000878 0.023025
vn -0.000053 0.999997 -0.002305
vn 0.022944 -0.083682 0.996228
vn 0.022939 -0.083666 0.996230
vn 0.022975 -0.083667 0.996229
vn 0.022944 -0.083667 0.996230
vn 0.000053 -0.999997 0.002305
vn -0.999467 -0.001681 0.032589
vn 0.999469 -0.000074 -0.032585
vn -0.020335 0.468997 -0.882966
vn 0.923515 0.381776 -0.036965
vn 0.018147 0.615570 0.787874
vn -0.924229 0.381797 0.005593
vn -0.016690 0.688797 -0.724762
vn 0.814701 0.578562 -0.039094
vn 0.014014 0.793422 0.608510
vn -0.815644 0.578552 -0.001547
vn -0.022928 -0.092078 -0.995488
vn 0.999735 0.000002 -0.023026
vn 0.022930 0.091781 0.995515
vn -0.999735 0.000005 0.023026
vn -0.022925 -0.092080 -0.995488
vn 0.999735 -0.000002 -0.023026
vn 0.022930 0.091783 0.995515
vn -0.999735 -0.000000 0.023025
vn 0.001138 -0.998777 0.049425
vn 0.999735 0.000001 -0.023024
vn 0.999735 -0.000005 -0.023026
vn 0.022929 0.091781 0.995515
vn -0.022928 -0.092080 -0.995488
vn -0.001270 0.998478 -0.055141
vn -0.022931 -0.092079 -0.995488
vn 0.022930 0.091782 0.995515
vn -0.022925 -0.092078 -0.995488
vn 0.999735 0.000000 -0.023025
vn 0.022929 0.091783 0.995515
vn 0.000550 -0.999715 0.023873
vn 0.999735 0.000000 -0.023027
vn 0.999735 -0.000000 -0.023028
vn 0.022928 0.091784 0.995515
vn -0.022927 -0.092079 -0.995488
vn -0.000616 0.999643 -0.026728
vn -0.023025 0.000000 -0.999735
vn -0.022971 0.069359 -0.997327
vn -0.999734 -0.000878 0.023025
vn 0.022947 -0.083665 0.996230
vn 0.999730 -0.003276 -0.023025
vn -0.000722 0.999508 -0.031364
vn -0.022921 -0.092079 -0.995488
vn 0.022667 -0.174709 0.984359
vn -0.023021 0.011446 -0.999669
vn 0.023019 -0.025872 0.999400
vn -0.023021 -0.020243 -0.999530
vn 0.022948 -0.083668 0.996229
vn 0.999735 -0.000878 -0.023025
vn 0.022953 -0.083651 0.996231
vn 0.022916 -0.083665 0.996230
vn 0.022966 -0.083666 0.996229
vn 0.022947 -0.083667 0.996230
vn 0.999908 -0.001680 -0.013460
vn -0.999909 -0.000075 0.013464
vn -0.020335 0.469005 -0.882961
vn -0.924234 0.381785 0.005593
vn 0.018147 0.615597 0.787852
vn 0.923504 0.381803 -0.036966
vn -0.016693 0.688803 -0.724756
vn -0.815638 0.578560 -0.001548
vn 0.014016 0.793421 0.608512
vn 0.814701 0.578561 -0.039095
vn -0.022928 -0.092084 -0.995487
vn -0.999735 -0.000002 0.023026
vn 0.022926 0.091781 0.995515
vn 0.999735 -0.000006 -0.023026
vn -0.999735 -0.000008 0.023026
vn 0.001138 -0.998778 0.049418
vn -0.999735 0.000000 0.023024
vn -0.999735 0.000008 0.023026
vn 0.022929 0.091782 0.995515
vn -0.001270 0.998478 -0.055136
vn -0.999735 -0.000006 0.023025
vn 0.999735 -0.000001 -0.023026
vn -0.999735 0.000002 0.023027
vn -0.999735 0.000001 0.023028
vn -0.022928 -0.092077 -0.995488
usemtl Material.004
s off
f 91//1 4//1 2//1 92//1 
f 4//2 3//2 1//2 2//2 
f 3//3 89//3 90//3 1//3 
f 1//4 90//4 92//4 2//4 
f 4//5 91//5 89//5 3//5 
f 44//6 41//6 6//6 5//6 
f 41//7 42//7 7//7 6//7 
f 42//8 43//8 48//8 47//8 
f 43//9 44//9 5//9 8//9 
f 29//10 30//10 25//10 28//10 
f 12//11 11//11 10//11 9//11 
f 17//12 18//12 14//12 13//12 
f 18//13 19//13 15//13 14//13 
f 19//14 20//14 16//14 15//14 
f 20//2 17//2 13//2 16//2 
f 16//2 13//2 37//2 40//2 
f 20//5 19//5 18//5 17//5 
f 77//15 78//15 22//15 21//15 
f 78//13 79//13 23//13 22//13 
f 79//16 80//16 24//16 23//16 
f 80//2 77//2 21//2 24//2 
f 25//4 26//4 27//4 28//4 
f 31//17 29//17 28//17 27//17 
f 32//18 31//18 27//18 26//18 
f 30//19 32//19 26//19 25//19 
f 8//20 5//20 30//20 29//20 
f 7//21 8//21 29//21 31//21 
f 6//22 7//22 31//22 32//22 
f 5//23 6//23 32//23 30//23 
f 21//24 22//24 33//24 36//24 
f 22//25 23//25 34//25 33//25 
f 23//26 24//26 35//26 34//26 
f 24//27 21//27 36//27 35//27 
f 37//4 38//4 39//4 40//4 
f 15//28 16//28 40//28 39//28 
f 14//13 15//13 39//13 38//13 
f 13//29 14//29 38//29 37//29 
f 36//30 33//30 41//30 44//30 
f 33//31 34//31 42//31 41//31 
f 34//32 35//32 43//32 42//32 
f 35//33 36//33 44//33 43//33 
f 47//34 48//34 52//34 51//34 
f 8//35 7//35 45//35 46//35 
f 43//36 8//36 46//36 48//36 
f 7//37 42//37 47//37 45//37 
f 51//38 52//38 50//38 49//38 
f 46//39 45//39 49//39 50//39 
f 48//40 46//40 50//40 52//40 
f 45//41 47//41 51//41 49//41 
f 57//42 58//42 54//42 53//42 
f 58//43 59//43 55//43 54//43 
f 59//44 60//44 56//44 55//44 
f 60//45 57//45 53//45 56//45 
f 9//46 10//46 58//46 57//46 
f 10//47 11//47 59//47 58//47 
f 11//48 12//48 60//48 59//48 
f 12//49 9//49 57//49 60//49 
f 53//50 54//50 62//50 61//50 
f 54//51 55//51 63//51 62//51 
f 55//52 56//52 64//52 63//52 
f 56//53 53//53 61//53 64//53 
f 61//54 62//54 66//54 65//54 
f 67//55 66//55 71//55 72//55 
f 63//56 64//56 68//56 67//56 
f 64//57 61//57 65//57 68//57 
f 72//58 71//58 163//58 164//58 
f 63//13 67//13 72//13 70//13 
f 66//59 62//59 69//59 71//59 
f 62//60 63//60 70//60 69//60 
f 70//61 72//61 164//61 162//61 
f 71//62 69//62 161//62 163//62 
f 69//63 70//63 162//63 161//63 
f 65//64 66//64 74//64 73//64 
f 66//13 67//13 75//13 74//13 
f 67//65 68//65 76//65 75//65 
f 68//2 65//2 73//2 76//2 
f 73//66 74//66 78//66 77//66 
f 79//67 78//67 83//67 84//67 
f 75//68 76//68 80//68 79//68 
f 76//2 73//2 77//2 80//2 
f 84//69 83//69 179//69 180//69 
f 75//70 79//70 84//70 82//70 
f 78//71 74//71 81//71 83//71 
f 74//13 75//13 82//13 81//13 
f 82//72 84//72 180//72 178//72 
f 83//73 81//73 177//73 179//73 
f 81//74 82//74 178//74 177//74 
f 91//1 92//1 86//1 88//1 
f 88//13 86//13 85//13 87//13 
f 87//75 85//75 90//75 89//75 
f 85//4 86//4 92//4 90//4 
f 88//5 87//5 89//5 91//5 
f 132//76 93//76 94//76 129//76 
f 129//77 94//77 95//77 130//77 
f 130//78 135//78 136//78 131//78 
f 131//31 96//31 93//31 132//31 
f 117//79 116//79 113//79 118//79 
f 100//80 97//80 98//80 99//80 
f 105//75 101//75 102//75 106//75 
f 106//2 102//2 103//2 107//2 
f 107//14 103//14 104//14 108//14 
f 108//13 104//13 101//13 105//13 
f 104//13 128//13 125//13 101//13 
f 108//5 105//5 106//5 107//5 
f 169//81 109//81 110//81 170//81 
f 170//2 110//2 111//2 171//2 
f 171//16 111//16 112//16 172//16 
f 172//13 112//13 109//13 169//13 
f 113//4 116//4 115//4 114//4 
f 119//82 115//82 116//82 117//82 
f 120//10 114//10 115//10 119//10 
f 118//19 113//19 114//19 120//19 
f 96//22 117//22 118//22 93//22 
f 95//21 119//21 117//21 96//21 
f 94//20 120//20 119//20 95//20 
f 93//23 118//23 120//23 94//23 
f 109//83 124//83 121//83 110//83 
f 110//27 121//27 122//27 111//27 
f 111//84 122//84 123//84 112//84 
f 112//25 123//25 124//25 109//25 
f 125//4 128//4 127//4 126//4 
f 103//28 127//28 128//28 104//28 
f 102//2 126//2 127//2 103//2 
f 101//85 125//85 126//85 102//85 
f 124//6 132//6 129//6 121//6 
f 121//9 129//9 130//9 122//9 
f 122//86 130//86 131//86 123//86 
f 123//87 131//87 132//87 124//87 
f 135//34 139//34 140//34 136//34 
f 96//88 134//88 133//88 95//88 
f 131//89 136//89 134//89 96//89 
f 95//90 133//90 135//90 130//90 
f 139//91 137//91 138//91 140//91 
f 134//39 138//39 137//39 133//39 
f 136//92 140//92 138//92 134//92 
f 133//93 137//93 139//93 135//93 
f 145//94 141//94 142//94 146//94 
f 146//95 142//95 143//95 147//95 
f 147//96 143//96 144//96 148//96 
f 148//97 144//97 141//97 145//97 
f 97//98 145//98 146//98 98//98 
f 98//99 146//99 147//99 99//99 
f 99//100 147//100 148//100 100//100 
f 100//101 148//101 145//101 97//101 
f 141//102 149//102 150//102 142//102 
f 142//103 150//103 151//103 143//103 
f 143//104 151//104 152//104 144//104 
f 144//105 152//105 149//105 141//105 
f 149//15 153//15 154//15 150//15 
f 155//106 160//106 159//106 154//106 
f 151//65 155//65 156//65 152//65 
f 152//67 156//67 153//67 149//67 
f 160//107 164//107 163//107 159//107 
f 151//57 158//57 160//57 155//57 
f 154//108 159//108 157//108 150//108 
f 150//109 157//109 158//109 151//109 
f 161//2 163//2 164//2 162//2 
f 158//110 162//110 164//110 160//110 
f 159//62 163//62 161//62 157//62 
f 157//111 161//111 162//111 158//111 
f 153//64 165//64 166//64 154//64 
f 154//2 166//2 167//2 155//2 
f 155//65 167//65 168//65 156//65 
f 156//13 168//13 165//13 153//13 
f 165//50 169//50 170//50 166//50 
f 171//112 176//112 175//112 170//112 
f 167//68 171//68 172//68 168//68 
f 168//113 172//113 169//113 165//113 
f 176//69 180//69 179//69 175//69 
f 167//114 174//114 176//114 171//114 
f 170//115 175//115 173//115 166//115 
f 166//2 173//2 174//2 167//2 
f 177//2 179//2 180//2 178//2 
f 174//72 178//72 180//72 176//72 
f 175//116 179//116 177//116 173//116 
f 173//74 177//74 178//74 174//74 
