o Chair_3_Cube.005
o Chair_3_Cube.005
v 2.569258 0.000480 0.197973
v 1.955251 0.000480 0.197973
v 1.955251 0.000480 -0.613581
v 2.569258 0.000480 -0.613581
v 2.569258 0.050480 0.197973
v 1.955251 0.050480 0.197973
v 1.955251 0.050480 -0.578251
v 2.569258 0.050480 -0.578251
v 1.955251 0.050480 -0.518145
v 1.955251 0.000480 -0.518145
v 2.569258 0.050480 -0.518145
v 2.569258 0.000480 -0.518145
v 1.955251 0.769580 0.018437
v 2.569258 0.769580 0.018437
v 1.955251 0.769580 0.078543
v 2.569258 0.769580 0.078543
v 2.569258 0.732026 -0.005972
v 2.569258 0.732026 0.054133
v 1.955251 0.732026 -0.005972
v 1.955251 0.732026 0.054133
v 1.955251 0.774193 -0.652568
v 2.569258 0.774193 -0.652568
v 2.569258 0.736639 -0.684925
v 1.955251 0.736639 -0.684925
v 1.955251 1.450716 -0.718824
v 2.569258 1.450716 -0.718823
v 2.569258 1.443515 -0.751180
v 1.955251 1.443515 -0.751181
vn 0.000000 0.000000 1.000000
vn -1.000000 0.000004 0.000000
vn 0.000000 0.577077 -0.816690
vn 1.000000 0.000000 0.000000
vn 0.000000 -1.000000 0.000000
vn 0.000000 1.000000 0.000000
vn -1.000000 0.000000 0.000000
vn -0.000000 0.999976 0.006876
vn 0.000000 -0.544980 0.838449
vn 1.000000 -0.000004 0.000000
vn 0.000000 0.643047 -0.765827
vn -1.000000 -0.000001 0.000000
vn -0.000000 -0.643047 0.765827
vn -0.000000 0.097469 0.995239
vn 0.000000 -0.999977 -0.006795
vn 1.000000 0.000006 0.000000
vn 0.000000 0.976124 -0.217215
vn 1.000000 0.000000 0.000004
vn -1.000000 0.000000 -0.000002
vn 0.000000 -0.093321 -0.995636
usemtl Material.009
s off
f 5//1 6//1 2//1 1//1 
f 9//2 7//2 3//2 10//2 
f 7//3 8//3 4//3 3//3 
f 11//4 5//4 1//4 12//4 
f 12//5 10//5 3//5 4//5 
f 11//6 9//6 6//6 5//6 
f 6//7 9//7 10//7 2//7 
f 8//4 11//4 12//4 4//4 
f 1//5 2//5 10//5 12//5 
f 18//4 17//4 14//4 16//4 
f 14//6 13//6 15//6 16//6 
f 13//8 14//8 22//8 21//8 
f 19//7 20//7 15//7 13//7 
f 20//9 18//9 16//9 15//9 
f 11//10 8//10 17//10 18//10 
f 8//11 7//11 19//11 17//11 
f 7//12 9//12 20//12 19//12 
f 9//13 11//13 18//13 20//13 
f 21//14 22//14 26//14 25//14 
f 17//15 19//15 24//15 23//15 
f 19//12 13//12 21//12 24//12 
f 14//16 17//16 23//16 22//16 
f 27//17 28//17 25//17 26//17 
f 22//18 23//18 27//18 26//18 
f 24//19 21//19 25//19 28//19 
f 23//20 24//20 28//20 27//20 
