o ChairFrame.003_Cube.002
o ChairFrame.003_Cube.002
v 1.931358 1.284716 -1.770956
v 0.817652 1.284716 -1.351985
v 1.931358 1.403706 -1.770956
v 0.817652 1.403706 -1.351985
v 1.957268 0.743108 -1.791997
v 1.978312 0.743108 -1.736059
v 1.898125 0.743108 -1.705893
v 1.877082 0.743108 -1.761831
v 2.040015 2.688498 -1.816474
v 2.056675 2.688498 -1.772190
v 1.987481 2.690819 -1.746160
v 1.970822 2.690819 -1.790444
v 0.914529 1.283810 -1.391742
v 0.937154 1.283810 -1.331602
v 0.825783 1.283810 -1.289705
v 0.803159 1.283810 -1.349845
v 0.914529 1.402800 -1.391742
v 0.937154 1.402800 -1.331602
v 0.825783 1.402800 -1.289705
v 0.803159 1.402800 -1.349845
v 1.936483 1.402576 -1.784796
v 1.957934 1.402576 -1.727774
v 1.868837 1.402576 -1.694257
v 1.847386 1.402576 -1.751278
v 2.066341 -0.021672 -1.829456
v 2.085030 -0.021672 -1.779779
v 2.014465 -0.021672 -1.753233
v 1.995777 -0.021672 -1.802910
v 1.910414 0.488787 -1.772584
v 1.985789 0.488787 -1.800940
v 1.930280 0.488787 -1.719776
v 2.005655 0.488787 -1.748132
v 1.962208 0.991760 -1.729767
v 1.878662 0.991760 -1.698338
v 1.857465 0.991760 -1.754685
v 1.941011 0.991760 -1.786114
v 0.890105 -0.005050 -1.382554
v 0.912729 -0.005050 -1.322414
v 0.850208 -0.005050 -1.298894
v 0.827583 -0.005050 -1.359034
v 1.973813 0.812573 -1.734301
v 1.892688 0.812573 -1.703782
v 1.871601 0.812573 -1.759835
v 1.952726 0.812573 -1.790354
v 1.895229 0.750700 -1.711782
v 1.878785 0.750700 -1.755493
v 1.890980 0.804981 -1.710133
v 1.874502 0.804981 -1.753933
v 0.913309 0.753127 -1.331631
v 0.896865 0.753127 -1.375341
v 0.909060 0.807408 -1.329981
v 0.892583 0.807408 -1.373781
v 2.046654 2.675495 -1.826242
v 2.068105 2.675495 -1.769220
v 1.979009 2.679652 -1.735703
v 1.957558 2.679652 -1.792724
v 2.044331 2.681943 -1.822692
v 2.064019 2.681943 -1.770359
v 1.982248 2.685289 -1.739597
v 1.962561 2.685289 -1.791930
v 2.045199 2.658685 -1.825695
v 2.066650 2.658685 -1.768673
v 1.977554 2.662787 -1.735155
v 1.956103 2.662787 -1.792177
v 2.033904 2.528185 -1.821446
v 2.055356 2.528185 -1.764424
v 1.966259 2.531861 -1.730906
v 1.944808 2.531861 -1.787928
v 2.052416 2.648561 -1.763318
v 1.994024 2.652006 -1.741351
v 2.042927 2.538932 -1.759748
v 1.984535 2.542020 -1.737782
v 2.003966 2.182275 -1.810183
v 2.025417 2.182275 -1.753161
v 1.936320 2.184821 -1.719643
v 1.914869 2.184821 -1.776665
v 1.996746 2.098857 -1.807467
v 2.018197 2.098857 -1.750445
v 1.929101 2.101130 -1.716927
v 1.907649 2.101130 -1.773949
v 2.012071 2.171050 -1.748140
v 1.947666 2.172890 -1.723912
v 2.006852 2.110750 -1.746177
v 1.942447 2.112393 -1.721948
v 2.350328 1.284716 -0.657249
v 1.236622 1.284716 -0.238279
v 2.350328 1.403706 -0.657249
v 1.236622 1.403706 -0.238279
v 2.140843 1.403706 -1.214103
v 2.140843 1.284716 -1.214103
v 1.027137 1.403706 -0.795132
v 1.027137 1.284716 -0.795132
v 2.383683 0.743108 -0.658503
v 2.362639 0.743108 -0.714441
v 2.282452 0.743108 -0.684275
v 2.303496 0.743108 -0.628337
v 2.462046 2.688498 -0.694634
v 2.445386 2.688498 -0.738919
v 2.376193 2.690819 -0.712888
v 2.392852 2.690819 -0.668604
v 1.335683 1.283810 -0.272233
v 1.313058 1.283810 -0.332373
v 1.201688 1.283810 -0.290476
v 1.224312 1.283810 -0.230336
v 1.335683 1.402800 -0.272233
v 1.313058 1.402800 -0.332373
v 1.201688 1.402800 -0.290476
v 1.224312 1.402800 -0.230336
v 2.363305 1.402576 -0.650218
v 2.341853 1.402576 -0.707240
v 2.252757 1.402576 -0.673723
v 2.274208 1.402576 -0.616701
v 2.490400 -0.021672 -0.702223
v 2.471712 -0.021672 -0.751900
v 2.401148 -0.021672 -0.725355
v 2.419836 -0.021672 -0.675677
v 2.335650 0.488787 -0.642220
v 2.411026 0.488787 -0.670576
v 2.315784 0.488787 -0.695028
v 2.391160 0.488787 -0.723384
v 2.346381 0.991760 -0.708558
v 2.262835 0.991760 -0.677129
v 2.284033 0.991760 -0.620782
v 2.367579 0.991760 -0.652212
v 1.311258 -0.005050 -0.263045
v 1.288634 -0.005050 -0.323185
v 1.226112 -0.005050 -0.299664
v 1.248737 -0.005050 -0.239524
v 2.358097 0.812573 -0.712798
v 2.276972 0.812573 -0.682279
v 2.298059 0.812573 -0.626226
v 2.379184 0.812573 -0.656745
v 2.284156 0.750700 -0.677937
v 2.300599 0.750700 -0.634227
v 2.279873 0.804981 -0.676377
v 2.296350 0.804981 -0.632577
v 1.295145 0.753127 -0.316635
v 1.311588 0.753127 -0.272925
v 1.290862 0.807408 -0.315075
v 1.307339 0.807408 -0.271275
v 2.473476 2.675495 -0.691664
v 2.452025 2.675495 -0.748686
v 2.362928 2.679652 -0.715168
v 2.384380 2.679652 -0.658147
v 2.469389 2.681943 -0.692803
v 2.449702 2.681943 -0.745136
v 2.367932 2.685289 -0.714375
v 2.387619 2.685289 -0.662042
v 2.472021 2.658685 -0.691117
v 2.450570 2.658685 -0.748139
v 2.361474 2.662787 -0.714621
v 2.382925 2.662787 -0.657599
v 2.460726 2.528185 -0.686868
v 2.439275 2.528185 -0.743890
v 2.350179 2.531861 -0.710372
v 2.371630 2.531861 -0.653350
v 2.436335 2.648561 -0.742784
v 2.377943 2.652006 -0.720817
v 2.426847 2.538932 -0.739214
v 2.368455 2.542020 -0.717248
v 2.244375 2.648561 -1.253051
v 2.185984 2.652006 -1.231084
v 2.234887 2.538932 -1.249481
v 2.176495 2.542020 -1.227515
v 2.430788 2.182275 -0.675605
v 2.409336 2.182275 -0.732627
v 2.320240 2.184821 -0.699109
v 2.341691 2.184821 -0.642088
v 2.423568 2.098857 -0.672889
v 2.402116 2.098857 -0.729911
v 2.313020 2.101130 -0.696393
v 2.334471 2.101130 -0.639372
v 2.395990 2.171050 -0.727606
v 2.331585 2.172890 -0.703377
v 2.390771 2.110750 -0.725643
v 2.326366 2.112393 -0.701414
v 2.204030 2.171050 -1.237873
v 2.139626 2.172890 -1.213645
v 2.198811 2.110750 -1.235910
v 2.134407 2.112393 -1.211681
vn -0.935961 0.000000 0.352104
vn -0.352104 0.000000 -0.935961
vn 0.935961 0.000000 -0.352104
vn 0.000000 -1.000000 -0.000000
vn 0.000000 1.000000 0.000000
vn 0.933707 0.069358 -0.351255
vn 0.352103 -0.000878 0.935961
vn -0.932680 -0.083668 0.350868
vn -0.352103 -0.000878 -0.935961
vn -0.352101 -0.003276 -0.935956
vn 0.029364 0.999508 -0.011044
vn 0.352105 0.000000 0.935961
vn -0.935961 0.000000 0.352103
vn -0.352103 -0.000000 -0.935961
vn 0.000000 1.000000 0.000001
vn 0.931984 -0.092079 -0.350609
vn -0.932010 0.091782 0.350619
vn -0.352105 0.000000 -0.935961
vn -0.921566 -0.174710 0.346689
vn 0.352102 -0.003276 0.935956
vn 0.923121 0.165071 -0.347273
vn -0.352096 -0.006576 -0.935941
vn -0.927230 -0.136274 0.348819
vn 0.352097 -0.006575 0.935940
vn 0.929582 0.116546 -0.349705
vn 0.935900 0.011445 -0.352081
vn 0.352105 -0.000878 0.935960
vn -0.935648 -0.025873 0.351986
vn -0.935769 -0.020243 0.352031
vn 0.352103 0.000000 0.935961
vn 0.935769 -0.020243 -0.352032
vn 0.352102 -0.000878 0.935961
vn -0.932679 -0.083666 0.350869
vn -0.352104 -0.000877 -0.935960
vn 0.002158 0.999997 -0.000811
vn -0.932680 -0.083656 0.350869
vn -0.932681 -0.083667 0.350866
vn -0.932679 -0.083664 0.350872
vn -0.932679 -0.083669 0.350869
vn -0.002158 -0.999997 0.000812
vn -0.361042 -0.001682 -0.932548
vn 0.361039 -0.000075 0.932551
vn 0.826628 0.469022 -0.310975
vn 0.340065 0.381794 0.859412
vn -0.737606 0.615582 0.277482
vn -0.310694 0.381794 -0.870461
vn 0.678525 0.688800 -0.255261
vn 0.306129 0.578566 0.756007
vn -0.569691 0.793421 0.214323
vn -0.268078 0.578563 -0.770324
vn 0.931983 -0.092089 -0.350609
vn 0.352099 -0.000009 0.935963
vn -0.932010 0.091785 0.350618
vn -0.352105 -0.000005 -0.935960
vn 0.931984 -0.092078 -0.350610
vn 0.352098 0.000009 0.935963
vn -0.932010 0.091783 0.350619
vn -0.352105 0.000001 -0.935961
vn -0.046271 -0.998777 0.017408
vn 0.352104 0.000000 0.935961
vn 0.352109 -0.000001 0.935959
vn 0.352103 0.000014 0.935961
vn -0.932011 0.091781 0.350617
vn 0.931985 -0.092079 -0.350608
vn 0.051618 0.998478 -0.019418
vn 0.931985 -0.092079 -0.350607
vn -0.932011 0.091782 0.350617
vn 0.931984 -0.092082 -0.350608
vn 0.352107 -0.000004 0.935960
vn -0.022351 -0.999715 0.008409
vn 0.352097 0.000000 0.935964
vn 0.352109 0.000000 0.935959
vn 0.352103 0.000008 0.935961
vn -0.932011 0.091781 0.350616
vn 0.931985 -0.092077 -0.350607
vn 0.025023 0.999642 -0.009414
vn 0.935961 0.000000 -0.352103
vn 0.933707 0.069359 -0.351256
vn -0.352103 -0.000877 -0.935961
vn -0.932682 -0.083638 0.350870
vn 0.352102 -0.000877 0.935961
vn 0.029365 0.999508 -0.011045
vn 0.935962 0.000000 -0.352102
vn -0.935962 0.000000 0.352102
vn 0.931984 -0.092079 -0.350611
vn -0.932010 0.091782 0.350618
vn -0.921566 -0.174710 0.346688
vn 0.923122 0.165072 -0.347271
vn 0.352096 -0.006576 0.935941
vn -0.352095 -0.006575 -0.935941
vn 0.929583 0.116546 -0.349705
vn 0.935899 0.011446 -0.352083
vn -0.352104 -0.000878 -0.935960
vn -0.935647 -0.025873 0.351987
vn 0.935769 -0.020243 -0.352031
vn 0.933707 0.069358 -0.351257
vn -0.932679 -0.083668 0.350869
vn 0.002158 0.999997 -0.000812
vn -0.932679 -0.083672 0.350867
vn -0.932675 -0.083665 0.350880
vn -0.932678 -0.083663 0.350873
vn 0.343133 -0.001681 0.939285
vn -0.343137 -0.000074 -0.939285
vn 0.826642 0.468993 -0.310979
vn -0.310702 0.381797 -0.870457
vn -0.737608 0.615584 0.277471
vn 0.340067 0.381800 0.859409
vn 0.678517 0.688810 -0.255254
vn -0.268075 0.578571 -0.770319
vn -0.569698 0.793421 0.214308
vn 0.306127 0.578552 0.756018
vn 0.931983 -0.092091 -0.350609
vn -0.352104 -0.000006 -0.935961
vn 0.352103 -0.000001 0.935961
vn -0.352103 -0.000008 -0.935961
vn -0.932011 0.091784 0.350615
vn -0.046271 -0.998777 0.017406
vn -0.352102 0.000002 -0.935961
vn -0.352106 0.000001 -0.935960
vn -0.352102 -0.000006 -0.935962
vn -0.932010 0.091784 0.350617
vn 0.931984 -0.092083 -0.350607
vn 0.051618 0.998478 -0.019419
vn -0.932011 0.091782 0.350615
vn 0.931984 -0.092080 -0.350609
vn -0.352108 -0.000003 -0.935960
vn -0.932011 0.091781 0.350615
vn -0.022350 -0.999715 0.008407
vn -0.352102 0.000000 -0.935962
vn -0.352100 0.000001 -0.935962
vn -0.352104 -0.000004 -0.935961
vn -0.352103 -0.000001 -0.935961
vn 0.931985 -0.092083 -0.350607
vn 0.025023 0.999643 -0.009414
usemtl Material.004
s off
f 91//1 4//1 2//1 92//1 
f 4//2 3//2 1//2 2//2 
f 3//3 89//3 90//3 1//3 
f 1//4 90//4 92//4 2//4 
f 4//5 91//5 89//5 3//5 
f 44//6 41//6 6//6 5//6 
f 41//7 42//7 7//7 6//7 
f 42//8 43//8 48//8 47//8 
f 43//9 44//9 5//9 8//9 
f 29//10 30//10 25//10 28//10 
f 12//11 11//11 10//11 9//11 
f 17//3 18//3 14//3 13//3 
f 18//12 19//12 15//12 14//12 
f 19//13 20//13 16//13 15//13 
f 20//2 17//2 13//2 16//2 
f 16//14 13//14 37//14 40//14 
f 20//15 19//15 18//15 17//15 
f 77//16 78//16 22//16 21//16 
f 78//12 79//12 23//12 22//12 
f 79//17 80//17 24//17 23//17 
f 80//18 77//18 21//18 24//18 
f 25//4 26//4 27//4 28//4 
f 31//19 29//19 28//19 27//19 
f 32//20 31//20 27//20 26//20 
f 30//21 32//21 26//21 25//21 
f 8//22 5//22 30//22 29//22 
f 7//23 8//23 29//23 31//23 
f 6//24 7//24 31//24 32//24 
f 5//25 6//25 32//25 30//25 
f 21//26 22//26 33//26 36//26 
f 22//27 23//27 34//27 33//27 
f 23//28 24//28 35//28 34//28 
f 24//9 21//9 36//9 35//9 
f 37//4 38//4 39//4 40//4 
f 15//29 16//29 40//29 39//29 
f 14//30 15//30 39//30 38//30 
f 13//31 14//31 38//31 37//31 
f 36//6 33//6 41//6 44//6 
f 33//32 34//32 42//32 41//32 
f 34//33 35//33 43//33 42//33 
f 35//34 36//34 44//34 43//34 
f 47//35 48//35 52//35 51//35 
f 8//36 7//36 45//36 46//36 
f 43//37 8//37 46//37 48//37 
f 7//38 42//38 47//38 45//38 
f 51//39 52//39 50//39 49//39 
f 46//40 45//40 49//40 50//40 
f 48//41 46//41 50//41 52//41 
f 45//42 47//42 51//42 49//42 
f 57//43 58//43 54//43 53//43 
f 58//44 59//44 55//44 54//44 
f 59//45 60//45 56//45 55//45 
f 60//46 57//46 53//46 56//46 
f 9//47 10//47 58//47 57//47 
f 10//48 11//48 59//48 58//48 
f 11//49 12//49 60//49 59//49 
f 12//50 9//50 57//50 60//50 
f 53//51 54//51 62//51 61//51 
f 54//52 55//52 63//52 62//52 
f 55//53 56//53 64//53 63//53 
f 56//54 53//54 61//54 64//54 
f 61//55 62//55 66//55 65//55 
f 67//56 66//56 71//56 72//56 
f 63//57 64//57 68//57 67//57 
f 64//58 61//58 65//58 68//58 
f 72//59 71//59 163//59 164//59 
f 63//60 67//60 72//60 70//60 
f 66//61 62//61 69//61 71//61 
f 62//62 63//62 70//62 69//62 
f 70//63 72//63 164//63 162//63 
f 71//64 69//64 161//64 163//64 
f 69//65 70//65 162//65 161//65 
f 65//66 66//66 74//66 73//66 
f 66//60 67//60 75//60 74//60 
f 67//67 68//67 76//67 75//67 
f 68//2 65//2 73//2 76//2 
f 73//68 74//68 78//68 77//68 
f 79//69 78//69 83//69 84//69 
f 75//67 76//67 80//67 79//67 
f 76//18 73//18 77//18 80//18 
f 84//70 83//70 179//70 180//70 
f 75//71 79//71 84//71 82//71 
f 78//72 74//72 81//72 83//72 
f 74//73 75//73 82//73 81//73 
f 82//74 84//74 180//74 178//74 
f 83//75 81//75 177//75 179//75 
f 81//76 82//76 178//76 177//76 
f 91//1 92//1 86//1 88//1 
f 88//30 86//30 85//30 87//30 
f 87//77 85//77 90//77 89//77 
f 85//4 86//4 92//4 90//4 
f 88//5 87//5 89//5 91//5 
f 132//78 93//78 94//78 129//78 
f 129//79 94//79 95//79 130//79 
f 130//80 135//80 136//80 131//80 
f 131//81 96//81 93//81 132//81 
f 117//20 116//20 113//20 118//20 
f 100//82 97//82 98//82 99//82 
f 105//83 101//83 102//83 106//83 
f 106//14 102//14 103//14 107//14 
f 107//84 103//84 104//84 108//84 
f 108//60 104//60 101//60 105//60 
f 104//30 128//30 125//30 101//30 
f 108//5 105//5 106//5 107//5 
f 169//85 109//85 110//85 170//85 
f 170//14 110//14 111//14 171//14 
f 171//86 111//86 112//86 172//86 
f 172//30 112//30 109//30 169//30 
f 113//4 116//4 115//4 114//4 
f 119//87 115//87 116//87 117//87 
f 120//10 114//10 115//10 119//10 
f 118//88 113//88 114//88 120//88 
f 96//89 117//89 118//89 93//89 
f 95//23 119//23 117//23 96//23 
f 94//90 120//90 119//90 95//90 
f 93//91 118//91 120//91 94//91 
f 109//92 124//92 121//92 110//92 
f 110//93 121//93 122//93 111//93 
f 111//94 122//94 123//94 112//94 
f 112//7 123//7 124//7 109//7 
f 125//4 128//4 127//4 126//4 
f 103//29 127//29 128//29 104//29 
f 102//2 126//2 127//2 103//2 
f 101//95 125//95 126//95 102//95 
f 124//96 132//96 129//96 121//96 
f 121//34 129//34 130//34 122//34 
f 122//97 130//97 131//97 123//97 
f 123//7 131//7 132//7 124//7 
f 135//98 139//98 140//98 136//98 
f 96//99 134//99 133//99 95//99 
f 131//100 136//100 134//100 96//100 
f 95//101 133//101 135//101 130//101 
f 139//39 137//39 138//39 140//39 
f 134//40 138//40 137//40 133//40 
f 136//102 140//102 138//102 134//102 
f 133//103 137//103 139//103 135//103 
f 145//104 141//104 142//104 146//104 
f 146//105 142//105 143//105 147//105 
f 147//106 143//106 144//106 148//106 
f 148//107 144//107 141//107 145//107 
f 97//108 145//108 146//108 98//108 
f 98//109 146//109 147//109 99//109 
f 99//110 147//110 148//110 100//110 
f 100//111 148//111 145//111 97//111 
f 141//112 149//112 150//112 142//112 
f 142//113 150//113 151//113 143//113 
f 143//67 151//67 152//67 144//67 
f 144//114 152//114 149//114 141//114 
f 149//85 153//85 154//85 150//85 
f 155//115 160//115 159//115 154//115 
f 151//116 155//116 156//116 152//116 
f 152//30 156//30 153//30 149//30 
f 160//117 164//117 163//117 159//117 
f 151//118 158//118 160//118 155//118 
f 154//119 159//119 157//119 150//119 
f 150//120 157//120 158//120 151//120 
f 161//18 163//18 164//18 162//18 
f 158//121 162//121 164//121 160//121 
f 159//122 163//122 161//122 157//122 
f 157//123 161//123 162//123 158//123 
f 153//16 165//16 166//16 154//16 
f 154//2 166//2 167//2 155//2 
f 155//124 167//124 168//124 156//124 
f 156//30 168//30 165//30 153//30 
f 165//125 169//125 170//125 166//125 
f 171//126 176//126 175//126 170//126 
f 167//127 171//127 172//127 168//127 
f 168//60 172//60 169//60 165//60 
f 176//128 180//128 179//128 175//128 
f 167//129 174//129 176//129 171//129 
f 170//130 175//130 173//130 166//130 
f 166//131 173//131 174//131 167//131 
f 177//132 179//132 180//132 178//132 
f 174//86 178//86 180//86 176//86 
f 175//133 179//133 177//133 173//133 
f 173//134 177//134 178//134 174//134 
