o ChairTop.002_Cube.003
o ChairTop.002_Cube.003
v 1.779519 0.734445 0.343737
v 1.726508 0.734445 0.962381
v 1.779519 0.747339 0.343737
v 1.726508 0.747339 0.962381
v 1.194195 0.747339 0.293582
v 1.194195 0.734445 0.293582
v 1.141185 0.747339 0.912226
v 1.141185 0.734445 0.912226
v 1.096786 0.747339 0.878662
v 1.096786 0.734445 0.878662
v 1.729040 0.747339 0.932839
v 1.729040 0.734445 0.932839
v 1.143717 0.734445 0.882684
v 1.143717 0.747339 0.882684
v 1.144739 0.747339 0.319028
v 1.776994 0.734445 0.373205
v 1.144739 0.734445 0.319028
v 1.776994 0.747339 0.373205
v 1.191670 0.734445 0.323050
v 1.191670 0.747339 0.323050
vn 0.085375 0.000000 -0.996349
vn 0.996349 0.000000 0.085372
vn -0.996349 0.000000 -0.085376
vn 0.000000 -1.000000 0.000000
vn -0.085375 0.000000 0.996349
vn 0.000000 1.000000 -0.000001
vn 0.996349 0.000000 0.085375
vn 0.000000 1.000000 -0.000000
vn -0.996349 0.000000 -0.085375
vn 0.996349 0.000000 0.085376
usemtl Material.001
s off
f 5//1 3//1 1//1 6//1 
f 11//2 4//2 2//2 12//2 
f 19//3 20//3 5//3 6//3 
f 19//4 6//4 1//4 16//4 
f 4//5 7//5 8//5 2//5 
f 18//6 3//6 5//6 20//6 
f 19//1 17//1 15//1 20//1 
f 18//7 11//7 12//7 16//7 
f 8//4 13//4 12//4 2//4 
f 13//5 14//5 9//5 10//5 
f 7//3 14//3 13//3 8//3 
f 4//8 11//8 14//8 7//8 
f 9//9 15//9 17//9 10//9 
f 13//4 19//4 16//4 12//4 
f 14//8 20//8 15//8 9//8 
f 10//4 17//4 19//4 13//4 
f 11//8 18//8 20//8 14//8 
f 3//10 18//10 16//10 1//10 
