o ChairTop.004_Cube.003
o ChairTop.004_Cube.003
v 0.715774 1.397709 -1.475824
v -0.483301 1.397709 -1.448208
v 0.715774 1.422616 -1.475824
v -0.483301 1.422616 -1.448208
v 0.689645 1.422616 -2.610316
v 0.689645 1.397709 -2.610316
v -0.509431 1.422616 -2.582700
v -0.509431 1.397709 -2.582700
v -0.454267 1.422616 -2.674981
v -0.454267 1.397709 -2.674981
v -0.426042 1.422616 -1.449526
v -0.426042 1.397709 -1.449526
v -0.452172 1.397709 -2.584018
v -0.452172 1.422616 -2.584018
v 0.630434 1.422616 -2.699964
v 0.658658 1.397709 -1.474509
v 0.630434 1.397709 -2.699964
v 0.658658 1.422616 -1.474509
v 0.632529 1.397709 -2.609001
v 0.632529 1.422616 -2.609001
vn 0.999735 0.000000 -0.023026
vn 0.023025 0.000000 0.999735
vn -0.023027 0.000000 -0.999735
vn 0.000000 -1.000000 0.000000
vn -0.999735 0.000000 0.023026
vn 0.000000 1.000000 0.000000
vn 0.023026 0.000000 0.999735
vn -0.023022 0.000000 -0.999735
vn -0.023026 0.000000 -0.999735
vn 0.023022 0.000000 0.999735
usemtl Material.005
s off
f 5//1 3//1 1//1 6//1 
f 11//2 4//2 2//2 12//2 
f 19//3 20//3 5//3 6//3 
f 19//4 6//4 1//4 16//4 
f 4//5 7//5 8//5 2//5 
f 18//6 3//6 5//6 20//6 
f 19//1 17//1 15//1 20//1 
f 18//7 11//7 12//7 16//7 
f 8//4 13//4 12//4 2//4 
f 13//5 14//5 9//5 10//5 
f 7//8 14//8 13//8 8//8 
f 4//6 11//6 14//6 7//6 
f 9//9 15//9 17//9 10//9 
f 13//4 19//4 16//4 12//4 
f 14//6 20//6 15//6 9//6 
f 10//4 17//4 19//4 13//4 
f 11//6 18//6 20//6 14//6 
f 3//10 18//10 16//10 1//10 
