o ChairFrame.001_Cube.002
o ChairFrame.001_Cube.002
v -2.074840 1.284716 1.740481
v -0.916965 1.284716 1.466246
v -2.074840 1.403706 1.740481
v -0.916965 1.403706 1.466246
v -2.103211 0.743108 1.758063
v -2.116985 0.743108 1.699907
v -2.033618 0.743108 1.680162
v -2.019844 0.743108 1.738319
v -2.188395 2.688498 1.771841
v -2.199300 2.688498 1.725800
v -2.127362 2.690819 1.708762
v -2.116457 2.690819 1.754803
v -1.018105 1.283810 1.493387
v -1.032913 1.283810 1.430861
v -0.917126 1.283810 1.403438
v -0.902317 1.283810 1.465963
v -1.018105 1.402800 1.493387
v -1.032913 1.402800 1.430861
v -0.917126 1.402800 1.403438
v -0.902317 1.402800 1.465963
v -2.081679 1.402576 1.753559
v -2.095720 1.402576 1.694275
v -2.003090 1.402576 1.672337
v -1.989049 1.402576 1.731620
v -2.216156 -0.021672 1.781376
v -2.228388 -0.021672 1.729729
v -2.155025 -0.021672 1.712353
v -2.142793 -0.021672 1.764001
v -2.054271 0.488787 1.744754
v -2.132636 0.488787 1.763314
v -2.067274 0.488787 1.689852
v -2.145639 0.488787 1.708412
v -2.100213 0.991760 1.695710
v -2.013353 0.991760 1.675138
v -1.999478 0.991760 1.733719
v -2.086338 0.991760 1.754292
v -0.992712 -0.005050 1.487372
v -1.007520 -0.005050 1.424847
v -0.942519 -0.005050 1.409452
v -0.927710 -0.005050 1.471977
v -2.112299 0.812573 1.698734
v -2.027956 0.812573 1.678758
v -2.014154 0.812573 1.737034
v -2.098497 0.812573 1.757010
v -2.031492 0.750700 1.686371
v -2.020729 0.750700 1.731815
v -2.027068 0.804981 1.685274
v -2.016283 0.804981 1.730811
v -1.009265 0.753127 1.433916
v -0.998502 0.753127 1.479360
v -1.004841 0.807408 1.432819
v -0.994056 0.807408 1.478356
v -2.196220 2.675495 1.780687
v -2.210260 2.675495 1.721404
v -2.117630 2.679652 1.699465
v -2.103590 2.679652 1.758748
v -2.193465 2.681943 1.777460
v -2.206352 2.681943 1.723052
v -2.121338 2.685289 1.702917
v -2.108452 2.685289 1.757325
v -2.194707 2.658685 1.780329
v -2.208748 2.658685 1.721045
v -2.116118 2.662787 1.699107
v -2.102077 2.662787 1.758390
v -2.182964 2.528185 1.777547
v -2.197005 2.528185 1.718264
v -2.104375 2.531861 1.696325
v -2.090334 2.531861 1.755609
v -2.193949 2.648561 1.717540
v -2.133241 2.652006 1.703162
v -2.184084 2.538932 1.715204
v -2.123376 2.542020 1.700826
v -2.151838 2.182275 1.770175
v -2.165879 2.182275 1.710892
v -2.073249 2.184821 1.688953
v -2.059208 2.184821 1.748237
v -2.144332 2.098857 1.768398
v -2.158373 2.098857 1.709114
v -2.065743 2.101130 1.687176
v -2.051702 2.101130 1.746459
v -2.152004 2.171050 1.707606
v -2.085045 2.172890 1.691747
v -2.146578 2.110750 1.706321
v -2.079619 2.112393 1.690462
v -2.349074 1.284716 0.582606
v -1.191199 1.284716 0.308372
v -2.349074 1.403706 0.582606
v -1.191199 1.403706 0.308372
v -2.211957 1.403706 1.161543
v -2.211957 1.284716 1.161543
v -1.054082 1.403706 0.887309
v -1.054082 1.284716 0.887309
v -2.382317 0.743108 0.579616
v -2.368543 0.743108 0.637773
v -2.285176 0.743108 0.618028
v -2.298950 0.743108 0.559871
v -2.464632 2.688498 0.605510
v -2.453728 2.688498 0.651550
v -2.381790 2.690819 0.634512
v -2.392694 2.690819 0.588472
v -1.293768 1.283810 0.329479
v -1.278959 1.283810 0.392004
v -1.163172 1.283810 0.364580
v -1.177980 1.283810 0.302055
v -1.293768 1.402800 0.329479
v -1.278959 1.402800 0.392004
v -1.163172 1.402800 0.364580
v -1.177980 1.402800 0.302055
v -2.361053 1.402576 0.573985
v -2.347012 1.402576 0.633268
v -2.254382 1.402576 0.611329
v -2.268422 1.402576 0.552046
v -2.493721 -0.021672 0.609438
v -2.481488 -0.021672 0.661086
v -2.408125 -0.021672 0.643711
v -2.420358 -0.021672 0.592063
v -2.332607 0.488787 0.569561
v -2.410972 0.488787 0.588121
v -2.319603 0.488787 0.624463
v -2.397968 0.488787 0.643024
v -2.351671 0.991760 0.634001
v -2.264811 0.991760 0.613429
v -2.278686 0.991760 0.554847
v -2.365545 0.991760 0.575420
v -1.268375 -0.005050 0.323464
v -1.253566 -0.005050 0.385990
v -1.188565 -0.005050 0.370595
v -1.203374 -0.005050 0.308069
v -2.363830 0.812573 0.636719
v -2.279487 0.812573 0.616743
v -2.293289 0.812573 0.558468
v -2.377632 0.812573 0.578444
v -2.286062 0.750700 0.611525
v -2.296824 0.750700 0.566081
v -2.281616 0.804981 0.610521
v -2.292401 0.804981 0.564984
v -1.259193 0.753127 0.378667
v -1.269956 0.753127 0.333223
v -1.254747 0.807408 0.377663
v -1.265532 0.807408 0.332126
v -2.475593 2.675495 0.601113
v -2.461552 2.675495 0.660396
v -2.368922 2.679652 0.638458
v -2.382963 2.679652 0.579174
v -2.471684 2.681943 0.602761
v -2.458798 2.681943 0.657170
v -2.373785 2.685289 0.637035
v -2.386671 2.685289 0.582627
v -2.474081 2.658685 0.600755
v -2.460040 2.658685 0.660038
v -2.367410 2.662787 0.638099
v -2.381451 2.662787 0.578816
v -2.462338 2.528185 0.597974
v -2.448297 2.528185 0.657257
v -2.355667 2.531861 0.635318
v -2.369708 2.531861 0.576035
v -2.445240 2.648561 0.656533
v -2.384533 2.652006 0.642155
v -2.435376 2.538932 0.654197
v -2.374668 2.542020 0.639818
v -2.319595 2.648561 1.187037
v -2.258887 2.652006 1.172658
v -2.309730 2.538932 1.184700
v -2.249022 2.542020 1.170322
v -2.431212 2.182275 0.590602
v -2.417171 2.182275 0.649885
v -2.324541 2.184821 0.627946
v -2.338582 2.184821 0.568663
v -2.423706 2.098857 0.588824
v -2.409665 2.098857 0.648107
v -2.317035 2.101130 0.626168
v -2.331076 2.101130 0.566885
v -2.403296 2.171050 0.646599
v -2.336337 2.172890 0.630740
v -2.397870 2.110750 0.645313
v -2.330911 2.112393 0.629455
v -2.277649 2.171050 1.177102
v -2.210690 2.172890 1.161243
v -2.272223 2.110750 1.175817
v -2.205265 2.112393 1.159958
vn 0.973080 0.000000 -0.230467
vn 0.230467 0.000000 0.973080
vn -0.973080 0.000000 0.230467
vn 0.000000 -1.000000 -0.000000
vn 0.000000 1.000000 0.000000
vn -0.970737 0.069358 0.229910
vn -0.230466 -0.000877 -0.973080
vn 0.969668 -0.083668 -0.229658
vn 0.230466 -0.000876 0.973080
vn 0.230465 -0.003276 0.973075
vn -0.030529 0.999508 0.007232
vn -0.973080 0.000000 0.230466
vn -0.230467 0.000000 -0.973080
vn 0.973080 0.000000 -0.230468
vn -0.968946 -0.092079 0.229488
vn 0.968973 0.091782 -0.229495
vn 0.230469 0.000000 0.973080
vn 0.958113 -0.174709 -0.226926
vn -0.230466 -0.003276 -0.973075
vn -0.959731 0.165072 0.227304
vn 0.230462 -0.006576 0.973059
vn 0.964002 -0.136274 -0.228319
vn -0.230463 -0.006575 -0.973059
vn -0.966449 0.116544 0.228895
vn -0.973016 0.011446 0.230454
vn -0.230467 -0.000878 -0.973080
vn 0.972754 -0.025873 -0.230390
vn 0.230467 -0.000878 0.973080
vn 0.972881 -0.020243 -0.230420
vn -0.230466 0.000000 -0.973080
vn -0.972881 -0.020243 0.230419
vn -0.970737 0.069360 0.229912
vn -0.230464 -0.000878 -0.973080
vn 0.969669 -0.083666 -0.229658
vn 0.230466 -0.000878 0.973080
vn -0.002243 0.999997 0.000532
vn 0.969669 -0.083656 -0.229660
vn 0.969667 -0.083662 -0.229668
vn 0.969670 -0.083671 -0.229650
vn 0.969668 -0.083666 -0.229661
vn 0.002243 -0.999997 -0.000532
vn 0.239766 -0.001681 0.970829
vn -0.239763 -0.000072 -0.970832
vn -0.859411 0.469023 0.203547
vn -0.228248 0.381784 -0.895625
vn 0.766834 0.615617 -0.181610
vn 0.197706 0.381798 0.902853
vn -0.705442 0.688792 0.167082
vn -0.207705 0.578576 -0.788739
vn 0.592292 0.793417 -0.140284
vn 0.168144 0.578578 0.798107
vn -0.968947 -0.092074 0.229486
vn -0.230466 0.000002 -0.973080
vn 0.968973 0.091778 -0.229494
vn 0.230465 -0.000002 0.973081
vn -0.968946 -0.092077 0.229489
vn -0.230469 -0.000007 -0.973080
vn 0.968973 0.091780 -0.229495
vn 0.048106 -0.998777 -0.011394
vn -0.230465 -0.000000 -0.973081
vn -0.230466 -0.000007 -0.973080
vn 0.968973 0.091780 -0.229494
vn -0.968946 -0.092081 0.229488
vn -0.053665 0.998478 0.012710
vn -0.968946 -0.092079 0.229487
vn 0.968972 0.091782 -0.229496
vn 0.230468 0.000000 0.973080
vn -0.968946 -0.092085 0.229489
vn -0.230469 0.000004 -0.973080
vn 0.968973 0.091783 -0.229495
vn 0.230466 -0.000000 0.973080
vn 0.023237 -0.999715 -0.005504
vn -0.230464 0.000000 -0.973081
vn -0.230469 0.000001 -0.973080
vn 0.968973 0.091782 -0.229494
vn -0.026016 0.999642 0.006162
vn -0.970737 0.069357 0.229912
vn 0.230467 -0.000877 0.973080
vn 0.969669 -0.083663 -0.229658
vn -0.230467 -0.000876 -0.973080
vn -0.230465 -0.003276 -0.973075
vn -0.030529 0.999508 0.007230
vn -0.973081 0.000000 0.230466
vn 0.000000 1.000000 0.000002
vn 0.968973 0.091781 -0.229493
vn -0.230468 0.000000 -0.973080
vn 0.958115 -0.174708 -0.226921
vn 0.230466 -0.003276 0.973075
vn -0.959731 0.165072 0.227306
vn -0.230462 -0.006576 -0.973059
vn 0.964003 -0.136275 -0.228316
vn -0.966448 0.116546 0.228899
vn -0.973016 0.011446 0.230453
vn 0.972755 -0.025872 -0.230388
vn -0.970737 0.069359 0.229911
vn 0.230468 -0.000877 0.973080
vn 0.969669 -0.083667 -0.229658
vn 0.969668 -0.083672 -0.229657
vn 0.969671 -0.083666 -0.229648
vn 0.969667 -0.083663 -0.229664
vn 0.002243 -0.999997 -0.000531
vn -0.221146 -0.001681 -0.975239
vn 0.221151 -0.000074 0.975240
vn -0.859437 0.468969 0.203558
vn 0.197708 0.381784 0.902858
vn 0.766859 0.615581 -0.181627
vn -0.228249 0.381800 -0.895618
vn -0.705423 0.688815 0.167071
vn 0.168146 0.578585 0.798102
vn 0.592282 0.793425 -0.140281
vn -0.207703 0.578571 -0.788743
vn -0.968947 -0.092069 0.229486
vn 0.230467 -0.000003 0.973080
vn 0.968974 0.091767 -0.229495
vn -0.230465 0.000002 -0.973081
vn -0.968946 -0.092079 0.229489
vn 0.230466 -0.000003 0.973080
vn 0.968973 0.091781 -0.229495
vn 0.048106 -0.998777 -0.011393
vn 0.230468 0.000007 0.973080
vn 0.968973 0.091784 -0.229494
vn -0.968947 -0.092079 0.229486
vn -0.968946 -0.092082 0.229487
vn 0.230471 -0.000001 0.973079
vn 0.968973 0.091786 -0.229493
vn 0.023237 -0.999715 -0.005503
vn 0.230468 0.000001 0.973080
vn 0.230471 0.000000 0.973079
vn 0.230467 -0.000001 0.973080
vn 0.968973 0.091779 -0.229494
vn -0.968946 -0.092075 0.229488
vn -0.026016 0.999643 0.006162
usemtl Material.004
s off
f 91//1 4//1 2//1 92//1 
f 4//2 3//2 1//2 2//2 
f 3//3 89//3 90//3 1//3 
f 1//4 90//4 92//4 2//4 
f 4//5 91//5 89//5 3//5 
f 44//6 41//6 6//6 5//6 
f 41//7 42//7 7//7 6//7 
f 42//8 43//8 48//8 47//8 
f 43//9 44//9 5//9 8//9 
f 29//10 30//10 25//10 28//10 
f 12//11 11//11 10//11 9//11 
f 17//12 18//12 14//12 13//12 
f 18//13 19//13 15//13 14//13 
f 19//14 20//14 16//14 15//14 
f 20//2 17//2 13//2 16//2 
f 16//2 13//2 37//2 40//2 
f 20//5 19//5 18//5 17//5 
f 77//15 78//15 22//15 21//15 
f 78//13 79//13 23//13 22//13 
f 79//16 80//16 24//16 23//16 
f 80//17 77//17 21//17 24//17 
f 25//4 26//4 27//4 28//4 
f 31//18 29//18 28//18 27//18 
f 32//19 31//19 27//19 26//19 
f 30//20 32//20 26//20 25//20 
f 8//21 5//21 30//21 29//21 
f 7//22 8//22 29//22 31//22 
f 6//23 7//23 31//23 32//23 
f 5//24 6//24 32//24 30//24 
f 21//25 22//25 33//25 36//25 
f 22//26 23//26 34//26 33//26 
f 23//27 24//27 35//27 34//27 
f 24//28 21//28 36//28 35//28 
f 37//4 38//4 39//4 40//4 
f 15//29 16//29 40//29 39//29 
f 14//30 15//30 39//30 38//30 
f 13//31 14//31 38//31 37//31 
f 36//32 33//32 41//32 44//32 
f 33//33 34//33 42//33 41//33 
f 34//34 35//34 43//34 42//34 
f 35//35 36//35 44//35 43//35 
f 47//36 48//36 52//36 51//36 
f 8//37 7//37 45//37 46//37 
f 43//38 8//38 46//38 48//38 
f 7//39 42//39 47//39 45//39 
f 51//40 52//40 50//40 49//40 
f 46//41 45//41 49//41 50//41 
f 48//42 46//42 50//42 52//42 
f 45//43 47//43 51//43 49//43 
f 57//44 58//44 54//44 53//44 
f 58//45 59//45 55//45 54//45 
f 59//46 60//46 56//46 55//46 
f 60//47 57//47 53//47 56//47 
f 9//48 10//48 58//48 57//48 
f 10//49 11//49 59//49 58//49 
f 11//50 12//50 60//50 59//50 
f 12//51 9//51 57//51 60//51 
f 53//52 54//52 62//52 61//52 
f 54//53 55//53 63//53 62//53 
f 55//54 56//54 64//54 63//54 
f 56//55 53//55 61//55 64//55 
f 61//56 62//56 66//56 65//56 
f 67//57 66//57 71//57 72//57 
f 63//58 64//58 68//58 67//58 
f 64//17 61//17 65//17 68//17 
f 72//59 71//59 163//59 164//59 
f 63//60 67//60 72//60 70//60 
f 66//13 62//13 69//13 71//13 
f 62//61 63//61 70//61 69//61 
f 70//62 72//62 164//62 162//62 
f 71//63 69//63 161//63 163//63 
f 69//64 70//64 162//64 161//64 
f 65//65 66//65 74//65 73//65 
f 66//13 67//13 75//13 74//13 
f 67//66 68//66 76//66 75//66 
f 68//67 65//67 73//67 76//67 
f 73//68 74//68 78//68 77//68 
f 79//69 78//69 83//69 84//69 
f 75//70 76//70 80//70 79//70 
f 76//71 73//71 77//71 80//71 
f 84//72 83//72 179//72 180//72 
f 75//73 79//73 84//73 82//73 
f 78//74 74//74 81//74 83//74 
f 74//30 75//30 82//30 81//30 
f 82//75 84//75 180//75 178//75 
f 83//15 81//15 177//15 179//15 
f 81//76 82//76 178//76 177//76 
f 91//1 92//1 86//1 88//1 
f 88//13 86//13 85//13 87//13 
f 87//3 85//3 90//3 89//3 
f 85//4 86//4 92//4 90//4 
f 88//5 87//5 89//5 91//5 
f 132//77 93//77 94//77 129//77 
f 129//78 94//78 95//78 130//78 
f 130//79 135//79 136//79 131//79 
f 131//80 96//80 93//80 132//80 
f 117//81 116//81 113//81 118//81 
f 100//82 97//82 98//82 99//82 
f 105//83 101//83 102//83 106//83 
f 106//71 102//71 103//71 107//71 
f 107//1 103//1 104//1 108//1 
f 108//13 104//13 101//13 105//13 
f 104//13 128//13 125//13 101//13 
f 108//84 105//84 106//84 107//84 
f 169//15 109//15 110//15 170//15 
f 170//2 110//2 111//2 171//2 
f 171//85 111//85 112//85 172//85 
f 172//86 112//86 109//86 169//86 
f 113//4 116//4 115//4 114//4 
f 119//87 115//87 116//87 117//87 
f 120//88 114//88 115//88 119//88 
f 118//89 113//89 114//89 120//89 
f 96//90 117//90 118//90 93//90 
f 95//91 119//91 117//91 96//91 
f 94//21 120//21 119//21 95//21 
f 93//92 118//92 120//92 94//92 
f 109//93 124//93 121//93 110//93 
f 110//28 121//28 122//28 111//28 
f 111//94 122//94 123//94 112//94 
f 112//26 123//26 124//26 109//26 
f 125//4 128//4 127//4 126//4 
f 103//29 127//29 128//29 104//29 
f 102//2 126//2 127//2 103//2 
f 101//31 125//31 126//31 102//31 
f 124//95 132//95 129//95 121//95 
f 121//96 129//96 130//96 122//96 
f 122//97 130//97 131//97 123//97 
f 123//26 131//26 132//26 124//26 
f 135//36 139//36 140//36 136//36 
f 96//98 134//98 133//98 95//98 
f 131//99 136//99 134//99 96//99 
f 95//100 133//100 135//100 130//100 
f 139//34 137//34 138//34 140//34 
f 134//101 138//101 137//101 133//101 
f 136//102 140//102 138//102 134//102 
f 133//103 137//103 139//103 135//103 
f 145//104 141//104 142//104 146//104 
f 146//105 142//105 143//105 147//105 
f 147//106 143//106 144//106 148//106 
f 148//107 144//107 141//107 145//107 
f 97//108 145//108 146//108 98//108 
f 98//109 146//109 147//109 99//109 
f 99//110 147//110 148//110 100//110 
f 100//111 148//111 145//111 97//111 
f 141//112 149//112 150//112 142//112 
f 142//113 150//113 151//113 143//113 
f 143//114 151//114 152//114 144//114 
f 144//115 152//115 149//115 141//115 
f 149//116 153//116 154//116 150//116 
f 155//117 160//117 159//117 154//117 
f 151//118 155//118 156//118 152//118 
f 152//13 156//13 153//13 149//13 
f 160//119 164//119 163//119 159//119 
f 151//67 158//67 160//67 155//67 
f 154//17 159//17 157//17 150//17 
f 150//120 157//120 158//120 151//120 
f 161//71 163//71 164//71 162//71 
f 158//121 162//121 164//121 160//121 
f 159//63 163//63 161//63 157//63 
f 157//64 161//64 162//64 158//64 
f 153//122 165//122 166//122 154//122 
f 154//2 166//2 167//2 155//2 
f 155//75 167//75 168//75 156//75 
f 156//13 168//13 165//13 153//13 
f 165//123 169//123 170//123 166//123 
f 171//124 176//124 175//124 170//124 
f 167//125 171//125 172//125 168//125 
f 168//86 172//86 169//86 165//86 
f 176//126 180//126 179//126 175//126 
f 167//127 174//127 176//127 171//127 
f 170//128 175//128 173//128 166//128 
f 166//113 173//113 174//113 167//113 
f 177//129 179//129 180//129 178//129 
f 174//130 178//130 180//130 176//130 
f 175//131 179//131 177//131 173//131 
f 173//132 177//132 178//132 174//132 
