o ChairTop.003_Cube.003
o ChairTop.003_Cube.003
v 2.930474 0.734445 -0.256292
v 2.313412 0.734445 -0.187253
v 2.930474 0.747339 -0.256292
v 2.313412 0.747339 -0.187253
v 2.865154 0.747339 -0.840117
v 2.865154 0.734445 -0.840117
v 2.248092 0.747339 -0.771079
v 2.248092 0.734445 -0.771079
v 2.272321 0.747339 -0.821186
v 2.272321 0.734445 -0.821186
v 2.342879 0.747339 -0.190550
v 2.342879 0.734445 -0.190550
v 2.277559 0.734445 -0.774375
v 2.277559 0.747339 -0.774375
v 2.830523 0.747339 -0.883639
v 2.901081 0.734445 -0.253003
v 2.830523 0.734445 -0.883639
v 2.901081 0.747339 -0.253003
v 2.835761 0.734445 -0.836829
v 2.835761 0.747339 -0.836829
vn 0.993799 0.000000 -0.111189
vn 0.111188 0.000000 0.993799
vn -0.111188 0.000000 -0.993799
vn 0.000000 -1.000000 0.000000
vn -0.993799 0.000000 0.111189
vn 0.000000 1.000000 0.000000
vn 0.111189 0.000000 0.993799
vn -0.111189 0.000000 -0.993799
usemtl Material.001
s off
f 5//1 3//1 1//1 6//1 
f 11//2 4//2 2//2 12//2 
f 19//3 20//3 5//3 6//3 
f 19//4 6//4 1//4 16//4 
f 4//5 7//5 8//5 2//5 
f 18//6 3//6 5//6 20//6 
f 19//1 17//1 15//1 20//1 
f 18//7 11//7 12//7 16//7 
f 8//4 13//4 12//4 2//4 
f 13//5 14//5 9//5 10//5 
f 7//3 14//3 13//3 8//3 
f 4//6 11//6 14//6 7//6 
f 9//8 15//8 17//8 10//8 
f 13//4 19//4 16//4 12//4 
f 14//6 20//6 15//6 9//6 
f 10//4 17//4 19//4 13//4 
f 11//6 18//6 20//6 14//6 
f 3//2 18//2 16//2 1//2 
