o Chair_2_Cube.005
o Chair_2_Cube.005
v 3.121137 0.000480 0.807003
v 3.346938 0.000480 0.236022
v 4.101622 0.000480 0.534470
v 3.875821 0.000480 1.105451
v 3.121137 0.050480 0.807003
v 3.346938 0.050480 0.236022
v 4.068768 0.050480 0.521478
v 3.842967 0.050480 1.092458
v 4.012874 0.050480 0.499374
v 4.012874 0.000480 0.499374
v 3.787073 0.050480 1.070354
v 3.787073 0.000480 1.070354
v 3.513893 0.769580 0.302046
v 3.288092 0.769580 0.873027
v 3.457999 0.769580 0.279942
v 3.232198 0.769580 0.850923
v 3.310791 0.732026 0.882003
v 3.254897 0.732026 0.859899
v 3.536592 0.732026 0.311023
v 3.480698 0.732026 0.288919
v 4.137877 0.774193 0.548808
v 3.912076 0.774193 1.119788
v 3.942166 0.736639 1.131688
v 4.167966 0.736639 0.560707
v 4.199490 1.450716 0.573173
v 3.973689 1.450716 1.144154
v 4.003778 1.443515 1.156053
v 4.229579 1.443515 0.585072
vn -0.929925 0.000000 -0.367749
vn 0.367749 0.000004 -0.929925
vn 0.759458 0.577080 0.300337
vn -0.367749 0.000000 0.929925
vn 0.000000 -1.000000 0.000000
vn 0.000000 1.000000 0.000000
vn 0.367749 0.000000 -0.929925
vn -0.367750 0.000000 0.929925
vn -0.006394 0.999976 -0.002529
vn -0.779696 -0.544978 -0.308340
vn -0.367749 -0.000001 0.929925
vn 0.712161 0.643047 0.281632
vn 0.367749 -0.000001 -0.929925
vn -0.712161 -0.643047 -0.281632
vn -0.925497 0.097469 -0.365998
vn 0.006319 -0.999977 0.002499
vn 0.367749 0.000001 -0.929925
vn -0.367749 0.000001 0.929925
vn 0.201994 0.976124 0.079880
vn 0.367748 0.000000 -0.929925
vn 0.925867 -0.093322 0.366144
usemtl Material.009
s off
f 5//1 6//1 2//1 1//1 
f 9//2 7//2 3//2 10//2 
f 7//3 8//3 4//3 3//3 
f 11//4 5//4 1//4 12//4 
f 12//5 10//5 3//5 4//5 
f 11//6 9//6 6//6 5//6 
f 6//7 9//7 10//7 2//7 
f 8//8 11//8 12//8 4//8 
f 1//5 2//5 10//5 12//5 
f 18//4 17//4 14//4 16//4 
f 14//6 13//6 15//6 16//6 
f 13//9 14//9 22//9 21//9 
f 19//7 20//7 15//7 13//7 
f 20//10 18//10 16//10 15//10 
f 11//11 8//11 17//11 18//11 
f 8//12 7//12 19//12 17//12 
f 7//13 9//13 20//13 19//13 
f 9//14 11//14 18//14 20//14 
f 21//15 22//15 26//15 25//15 
f 17//16 19//16 24//16 23//16 
f 19//17 13//17 21//17 24//17 
f 14//18 17//18 23//18 22//18 
f 27//19 28//19 25//19 26//19 
f 22//8 23//8 27//8 26//8 
f 24//20 21//20 25//20 28//20 
f 23//21 24//21 28//21 27//21 
