o ChairTop.001_Cube.003
o ChairTop.001_Cube.003
v 2.222206 0.734445 1.444053
v 2.831658 0.734445 1.562795
v 2.222206 0.747339 1.444053
v 2.831658 0.747339 1.562795
v 2.109860 0.747339 2.020679
v 2.109860 0.734445 2.020679
v 2.719312 0.747339 2.139420
v 2.719312 0.734445 2.139420
v 2.681201 0.747339 2.179984
v 2.681201 0.734445 2.179984
v 2.802555 0.747339 1.557124
v 2.802555 0.734445 1.557124
v 2.690209 0.734445 2.133750
v 2.690209 0.747339 2.133750
v 2.129883 0.747339 2.072568
v 2.251236 0.734445 1.449709
v 2.129883 0.734445 2.072568
v 2.251236 0.747339 1.449709
v 2.138890 0.734445 2.026335
v 2.138890 0.747339 2.026335
vn -0.981544 0.000000 -0.191237
vn 0.191233 0.000000 -0.981545
vn -0.191245 0.000000 0.981542
vn 0.000000 -1.000000 -0.000000
vn 0.981544 0.000000 0.191237
vn 0.000000 1.000000 0.000000
vn -0.981544 0.000000 -0.191236
vn 0.191238 0.000000 -0.981544
vn 0.981544 0.000000 0.191234
vn -0.191243 0.000000 0.981543
vn -0.191238 0.000000 0.981544
vn 0.191234 0.000000 -0.981544
usemtl Material.001
s off
f 5//1 3//1 1//1 6//1 
f 11//2 4//2 2//2 12//2 
f 19//3 20//3 5//3 6//3 
f 19//4 6//4 1//4 16//4 
f 4//5 7//5 8//5 2//5 
f 18//6 3//6 5//6 20//6 
f 19//7 17//7 15//7 20//7 
f 18//8 11//8 12//8 16//8 
f 8//4 13//4 12//4 2//4 
f 13//9 14//9 9//9 10//9 
f 7//10 14//10 13//10 8//10 
f 4//6 11//6 14//6 7//6 
f 9//11 15//11 17//11 10//11 
f 13//4 19//4 16//4 12//4 
f 14//6 20//6 15//6 9//6 
f 10//4 17//4 19//4 13//4 
f 11//6 18//6 20//6 14//6 
f 3//12 18//12 16//12 1//12 
