o ChairTop.005_Cube.003
o ChairTop.005_Cube.003
v -0.533970 1.397709 1.938061
v 0.663307 1.397709 1.866834
v -0.533970 1.422616 1.938061
v 0.663307 1.422616 1.866834
v -0.466580 1.422616 3.070850
v -0.466580 1.397709 3.070850
v 0.730697 1.422616 2.999624
v 0.730697 1.397709 2.999624
v 0.678927 1.422616 3.093851
v 0.678927 1.397709 3.093851
v 0.606133 1.422616 1.870235
v 0.606133 1.397709 1.870235
v 0.673524 1.397709 3.003025
v 0.673524 1.422616 3.003025
v -0.404146 1.422616 3.158284
v -0.476940 1.397709 1.934668
v -0.404146 1.397709 3.158284
v -0.476940 1.422616 1.934668
v -0.409549 1.397709 3.067457
v -0.409549 1.422616 3.067457
vn -0.998235 0.000000 0.059386
vn -0.059385 0.000000 -0.998235
vn 0.059385 0.000000 0.998235
vn 0.000000 -1.000000 0.000000
vn 0.998235 0.000000 -0.059386
vn 0.000000 1.000000 -0.000000
vn -0.059386 0.000000 -0.998235
vn 0.059383 0.000000 0.998235
vn 0.059386 0.000000 0.998235
vn -0.059390 0.000000 -0.998235
usemtl Material.005
s off
f 5//1 3//1 1//1 6//1 
f 11//2 4//2 2//2 12//2 
f 19//3 20//3 5//3 6//3 
f 19//4 6//4 1//4 16//4 
f 4//5 7//5 8//5 2//5 
f 18//6 3//6 5//6 20//6 
f 19//1 17//1 15//1 20//1 
f 18//7 11//7 12//7 16//7 
f 8//4 13//4 12//4 2//4 
f 13//5 14//5 9//5 10//5 
f 7//8 14//8 13//8 8//8 
f 4//6 11//6 14//6 7//6 
f 9//9 15//9 17//9 10//9 
f 13//4 19//4 16//4 12//4 
f 14//6 20//6 15//6 9//6 
f 10//4 17//4 19//4 13//4 
f 11//6 18//6 20//6 14//6 
f 3//10 18//10 16//10 1//10 
