o ChairFrame.002_Cube.002
o ChairFrame.002_Cube.002
v 2.161099 1.284716 0.607326
v 0.983004 1.284716 0.440078
v 2.161099 1.403706 0.607326
v 0.983004 1.403706 0.440078
v 2.193930 0.743108 0.601310
v 2.185529 0.743108 0.660482
v 2.100707 0.743108 0.648440
v 2.109107 0.743108 0.589268
v 2.278267 2.688498 0.619571
v 2.271617 2.688498 0.666415
v 2.198423 2.690819 0.656024
v 2.205073 2.690819 0.609180
v 1.087073 1.283810 0.451721
v 1.078042 1.283810 0.515338
v 0.960232 1.283810 0.498613
v 0.969264 1.283810 0.434996
v 1.087073 1.402800 0.451721
v 1.078042 1.402800 0.515338
v 0.960232 1.402800 0.498613
v 0.969264 1.402800 0.434996
v 2.172239 1.402576 0.597646
v 2.163676 1.402576 0.657964
v 2.069428 1.402576 0.644584
v 2.077992 1.402576 0.584266
v 2.307593 -0.021672 0.620824
v 2.300133 -0.021672 0.673374
v 2.225489 -0.021672 0.662777
v 2.232949 -0.021672 0.610227
v 2.143508 0.488787 0.595841
v 2.223242 0.488787 0.607160
v 2.135578 0.488787 0.651702
v 2.215311 0.488787 0.663021
v 2.168382 0.991760 0.658268
v 2.080006 0.991760 0.645722
v 2.088468 0.991760 0.586117
v 2.176844 0.991760 0.598664
v 1.061237 -0.005050 0.448053
v 1.052205 -0.005050 0.511670
v 0.986069 -0.005050 0.502281
v 0.995100 -0.005050 0.438664
v 2.180739 0.812573 0.659864
v 2.094923 0.812573 0.647681
v 2.103341 0.812573 0.588388
v 2.189157 0.812573 0.600571
v 2.100994 0.750700 0.641883
v 2.107558 0.750700 0.595646
v 2.096475 0.804981 0.641290
v 2.103052 0.804981 0.594958
v 1.057139 0.753127 0.503864
v 1.063703 0.753127 0.457626
v 1.052620 0.807408 0.503270
v 1.059198 0.807408 0.456938
v 2.288780 2.675495 0.614191
v 2.280217 2.675495 0.674509
v 2.185970 2.679652 0.661129
v 2.194533 2.679652 0.600811
v 2.285038 2.681943 0.616189
v 2.277179 2.681943 0.671548
v 2.190681 2.685289 0.659268
v 2.198540 2.685289 0.603910
v 2.287241 2.658685 0.613972
v 2.278678 2.658685 0.674290
v 2.184431 2.662787 0.660911
v 2.192994 2.662787 0.600592
v 2.275293 2.528185 0.612276
v 2.266730 2.528185 0.672594
v 2.172483 2.531861 0.659214
v 2.181046 2.531861 0.598896
v 2.263620 2.648561 0.672153
v 2.201853 2.652006 0.663384
v 2.253583 2.538932 0.670728
v 2.191816 2.542020 0.661959
v 2.243624 2.182275 0.607780
v 2.235061 2.182275 0.668098
v 2.140813 2.184821 0.654719
v 2.149376 2.184821 0.594400
v 2.235986 2.098857 0.606696
v 2.227423 2.098857 0.667014
v 2.133176 2.101130 0.653634
v 2.141739 2.101130 0.593316
v 2.220943 2.171050 0.666094
v 2.152815 2.172890 0.656422
v 2.215422 2.110750 0.665310
v 2.147294 2.112393 0.655639
v 1.993851 1.284716 1.785420
v 0.815757 1.284716 1.618172
v 1.993851 1.403706 1.785420
v 0.815757 1.403706 1.618172
v 2.077475 1.403706 1.196373
v 2.077475 1.284716 1.196373
v 0.899381 1.403706 1.029125
v 0.899381 1.284716 1.029125
v 2.023710 0.743108 1.800336
v 2.032111 0.743108 1.741163
v 1.947288 0.743108 1.729122
v 1.938888 0.743108 1.788294
v 2.109798 2.688498 1.806269
v 2.116448 2.688498 1.759425
v 2.043254 2.690819 1.749034
v 2.036603 2.690819 1.795878
v 0.918954 1.283810 1.635954
v 0.927985 1.283810 1.572337
v 0.810176 1.283810 1.555612
v 0.801144 1.283810 1.619229
v 0.918954 1.402800 1.635954
v 0.927985 1.402800 1.572337
v 0.810176 1.402800 1.555612
v 0.801144 1.402800 1.619229
v 2.001857 1.402576 1.797818
v 2.010420 1.402576 1.737500
v 1.916173 1.402576 1.724120
v 1.907609 1.402576 1.784438
v 2.138314 -0.021672 1.813227
v 2.145774 -0.021672 1.760678
v 2.071130 -0.021672 1.750081
v 2.063670 -0.021672 1.802630
v 1.973759 0.488787 1.791555
v 2.053492 0.488787 1.802875
v 1.981689 0.488787 1.735695
v 2.061423 0.488787 1.747014
v 2.015025 0.991760 1.738518
v 1.926649 0.991760 1.725971
v 1.918187 0.991760 1.785576
v 2.006563 0.991760 1.798122
v 0.893117 -0.005050 1.632286
v 0.902149 -0.005050 1.568669
v 0.836012 -0.005050 1.559280
v 0.826981 -0.005050 1.622897
v 2.027338 0.812573 1.740424
v 1.941522 0.812573 1.728242
v 1.933105 0.812573 1.787535
v 2.018920 0.812573 1.799717
v 1.945739 0.750700 1.735499
v 1.939175 0.750700 1.781737
v 1.941233 0.804981 1.734812
v 1.934656 0.804981 1.781144
v 0.904715 0.753127 1.577540
v 0.898151 0.753127 1.623778
v 0.900209 0.807408 1.576852
v 0.893632 0.807408 1.623184
v 2.118398 2.675495 1.814363
v 2.126961 2.675495 1.754044
v 2.032714 2.679652 1.740664
v 2.024151 2.679652 1.800983
v 2.115360 2.681943 1.811402
v 2.123219 2.681943 1.756043
v 2.036721 2.685289 1.743763
v 2.028862 2.685289 1.799122
v 2.116859 2.658685 1.814144
v 2.125422 2.658685 1.753826
v 2.031175 2.662787 1.740446
v 2.022612 2.662787 1.800764
v 2.104911 2.528185 1.812448
v 2.113474 2.528185 1.752130
v 2.019227 2.531861 1.738750
v 2.010664 2.531861 1.799068
v 2.110364 2.648561 1.751688
v 2.048597 2.652006 1.742919
v 2.100327 2.538932 1.750263
v 2.038560 2.542020 1.741494
v 2.186992 2.648561 1.211920
v 2.125225 2.652006 1.203152
v 2.176955 2.538932 1.210496
v 2.115188 2.542020 1.201727
v 2.073242 2.182275 1.807952
v 2.081805 2.182275 1.747634
v 1.987557 2.184821 1.734254
v 1.978994 2.184821 1.794572
v 2.065604 2.098857 1.806868
v 2.074167 2.098857 1.746549
v 1.979920 2.101130 1.733170
v 1.971357 2.101130 1.793488
v 2.067687 2.171050 1.745630
v 1.999559 2.172890 1.735958
v 2.062166 2.110750 1.744846
v 1.994038 2.112393 1.735174
v 2.144315 2.171050 1.205862
v 2.076187 2.172890 1.196190
v 2.138794 2.110750 1.205078
v 2.070666 2.112393 1.195406
vn -0.990073 0.000000 -0.140555
vn 0.140555 0.000000 -0.990073
vn 0.990073 0.000000 0.140555
vn 0.000000 -1.000000 -0.000000
vn 0.000000 1.000000 -0.000000
vn 0.987689 0.069360 0.140216
vn -0.140556 -0.000877 0.990072
vn -0.986603 -0.083650 -0.140062
vn 0.140555 -0.000877 -0.990072
vn 0.140555 -0.003276 -0.990068
vn 0.031062 0.999508 0.004409
vn 0.990073 0.000000 0.140556
vn -0.140556 0.000000 0.990073
vn 0.140556 0.000000 -0.990073
vn 0.000000 1.000000 -0.000001
vn 0.985866 -0.092080 0.139960
vn -0.140555 0.000000 0.990073
vn -0.985894 0.091782 -0.139963
vn -0.974846 -0.174709 -0.138393
vn -0.140555 -0.003276 0.990067
vn 0.976490 0.165072 0.138627
vn 0.140553 -0.006576 -0.990051
vn -0.980837 -0.136273 -0.139244
vn -0.140552 -0.006576 0.990052
vn 0.983326 0.116544 0.139596
vn 0.990008 0.011445 0.140547
vn -0.140556 -0.000878 0.990072
vn -0.989741 -0.025873 -0.140510
vn -0.989870 -0.020243 -0.140526
vn 0.989870 -0.020243 0.140527
vn 0.987688 0.069359 0.140217
vn -0.986601 -0.083666 -0.140063
vn 0.140555 -0.000878 -0.990072
vn 0.002282 0.999997 0.000324
vn -0.986602 -0.083656 -0.140063
vn -0.986601 -0.083668 -0.140067
vn -0.986601 -0.083666 -0.140067
vn -0.986602 -0.083666 -0.140061
vn -0.002282 -0.999997 -0.000325
vn 0.131076 -0.001681 -0.991371
vn -0.131081 -0.000074 0.991372
vn 0.874434 0.468995 0.124136
vn -0.114354 0.381795 0.917145
vn -0.780224 0.615615 -0.110759
vn 0.145427 0.381794 -0.912735
vn 0.717762 0.688792 0.101899
vn -0.094486 0.578572 0.810140
vn -0.602636 0.793417 -0.085550
vn 0.134736 0.578576 -0.804423
vn 0.985867 -0.092074 0.139959
vn -0.140552 -0.000001 0.990073
vn -0.985896 0.091763 -0.139962
vn 0.140553 0.000001 -0.990073
vn 0.985867 -0.092079 0.139958
vn -0.048946 -0.998777 -0.006949
vn -0.140554 -0.000001 0.990073
vn -0.140546 -0.000001 0.990074
vn -0.140555 0.000002 0.990073
vn -0.985894 0.091784 -0.139963
vn 0.985867 -0.092078 0.139958
vn 0.054602 0.998478 0.007752
vn 0.985867 -0.092080 0.139957
vn 0.985867 -0.092076 0.139958
vn -0.140555 -0.000004 0.990073
vn -0.985894 0.091785 -0.139961
vn 0.140557 0.000000 -0.990073
vn -0.023642 -0.999715 -0.003356
vn -0.140550 -0.000000 0.990074
vn -0.140560 -0.000000 0.990072
vn -0.140556 -0.000002 0.990073
vn -0.985893 0.091787 -0.139962
vn 0.985867 -0.092073 0.139958
vn 0.026470 0.999643 0.003758
vn 0.987688 0.069359 0.140218
vn 0.140557 -0.000877 -0.990072
vn -0.986600 -0.083684 -0.140061
vn -0.140555 -0.000878 0.990072
vn -0.140556 -0.003276 0.990067
vn 0.031062 0.999508 0.004407
vn -0.140557 0.000000 0.990073
vn 0.140555 -0.003276 -0.990067
vn 0.976491 0.165072 0.138626
vn -0.980837 -0.136274 -0.139244
vn 0.140554 -0.006576 -0.990051
vn 0.983326 0.116545 0.139598
vn 0.990008 0.011445 0.140546
vn -0.989741 -0.025872 -0.140510
vn -0.140555 -0.000877 0.990073
vn 0.140554 0.000000 -0.990073
vn 0.989870 -0.020243 0.140526
vn 0.987688 0.069360 0.140217
vn 0.140556 -0.000878 -0.990072
vn -0.986601 -0.083667 -0.140063
vn -0.140554 -0.000878 0.990073
vn 0.002282 0.999997 0.000323
vn -0.986603 -0.083647 -0.140061
vn -0.986601 -0.083665 -0.140065
vn -0.986602 -0.083666 -0.140062
vn -0.002282 -0.999997 -0.000324
vn -0.150021 -0.001681 0.988681
vn 0.150018 -0.000074 -0.988683
vn 0.874413 0.469033 0.124138
vn 0.145425 0.381804 -0.912731
vn -0.780252 0.615579 -0.110763
vn -0.114352 0.381783 0.917151
vn 0.717762 0.688792 0.101895
vn 0.134736 0.578574 -0.804424
vn -0.602626 0.793425 -0.085553
vn -0.094486 0.578576 0.810137
vn 0.985865 -0.092095 0.139960
vn 0.140554 -0.000005 -0.990073
vn -0.985894 0.091779 -0.139963
vn 0.985867 -0.092078 0.139959
vn 0.140557 -0.000002 -0.990073
vn -0.985894 0.091783 -0.139962
vn -0.140554 -0.000000 0.990073
vn -0.048946 -0.998777 -0.006948
vn 0.140551 0.000001 -0.990074
vn 0.140557 0.000001 -0.990073
vn -0.985894 0.091782 -0.139962
vn 0.985867 -0.092079 0.139960
vn -0.140553 0.000000 0.990073
vn 0.985867 -0.092081 0.139957
vn 0.140554 0.000003 -0.990073
vn -0.140557 -0.000001 0.990073
vn -0.023643 -0.999715 -0.003357
vn 0.140553 -0.000003 -0.990073
vn 0.140556 -0.000001 -0.990073
vn -0.985894 0.091786 -0.139962
vn 0.026470 0.999643 0.003757
usemtl Material.004
s off
f 91//1 4//1 2//1 92//1 
f 4//2 3//2 1//2 2//2 
f 3//3 89//3 90//3 1//3 
f 1//4 90//4 92//4 2//4 
f 4//5 91//5 89//5 3//5 
f 44//6 41//6 6//6 5//6 
f 41//7 42//7 7//7 6//7 
f 42//8 43//8 48//8 47//8 
f 43//9 44//9 5//9 8//9 
f 29//10 30//10 25//10 28//10 
f 12//11 11//11 10//11 9//11 
f 17//12 18//12 14//12 13//12 
f 18//13 19//13 15//13 14//13 
f 19//1 20//1 16//1 15//1 
f 20//14 17//14 13//14 16//14 
f 16//2 13//2 37//2 40//2 
f 20//15 19//15 18//15 17//15 
f 77//16 78//16 22//16 21//16 
f 78//17 79//17 23//17 22//17 
f 79//18 80//18 24//18 23//18 
f 80//2 77//2 21//2 24//2 
f 25//4 26//4 27//4 28//4 
f 31//19 29//19 28//19 27//19 
f 32//20 31//20 27//20 26//20 
f 30//21 32//21 26//21 25//21 
f 8//22 5//22 30//22 29//22 
f 7//23 8//23 29//23 31//23 
f 6//24 7//24 31//24 32//24 
f 5//25 6//25 32//25 30//25 
f 21//26 22//26 33//26 36//26 
f 22//27 23//27 34//27 33//27 
f 23//28 24//28 35//28 34//28 
f 24//9 21//9 36//9 35//9 
f 37//4 38//4 39//4 40//4 
f 15//29 16//29 40//29 39//29 
f 14//13 15//13 39//13 38//13 
f 13//30 14//30 38//30 37//30 
f 36//31 33//31 41//31 44//31 
f 33//27 34//27 42//27 41//27 
f 34//32 35//32 43//32 42//32 
f 35//33 36//33 44//33 43//33 
f 47//34 48//34 52//34 51//34 
f 8//35 7//35 45//35 46//35 
f 43//36 8//36 46//36 48//36 
f 7//37 42//37 47//37 45//37 
f 51//38 52//38 50//38 49//38 
f 46//39 45//39 49//39 50//39 
f 48//40 46//40 50//40 52//40 
f 45//41 47//41 51//41 49//41 
f 57//42 58//42 54//42 53//42 
f 58//43 59//43 55//43 54//43 
f 59//44 60//44 56//44 55//44 
f 60//45 57//45 53//45 56//45 
f 9//46 10//46 58//46 57//46 
f 10//47 11//47 59//47 58//47 
f 11//48 12//48 60//48 59//48 
f 12//49 9//49 57//49 60//49 
f 53//50 54//50 62//50 61//50 
f 54//51 55//51 63//51 62//51 
f 55//52 56//52 64//52 63//52 
f 56//53 53//53 61//53 64//53 
f 61//54 62//54 66//54 65//54 
f 67//13 66//13 71//13 72//13 
f 63//18 64//18 68//18 67//18 
f 64//14 61//14 65//14 68//14 
f 72//55 71//55 163//55 164//55 
f 63//56 67//56 72//56 70//56 
f 66//57 62//57 69//57 71//57 
f 62//58 63//58 70//58 69//58 
f 70//59 72//59 164//59 162//59 
f 71//60 69//60 161//60 163//60 
f 69//61 70//61 162//61 161//61 
f 65//62 66//62 74//62 73//62 
f 66//13 67//13 75//13 74//13 
f 67//18 68//18 76//18 75//18 
f 68//2 65//2 73//2 76//2 
f 73//63 74//63 78//63 77//63 
f 79//64 78//64 83//64 84//64 
f 75//65 76//65 80//65 79//65 
f 76//66 73//66 77//66 80//66 
f 84//67 83//67 179//67 180//67 
f 75//68 79//68 84//68 82//68 
f 78//69 74//69 81//69 83//69 
f 74//70 75//70 82//70 81//70 
f 82//71 84//71 180//71 178//71 
f 83//72 81//72 177//72 179//72 
f 81//73 82//73 178//73 177//73 
f 91//1 92//1 86//1 88//1 
f 88//17 86//17 85//17 87//17 
f 87//3 85//3 90//3 89//3 
f 85//4 86//4 92//4 90//4 
f 88//5 87//5 89//5 91//5 
f 132//74 93//74 94//74 129//74 
f 129//75 94//75 95//75 130//75 
f 130//76 135//76 136//76 131//76 
f 131//77 96//77 93//77 132//77 
f 117//78 116//78 113//78 118//78 
f 100//79 97//79 98//79 99//79 
f 105//3 101//3 102//3 106//3 
f 106//14 102//14 103//14 107//14 
f 107//1 103//1 104//1 108//1 
f 108//13 104//13 101//13 105//13 
f 104//13 128//13 125//13 101//13 
f 108//5 105//5 106//5 107//5 
f 169//54 109//54 110//54 170//54 
f 170//2 110//2 111//2 171//2 
f 171//18 111//18 112//18 172//18 
f 172//80 112//80 109//80 169//80 
f 113//4 116//4 115//4 114//4 
f 119//19 115//19 116//19 117//19 
f 120//81 114//81 115//81 119//81 
f 118//82 113//82 114//82 120//82 
f 96//24 117//24 118//24 93//24 
f 95//83 119//83 117//83 96//83 
f 94//84 120//84 119//84 95//84 
f 93//85 118//85 120//85 94//85 
f 109//86 124//86 121//86 110//86 
f 110//9 121//9 122//9 111//9 
f 111//87 122//87 123//87 112//87 
f 112//88 123//88 124//88 109//88 
f 125//4 128//4 127//4 126//4 
f 103//29 127//29 128//29 104//29 
f 102//89 126//89 127//89 103//89 
f 101//90 125//90 126//90 102//90 
f 124//91 132//91 129//91 121//91 
f 121//92 129//92 130//92 122//92 
f 122//93 130//93 131//93 123//93 
f 123//94 131//94 132//94 124//94 
f 135//95 139//95 140//95 136//95 
f 96//96 134//96 133//96 95//96 
f 131//97 136//97 134//97 96//97 
f 95//97 133//97 135//97 130//97 
f 139//98 137//98 138//98 140//98 
f 134//99 138//99 137//99 133//99 
f 136//100 140//100 138//100 134//100 
f 133//101 137//101 139//101 135//101 
f 145//102 141//102 142//102 146//102 
f 146//103 142//103 143//103 147//103 
f 147//104 143//104 144//104 148//104 
f 148//105 144//105 141//105 145//105 
f 97//106 145//106 146//106 98//106 
f 98//107 146//107 147//107 99//107 
f 99//108 147//108 148//108 100//108 
f 100//109 148//109 145//109 97//109 
f 141//110 149//110 150//110 142//110 
f 142//111 150//111 151//111 143//111 
f 143//112 151//112 152//112 144//112 
f 144//56 152//56 149//56 141//56 
f 149//113 153//113 154//113 150//113 
f 155//114 160//114 159//114 154//114 
f 151//115 155//115 156//115 152//115 
f 152//116 156//116 153//116 149//116 
f 160//117 164//117 163//117 159//117 
f 151//118 158//118 160//118 155//118 
f 154//119 159//119 157//119 150//119 
f 150//53 157//53 158//53 151//53 
f 161//89 163//89 164//89 162//89 
f 158//120 162//120 164//120 160//120 
f 159//54 163//54 161//54 157//54 
f 157//61 161//61 162//61 158//61 
f 153//121 165//121 166//121 154//121 
f 154//66 166//66 167//66 155//66 
f 155//120 167//120 168//120 156//120 
f 156//122 168//122 165//122 153//122 
f 165//123 169//123 170//123 166//123 
f 171//124 176//124 175//124 170//124 
f 167//115 171//115 172//115 168//115 
f 168//125 172//125 169//125 165//125 
f 176//126 180//126 179//126 175//126 
f 167//66 174//66 176//66 171//66 
f 170//53 175//53 173//53 166//53 
f 166//127 173//127 174//127 167//127 
f 177//128 179//128 180//128 178//128 
f 174//129 178//129 180//129 176//129 
f 175//54 179//54 177//54 173//54 
f 173//130 177//130 178//130 174//130 
