o ChairTop.001_Cube.003
o ChairTop.001_Cube.003
v -1.162334 1.397709 0.296661
v -0.885913 1.397709 1.463767
v -1.162334 1.422616 0.296661
v -0.885913 1.422616 1.463767
v -2.266578 1.422616 0.558193
v -2.266578 1.397709 0.558193
v -1.990158 1.422616 1.725299
v -1.990158 1.397709 1.725299
v -2.091895 1.422616 1.690536
v -2.091895 1.397709 1.690536
v -0.899113 1.422616 1.408034
v -0.899113 1.397709 1.408034
v -2.003357 1.397709 1.669566
v -2.003357 1.422616 1.669566
v -2.341949 1.422616 0.634755
v -1.149167 1.397709 0.352254
v -2.341949 1.397709 0.634755
v -1.149167 1.422616 0.352254
v -2.253411 1.397709 0.613786
v -2.253411 1.422616 0.613786
vn -0.230467 0.000000 -0.973080
vn 0.973080 0.000000 -0.230468
vn -0.973080 0.000000 0.230468
vn 0.000000 -1.000000 0.000000
vn 0.230467 0.000000 0.973080
vn 0.000000 1.000000 0.000000
vn 0.973080 0.000000 -0.230467
vn -0.973080 0.000000 0.230466
vn 0.000000 1.000000 0.000001
vn -0.973080 0.000000 0.230467
usemtl Material.005
s off
f 5//1 3//1 1//1 6//1 
f 11//2 4//2 2//2 12//2 
f 19//3 20//3 5//3 6//3 
f 19//4 6//4 1//4 16//4 
f 4//5 7//5 8//5 2//5 
f 18//6 3//6 5//6 20//6 
f 19//1 17//1 15//1 20//1 
f 18//7 11//7 12//7 16//7 
f 8//4 13//4 12//4 2//4 
f 13//5 14//5 9//5 10//5 
f 7//8 14//8 13//8 8//8 
f 4//9 11//9 14//9 7//9 
f 9//10 15//10 17//10 10//10 
f 13//4 19//4 16//4 12//4 
f 14//6 20//6 15//6 9//6 
f 10//4 17//4 19//4 13//4 
f 11//6 18//6 20//6 14//6 
f 3//2 18//2 16//2 1//2 
