o Circle
o Circle
v -8.930049 7.688756 -2.128926
v -8.753646 7.971981 -1.644643
v -8.565248 8.149265 -1.116494
v -8.372094 8.213797 -0.564777
v -8.181607 8.163095 -0.010692
v -8.001108 7.999108 0.524465
v -7.837533 7.728139 1.020130
v -7.697168 7.360600 1.457254
v -7.585407 6.910616 1.819039
v -7.506546 6.395479 2.091582
v -7.463614 5.834986 2.264410
v -7.458262 5.250676 2.330879
v -7.490695 4.665004 2.288437
v -7.559668 4.100477 2.138714
v -7.662528 3.578789 1.887464
v -7.795324 3.119989 1.544341
v -7.952952 2.741708 1.122533
v -8.129355 2.458483 0.638249
v -8.317754 2.281199 0.110100
v -8.510908 2.216668 -0.441618
v -8.701395 2.267370 -0.995702
v -8.881894 2.431357 -1.530859
v -9.045469 2.702327 -2.026524
v -9.185834 3.069866 -2.463648
v -9.297595 3.519851 -2.825433
v -9.376456 4.034988 -3.097976
v -9.419388 4.595482 -3.270803
v -9.424740 5.179792 -3.337272
v -9.392305 5.765465 -3.294829
v -9.323334 6.329992 -3.145105
v -9.220472 6.851679 -2.893854
v -9.087676 7.310479 -2.550731
vt 0.111703 0.818669
vt 0.056995 0.736792
vt 0.019311 0.645816
vt 0.000100 0.549237
vt 0.000100 0.450765
vt 0.019310 0.354185
vt 0.056994 0.263209
vt 0.111701 0.181332
vt 0.181331 0.111702
vt 0.263208 0.056994
vt 0.354184 0.019310
vt 0.450764 0.000100
vt 0.549235 0.000100
vt 0.645813 0.019311
vt 0.736789 0.056994
vt 0.818667 0.111703
vt 0.888297 0.181334
vt 0.943006 0.263212
vt 0.980688 0.354187
vt 0.999899 0.450767
vt 0.999898 0.549239
vt 0.980687 0.645819
vt 0.943003 0.736795
vt 0.888295 0.818670
vt 0.818665 0.888300
vt 0.736789 0.943007
vt 0.645815 0.980689
vt 0.549236 0.999900
vt 0.450765 0.999900
vt 0.354186 0.980689
vt 0.263209 0.943006
vt 0.181333 0.888298
vn 0.944483 -0.028583 -0.327316
usemtl None
s off
f 2/1/1 3/2/1 4/3/1 5/4/1 6/5/1 7/6/1 8/7/1 9/8/1 10/9/1 11/10/1 12/11/1 13/12/1 14/13/1 15/14/1 16/15/1 17/16/1 18/17/1 19/18/1 20/19/1 21/20/1 22/21/1 23/22/1 24/23/1 25/24/1 26/25/1 27/26/1 28/27/1 29/28/1 30/29/1 31/30/1 32/31/1 1/32/1 
