o Cube.004_Pillar
o Cube.004_Pillar
v 13.493811 -0.200916 3.059544
v 13.493811 -0.200916 2.559140
v 13.994215 -0.200916 2.559140
v 13.994215 -0.200916 3.059544
v 13.493811 5.340569 3.059544
v 13.493811 5.340569 2.559140
v 13.994215 5.340569 2.559140
v 13.994215 5.340569 3.059544
vt 0.000262 -0.249521
vt 0.749783 -0.249521
vt 0.749783 0.499999
vt 0.000262 0.499999
vt 1.499303 -0.249521
vt 1.499303 0.499999
vt 0.749784 1.999040
vt 0.000264 1.999041
vt 0.000263 1.249520
vt 0.749783 1.249519
vt -0.749259 -0.249522
vt -0.749259 0.499999
vt 0.000262 -0.999043
vt 0.749783 -0.999042
vn -1.000000 0.000000 0.000000
vn 0.000000 0.000000 -1.000000
vn 1.000000 0.000000 0.000000
vn 0.000000 0.000000 1.000000
vn 0.000000 -1.000000 0.000000
vn 0.000000 1.000000 0.000000
usemtl Material.010
s off
f 5/1/1 6/2/1 2/3/1 1/4/1 
f 6/2/2 7/5/2 3/6/2 2/3/2 
f 7/7/3 8/8/3 4/9/3 3/10/3 
f 8/11/4 5/1/4 1/4/4 4/12/4 
f 1/4/5 2/3/5 3/10/5 4/9/5 
f 8/13/6 7/14/6 6/2/6 5/1/6 
