o Cube.001_Board
o Cube.001_Board
v 6.388097 4.199107 -5.636236
v 8.006892 4.199107 -6.810757
v 9.768674 4.199107 -4.382563
v 8.149879 4.199107 -3.208042
v 6.388097 4.299108 -5.636236
v 8.006892 4.299108 -6.810757
v 9.768674 4.299108 -4.382563
v 8.149879 4.299108 -3.208042
vt 0.494007 0.738104
vt 0.559886 0.738104
vt 0.559886 0.562426
vt 0.494007 0.562426
vn -0.587261 0.000000 -0.809398
vn 0.809398 0.000000 -0.587261
vn 0.587261 0.000000 0.809398
vn -0.809398 0.000000 0.587261
vn 0.000000 -1.000000 0.000000
vn 0.000000 1.000000 0.000000
usemtl Material.007
s off
f 5/1/1 6/2/1 2/2/1 1/1/1 
f 6/2/2 7/3/2 3/3/2 2/2/2 
f 7/3/3 8/4/3 4/4/3 3/3/3 
f 8/4/4 5/1/4 1/1/4 4/4/4 
f 1/1/5 2/2/5 3/3/5 4/4/5 
f 8/4/6 7/3/6 6/2/6 5/1/6 
