o Cube.004_Cube
o Cube.004_Cube
v 5.711492 10.675783 4.763927
v 5.711492 10.675783 2.763927
v 7.711492 10.675783 2.763927
v 7.711492 10.675783 4.763927
v 5.711492 12.675783 4.763927
v 5.711492 12.675783 2.763927
v 7.711492 12.675783 2.763927
v 7.711492 12.675783 4.763927
v 6.147243 11.675783 4.328175
v 6.147243 11.675783 3.199678
v 7.275740 11.675783 3.199678
v 7.275740 11.675783 4.328175
v 5.354016 13.033258 3.763927
v 5.354016 10.318308 3.763927
v 8.068967 13.033258 3.763927
v 8.068967 10.318308 3.763927
v 5.945539 11.675783 3.763927
v 7.477445 11.675783 3.763927
vn -0.879409 0.423425 -0.217603
vn 0.000000 0.399473 -0.916745
vn 0.879409 0.423425 0.217603
vn 0.000000 0.399473 0.916745
vn 0.000000 -0.941643 -0.336613
vn 0.000000 0.941643 -0.336614
vn -0.879409 -0.423425 -0.217602
vn 0.000000 -0.399473 -0.916745
vn 0.879409 -0.423425 0.217602
vn 0.000000 -0.399473 0.916745
vn -0.879409 0.423425 0.217603
vn 0.879409 0.423425 -0.217603
vn 0.000000 -0.941643 0.336613
vn 0.000000 0.941643 0.336614
vn -0.879409 -0.423425 0.217602
vn 0.879409 -0.423426 -0.217602
usemtl None
s off
f 17//1 10//1 2//1 14//1 
f 10//2 11//2 3//2 2//2 
f 18//3 12//3 4//3 16//3 
f 12//4 9//4 1//4 4//4 
f 14//5 2//5 3//5 16//5 
f 15//6 7//6 6//6 13//6 
f 13//7 6//7 10//7 17//7 
f 6//8 7//8 11//8 10//8 
f 15//9 8//9 12//9 18//9 
f 8//10 5//10 9//10 12//10 
f 9//11 17//11 14//11 1//11 
f 11//12 18//12 16//12 3//12 
f 1//13 14//13 16//13 4//13 
f 8//14 15//14 13//14 5//14 
f 5//15 13//15 17//15 9//15 
f 7//16 15//16 18//16 11//16 
