o Cube.003_Cabinet
o Cube.003_Cabinet
v -2.151272 -0.202351 4.352038
v -2.151272 -0.202351 -6.262530
v 3.663271 -0.202351 -6.262530
v 3.663271 -0.202351 4.352038
v -2.151272 4.612140 4.352038
v -2.151272 4.612140 -6.262530
v 3.663271 4.612140 -6.262530
v 3.663271 4.612140 4.352038
v -2.151272 4.612140 0.239553
v -2.151272 -0.202351 0.239553
v 3.663271 4.612140 0.239553
v 3.663271 -0.202351 0.239553
v -2.151272 4.612140 -3.294369
v 3.663271 -0.202351 -3.294369
v -2.151272 -0.202351 -3.294369
v 3.663271 4.612140 -3.294369
vt 0.240575 0.902788
vt 0.240575 0.875004
vt 0.339934 0.875004
vt 0.339934 0.902788
vt 0.999212 0.333176
vt 0.666194 0.333176
vt 0.666193 0.000158
vt 0.999212 0.000158
vt 0.462199 0.333176
vt 0.333175 0.333176
vt 0.333175 0.000158
vt 0.462199 0.000158
vt 0.000158 0.333176
vt 0.000158 0.000158
vt 0.041669 0.902788
vt 0.041669 0.875004
vt 0.141028 0.875004
vt 0.141028 0.902788
vt 0.240481 0.946579
vt 0.240481 0.974363
vt 0.141122 0.974363
vt 0.141122 0.946579
vt 0.240575 0.974363
vt 0.240575 0.935867
vt 0.339934 0.935867
vt 0.339934 0.974363
vt 0.573071 0.333176
vt 0.573071 0.000158
vt 0.041669 0.974363
vt 0.041669 0.935867
vt 0.141028 0.935867
vt 0.141028 0.974363
vt 0.240481 0.875004
vt 0.240481 0.913499
vt 0.141122 0.913499
vt 0.141122 0.875004
vn -1.000000 0.000000 0.000000
vn 0.000000 0.000000 -1.000000
vn 1.000000 0.000000 0.000000
vn 0.000000 0.000000 1.000000
vn 0.000000 -1.000000 0.000000
vn 0.000000 1.000000 0.000000
usemtl Material
s off
f 13/1/1 6/2/1 2/3/1 15/4/1 
f 6/5/2 7/6/2 3/7/2 2/8/2 
f 11/9/3 8/10/3 4/11/3 12/12/3 
f 8/10/4 5/13/4 1/14/4 4/11/4 
f 15/15/5 2/16/5 3/17/5 14/18/5 
f 16/19/6 7/20/6 6/21/6 13/22/6 
f 5/23/1 9/24/1 10/25/1 1/26/1 
f 16/27/3 11/9/3 12/12/3 14/28/3 
f 1/29/5 10/30/5 12/31/5 4/32/5 
f 8/33/6 11/34/6 9/35/6 5/36/6 
f 9/24/1 13/1/1 15/4/1 10/25/1 
f 10/30/5 15/15/5 14/18/5 12/31/5 
f 11/34/6 16/19/6 13/22/6 9/35/6 
f 7/6/3 16/27/3 14/28/3 3/7/3 
