o Cube_Cube.003
o Cube_Cube.003
v 29.617973 -1.352141 9.939486
v 29.617973 -1.352141 -10.000121
v 29.717972 -1.352141 -10.000121
v 29.717972 -1.352141 9.939486
v 29.617973 13.291945 9.939486
v 29.617973 13.291945 -10.000121
v 29.717972 13.291945 -10.000121
v 29.717972 13.291945 9.939486
v 29.617973 13.291945 -9.897217
v 29.617973 -1.352141 -9.897217
v 29.717972 13.291945 -9.897217
v 29.717972 -1.352141 -9.897217
v 29.617973 -1.352141 9.799676
v 29.717972 13.291945 9.799676
v 29.617973 13.291945 9.799676
v 29.717972 -1.352141 9.799676
v -29.928417 -1.352141 9.939486
v -29.928417 -1.352141 -10.000121
v -29.928417 13.291945 9.939486
v -29.928417 13.291945 -10.000121
v -29.928417 13.291945 -9.897217
v -29.928417 -1.352141 -9.897217
v -29.928417 -1.352141 9.799676
v -29.928417 13.291945 9.799676
v -29.409725 13.291945 9.799676
v -29.409725 -1.352141 9.799676
v -29.409725 13.291945 9.939486
v -29.409725 -1.352141 9.939486
v -29.694489 -1.352141 -9.897217
v -29.694489 13.291945 -9.897217
v -29.694489 -1.352141 -10.000121
v -29.694489 13.291945 -10.000121
v -29.928417 13.291945 9.796940
v -29.928417 -1.352141 9.796940
v -29.694489 -1.352141 9.796940
v -29.694489 13.291945 9.796940
v 19.655746 -1.352141 -9.897217
v 19.655746 -1.352141 -10.000121
v 19.655746 13.291945 -10.000121
v 19.655746 13.291945 -9.897217
v 8.777065 -1.352141 -9.897217
v 8.777065 -1.352141 -10.000121
v 8.777065 13.291945 -10.000121
v 8.777065 13.291945 -9.897217
v 29.617973 11.551460 9.939486
v 29.617973 11.551460 -10.000121
v 29.717972 11.551460 -10.000121
v 29.717972 11.551460 9.939486
v 29.617973 11.551460 -9.897217
v 29.717972 11.551460 -9.897217
v 29.717972 11.551460 9.799676
v 29.617973 11.551460 9.799676
v -29.928417 11.551460 9.939486
v -29.928417 11.551460 -10.000121
v -29.928417 11.551460 -9.897217
v -29.928417 11.551460 9.799676
v -29.409725 11.551460 9.799676
v -29.409725 11.551460 9.939486
v -29.694489 11.551460 -9.897217
v -29.694489 11.551460 -10.000121
v -29.928417 11.551460 9.796940
v -29.694489 11.551460 9.796940
v 19.655746 11.551460 -9.897217
v 19.655746 11.551460 -10.000121
v 8.777065 11.551460 -9.897217
v 8.777065 11.551460 -10.000121
v 29.617973 4.164088 -10.000121
v 29.717972 4.164088 -10.000121
v 29.717972 4.164088 9.939486
v 29.617973 4.164088 -9.897217
v 29.717972 4.164088 -9.897217
v 29.717972 4.164088 9.799676
v 29.617973 4.164088 9.799676
v -29.928417 4.164088 -10.000121
v -29.928417 4.164088 -9.897217
v -29.928417 4.164088 9.799676
v -29.409725 4.164088 9.939486
v -29.694489 4.164088 -9.897217
v -29.928417 4.164088 9.796940
v -29.694489 4.164088 9.796940
v 19.655746 4.164088 -9.897217
v 8.777065 4.164088 -9.897217
v 29.617973 4.164088 9.939486
v -29.928417 4.164088 9.939486
v -29.409725 4.164088 9.799676
v -29.694489 4.164088 -10.000121
v 19.655746 4.164088 -10.000121
v 8.777065 4.164088 -10.000121
vn 1.000000 0.000000 0.000000
vn 0.000000 0.000000 -1.000000
vn 0.000000 0.000000 1.000000
vn 0.000000 -1.000000 0.000000
vn 0.000000 1.000000 0.000000
vn -1.000000 0.000000 0.000000
usemtl None
s off
f 59//1 30//1 36//1 62//1 
f 67//2 68//2 3//2 2//2 
f 72//1 69//1 4//1 16//1 
f 69//3 83//3 1//3 4//3 
f 10//4 2//4 3//4 12//4 
f 11//5 7//5 6//5 9//5 
f 73//6 70//6 10//6 13//6 
f 68//1 71//1 12//1 3//1 
f 13//4 10//4 12//4 16//4 
f 14//5 11//5 9//5 15//5 
f 71//1 72//1 16//1 12//1 
f 85//2 26//2 23//2 76//2 
f 1//4 13//4 16//4 4//4 
f 8//5 14//5 15//5 5//5 
f 75//6 74//6 18//6 22//6 
f 84//6 76//6 23//6 17//6 
f 31//4 29//4 22//4 18//4 
f 27//5 25//5 24//5 19//5 
f 26//4 28//4 17//4 23//4 
f 86//2 31//2 18//2 74//2 
f 30//5 32//5 20//5 21//5 
f 58//3 27//3 19//3 53//3 
f 73//2 13//2 26//2 85//2 
f 5//5 15//5 25//5 27//5 
f 13//4 1//4 28//4 26//4 
f 45//3 5//3 27//3 58//3 
f 65//3 44//3 30//3 59//3 
f 42//4 41//4 29//4 31//4 
f 88//2 42//2 31//2 86//2 
f 44//5 43//5 32//5 30//5 
f 62//3 36//3 33//3 61//3 
f 22//4 29//4 35//4 34//4 
f 30//5 21//5 33//5 36//5 
f 75//6 22//6 34//6 79//6 
f 49//3 9//3 40//3 63//3 
f 2//4 10//4 37//4 38//4 
f 67//2 2//2 38//2 87//2 
f 9//5 6//5 39//5 40//5 
f 63//3 40//3 44//3 65//3 
f 38//4 37//4 41//4 42//4 
f 87//2 38//2 42//2 88//2 
f 40//5 39//5 43//5 44//5 
f 78//1 59//1 62//1 80//1 
f 6//2 7//2 47//2 46//2 
f 14//1 8//1 48//1 51//1 
f 8//3 5//3 45//3 48//3 
f 15//6 9//6 49//6 52//6 
f 7//1 11//1 50//1 47//1 
f 11//1 14//1 51//1 50//1 
f 25//2 57//2 56//2 24//2 
f 21//6 20//6 54//6 55//6 
f 19//6 24//6 56//6 53//6 
f 32//2 60//2 54//2 20//2 
f 77//3 58//3 53//3 84//3 
f 15//2 52//2 57//2 25//2 
f 83//3 45//3 58//3 77//3 
f 82//3 65//3 59//3 78//3 
f 43//2 66//2 60//2 32//2 
f 80//3 62//3 61//3 79//3 
f 21//6 55//6 61//6 33//6 
f 70//3 49//3 63//3 81//3 
f 6//2 46//2 64//2 39//2 
f 65//4 66//4 64//4 63//4 
f 39//2 64//2 66//2 43//2 
f 46//2 47//2 68//2 67//2 
f 51//1 48//1 69//1 72//1 
f 48//3 45//3 83//3 69//3 
f 52//6 49//6 70//6 73//6 
f 47//1 50//1 71//1 68//1 
f 50//1 51//1 72//1 71//1 
f 57//2 85//2 76//2 56//2 
f 55//6 54//6 74//6 75//6 
f 53//6 56//6 76//6 84//6 
f 60//2 86//2 74//2 54//2 
f 52//2 73//2 85//2 57//2 
f 66//2 88//2 86//2 60//2 
f 55//6 75//6 79//6 61//6 
f 46//2 67//2 87//2 64//2 
f 88//5 82//5 81//5 87//5 
f 29//1 78//1 80//1 35//1 
f 28//3 77//3 84//3 17//3 
f 1//3 83//3 77//3 28//3 
f 41//3 82//3 78//3 29//3 
f 35//3 80//3 79//3 34//3 
f 10//3 70//3 81//3 37//3 
f 37//3 81//3 82//3 41//3 
f 65//1 82//1 88//1 66//1 
f 63//6 64//6 87//6 81//6 
