o Cube.001_Cube.003
o Cube.001_Cube.003
v 6.388097 3.972192 -5.636236
v 8.006892 3.972192 -6.810757
v 9.768674 3.972192 -4.382563
v 8.149879 3.972192 -3.208042
v 6.388097 4.072192 -5.636236
v 8.006892 4.072192 -6.810757
v 9.768674 4.072192 -4.382563
v 8.149879 4.072192 -3.208042
vt 0.494007 0.738104
vt 0.559886 0.738104
vt 0.559886 0.562426
vt 0.494007 0.562426
vn -0.587260 0.000000 -0.809398
vn 0.809399 0.000000 -0.587260
vn 0.587260 0.000000 0.809398
vn -0.809399 0.000000 0.587260
vn 0.000000 -1.000000 0.000000
vn 0.000000 1.000000 0.000000
usemtl Material.007
s off
f 5/1/1 6/2/1 2/2/1 1/1/1 
f 6/2/2 7/3/2 3/3/2 2/2/2 
f 7/3/3 8/4/3 4/4/3 3/3/3 
f 8/4/4 5/1/4 1/1/4 4/4/4 
f 1/1/5 2/2/5 3/3/5 4/4/5 
f 8/4/6 7/3/6 6/2/6 5/1/6 
