o Cube.002_Marble-Top
o Cube.002_Marble-Top
v -2.260214 4.864691 4.365559
v -2.260214 4.864691 -6.266634
v 3.739786 4.864691 -6.266634
v 3.739786 4.864691 4.365559
v -2.260214 5.014690 4.365559
v -2.260214 5.014690 -6.266634
v 3.739786 5.014690 -6.266634
v 3.739786 5.014690 4.365559
vt 1.175435 1.116485
vt 1.175435 -0.216411
vt -0.157462 -0.216411
vt -0.157462 1.116485
vn -1.000000 0.000000 0.000000
vn 0.000000 0.000000 -1.000000
vn 1.000000 0.000000 0.000000
vn 0.000000 0.000000 1.000000
vn 0.000000 -1.000000 0.000000
vn 0.000000 1.000000 0.000000
usemtl Material.009
s off
f 5/1/1 6/2/1 2/2/1 1/1/1 
f 6/2/2 7/3/2 3/3/2 2/2/2 
f 7/3/3 8/4/3 4/4/3 3/3/3 
f 8/4/4 5/1/4 1/1/4 4/4/4 
f 1/1/5 2/2/5 3/3/5 4/4/5 
f 8/4/6 7/3/6 6/2/6 5/1/6 
