o Cube_Cube.002
o Cube_Cube.002
v 6.021362 0.630626 -1.912399
v 9.356407 0.630626 -8.618319
v 6.021362 0.630626 -8.618319
v 9.356407 0.630626 -1.912399
v 5.980902 3.969164 -0.663409
v 5.980902 3.969164 -8.663409
v 9.980902 3.969164 -8.663409
v 9.980902 3.969164 -0.663409
v 5.980902 3.761240 -0.663409
v 5.980902 3.761240 -8.663409
v 9.980902 3.761240 -8.663409
v 9.980902 3.761240 -0.663409
v 5.980902 2.368369 -8.663409
v 9.980902 2.368369 -8.663409
v 9.980902 2.368369 -0.663409
v 5.980902 2.368369 -0.663409
v 5.980902 2.149552 -8.663409
v 9.980902 2.149552 -8.663409
v 9.980902 2.149552 -0.663409
v 5.980902 2.149552 -0.663409
v 5.980902 0.836870 -8.663409
v 9.980902 0.836870 -8.663409
v 9.980902 0.836870 -0.663409
v 5.980902 0.836870 -0.663409
v 5.980902 0.630626 -8.663409
v 9.980902 0.630626 -8.663409
v 9.980902 0.630626 -0.663409
v 5.980902 0.630626 -0.663409
v 6.021362 -0.208311 -1.912399
v 9.356407 -0.208311 -8.618319
v 6.021362 -0.208311 -8.618319
v 9.356407 -0.208311 -1.912399
v 6.148733 2.149552 -8.416505
v 8.688183 2.149552 -8.416505
v 8.688183 2.149552 -3.067498
v 6.148733 2.149552 -3.067498
v 6.148733 0.836870 -8.416505
v 8.688183 0.836870 -8.416505
v 8.688183 0.836870 -3.067498
v 6.148733 0.836870 -3.067498
v 6.148733 3.761240 -3.067498
v 6.148733 3.761240 -8.416505
v 8.688183 3.761240 -8.416505
v 8.688183 3.761240 -3.067498
v 6.148733 2.368369 -8.416505
v 8.688183 2.368369 -8.416505
v 8.688183 2.368369 -3.067498
v 6.148733 2.368369 -3.067498
vt 0.781761 -0.008984
vt 0.172625 -0.008984
vt 0.920039 -0.285539
vt 0.034348 -0.285539
vt 0.034348 1.485843
vt 0.172625 1.209288
vt 0.920039 1.485843
vt 0.781761 1.209288
vt 0.071509 0.246781
vt 0.071509 1.431173
vt 0.633801 1.431173
vt 0.633801 0.246781
vn 0.000000 0.000000 1.000000
vn 0.000000 -1.000000 -0.000000
vn 0.000000 1.000000 0.000000
vn -1.000000 0.000000 0.000000
vn 0.000000 0.000000 -1.000000
vn 1.000000 0.000000 0.000000
vn 0.000000 -1.000000 0.000001
usemtl Material.006
s off
f 4/1/1 1/2/1 29/2/1 32/1/1 
f 27/3/2 28/4/2 1/2/2 4/1/2 
f 28/4/2 25/5/2 3/6/2 1/2/2 
f 25/5/2 26/7/2 2/8/2 3/6/2 
f 26/7/2 27/3/2 4/1/2 2/8/2 
f 8/3/3 7/7/3 6/5/3 5/4/3 
f 5/4/4 6/5/4 10/5/4 9/4/4 
f 6/5/5 7/7/5 11/7/5 10/5/5 
f 7/7/6 8/3/6 12/3/6 11/7/6 
f 8/3/1 5/4/1 9/4/1 12/3/1 
f 13/5/3 16/4/3 48/9/3 45/10/3 
f 14/7/3 13/5/3 45/10/3 46/11/3 
f 15/3/3 14/7/3 46/11/3 47/12/3 
f 16/4/3 15/3/3 47/12/3 48/9/3 
f 16/4/4 13/5/4 17/5/4 20/4/4 
f 13/5/5 14/7/5 18/7/5 17/5/5 
f 14/7/6 15/3/6 19/3/6 18/7/6 
f 15/3/1 16/4/1 20/4/1 19/3/1 
f 21/5/3 24/4/3 40/9/3 37/10/3 
f 22/7/3 21/5/3 37/10/3 38/11/3 
f 23/3/3 22/7/3 38/11/3 39/12/3 
f 24/4/3 23/3/3 39/12/3 40/9/3 
f 24/4/4 21/5/4 25/5/4 28/4/4 
f 21/5/5 22/7/5 26/7/5 25/5/5 
f 22/7/6 23/3/6 27/3/6 26/7/6 
f 23/3/1 24/4/1 28/4/1 27/3/1 
f 1/2/4 3/6/4 31/6/4 29/2/4 
f 3/6/5 2/8/5 30/8/5 31/6/5 
f 2/8/6 4/1/6 32/1/6 30/8/6 
f 36/9/4 33/10/4 37/10/4 40/9/4 
f 33/10/5 34/11/5 38/11/5 37/10/5 
f 34/11/6 35/12/6 39/12/6 38/11/6 
f 35/12/1 36/9/1 40/9/1 39/12/1 
f 19/3/2 20/4/2 36/9/2 35/12/2 
f 18/7/2 19/3/2 35/12/2 34/11/2 
f 17/5/7 18/7/7 34/11/7 33/10/7 
f 20/4/2 17/5/2 33/10/2 36/9/2 
f 41/9/4 42/10/4 45/10/4 48/9/4 
f 42/10/5 43/11/5 46/11/5 45/10/5 
f 43/11/6 44/12/6 47/12/6 46/11/6 
f 44/12/1 41/9/1 48/9/1 47/12/1 
f 12/3/2 9/4/2 41/9/2 44/12/2 
f 11/7/2 12/3/2 44/12/2 43/11/2 
f 10/5/2 11/7/2 43/11/2 42/10/2 
f 9/4/2 10/5/2 42/10/2 41/9/2 
f 32/1/2 29/2/2 31/6/2 30/8/2 
