o Cube
o Cube
v 2.234863 0.513317 -14.273654
v 2.225320 0.513317 -5.838144
v 2.215777 4.192355 -56.740517
v 2.225320 4.182811 -56.740517
v 2.225320 4.201898 -56.740517
v 2.234863 4.192355 -56.740517
v 2.215777 0.513317 -14.273654
v 2.225320 0.503774 -14.273654
v 2.225320 0.522860 -14.273654
v -2.234860 0.513317 -14.273654
v -2.225317 0.513317 -5.838144
v -2.215774 4.192355 -56.740517
v -2.225317 4.182811 -56.740517
v -2.225317 4.201898 -56.740517
v -2.234860 4.192355 -56.740517
v -2.215774 0.513317 -14.273654
v -2.225317 0.503774 -14.273654
v -2.225317 0.522860 -14.273654
v 2.218163 0.506160 -14.273654
v 2.215777 0.513317 -5.838144
v 2.232477 0.520474 -14.273654
v 2.234863 0.513317 -5.838144
v 2.225320 0.522860 -5.838144
v 2.225320 0.503774 -5.838144
v 2.218163 0.520474 -14.273654
v 2.232477 0.506160 -14.273654
v 2.215777 7.871393 -90.771866
v 2.234863 7.871393 -90.771866
v 2.225320 7.861849 -90.771866
v 2.225320 7.880936 -90.771866
v 2.218163 4.185197 -56.740517
v 2.232477 4.199512 -56.740517
v 2.218163 4.199512 -56.740517
v 2.232477 4.185197 -56.740517
v 2.234863 1.433077 -29.108124
v 2.215777 1.433077 -29.108124
v 2.225320 1.423533 -29.108124
v 2.225320 1.442620 -29.108124
v -2.218160 0.506159 -14.273654
v -2.215774 0.513317 -5.838144
v -2.232474 0.520474 -14.273654
v -2.234860 0.513317 -5.838144
v -2.225317 0.522860 -5.838144
v -2.225317 0.503774 -5.838144
v -2.218160 0.520474 -14.273654
v -2.232474 0.506159 -14.273654
v -2.215774 7.871393 -90.771866
v -2.234860 7.871393 -90.771866
v -2.225317 7.861849 -90.771866
v -2.225317 7.880936 -90.771866
v -2.218160 4.185197 -56.740517
v -2.232474 4.199512 -56.740517
v -2.218160 4.199512 -56.740517
v -2.232474 4.185197 -56.740517
v -2.234860 1.433077 -29.108124
v -2.215774 1.433077 -29.108124
v -2.225317 1.423533 -29.108124
v -2.225317 1.442620 -29.108124
v 2.218163 0.506159 -5.838144
v 2.232477 0.506159 -5.838144
v 2.218163 0.520474 -5.838144
v 2.232477 0.520474 -5.838144
v 2.218163 7.878550 -90.771866
v 2.218163 7.864235 -90.771866
v 2.232477 7.878550 -90.771866
v 2.232477 7.864235 -90.771866
v 2.218163 1.425919 -29.108124
v 2.232477 1.440234 -29.108124
v 2.218163 1.440234 -29.108124
v 2.232477 1.425919 -29.108124
v -2.218160 0.506159 -5.838144
v -2.232474 0.506159 -5.838144
v -2.218160 0.520474 -5.838144
v -2.232474 0.520474 -5.838144
v -2.218160 7.878550 -90.771866
v -2.218160 7.864235 -90.771866
v -2.232474 7.878550 -90.771866
v -2.232474 7.864235 -90.771866
v -2.218160 1.425919 -29.108124
v -2.232474 1.440234 -29.108124
v -2.218160 1.440234 -29.108124
v -2.232474 1.425919 -29.108124
vt 0.264028 0.498094
vt 0.505686 0.498094
vt 0.505686 0.861820
vt 0.264028 0.861821
vt 0.022369 0.861821
vt 0.022369 0.498094
vt 0.022369 0.134367
vt 0.264028 0.134367
vt 0.505686 0.134367
vt 0.022369 0.983063
vt 0.022369 0.013125
vt 0.747345 0.498094
vt 0.747345 0.861821
vt 0.989003 0.861820
vt 0.989003 0.498094
vt 0.989003 0.134367
vt 0.747345 0.134367
vt 0.747345 0.013125
vt 0.505686 0.013125
vt 0.989003 0.013125
vt 0.747345 0.983063
vt 0.505686 0.983063
vt 0.989003 0.983063
vt 0.264028 0.013125
vt 0.264028 0.983063
vn 0.948501 0.316167 0.019603
vn 0.948679 0.316240 0.000000
vn 0.948680 -0.316239 -0.000000
vn 0.948501 -0.316168 -0.019603
vn 0.000041 0.000000 1.000000
vn -0.000055 0.000000 1.000000
vn 0.000027 0.000000 1.000000
vn -0.948213 0.316065 0.031560
vn -0.948133 0.316031 0.034166
vn -0.948135 -0.316025 -0.034165
vn -0.948202 -0.316097 -0.031563
vn -0.314824 -0.944453 -0.094310
vn -0.314504 -0.943757 -0.102026
vn 0.314631 -0.943716 -0.102021
vn 0.314850 -0.944444 -0.094310
vn 0.314791 0.944464 0.094312
vn 0.314548 0.943743 0.102024
vn -0.314631 0.943716 0.102021
vn -0.314817 0.944455 0.094311
vn 0.948135 0.316025 0.034165
vn 0.948218 0.316048 0.031560
vn 0.948207 -0.316081 -0.031563
vn 0.948138 -0.316016 -0.034164
vn -0.948679 0.316240 0.000000
vn -0.948501 0.316168 0.019603
vn -0.948501 -0.316167 -0.019603
vn -0.948680 -0.316239 -0.000000
vn -0.316236 -0.948681 0.000000
vn -0.315674 -0.947049 -0.058719
vn 0.315677 -0.947048 -0.058719
vn 0.316236 -0.948681 0.000000
vn 0.316239 0.948679 0.000000
vn 0.315674 0.947049 0.058719
vn -0.315677 0.947048 0.058719
vn -0.316239 0.948679 0.000000
vn -0.948499 0.316172 0.019603
vn -0.948680 0.316239 0.000000
vn 0.000000 0.000000 1.000000
vn -0.000027 0.000000 1.000000
vn 0.000055 0.000000 1.000000
vn -0.000014 0.000000 1.000000
vn 0.948213 0.316064 0.031560
vn 0.948201 -0.316098 -0.031563
vn 0.948130 -0.316043 -0.034164
vn 0.948126 0.316052 0.034165
vn 0.314817 -0.944455 -0.094311
vn -0.314857 -0.944442 -0.094309
vn -0.314610 -0.943722 -0.102022
vn 0.314533 -0.943747 -0.102028
vn -0.314802 0.944460 0.094311
vn 0.314824 0.944453 0.094310
vn 0.314664 0.943704 0.102023
vn -0.314524 0.943751 0.102025
vn -0.948209 0.316076 0.031561
vn 0.948680 0.316239 0.000000
vn 0.316232 -0.948682 0.000000
vn -0.316232 -0.948682 0.000000
vn -0.315692 0.947043 0.058718
usemtl JetBurner_long2
s off
f 1/1/1 35/2/1 68/3/1 21/4/1 
f 1/1/2 21/4/2 62/5/2 22/6/2 
f 1/1/3 22/6/3 60/7/3 26/8/3 
f 1/1/4 26/8/4 70/9/4 35/2/4 
f 2/6/5 22/6/5 62/5/5 23/10/5 
f 2/6/6 23/10/6 61/5/6 20/6/6 
f 2/6/7 20/6/7 59/7/7 24/11/7 
f 2/6/6 24/11/6 60/7/6 22/6/6 
f 3/12/8 36/2/8 69/3/8 33/13/8 
f 3/12/9 33/13/9 63/14/9 27/15/9 
f 3/12/10 27/15/10 64/16/10 31/17/10 
f 3/12/11 31/17/11 67/9/11 36/2/11 
f 4/18/12 37/19/12 67/9/12 31/17/12 
f 4/18/13 31/17/13 64/16/13 29/20/13 
f 4/18/14 29/20/14 66/16/14 34/17/14 
f 4/18/15 34/17/15 70/9/15 37/19/15 
f 5/21/16 38/22/16 68/3/16 32/13/16 
f 5/21/17 32/13/17 65/14/17 30/23/17 
f 5/21/18 30/23/18 63/14/18 33/13/18 
f 5/21/19 33/13/19 69/3/19 38/22/19 
f 6/12/20 28/15/20 65/14/20 32/13/20 
f 6/12/21 32/13/21 68/3/21 35/2/21 
f 6/12/22 35/2/22 70/9/22 34/17/22 
f 6/12/23 34/17/23 66/16/23 28/15/23 
f 7/1/24 20/6/24 61/5/24 25/4/24 
f 7/1/25 25/4/25 69/3/25 36/2/25 
f 7/1/26 36/2/26 67/9/26 19/8/26 
f 7/1/27 19/8/27 59/7/27 20/6/27 
f 8/24/28 24/11/28 59/7/28 19/8/28 
f 8/24/29 19/8/29 67/9/29 37/19/29 
f 8/24/30 37/19/30 70/9/30 26/8/30 
f 8/24/31 26/8/31 60/7/31 24/11/31 
f 9/25/32 23/10/32 62/5/32 21/4/32 
f 9/25/33 21/4/33 68/3/33 38/22/33 
f 9/25/34 38/22/34 69/3/34 25/4/34 
f 9/25/35 25/4/35 61/5/35 23/10/35 
f 10/1/36 41/4/36 80/3/36 55/2/36 
f 10/1/26 55/2/26 82/9/26 46/8/26 
f 10/1/27 46/8/27 72/7/27 42/6/27 
f 10/1/37 42/6/37 74/5/37 41/4/37 
f 11/6/38 43/10/38 74/5/38 42/6/38 
f 11/6/39 42/6/39 72/7/39 44/11/39 
f 11/6/40 44/11/40 71/7/40 40/6/40 
f 11/6/41 40/6/41 73/5/41 43/10/41 
f 12/12/42 53/13/42 81/3/42 56/2/42 
f 12/12/43 56/2/43 79/9/43 51/17/43 
f 12/12/44 51/17/44 76/16/44 47/15/44 
f 12/12/45 47/15/45 75/14/45 53/13/45 
f 13/18/46 51/17/46 79/9/46 57/19/46 
f 13/18/47 57/19/47 82/9/47 54/17/47 
f 13/18/48 54/17/48 78/16/48 49/20/48 
f 13/18/49 49/20/49 76/16/49 51/17/49 
f 14/21/50 52/13/50 80/3/50 58/22/50 
f 14/21/51 58/22/51 81/3/51 53/13/51 
f 14/21/52 53/13/52 75/14/52 50/23/52 
f 14/21/53 50/23/53 77/14/53 52/13/53 
f 15/12/9 52/13/9 77/14/9 48/15/9 
f 15/12/10 48/15/10 78/16/10 54/17/10 
f 15/12/11 54/17/11 82/9/11 55/2/11 
f 15/12/54 55/2/54 80/3/54 52/13/54 
f 16/1/55 45/4/55 73/5/55 40/6/55 
f 16/1/3 40/6/3 71/7/3 39/8/3 
f 16/1/4 39/8/4 79/9/4 56/2/4 
f 16/1/1 56/2/1 81/3/1 45/4/1 
f 17/24/56 39/8/56 71/7/56 44/11/56 
f 17/24/57 44/11/57 72/7/57 46/8/57 
f 17/24/29 46/8/29 82/9/29 57/19/29 
f 17/24/30 57/19/30 79/9/30 39/8/30 
f 18/25/35 41/4/35 74/5/35 43/10/35 
f 18/25/32 43/10/32 73/5/32 45/4/32 
f 18/25/33 45/4/33 81/3/33 58/22/33 
f 18/25/58 58/22/58 80/3/58 41/4/58 
