o Cube.004_FallingCube
o Cube.004_FallingCube
v 5.582182 5.486238 4.036496
v 4.850032 6.648450 2.582804
v 6.698960 6.923752 1.871696
v 7.431110 5.761540 3.325387
v 5.795310 7.090442 5.211700
v 5.063159 8.252654 3.758008
v 6.912087 8.527957 3.046900
v 7.644237 7.365745 4.500592
vn -0.924464 -0.137651 0.355554
vn -0.366075 0.581106 -0.726846
vn 0.924464 0.137651 -0.355554
vn 0.366075 -0.581106 0.726846
vn -0.106563 -0.802102 -0.587602
vn 0.106563 0.802102 0.587602
usemtl Material.005
s off
f 5//1 6//1 2//1 1//1 
f 6//2 7//2 3//2 2//2 
f 7//3 8//3 4//3 3//3 
f 8//4 5//4 1//4 4//4 
f 1//5 2//5 3//5 4//5 
f 8//6 7//6 6//6 5//6 
