o Cylinder_Cylinder.001
o Cylinder_Cylinder.001
v -0.237075 0.003084 -0.703109
v -0.237075 3.062218 -0.940617
v -0.088320 0.003084 -0.688458
v -0.041985 3.062218 -0.921402
v 0.054718 0.003084 -0.645068
v 0.145608 3.062218 -0.864497
v 0.186543 0.003084 -0.574606
v 0.318495 3.062218 -0.772087
v 0.302088 0.003084 -0.479781
v 0.470032 3.062218 -0.647724
v 0.396914 0.003084 -0.364235
v 0.594395 3.062218 -0.496187
v 0.467376 0.003084 -0.232410
v 0.686804 3.062218 -0.323301
v 0.510766 0.003084 -0.089372
v 0.743710 3.062218 -0.135708
v 0.525417 0.003084 0.059383
v 0.762925 3.062218 0.059383
v 0.510766 0.003084 0.208137
v 0.743710 3.062218 0.254473
v 0.467376 0.003084 0.351176
v 0.686804 3.062218 0.442066
v 0.396914 0.003084 0.483001
v 0.594395 3.062218 0.614953
v 0.302088 0.003084 0.598546
v 0.470032 3.062218 0.766490
v 0.186543 0.003084 0.693372
v 0.318495 3.062218 0.890852
v 0.054718 0.003084 0.763834
v 0.145608 3.062218 0.983262
v -0.088320 0.003084 0.807224
v -0.041985 3.062218 1.040168
v -0.237075 0.003084 0.821875
v -0.237075 3.062218 1.059383
v -0.385830 0.003084 0.807224
v -0.432166 3.062218 1.040168
v -0.528869 0.003084 0.763833
v -0.619759 3.062218 0.983262
v -0.660693 0.003084 0.693371
v -0.792646 3.062218 0.890852
v -0.776239 0.003084 0.598546
v -0.944182 3.062218 0.766489
v -0.871064 0.003084 0.483000
v -1.068545 3.062218 0.614952
v -0.941526 0.003084 0.351175
v -1.160955 3.062218 0.442065
v -0.984916 0.003084 0.208137
v -1.217861 3.062218 0.254472
v -0.999567 0.003084 0.059382
v -1.237075 3.062218 0.059382
v -0.984916 0.003084 -0.089373
v -1.217860 3.062218 -0.135709
v -0.941526 0.003084 -0.232411
v -1.160954 3.062218 -0.323302
v -0.871064 0.003084 -0.364236
v -1.068544 3.062218 -0.496188
v -0.776238 0.003084 -0.479781
v -0.944181 3.062218 -0.647725
v -0.660692 0.003084 -0.574607
v -0.792644 3.062218 -0.772088
v -0.528867 0.003084 -0.645069
v -0.619757 3.062218 -0.864497
v -0.385829 0.003084 -0.688458
v -0.432164 3.062218 -0.921403
v -0.237075 3.062218 -0.829529
v -0.063657 3.062218 -0.812449
v 0.103097 3.062218 -0.761864
v 0.256778 3.062218 -0.679720
v 0.391480 3.062218 -0.569173
v 0.502028 3.062218 -0.434470
v 0.584172 3.062218 -0.280789
v 0.634756 3.062218 -0.114035
v 0.651837 3.062218 0.059383
v 0.634756 3.062218 0.232801
v 0.584172 3.062218 0.399554
v 0.502028 3.062218 0.553236
v 0.391480 3.062218 0.687938
v 0.256778 3.062218 0.798486
v 0.103097 3.062218 0.880630
v -0.063657 3.062218 0.931214
v -0.237075 3.062218 0.948294
v -0.410493 3.062218 0.931214
v -0.577247 3.062218 0.880630
v -0.730928 3.062218 0.798486
v -0.865631 3.062218 0.687938
v -0.976178 3.062218 0.553235
v -1.058323 3.062218 0.399554
v -1.108907 3.062218 0.232800
v -1.125987 3.062218 0.059382
v -1.108906 3.062218 -0.114036
v -1.058322 3.062218 -0.280790
v -0.976178 3.062218 -0.434471
v -0.865630 3.062218 -0.569174
v -0.730927 3.062218 -0.679721
v -0.577246 3.062218 -0.761865
v -0.410492 3.062218 -0.812449
v -0.237075 0.089063 -0.618405
v -0.104845 0.089063 -0.605382
v 0.022303 0.089063 -0.566812
v 0.139483 0.089063 -0.504178
v 0.242193 0.089063 -0.419886
v 0.326485 0.089063 -0.317176
v 0.389119 0.089063 -0.199996
v 0.427689 0.089063 -0.072847
v 0.440713 0.089063 0.059383
v 0.427689 0.089063 0.191613
v 0.389119 0.089063 0.318761
v 0.326485 0.089063 0.435942
v 0.242193 0.089063 0.538651
v 0.139483 0.089063 0.622943
v 0.022303 0.089063 0.685577
v -0.104846 0.089063 0.724147
v -0.237076 0.089063 0.737171
v -0.369306 0.089063 0.724147
v -0.496454 0.089063 0.685577
v -0.613635 0.089063 0.622943
v -0.716344 0.089063 0.538651
v -0.800636 0.089063 0.435941
v -0.863270 0.089063 0.318760
v -0.901840 0.089063 0.191612
v -0.914863 0.089063 0.059382
v -0.901840 0.089063 -0.072848
v -0.863270 0.089063 -0.199996
v -0.800635 0.089063 -0.317177
v -0.716343 0.089063 -0.419886
v -0.613634 0.089063 -0.504178
v -0.496453 0.089063 -0.566812
v -0.369304 0.089063 -0.605382
v -0.237075 3.022240 -0.937513
v -0.042590 3.022240 -0.918358
v 0.144421 3.022240 -0.861629
v 0.316771 3.022240 -0.769506
v 0.467837 3.022240 -0.645529
v 0.591814 3.022240 -0.494463
v 0.683937 3.022240 -0.322113
v 0.740666 3.022240 -0.135102
v 0.759821 3.022240 0.059383
v 0.740666 3.022240 0.253867
v 0.683937 3.022240 0.440878
v 0.591814 3.022240 0.613229
v 0.467837 3.022240 0.764295
v 0.316771 3.022240 0.888272
v 0.144420 3.022240 0.980395
v -0.042591 3.022240 1.037124
v -0.237075 3.022240 1.056279
v -0.431560 3.022240 1.037124
v -0.618571 3.022240 0.980394
v -0.790921 3.022240 0.888271
v -0.941988 3.022240 0.764294
v -1.065964 3.022240 0.613228
v -1.158087 3.022240 0.440878
v -1.214816 3.022240 0.253867
v -1.233971 3.022240 0.059382
v -1.214816 3.022240 -0.135103
v -1.158087 3.022240 -0.322114
v -1.065963 3.022240 -0.494464
v -0.941986 3.022240 -0.645530
v -0.790920 3.022240 -0.769507
v -0.618569 3.022240 -0.861630
v -0.431558 3.022240 -0.918359
v -0.237075 2.974772 -0.823319
v -0.409280 2.974772 -0.806359
v -0.971015 2.974772 0.549785
v -0.861240 2.974772 0.683547
v 0.578435 2.974773 0.397178
v 0.628666 2.974773 0.231589
v -0.574869 2.974772 -0.756128
v -0.727477 2.974772 -0.674558
v -0.727479 2.974772 0.793323
v -0.574871 2.974772 0.874893
v 0.645627 2.974772 0.059383
v 0.628666 2.974772 -0.112824
v -0.861239 2.974772 -0.564783
v -0.971014 2.974772 -0.431021
v -0.409282 2.974772 0.925124
v -0.237075 2.974772 0.942085
v 0.578435 2.974772 -0.278413
v 0.496865 2.974772 -0.431020
v -1.052585 2.974772 -0.278414
v -1.102816 2.974772 -0.112825
v 0.387090 2.974772 -0.564782
v 0.253328 2.974772 -0.674557
v -0.064869 2.974772 0.925124
v 0.100720 2.974772 0.874893
v -1.119777 2.974772 0.059382
v -1.102816 2.974772 0.231589
v 0.100720 2.974772 -0.756128
v -0.064868 2.974772 -0.806358
v 0.253328 2.974772 0.793323
v 0.387090 2.974772 0.683547
v -1.052586 2.974772 0.397178
v 0.496865 2.974772 0.549786
v -0.370111 0.147330 -0.609440
v -0.719270 0.147330 0.541577
v 0.431747 0.147330 0.192420
v -0.615932 0.147330 -0.507618
v -0.498037 0.147330 0.689400
v 0.431747 0.147330 -0.073654
v -0.804075 0.147330 -0.319476
v -0.237076 0.147330 0.741308
v 0.329925 0.147330 -0.319475
v -0.905898 0.147330 -0.073655
v 0.141782 0.147330 -0.507618
v 0.023886 0.147330 0.689400
v -0.905898 0.147330 0.192419
v -0.104038 0.147330 -0.609440
v 0.245119 0.147330 0.541577
v -0.237075 0.147330 -0.622543
v -0.804076 0.147330 0.438240
v 0.392942 0.147330 0.320344
v -0.498036 0.147330 -0.570635
v -0.615933 0.147330 0.626383
v 0.444850 0.147330 0.059383
v -0.719269 0.147330 -0.422812
v -0.370113 0.147330 0.728205
v 0.392942 0.147330 -0.201579
v -0.867092 0.147330 -0.201580
v 0.245119 0.147330 -0.422812
v -0.104038 0.147330 0.728205
v -0.919001 0.147330 0.059382
v 0.023886 0.147330 -0.570634
v 0.141782 0.147330 0.626383
v -0.867093 0.147330 0.320344
v 0.329925 0.147330 0.438240
v -0.087840 0.034792 -0.690873
v 0.055660 0.034792 -0.647342
v 0.187910 0.034792 -0.576653
v 0.303829 0.034792 -0.481521
v 0.398961 0.034792 -0.365603
v 0.469650 0.034792 -0.233352
v 0.513180 0.034792 -0.089852
v 0.527879 0.034792 0.059383
v 0.513180 0.034792 0.208618
v 0.469650 0.034792 0.352118
v 0.398961 0.034792 0.484368
v 0.303829 0.034792 0.600287
v 0.187910 0.034792 0.695419
v 0.055660 0.034792 0.766108
v -0.087840 0.034792 0.809638
v -0.237075 0.034792 0.824336
v -0.386311 0.034792 0.809638
v -0.529811 0.034792 0.766108
v -0.662061 0.034792 0.695418
v -0.777979 0.034792 0.600286
v -0.873111 0.034792 0.484368
v -0.943801 0.034792 0.352117
v -0.987331 0.034792 0.208617
v -1.002029 0.034792 0.059382
v -0.987330 0.034792 -0.089853
v -0.943800 0.034792 -0.233353
v -0.873110 0.034792 -0.365604
v -0.777978 0.034792 -0.481522
v -0.662060 0.034792 -0.576654
v -0.529809 0.034792 -0.647343
v -0.386309 0.034792 -0.690873
v -0.237075 0.034792 -0.705571
vn 0.000000 -0.077395 -0.996979
vn 0.000000 0.657125 -0.753746
vn 0.147038 0.657125 -0.739280
vn 0.194494 -0.077395 -0.977813
vn 0.288430 0.657125 -0.696371
vn 0.381512 -0.077395 -0.921079
vn 0.418744 0.657125 -0.626728
vn 0.553880 -0.077395 -0.828974
vn 0.532975 0.657125 -0.532975
vn 0.704978 -0.077395 -0.704978
vn 0.626728 0.657125 -0.418744
vn 0.828974 -0.077395 -0.553880
vn 0.696371 0.657125 -0.288430
vn 0.921079 -0.077395 -0.381512
vn 0.739280 0.657125 -0.147038
vn 0.977813 -0.077395 -0.194494
vn 0.753746 0.657125 0.000000
vn 0.996979 -0.077395 0.000000
vn 0.739280 0.657125 0.147038
vn 0.977813 -0.077395 0.194494
vn 0.696371 0.657125 0.288430
vn 0.921079 -0.077395 0.381512
vn 0.626728 0.657125 0.418744
vn 0.828974 -0.077395 0.553880
vn 0.532975 0.657125 0.532975
vn 0.704978 -0.077395 0.704978
vn 0.418775 0.657125 0.626728
vn 0.553880 -0.077395 0.828974
vn 0.288430 0.657125 0.696371
vn 0.381512 -0.077395 0.921079
vn 0.147038 0.657125 0.739280
vn 0.194494 -0.077395 0.977813
vn 0.000000 0.657125 0.753746
vn 0.000000 -0.077395 0.996979
vn -0.147038 0.657125 0.739280
vn -0.194494 -0.077395 0.977813
vn -0.288430 0.657125 0.696371
vn -0.381512 -0.077395 0.921079
vn -0.418744 0.657125 0.626728
vn -0.553880 -0.077395 0.828974
vn -0.532975 0.657125 0.532975
vn -0.704978 -0.077395 0.704978
vn -0.626728 0.657125 0.418775
vn -0.828974 -0.077395 0.553880
vn -0.696371 0.657125 0.288430
vn -0.921079 -0.077395 0.381512
vn -0.739280 0.657125 0.147038
vn -0.977813 -0.077395 0.194494
vn -0.753746 0.657125 0.000000
vn -0.996979 -0.077395 0.000000
vn -0.739280 0.657125 -0.147038
vn -0.977813 -0.077395 -0.194494
vn -0.696371 0.657125 -0.288430
vn -0.921079 -0.077395 -0.381512
vn -0.626728 0.657125 -0.418775
vn -0.828974 -0.077395 -0.553880
vn -0.532975 0.657125 -0.532975
vn -0.704978 -0.077395 -0.704978
vn -0.418744 0.657125 -0.626728
vn -0.553880 -0.077395 -0.828974
vn -0.288430 0.657125 -0.696371
vn -0.381512 -0.077395 -0.921079
vn 0.546648 0.753471 0.365246
vn 0.464888 0.753471 0.464888
vn -0.194494 -0.077395 -0.977813
vn -0.147038 0.657125 -0.739280
vn 0.000000 -0.713340 -0.700766
vn 0.136692 -0.713340 -0.687307
vn 0.268166 -0.713340 -0.647420
vn 0.389325 -0.713340 -0.582659
vn 0.495529 -0.713340 -0.495529
vn 0.582659 -0.713340 -0.389325
vn 0.647420 -0.713340 -0.268166
vn 0.687307 -0.713340 -0.136692
vn 0.700766 -0.713340 0.000000
vn 0.687307 -0.713340 0.136692
vn 0.647420 -0.713340 0.268166
vn 0.582659 -0.713340 0.389325
vn 0.495529 -0.713340 0.495529
vn 0.389325 -0.713340 0.582659
vn 0.268166 -0.713340 0.647420
vn 0.136692 -0.713340 0.687307
vn 0.000000 -0.713340 0.700766
vn -0.136692 -0.713340 0.687307
vn -0.268166 -0.713340 0.647420
vn -0.389325 -0.713340 0.582659
vn -0.495529 -0.713340 0.495529
vn -0.582659 -0.713340 0.389325
vn -0.647420 -0.713340 0.268166
vn -0.687307 -0.713340 0.136692
vn -0.700766 -0.713340 0.000000
vn -0.687307 -0.713340 -0.136692
vn -0.647420 -0.713340 -0.268166
vn -0.582659 -0.713340 -0.389325
vn -0.495529 -0.713340 -0.495529
vn -0.389325 -0.713340 -0.582659
vn -0.268166 -0.713340 -0.647420
vn -0.136692 -0.713340 -0.687307
vn 0.000000 0.070803 0.997467
vn 0.194586 0.070803 0.978301
vn 0.137150 0.711020 0.689627
vn 0.000000 0.711020 0.703116
vn 0.000000 0.753471 -0.657430
vn 0.128239 0.753471 -0.644795
vn -0.546648 0.753471 0.365246
vn -0.607410 0.753471 0.251595
vn 0.251595 0.753471 0.607410
vn 0.128239 0.753471 0.644826
vn 0.365246 0.753471 -0.546648
vn 0.464888 0.753471 -0.464888
vn -0.657430 0.753471 0.000000
vn -0.644826 0.753471 -0.128239
vn 0.607410 0.753471 -0.251595
vn 0.644826 0.753471 -0.128239
vn -0.546648 0.753471 -0.365246
vn -0.464888 0.753471 -0.464888
vn 0.644826 0.753471 0.128239
vn 0.607410 0.753471 0.251595
vn -0.365246 0.753471 0.546648
vn -0.464888 0.753471 0.464888
vn -0.251595 0.753471 -0.607410
vn -0.128239 0.753471 -0.644826
vn 0.365246 0.753471 0.546648
vn 0.251595 0.753471 -0.607410
vn -0.644826 0.753471 0.128239
vn 0.000000 0.753471 0.657430
vn 0.546648 0.753471 -0.365246
vn -0.607410 0.753471 -0.251595
vn 0.657430 0.753471 0.000000
vn -0.128239 0.753471 0.644826
vn -0.251595 0.753471 0.607410
vn -0.365246 0.753471 -0.546648
vn -0.137150 0.711020 0.689627
vn 0.269051 0.711020 0.649617
vn 0.390637 0.711020 0.584643
vn 0.497177 0.711020 0.497177
vn 0.584613 0.711020 0.390637
vn 0.649617 0.711020 0.269082
vn 0.689627 0.711020 0.137150
vn 0.703116 0.711020 0.000000
vn 0.689627 0.711020 -0.137150
vn 0.649617 0.711020 -0.269051
vn 0.584643 0.711020 -0.390637
vn 0.497177 0.711020 -0.497177
vn 0.390637 0.711020 -0.584643
vn 0.269082 0.711020 -0.649617
vn 0.137150 0.711020 -0.689627
vn 0.000000 0.711020 -0.703116
vn -0.137150 0.711020 -0.689627
vn -0.269051 0.711020 -0.649617
vn -0.390637 0.711020 -0.584643
vn -0.497177 0.711020 -0.497177
vn -0.584613 0.711020 -0.390637
vn -0.649617 0.711020 -0.269051
vn -0.689627 0.711020 -0.137150
vn -0.703116 0.711020 0.000000
vn -0.689627 0.711020 0.137150
vn -0.649617 0.711020 0.269051
vn -0.584643 0.711020 0.390637
vn -0.497177 0.711020 0.497177
vn -0.390637 0.711020 0.584643
vn -0.269051 0.711020 0.649617
vn 0.829371 0.070803 -0.554155
vn 0.705313 0.070803 -0.705313
vn -0.921537 0.070803 -0.381695
vn -0.978301 0.070803 -0.194586
vn 0.381695 0.070803 0.921537
vn 0.554155 0.070803 0.829371
vn 0.554155 0.070803 -0.829371
vn 0.381695 0.070803 -0.921537
vn -0.997467 0.070803 0.000000
vn -0.978301 0.070803 0.194586
vn 0.705313 0.070803 0.705313
vn 0.829371 0.070803 0.554155
vn 0.194586 0.070803 -0.978301
vn 0.000000 0.070803 -0.997467
vn -0.921537 0.070803 0.381695
vn -0.829371 0.070803 0.554155
vn 0.921537 0.070803 0.381695
vn 0.978301 0.070803 0.194586
vn -0.705313 0.070803 0.705313
vn -0.554155 0.070803 0.829371
vn -0.194586 0.070803 -0.978301
vn -0.381695 0.070803 -0.921537
vn 0.997467 0.070803 0.000000
vn 0.978301 0.070803 -0.194586
vn -0.381695 0.070803 0.921537
vn -0.194586 0.070803 0.978301
vn -0.554155 0.070803 -0.829371
vn -0.705313 0.070803 -0.705313
vn 0.921537 0.070803 -0.381695
vn -0.829371 0.070803 -0.554155
usemtl Material.003
s 1
f 129//1 2//2 4//3 130//4 
f 130//4 4//3 6//5 131//6 
f 131//6 6//5 8//7 132//8 
f 132//8 8//7 10//9 133//10 
f 133//10 10//9 12//11 134//12 
f 134//12 12//11 14//13 135//14 
f 135//14 14//13 16//15 136//16 
f 136//16 16//15 18//17 137//18 
f 137//18 18//17 20//19 138//20 
f 138//20 20//19 22//21 139//22 
f 139//22 22//21 24//23 140//24 
f 140//24 24//23 26//25 141//26 
f 141//26 26//25 28//27 142//28 
f 142//28 28//27 30//29 143//30 
f 143//30 30//29 32//31 144//32 
f 144//32 32//31 34//33 145//34 
f 145//34 34//33 36//35 146//36 
f 146//36 36//35 38//37 147//38 
f 147//38 38//37 40//39 148//40 
f 148//40 40//39 42//41 149//42 
f 149//42 42//41 44//43 150//44 
f 150//44 44//43 46//45 151//46 
f 151//46 46//45 48//47 152//48 
f 152//48 48//47 50//49 153//50 
f 153//50 50//49 52//51 154//52 
f 154//52 52//51 54//53 155//54 
f 155//54 54//53 56//55 156//56 
f 156//56 56//55 58//57 157//58 
f 157//58 58//57 60//59 158//60 
f 158//60 60//59 62//61 159//62 
f 58//57 56//55 92//63 93//64 
f 160//65 64//66 2//2 129//1 
f 159//62 62//61 64//66 160//65 
f 1//67 3//68 5//69 7//70 9//71 11//72 13//73 15//74 17//75 19//76 21//77 23//78 25//79 27//80 29//81 31//82 33//83 35//84 37//85 39//86 41//87 43//88 45//89 47//90 49//91 51//92 53//93 55//94 57//95 59//96 61//97 63//98 
f 208//99 193//100 128//101 97//102 
f 36//35 34//33 81//103 82//104 
f 14//13 12//11 70//105 71//106 
f 64//66 62//61 95//107 96//108 
f 42//41 40//39 84//109 85//110 
f 20//19 18//17 73//111 74//112 
f 48//47 46//45 87//113 88//114 
f 26//25 24//23 76//115 77//116 
f 54//53 52//51 90//117 91//118 
f 10//9 8//7 68//119 69//120 
f 32//31 30//29 79//121 80//122 
f 60//59 58//57 93//64 94//123 
f 38//37 36//35 82//104 83//124 
f 16//15 14//13 71//106 72//125 
f 2//2 64//66 96//108 65//126 
f 44//43 42//41 85//110 86//127 
f 22//21 20//19 74//112 75//128 
f 50//49 48//47 88//114 89//129 
f 6//5 4//3 66//130 67//131 
f 28//27 26//25 77//116 78//132 
f 56//55 54//53 91//118 92//63 
f 12//11 10//9 69//120 70//105 
f 34//33 32//31 80//122 81//103 
f 62//61 60//59 94//123 95//107 
f 40//39 38//37 83//124 84//109 
f 4//3 2//2 65//126 66//130 
f 18//17 16//15 72//125 73//111 
f 46//45 44//43 86//127 87//113 
f 24//23 22//21 75//128 76//115 
f 52//51 50//49 89//129 90//117 
f 8//7 6//5 67//131 68//119 
f 30//29 28//27 78//132 79//121 
f 98//133 97//102 128//101 127//134 126//135 125//136 124//137 123//138 122//139 121//140 120//141 119//142 118//143 117//144 116//145 115//146 114//147 113//148 112//149 111//150 110//151 109//152 108//153 107//154 106//155 105//156 104//157 103//158 102//159 101//160 100//161 99//162 
f 209//163 194//164 117//144 118//143 
f 210//165 195//166 106//155 107//154 
f 211//167 196//168 126//135 127//134 
f 212//169 197//170 115//146 116//145 
f 213//171 198//172 104//157 105//156 
f 214//173 199//174 124//137 125//136 
f 215//175 200//176 113//148 114//147 
f 216//177 201//178 102//159 103//158 
f 217//179 202//180 122//139 123//138 
f 218//181 203//182 100//161 101//160 
f 219//183 204//184 111//150 112//149 
f 220//185 205//186 120//141 121//140 
f 221//187 206//188 98//133 99//162 
f 222//189 207//190 109//152 110//151 
f 223//191 209//163 118//143 119//142 
f 224//192 210//165 107//154 108//153 
f 193//100 211//167 127//134 128//101 
f 194//164 212//169 116//145 117//144 
f 195//166 213//171 105//156 106//155 
f 196//168 214//173 125//136 126//135 
f 197//170 215//175 114//147 115//146 
f 198//172 216//177 103//158 104//157 
f 199//174 217//179 123//138 124//137 
f 201//178 218//181 101//160 102//159 
f 200//176 219//183 112//149 113//148 
f 202//180 220//185 121//140 122//139 
f 203//182 221//187 99//162 100//161 
f 204//184 222//189 110//151 111//150 
f 205//186 223//191 119//142 120//141 
f 206//188 208//99 97//102 98//133 
f 207//190 224//192 108//153 109//152 
f 256//1 129//1 130//4 225//4 
f 225//4 130//4 131//6 226//6 
f 226//6 131//6 132//8 227//8 
f 227//8 132//8 133//10 228//10 
f 228//10 133//10 134//12 229//12 
f 229//12 134//12 135//14 230//14 
f 230//14 135//14 136//16 231//16 
f 231//16 136//16 137//18 232//18 
f 232//18 137//18 138//20 233//20 
f 233//20 138//20 139//22 234//22 
f 234//22 139//22 140//24 235//24 
f 235//24 140//24 141//26 236//26 
f 236//26 141//26 142//28 237//28 
f 237//28 142//28 143//30 238//30 
f 238//30 143//30 144//32 239//32 
f 239//32 144//32 145//34 240//34 
f 240//34 145//34 146//36 241//36 
f 241//36 146//36 147//38 242//38 
f 242//38 147//38 148//40 243//40 
f 243//40 148//40 149//42 244//42 
f 244//42 149//42 150//44 245//44 
f 245//44 150//44 151//46 246//46 
f 246//46 151//46 152//48 247//48 
f 247//48 152//48 153//50 248//50 
f 248//50 153//50 154//52 249//52 
f 249//52 154//52 155//54 250//54 
f 250//54 155//54 156//56 251//56 
f 251//56 156//56 157//58 252//58 
f 252//58 157//58 158//60 253//60 
f 253//60 158//60 159//62 254//62 
f 255//65 160//65 129//1 256//1 
f 254//62 159//62 160//65 255//65 
f 65//126 96//108 162//100 161//99 
f 86//127 85//110 164//164 163//163 
f 75//128 74//112 166//166 165//165 
f 95//107 94//123 168//168 167//167 
f 84//109 83//124 170//170 169//169 
f 73//111 72//125 172//172 171//171 
f 93//64 92//63 174//174 173//173 
f 82//104 81//103 176//176 175//175 
f 71//106 70//105 178//178 177//177 
f 91//118 90//117 180//180 179//179 
f 69//120 68//119 182//182 181//181 
f 80//122 79//121 184//184 183//183 
f 89//129 88//114 186//186 185//185 
f 67//131 66//130 188//188 187//187 
f 78//132 77//116 190//190 189//189 
f 87//113 86//127 163//163 191//191 
f 76//115 75//128 165//165 192//192 
f 96//108 95//107 167//167 162//100 
f 85//110 84//109 169//169 164//164 
f 74//112 73//111 171//171 166//166 
f 94//123 93//64 173//173 168//168 
f 83//124 82//104 175//175 170//170 
f 72//125 71//106 177//177 172//172 
f 92//63 91//118 179//179 174//174 
f 70//105 69//120 181//181 178//178 
f 81//103 80//122 183//183 176//176 
f 90//117 89//129 185//185 180//180 
f 68//119 67//131 187//187 182//182 
f 79//121 78//132 189//189 184//184 
f 88//114 87//113 191//191 186//186 
f 66//130 65//126 161//99 188//188 
f 77//116 76//115 192//192 190//190 
f 161//99 162//100 193//100 208//99 
f 163//163 164//164 194//164 209//163 
f 165//165 166//166 195//166 210//165 
f 167//167 168//168 196//168 211//167 
f 169//169 170//170 197//170 212//169 
f 171//171 172//172 198//172 213//171 
f 173//173 174//174 199//174 214//173 
f 175//175 176//176 200//176 215//175 
f 177//177 178//178 201//178 216//177 
f 179//179 180//180 202//180 217//179 
f 181//181 182//182 203//182 218//181 
f 183//183 184//184 204//184 219//183 
f 185//185 186//186 205//186 220//185 
f 187//187 188//188 206//188 221//187 
f 189//189 190//190 207//190 222//189 
f 191//191 163//163 209//163 223//191 
f 192//192 165//165 210//165 224//192 
f 162//100 167//167 211//167 193//100 
f 164//164 169//169 212//169 194//164 
f 166//166 171//171 213//171 195//166 
f 168//168 173//173 214//173 196//168 
f 170//170 175//175 215//175 197//170 
f 172//172 177//177 216//177 198//172 
f 174//174 179//179 217//179 199//174 
f 178//178 181//181 218//181 201//178 
f 176//176 183//183 219//183 200//176 
f 180//180 185//185 220//185 202//180 
f 182//182 187//187 221//187 203//182 
f 184//184 189//189 222//189 204//184 
f 186//186 191//191 223//191 205//186 
f 188//188 161//99 208//99 206//188 
f 190//190 192//192 224//192 207//190 
f 1//67 256//1 225//4 3//68 
f 3//68 225//4 226//6 5//69 
f 5//69 226//6 227//8 7//70 
f 7//70 227//8 228//10 9//71 
f 9//71 228//10 229//12 11//72 
f 11//72 229//12 230//14 13//73 
f 13//73 230//14 231//16 15//74 
f 15//74 231//16 232//18 17//75 
f 17//75 232//18 233//20 19//76 
f 19//76 233//20 234//22 21//77 
f 21//77 234//22 235//24 23//78 
f 23//78 235//24 236//26 25//79 
f 25//79 236//26 237//28 27//80 
f 27//80 237//28 238//30 29//81 
f 29//81 238//30 239//32 31//82 
f 31//82 239//32 240//34 33//83 
f 33//83 240//34 241//36 35//84 
f 35//84 241//36 242//38 37//85 
f 37//85 242//38 243//40 39//86 
f 39//86 243//40 244//42 41//87 
f 41//87 244//42 245//44 43//88 
f 43//88 245//44 246//46 45//89 
f 45//89 246//46 247//48 47//90 
f 47//90 247//48 248//50 49//91 
f 49//91 248//50 249//52 51//92 
f 51//92 249//52 250//54 53//93 
f 53//93 250//54 251//56 55//94 
f 55//94 251//56 252//58 57//95 
f 57//95 252//58 253//60 59//96 
f 59//96 253//60 254//62 61//97 
f 63//98 255//65 256//1 1//67 
f 61//97 254//62 255//65 63//98 
