o Drawers_Cube.008
o Drawers_Cube.008
v 1.933164 0.338587 3.011560
v 1.933164 0.338587 2.541068
v 2.662461 0.338587 2.541068
v 2.662461 0.338587 3.011560
v 1.933164 0.563154 3.011560
v 1.933164 0.563154 2.541068
v 2.662461 0.563154 2.541068
v 2.662461 0.563154 3.011560
v 1.940045 0.563154 3.000135
v 1.940045 0.563154 2.549552
v 2.655580 0.563154 2.549552
v 2.655580 0.563154 3.000135
v 1.940045 0.571411 2.871319
v 1.940045 0.571411 2.549552
v 2.655580 0.571411 2.549552
v 2.655580 0.571411 2.871319
v 2.263126 0.442864 2.543339
v 2.263126 0.442864 2.520883
v 2.352954 0.442864 2.520883
v 2.352954 0.442864 2.543339
v 2.263126 0.465321 2.543339
v 2.263126 0.465321 2.520883
v 2.352954 0.465321 2.520883
v 2.352954 0.465321 2.543339
v 1.933164 0.571411 3.011560
v 1.933164 0.571411 2.541068
v 2.662461 0.571411 2.541068
v 2.662461 0.571411 3.011560
v 1.933164 0.795979 3.011560
v 1.933164 0.795979 2.541068
v 2.662461 0.795979 2.541068
v 2.662461 0.795979 3.011560
v 1.940045 0.795979 3.000135
v 1.940045 0.795979 2.549552
v 2.655580 0.795979 2.549552
v 2.655580 0.795979 3.000135
v 1.940045 0.804236 2.871319
v 1.940045 0.804236 2.549552
v 2.655580 0.804236 2.549552
v 2.655580 0.804236 2.871319
v 2.263126 0.675689 2.543339
v 2.263126 0.675689 2.520883
v 2.352954 0.675689 2.520883
v 2.352954 0.675689 2.543339
v 2.263126 0.698146 2.543339
v 2.263126 0.698146 2.520883
v 2.352954 0.698146 2.520883
v 2.352954 0.698146 2.543339
v 1.933164 0.804236 3.011560
v 1.933164 0.804236 2.541068
v 2.662461 0.804236 2.541068
v 2.662461 0.804236 3.011560
v 1.933164 1.028804 3.011560
v 1.933164 1.028804 2.541068
v 2.662461 1.028804 2.541068
v 2.662461 1.028804 3.011560
v 1.940045 1.028804 3.000135
v 1.940045 1.028804 2.549552
v 2.655580 1.028804 2.549552
v 2.655580 1.028804 3.000135
v 1.940045 1.037061 2.871319
v 1.940045 1.037061 2.549552
v 2.655580 1.037061 2.549552
v 2.655580 1.037061 2.871319
v 2.263126 0.908514 2.543339
v 2.263126 0.908514 2.520883
v 2.352954 0.908514 2.520883
v 2.352954 0.908514 2.543339
v 2.263126 0.930970 2.543339
v 2.263126 0.930970 2.520883
v 2.352954 0.930970 2.520883
v 2.352954 0.930970 2.543339
v 1.933164 1.037061 3.011560
v 1.933164 1.037061 2.541068
v 2.662461 1.037061 2.541068
v 2.662461 1.037061 3.011560
v 1.933164 1.261628 3.011560
v 1.933164 1.261628 2.541068
v 2.662461 1.261628 2.541068
v 2.662461 1.261628 3.011560
v 1.940045 1.261628 3.000135
v 1.940045 1.261628 2.549552
v 2.655580 1.261628 2.549552
v 2.655580 1.261628 3.000135
v 1.940045 1.269885 2.871319
v 1.940045 1.269885 2.549552
v 2.655580 1.269885 2.549552
v 2.655580 1.269885 2.871319
v 2.263126 1.141338 2.543339
v 2.263126 1.141338 2.520883
v 2.352954 1.141338 2.520883
v 2.352954 1.141338 2.543339
v 2.263126 1.163795 2.543339
v 2.263126 1.163795 2.520883
v 2.352954 1.163795 2.520883
v 2.352954 1.163795 2.543339
vt 0.000000 0.000000
vt 1.000000 0.000000
vt 1.000000 1.000000
vt 0.000000 1.000000
vn -1.000000 0.000000 0.000000
vn 0.000000 0.000000 -1.000000
vn 1.000000 0.000000 0.000000
vn 0.000000 0.000000 1.000000
vn 0.000000 -1.000000 0.000000
vn 0.000000 1.000000 0.000004
vn 0.000000 1.000000 0.000000
vn 0.000000 1.000000 -0.000005
vn 0.000000 0.997952 0.063968
vn 0.000000 0.997952 0.063969
vn 0.000000 1.000000 -0.000007
vn 0.000000 1.000000 0.000010
vn 0.000000 0.997952 0.063967
usemtl Material.012
s off
f 5/1/1 6/2/1 2/3/1 1/4/1 
f 6/1/2 7/2/2 3/3/2 2/4/2 
f 7/1/3 8/2/3 4/3/3 3/4/3 
f 8/1/4 5/2/4 1/3/4 4/4/4 
f 1/1/5 2/2/5 3/3/5 4/4/5 
f 5/1/6 8/2/6 12/3/6 9/4/6 
f 10/1/1 9/2/1 13/3/1 14/4/1 
f 8/1/7 7/2/7 11/3/7 12/4/7 
f 6/1/7 5/2/7 9/3/7 10/4/7 
f 7/1/8 6/2/8 10/3/8 11/4/8 
f 16/1/7 15/2/7 14/3/7 13/4/7 
f 11/1/2 10/2/2 14/3/2 15/4/2 
f 12/1/3 11/2/3 15/3/3 16/4/3 
f 9/1/9 12/2/9 16/3/9 13/4/9 
f 21/1/1 22/2/1 18/3/1 17/4/1 
f 22/1/2 23/2/2 19/3/2 18/4/2 
f 23/1/3 24/2/3 20/3/3 19/4/3 
f 24/1/4 21/2/4 17/3/4 20/4/4 
f 17/1/5 18/2/5 19/3/5 20/4/5 
f 24/1/7 23/2/7 22/3/7 21/4/7 
f 29/1/1 30/2/1 26/3/1 25/4/1 
f 30/1/2 31/2/2 27/3/2 26/4/2 
f 31/1/3 32/2/3 28/3/3 27/4/3 
f 32/1/4 29/2/4 25/3/4 28/4/4 
f 25/1/5 26/2/5 27/3/5 28/4/5 
f 29/1/7 32/2/7 36/3/7 33/4/7 
f 34/1/1 33/2/1 37/3/1 38/4/1 
f 32/1/7 31/2/7 35/3/7 36/4/7 
f 30/1/7 29/2/7 33/3/7 34/4/7 
f 31/1/7 30/2/7 34/3/7 35/4/7 
f 40/1/7 39/2/7 38/3/7 37/4/7 
f 35/1/2 34/2/2 38/3/2 39/4/2 
f 36/1/3 35/2/3 39/3/3 40/4/3 
f 33/1/9 36/2/9 40/3/9 37/4/9 
f 45/1/1 46/2/1 42/3/1 41/4/1 
f 46/1/2 47/2/2 43/3/2 42/4/2 
f 47/1/3 48/2/3 44/3/3 43/4/3 
f 48/1/4 45/2/4 41/3/4 44/4/4 
f 41/1/5 42/2/5 43/3/5 44/4/5 
f 48/1/7 47/2/7 46/3/7 45/4/7 
f 53/1/1 54/2/1 50/3/1 49/4/1 
f 54/1/2 55/2/2 51/3/2 50/4/2 
f 55/1/3 56/2/3 52/3/3 51/4/3 
f 56/1/4 53/2/4 49/3/4 52/4/4 
f 49/1/5 50/2/5 51/3/5 52/4/5 
f 53/1/7 56/2/7 60/3/7 57/4/7 
f 58/1/1 57/2/1 61/3/1 62/4/1 
f 56/1/7 55/2/7 59/3/7 60/4/7 
f 54/1/7 53/2/7 57/3/7 58/4/7 
f 55/1/7 54/2/7 58/3/7 59/4/7 
f 64/1/7 63/2/7 62/3/7 61/4/7 
f 59/1/2 58/2/2 62/3/2 63/4/2 
f 60/1/3 59/2/3 63/3/3 64/4/3 
f 57/1/10 60/2/10 64/3/10 61/4/10 
f 69/1/1 70/2/1 66/3/1 65/4/1 
f 70/1/2 71/2/2 67/3/2 66/4/2 
f 71/1/3 72/2/3 68/3/3 67/4/3 
f 72/1/4 69/2/4 65/3/4 68/4/4 
f 65/1/5 66/2/5 67/3/5 68/4/5 
f 72/1/7 71/2/7 70/3/7 69/4/7 
f 77/1/1 78/2/1 74/3/1 73/4/1 
f 78/1/2 79/2/2 75/3/2 74/4/2 
f 79/1/3 80/2/3 76/3/3 75/4/3 
f 80/1/4 77/2/4 73/3/4 76/4/4 
f 73/1/5 74/2/5 75/3/5 76/4/5 
f 77/1/11 80/2/11 84/3/11 81/4/11 
f 82/1/1 81/2/1 85/3/1 86/4/1 
f 80/1/7 79/2/7 83/3/7 84/4/7 
f 78/1/7 77/2/7 81/3/7 82/4/7 
f 79/1/12 78/2/12 82/3/12 83/4/12 
f 88/1/7 87/2/7 86/3/7 85/4/7 
f 83/1/2 82/2/2 86/3/2 87/4/2 
f 84/1/3 83/2/3 87/3/3 88/4/3 
f 81/1/13 84/2/13 88/3/13 85/4/13 
f 93/1/1 94/2/1 90/3/1 89/4/1 
f 94/1/2 95/2/2 91/3/2 90/4/2 
f 95/1/3 96/2/3 92/3/3 91/4/3 
f 96/1/4 93/2/4 89/3/4 92/4/4 
f 89/1/5 90/2/5 91/3/5 92/4/5 
f 96/1/7 95/2/7 94/3/7 93/4/7 
