o Floor_Plane.003
o Floor_Plane.003
v -5.000000 0.000000 7.949340
v 9.918751 0.000000 7.949340
v -5.000000 0.000000 -5.000000
v 9.918751 0.000000 -5.000000
v -3.984134 0.000000 7.949340
v -3.984134 0.000000 -5.000000
v 5.299163 0.000000 7.949340
v 5.299163 0.000000 -5.000000
v -5.000000 0.000000 -5.628189
v 9.918751 0.000000 -5.628189
v -3.984134 0.000000 -5.628189
v 5.299163 0.000000 -5.628189
v -5.000000 0.000000 -10.871391
v 9.918751 0.000000 -10.871391
v -3.984134 0.000000 -10.871391
v 5.299163 0.000000 -10.871391
v -4.842366 0.000000 -5.628189
v -4.842366 0.000000 -10.871391
v 9.918751 0.000000 -10.685878
v -5.000000 0.000000 -10.685878
v 5.299163 0.000000 -10.685878
v -3.984134 0.000000 -10.685878
v -4.842366 0.000000 -10.685878
v -6.042251 0.000000 7.949340
v -6.042251 0.000000 -5.000000
v -6.042251 0.000000 -5.628189
vt 1.056722 2.883186
vt 2.290105 2.883608
vt 2.291292 -0.573736
vt 1.057907 -0.574160
vt -1.691810 -0.742820
vt -1.970080 -0.742915
vt -1.970138 -0.575196
vt -1.691868 -0.575100
vt -1.693055 2.882245
vt -1.421826 2.882338
vt -1.420642 -0.575007
vt 1.057966 -0.741880
vt -1.420585 -0.742728
vt -1.649724 -0.742806
vt 2.291350 -0.741456
vt 1.058427 -2.092235
vt 1.058444 -2.141765
vt -1.420107 -2.142606
vt -1.420124 -2.093076
vt 2.291816 -2.091811
vt 2.291833 -2.141342
vt -1.649266 -2.093153
vt -1.649249 -2.142685
vt -1.691338 -2.142700
vt -1.691355 -2.093168
vt -1.971326 2.882149
vn 0.000000 1.000000 0.000000
usemtl Material.010
s off
f 7/1/1 2/2/1 4/3/1 8/4/1 
f 9/5/1 26/6/1 25/7/1 3/8/1 
f 1/9/1 5/10/1 6/11/1 3/8/1 
f 6/11/1 8/4/1 12/12/1 11/13/1 
f 5/10/1 7/1/1 8/4/1 6/11/1 
f 3/8/1 6/11/1 11/13/1 17/14/1 9/5/1 
f 8/4/1 4/3/1 10/15/1 12/12/1 
f 21/16/1 16/17/1 15/18/1 22/19/1 
f 19/20/1 14/21/1 16/17/1 21/16/1 
f 23/22/1 18/23/1 13/24/1 20/25/1 
f 22/19/1 15/18/1 18/23/1 23/22/1 
f 12/12/1 21/16/1 22/19/1 11/13/1 
f 10/15/1 19/20/1 21/16/1 12/12/1 
f 17/14/1 23/22/1 20/25/1 9/5/1 
f 11/13/1 22/19/1 23/22/1 17/14/1 
f 3/8/1 25/7/1 24/26/1 1/9/1 
