o Glass.001_Cylinder.001
o Glass.001_Cylinder.001
v -0.000000 0.019966 -2.135679
v 0.000000 3.079100 -2.373187
v 0.148755 0.019966 -2.121028
v 0.195090 3.079100 -2.353972
v 0.291793 0.019966 -2.077638
v 0.382683 3.079100 -2.297067
v 0.423618 0.019966 -2.007176
v 0.555570 3.079100 -2.204657
v 0.539163 0.019966 -1.912350
v 0.707107 3.079100 -2.080294
v 0.633989 0.019966 -1.796805
v 0.831470 3.079100 -1.928757
v 0.704451 0.019966 -1.664980
v 0.923880 3.079100 -1.755870
v 0.747841 0.019966 -1.521942
v 0.980785 3.079100 -1.568277
v 0.762492 0.019966 -1.373187
v 1.000000 3.079100 -1.373187
v 0.747841 0.019966 -1.224432
v 0.980785 3.079100 -1.178097
v 0.704451 0.019966 -1.081394
v 0.923880 3.079100 -0.990504
v 0.633989 0.019966 -0.949569
v 0.831470 3.079100 -0.817617
v 0.539163 0.019966 -0.834024
v 0.707107 3.079100 -0.666080
v 0.423618 0.019966 -0.739198
v 0.555570 3.079100 -0.541717
v 0.291793 0.019966 -0.668736
v 0.382683 3.079100 -0.449307
v 0.148755 0.019966 -0.625346
v 0.195090 3.079100 -0.392402
v -0.000000 0.019966 -0.610695
v -0.000000 3.079100 -0.373187
v -0.148755 0.019966 -0.625346
v -0.195091 3.079100 -0.392402
v -0.291793 0.019966 -0.668736
v -0.382684 3.079100 -0.449308
v -0.423618 0.019966 -0.739198
v -0.555571 3.079100 -0.541718
v -0.539164 0.019966 -0.834024
v -0.707107 3.079100 -0.666081
v -0.633989 0.019966 -0.949570
v -0.831470 3.079100 -0.817617
v -0.704451 0.019966 -1.081395
v -0.923880 3.079100 -0.990504
v -0.747841 0.019966 -1.224433
v -0.980785 3.079100 -1.178098
v -0.762492 0.019966 -1.373188
v -1.000000 3.079100 -1.373188
v -0.747841 0.019966 -1.521943
v -0.980785 3.079100 -1.568278
v -0.704450 0.019966 -1.664981
v -0.923879 3.079100 -1.755872
v -0.633988 0.019966 -1.796806
v -0.831469 3.079100 -1.928758
v -0.539163 0.019966 -1.912351
v -0.707106 3.079100 -2.080295
v -0.423617 0.019966 -2.007177
v -0.555569 3.079100 -2.204658
v -0.291792 0.019966 -2.077638
v -0.382682 3.079100 -2.297067
v -0.148754 0.019966 -2.121028
v -0.195089 3.079100 -2.353973
v 0.000000 3.079100 -2.342303
v 0.189065 3.079100 -2.323682
v 0.370865 3.079100 -2.268533
v 0.538412 3.079100 -2.178977
v 0.685268 3.079100 -2.058455
v 0.805790 3.079100 -1.911599
v 0.895346 3.079100 -1.744052
v 0.950495 3.079100 -1.562252
v 0.969116 3.079100 -1.373187
v 0.950495 3.079100 -1.184122
v 0.895346 3.079100 -1.002323
v 0.805790 3.079100 -0.834775
v 0.685268 3.079100 -0.687919
v 0.538412 3.079100 -0.567397
v 0.370864 3.079100 -0.477841
v 0.189065 3.079100 -0.422692
v -0.000000 3.079100 -0.404071
v -0.189066 3.079100 -0.422693
v -0.370865 3.079100 -0.477841
v -0.538412 3.079100 -0.567397
v -0.685269 3.079100 -0.687919
v -0.805791 3.079100 -0.834776
v -0.895347 3.079100 -1.002323
v -0.950495 3.079100 -1.184123
v -0.969116 3.079100 -1.373188
v -0.950494 3.079100 -1.562253
v -0.895346 3.079100 -1.744053
v -0.805790 3.079100 -1.911600
v -0.685268 3.079100 -2.058456
v -0.538411 3.079100 -2.178978
v -0.370863 3.079100 -2.268534
v -0.189064 3.079100 -2.323682
v -0.000000 0.246223 -2.112130
v 0.144160 0.246223 -2.097932
v 0.282781 0.246223 -2.055882
v 0.410535 0.246223 -1.987596
v 0.522511 0.246223 -1.895699
v 0.614409 0.246223 -1.783722
v 0.682694 0.246223 -1.655968
v 0.724744 0.246223 -1.517348
v 0.738943 0.246223 -1.373187
v 0.724744 0.246223 -1.229027
v 0.682694 0.246223 -1.090406
v 0.614409 0.246223 -0.962652
v 0.522511 0.246223 -0.850675
v 0.410534 0.246223 -0.758778
v 0.282781 0.246223 -0.690493
v 0.144160 0.246223 -0.648443
v -0.000001 0.246223 -0.634244
v -0.144161 0.246223 -0.648443
v -0.282782 0.246223 -0.690493
v -0.410536 0.246223 -0.758779
v -0.522512 0.246223 -0.850676
v -0.614409 0.246223 -0.962653
v -0.682695 0.246223 -1.090406
v -0.724745 0.246223 -1.229027
v -0.738944 0.246223 -1.373188
v -0.724745 0.246223 -1.517349
v -0.682694 0.246223 -1.655969
v -0.614409 0.246223 -1.783723
v -0.522511 0.246223 -1.895700
v -0.410534 0.246223 -1.987597
v -0.282781 0.246223 -2.055882
v -0.144160 0.246223 -2.097932
v -0.000000 3.039121 -2.370083
v 0.194485 3.039121 -2.350928
v 0.381496 3.039121 -2.294199
v 0.553846 3.039121 -2.202076
v 0.704912 3.039121 -2.078099
v 0.828889 3.039121 -1.927033
v 0.921012 3.039121 -1.754683
v 0.977741 3.039121 -1.567672
v 0.996896 3.039121 -1.373187
v 0.977741 3.039121 -1.178702
v 0.921012 3.039121 -0.991692
v 0.828889 3.039121 -0.819341
v 0.704912 3.039121 -0.668275
v 0.553846 3.039121 -0.544298
v 0.381495 3.039121 -0.452175
v 0.194485 3.039121 -0.395446
v -0.000000 3.039121 -0.376291
v -0.194485 3.039121 -0.395446
v -0.381496 3.039121 -0.452175
v -0.553846 3.039121 -0.544299
v -0.704912 3.039121 -0.668275
v -0.828889 3.039121 -0.819342
v -0.921012 3.039121 -0.991692
v -0.977741 3.039121 -1.178703
v -0.996896 3.039121 -1.373188
v -0.977741 3.039121 -1.567673
v -0.921011 3.039121 -1.754684
v -0.828888 3.039121 -1.927034
v -0.704911 3.039121 -2.078100
v -0.553845 3.039121 -2.202077
v -0.381494 3.039121 -2.294199
v -0.194483 3.039121 -2.350928
v 0.000000 2.991654 -2.335533
v -0.187743 2.991654 -2.317042
v -0.800162 2.991654 -0.838537
v -0.680482 2.991654 -0.692706
v 0.889092 2.991654 -1.004913
v 0.943855 2.991654 -1.185443
v -0.368273 2.991654 -2.262280
v -0.534650 2.991654 -2.173349
v -0.534651 2.991654 -0.573026
v -0.368274 2.991654 -0.484095
v 0.962346 2.991654 -1.373187
v 0.943855 2.991654 -1.560932
v -0.680481 2.991654 -2.053669
v -0.800161 2.991654 -1.907839
v -0.187745 2.991654 -0.429332
v -0.000000 2.991654 -0.410841
v 0.889092 2.991654 -1.741461
v 0.800162 2.991654 -1.907838
v -0.889091 2.991654 -1.741462
v -0.943855 2.991654 -1.560933
v 0.680481 2.991654 -2.053668
v 0.534651 2.991654 -2.173349
v 0.187744 2.991654 -0.429332
v 0.368274 2.991654 -0.484095
v -0.962346 2.991654 -1.373188
v -0.943855 2.991654 -1.185444
v 0.368274 2.991654 -2.262279
v 0.187744 2.991654 -2.317042
v 0.534651 2.991654 -0.573025
v 0.680481 2.991654 -0.692706
v -0.889092 2.991654 -1.004914
v 0.800162 2.991654 -0.838536
v -0.145040 0.304490 -2.102356
v -0.525702 0.304490 -0.847486
v 0.729169 0.304490 -1.228147
v -0.413040 0.304490 -1.991347
v -0.284508 0.304490 -0.686325
v 0.729168 0.304490 -1.518228
v -0.618159 0.304490 -1.786229
v -0.000001 0.304490 -0.629733
v 0.618159 0.304490 -1.786228
v -0.729169 0.304490 -1.518229
v 0.413041 0.304490 -1.991347
v 0.284507 0.304490 -0.686325
v -0.729169 0.304490 -1.228147
v 0.145040 0.304490 -2.102356
v 0.525701 0.304490 -0.847486
v -0.000000 0.304490 -2.116641
v -0.618160 0.304490 -0.960147
v 0.686862 0.304490 -1.088680
v -0.284507 0.304490 -2.060050
v -0.413042 0.304490 -0.755028
v 0.743454 0.304490 -1.373187
v -0.525701 0.304490 -1.898889
v -0.145041 0.304490 -0.644018
v 0.686862 0.304490 -1.657695
v -0.686862 0.304490 -1.657695
v 0.525701 0.304490 -1.898889
v 0.145040 0.304490 -0.644018
v -0.743454 0.304490 -1.373188
v 0.284507 0.304490 -2.060049
v 0.413041 0.304490 -0.755028
v -0.686863 0.304490 -1.088680
v 0.618159 0.304490 -0.960146
v 0.149235 0.051673 -2.123443
v 0.292735 0.051673 -2.079912
v 0.424986 0.051673 -2.009223
v 0.540904 0.051673 -1.914091
v 0.636036 0.051673 -1.798173
v 0.706725 0.051673 -1.665922
v 0.750255 0.051673 -1.522422
v 0.764954 0.051673 -1.373187
v 0.750255 0.051673 -1.223952
v 0.706725 0.051673 -1.080452
v 0.636036 0.051673 -0.948202
v 0.540904 0.051673 -0.832283
v 0.424985 0.051673 -0.737151
v 0.292735 0.051673 -0.666462
v 0.149235 0.051673 -0.622932
v -0.000000 0.051673 -0.608233
v -0.149235 0.051673 -0.622932
v -0.292736 0.051673 -0.666462
v -0.424986 0.051673 -0.737152
v -0.540904 0.051673 -0.832283
v -0.636036 0.051673 -0.948202
v -0.706725 0.051673 -1.080453
v -0.750256 0.051673 -1.223953
v -0.764954 0.051673 -1.373188
v -0.750255 0.051673 -1.522423
v -0.706725 0.051673 -1.665923
v -0.636035 0.051673 -1.798173
v -0.540903 0.051673 -1.914092
v -0.424985 0.051673 -2.009223
v -0.292734 0.051673 -2.079913
v -0.149234 0.051673 -2.123443
v -0.000000 0.051673 -2.138141
vn 0.000000 -0.077395 -0.996979
vn 0.000000 0.657125 -0.753746
vn 0.147038 0.657125 -0.739280
vn 0.194494 -0.077395 -0.977813
vn 0.288430 0.657125 -0.696371
vn 0.381512 -0.077395 -0.921079
vn 0.418744 0.657125 -0.626728
vn 0.553880 -0.077395 -0.828974
vn 0.532975 0.657125 -0.532975
vn 0.704978 -0.077395 -0.704978
vn 0.626728 0.657125 -0.418744
vn 0.828974 -0.077395 -0.553880
vn 0.696371 0.657125 -0.288430
vn 0.921079 -0.077395 -0.381512
vn 0.739280 0.657125 -0.147038
vn 0.977813 -0.077395 -0.194494
vn 0.753746 0.657125 0.000000
vn 0.996979 -0.077395 0.000000
vn 0.739280 0.657125 0.147038
vn 0.977813 -0.077395 0.194494
vn 0.696371 0.657125 0.288430
vn 0.921079 -0.077395 0.381512
vn 0.626728 0.657125 0.418744
vn 0.828974 -0.077395 0.553880
vn 0.532975 0.657125 0.532975
vn 0.704978 -0.077395 0.704978
vn 0.418744 0.657125 0.626728
vn 0.553880 -0.077395 0.828974
vn 0.288430 0.657125 0.696371
vn 0.381512 -0.077395 0.921079
vn 0.147038 0.657125 0.739280
vn 0.194494 -0.077395 0.977813
vn 0.000000 0.657125 0.753746
vn 0.000000 -0.077395 0.996979
vn -0.147038 0.657125 0.739280
vn -0.194494 -0.077395 0.977813
vn -0.288430 0.657125 0.696371
vn -0.381512 -0.077395 0.921079
vn -0.418744 0.657125 0.626728
vn -0.553880 -0.077395 0.828974
vn -0.532975 0.657125 0.532975
vn -0.704978 -0.077395 0.704978
vn -0.626728 0.657125 0.418744
vn -0.828974 -0.077395 0.553880
vn -0.696371 0.657125 0.288430
vn -0.921079 -0.077395 0.381512
vn -0.739280 0.657125 0.147038
vn -0.977813 -0.077395 0.194494
vn -0.753746 0.657125 0.000000
vn -0.996979 -0.077395 0.000000
vn -0.739280 0.657125 -0.147038
vn -0.977813 -0.077395 -0.194494
vn -0.696371 0.657125 -0.288430
vn -0.921079 -0.077395 -0.381512
vn -0.626728 0.657125 -0.418744
vn -0.828974 -0.077395 -0.553880
vn -0.532975 0.657125 -0.532975
vn -0.704978 -0.077395 -0.704978
vn -0.418744 0.657125 -0.626728
vn -0.553880 -0.077395 -0.828974
vn -0.288430 0.657125 -0.696371
vn -0.381512 -0.077395 -0.921079
vn 0.544664 0.755547 0.363933
vn 0.463179 0.755547 0.463179
vn -0.194494 -0.077395 -0.977813
vn -0.147038 0.657125 -0.739280
vn 0.000000 -0.713340 -0.700766
vn 0.136692 -0.713340 -0.687307
vn 0.268166 -0.713340 -0.647420
vn 0.389325 -0.713340 -0.582659
vn 0.495529 -0.713340 -0.495529
vn 0.582659 -0.713340 -0.389325
vn 0.647420 -0.713340 -0.268166
vn 0.687307 -0.713340 -0.136692
vn 0.700766 -0.713340 0.000000
vn 0.687307 -0.713340 0.136692
vn 0.647420 -0.713340 0.268166
vn 0.582659 -0.713340 0.389325
vn 0.495529 -0.713340 0.495529
vn 0.389325 -0.713340 0.582659
vn 0.268166 -0.713340 0.647420
vn 0.136692 -0.713340 0.687307
vn 0.000000 -0.713340 0.700766
vn -0.136692 -0.713340 0.687307
vn -0.268166 -0.713340 0.647420
vn -0.389325 -0.713340 0.582659
vn -0.495529 -0.713340 0.495529
vn -0.582659 -0.713340 0.389325
vn -0.647420 -0.713340 0.268166
vn -0.687307 -0.713340 0.136692
vn -0.700766 -0.713340 0.000000
vn -0.687307 -0.713340 -0.136692
vn -0.647420 -0.713340 -0.268166
vn -0.582659 -0.713340 -0.389325
vn -0.495529 -0.713340 -0.495529
vn -0.389325 -0.713340 -0.582659
vn -0.268166 -0.713340 -0.647420
vn -0.136692 -0.713340 -0.687307
vn 0.000000 0.079196 0.996857
vn 0.194464 0.079196 0.977691
vn 0.136723 0.713279 0.687399
vn 0.000000 0.713279 0.700858
vn 0.000000 0.755547 -0.655049
vn 0.127781 0.755547 -0.642476
vn -0.544664 0.755547 0.363933
vn -0.605182 0.755547 0.250679
vn 0.250679 0.755547 0.605182
vn 0.127781 0.755547 0.642476
vn 0.363933 0.755547 -0.544664
vn 0.463179 0.755547 -0.463179
vn -0.655049 0.755547 0.000000
vn -0.642476 0.755547 -0.127781
vn 0.605182 0.755547 -0.250679
vn 0.642476 0.755547 -0.127781
vn -0.544664 0.755547 -0.363933
vn -0.463179 0.755547 -0.463179
vn 0.642476 0.755547 0.127781
vn 0.605182 0.755547 0.250679
vn -0.363933 0.755547 0.544664
vn -0.463179 0.755547 0.463179
vn -0.250679 0.755547 -0.605182
vn -0.127781 0.755547 -0.642476
vn 0.363933 0.755547 0.544664
vn 0.250679 0.755547 -0.605182
vn -0.642476 0.755547 0.127781
vn 0.000000 0.755547 0.655049
vn 0.544664 0.755547 -0.363933
vn -0.605182 0.755547 -0.250679
vn 0.655049 0.755547 0.000000
vn -0.127781 0.755547 0.642476
vn -0.250679 0.755547 0.605182
vn -0.363933 0.755547 -0.544664
vn -0.136723 0.713279 0.687399
vn 0.268197 0.713279 0.647511
vn 0.389355 0.713279 0.582751
vn 0.495560 0.713279 0.495590
vn 0.582751 0.713279 0.389355
vn 0.647511 0.713279 0.268197
vn 0.687399 0.713279 0.136723
vn 0.700858 0.713279 0.000000
vn 0.687399 0.713279 -0.136723
vn 0.647511 0.713279 -0.268197
vn 0.582751 0.713279 -0.389355
vn 0.495590 0.713279 -0.495590
vn 0.389355 0.713279 -0.582751
vn 0.268197 0.713279 -0.647511
vn 0.136723 0.713279 -0.687399
vn 0.000000 0.713279 -0.700858
vn -0.136723 0.713279 -0.687399
vn -0.268197 0.713279 -0.647511
vn -0.389355 0.713279 -0.582751
vn -0.495590 0.713279 -0.495590
vn -0.582751 0.713279 -0.389355
vn -0.647511 0.713279 -0.268197
vn -0.687399 0.713279 -0.136723
vn -0.700858 0.713279 0.000000
vn -0.687399 0.713279 0.136723
vn -0.647511 0.713279 0.268197
vn -0.582751 0.713279 0.389355
vn -0.495590 0.713279 0.495590
vn -0.389355 0.713279 0.582751
vn -0.268197 0.713279 0.647511
vn 0.828852 0.079196 -0.553819
vn 0.704856 0.079196 -0.704856
vn -0.920957 0.079196 -0.381451
vn -0.977691 0.079196 -0.194464
vn 0.381451 0.079196 0.920957
vn 0.553819 0.079196 0.828852
vn 0.553819 0.079196 -0.828852
vn 0.381481 0.079196 -0.920957
vn -0.996857 0.079196 0.000000
vn -0.977691 0.079196 0.194464
vn 0.704856 0.079196 0.704886
vn 0.828852 0.079196 0.553819
vn 0.194464 0.079196 -0.977691
vn 0.000000 0.079196 -0.996857
vn -0.920957 0.079196 0.381451
vn -0.828852 0.079196 0.553819
vn 0.920957 0.079196 0.381481
vn 0.977691 0.079196 0.194464
vn -0.704856 0.079196 0.704856
vn -0.553819 0.079196 0.828852
vn -0.194464 0.079196 -0.977691
vn -0.381451 0.079196 -0.920957
vn 0.996857 0.079196 0.000000
vn 0.977691 0.079196 -0.194464
vn -0.381451 0.079196 0.920957
vn -0.194464 0.079196 0.977691
vn -0.553819 0.079196 -0.828852
vn -0.704856 0.079196 -0.704856
vn 0.920957 0.079196 -0.381451
vn -0.828852 0.079196 -0.553819
vn 0.194464 0.079165 0.977691
vn 0.000000 0.079165 0.996857
vn 0.704886 0.079165 -0.704886
vn 0.828852 0.079165 -0.553819
vn -0.977691 0.079165 -0.194464
vn -0.920957 0.079165 -0.381481
vn 0.553819 0.079165 0.828852
vn 0.381451 0.079165 0.920957
vn 0.381481 0.079165 -0.920957
vn 0.553819 0.079165 -0.828852
vn -0.977691 0.079165 0.194464
vn -0.996857 0.079165 0.000000
vn 0.828852 0.079165 0.553819
vn 0.704856 0.079165 0.704886
vn 0.000000 0.079165 -0.996857
vn 0.194464 0.079165 -0.977691
vn -0.828852 0.079165 0.553819
vn -0.920957 0.079165 0.381481
vn 0.977691 0.079165 0.194464
vn 0.920957 0.079165 0.381481
vn -0.553819 0.079165 0.828852
vn -0.704886 0.079165 0.704886
vn -0.381481 0.079165 -0.920957
vn -0.194464 0.079165 -0.977691
vn 0.977691 0.079165 -0.194464
vn 0.996857 0.079165 0.000000
vn -0.194464 0.079165 0.977691
vn -0.381451 0.079165 0.920957
vn -0.704886 0.079165 -0.704886
vn -0.553819 0.079165 -0.828852
vn 0.920957 0.079165 -0.381481
vn -0.828852 0.079165 -0.553819
usemtl Material.003
s 1
f 129//1 2//2 4//3 130//4 
f 130//4 4//3 6//5 131//6 
f 131//6 6//5 8//7 132//8 
f 132//8 8//7 10//9 133//10 
f 133//10 10//9 12//11 134//12 
f 134//12 12//11 14//13 135//14 
f 135//14 14//13 16//15 136//16 
f 136//16 16//15 18//17 137//18 
f 137//18 18//17 20//19 138//20 
f 138//20 20//19 22//21 139//22 
f 139//22 22//21 24//23 140//24 
f 140//24 24//23 26//25 141//26 
f 141//26 26//25 28//27 142//28 
f 142//28 28//27 30//29 143//30 
f 143//30 30//29 32//31 144//32 
f 144//32 32//31 34//33 145//34 
f 145//34 34//33 36//35 146//36 
f 146//36 36//35 38//37 147//38 
f 147//38 38//37 40//39 148//40 
f 148//40 40//39 42//41 149//42 
f 149//42 42//41 44//43 150//44 
f 150//44 44//43 46//45 151//46 
f 151//46 46//45 48//47 152//48 
f 152//48 48//47 50//49 153//50 
f 153//50 50//49 52//51 154//52 
f 154//52 52//51 54//53 155//54 
f 155//54 54//53 56//55 156//56 
f 156//56 56//55 58//57 157//58 
f 157//58 58//57 60//59 158//60 
f 158//60 60//59 62//61 159//62 
f 58//57 56//55 92//63 93//64 
f 160//65 64//66 2//2 129//1 
f 159//62 62//61 64//66 160//65 
f 1//67 3//68 5//69 7//70 9//71 11//72 13//73 15//74 17//75 19//76 21//77 23//78 25//79 27//80 29//81 31//82 33//83 35//84 37//85 39//86 41//87 43//88 45//89 47//90 49//91 51//92 53//93 55//94 57//95 59//96 61//97 63//98 
f 208//99 193//100 128//101 97//102 
f 36//35 34//33 81//103 82//104 
f 14//13 12//11 70//105 71//106 
f 64//66 62//61 95//107 96//108 
f 42//41 40//39 84//109 85//110 
f 20//19 18//17 73//111 74//112 
f 48//47 46//45 87//113 88//114 
f 26//25 24//23 76//115 77//116 
f 54//53 52//51 90//117 91//118 
f 10//9 8//7 68//119 69//120 
f 32//31 30//29 79//121 80//122 
f 60//59 58//57 93//64 94//123 
f 38//37 36//35 82//104 83//124 
f 16//15 14//13 71//106 72//125 
f 2//2 64//66 96//108 65//126 
f 44//43 42//41 85//110 86//127 
f 22//21 20//19 74//112 75//128 
f 50//49 48//47 88//114 89//129 
f 6//5 4//3 66//130 67//131 
f 28//27 26//25 77//116 78//132 
f 56//55 54//53 91//118 92//63 
f 12//11 10//9 69//120 70//105 
f 34//33 32//31 80//122 81//103 
f 62//61 60//59 94//123 95//107 
f 40//39 38//37 83//124 84//109 
f 4//3 2//2 65//126 66//130 
f 18//17 16//15 72//125 73//111 
f 46//45 44//43 86//127 87//113 
f 24//23 22//21 75//128 76//115 
f 52//51 50//49 89//129 90//117 
f 8//7 6//5 67//131 68//119 
f 30//29 28//27 78//132 79//121 
f 98//133 97//102 128//101 127//134 126//135 125//136 124//137 123//138 122//139 121//140 120//141 119//142 118//143 117//144 116//145 115//146 114//147 113//148 112//149 111//150 110//151 109//152 108//153 107//154 106//155 105//156 104//157 103//158 102//159 101//160 100//161 99//162 
f 209//163 194//164 117//144 118//143 
f 210//165 195//166 106//155 107//154 
f 211//167 196//168 126//135 127//134 
f 212//169 197//170 115//146 116//145 
f 213//171 198//172 104//157 105//156 
f 214//173 199//174 124//137 125//136 
f 215//175 200//176 113//148 114//147 
f 216//177 201//178 102//159 103//158 
f 217//179 202//180 122//139 123//138 
f 218//181 203//182 100//161 101//160 
f 219//183 204//184 111//150 112//149 
f 220//185 205//186 120//141 121//140 
f 221//187 206//188 98//133 99//162 
f 222//189 207//190 109//152 110//151 
f 223//191 209//163 118//143 119//142 
f 224//192 210//165 107//154 108//153 
f 193//100 211//167 127//134 128//101 
f 194//164 212//169 116//145 117//144 
f 195//166 213//171 105//156 106//155 
f 196//168 214//173 125//136 126//135 
f 197//170 215//175 114//147 115//146 
f 198//172 216//177 103//158 104//157 
f 199//174 217//179 123//138 124//137 
f 201//178 218//181 101//160 102//159 
f 200//176 219//183 112//149 113//148 
f 202//180 220//185 121//140 122//139 
f 203//182 221//187 99//162 100//161 
f 204//184 222//189 110//151 111//150 
f 205//186 223//191 119//142 120//141 
f 206//188 208//99 97//102 98//133 
f 207//190 224//192 108//153 109//152 
f 256//1 129//1 130//4 225//4 
f 225//4 130//4 131//6 226//6 
f 226//6 131//6 132//8 227//8 
f 227//8 132//8 133//10 228//10 
f 228//10 133//10 134//12 229//12 
f 229//12 134//12 135//14 230//14 
f 230//14 135//14 136//16 231//16 
f 231//16 136//16 137//18 232//18 
f 232//18 137//18 138//20 233//20 
f 233//20 138//20 139//22 234//22 
f 234//22 139//22 140//24 235//24 
f 235//24 140//24 141//26 236//26 
f 236//26 141//26 142//28 237//28 
f 237//28 142//28 143//30 238//30 
f 238//30 143//30 144//32 239//32 
f 239//32 144//32 145//34 240//34 
f 240//34 145//34 146//36 241//36 
f 241//36 146//36 147//38 242//38 
f 242//38 147//38 148//40 243//40 
f 243//40 148//40 149//42 244//42 
f 244//42 149//42 150//44 245//44 
f 245//44 150//44 151//46 246//46 
f 246//46 151//46 152//48 247//48 
f 247//48 152//48 153//50 248//50 
f 248//50 153//50 154//52 249//52 
f 249//52 154//52 155//54 250//54 
f 250//54 155//54 156//56 251//56 
f 251//56 156//56 157//58 252//58 
f 252//58 157//58 158//60 253//60 
f 253//60 158//60 159//62 254//62 
f 255//65 160//65 129//1 256//1 
f 254//62 159//62 160//65 255//65 
f 65//126 96//108 162//193 161//194 
f 86//127 85//110 164//195 163//196 
f 75//128 74//112 166//197 165//198 
f 95//107 94//123 168//199 167//200 
f 84//109 83//124 170//201 169//202 
f 73//111 72//125 172//203 171//204 
f 93//64 92//63 174//205 173//206 
f 82//104 81//103 176//207 175//208 
f 71//106 70//105 178//209 177//210 
f 91//118 90//117 180//211 179//212 
f 69//120 68//119 182//213 181//214 
f 80//122 79//121 184//215 183//216 
f 89//129 88//114 186//217 185//218 
f 67//131 66//130 188//219 187//220 
f 78//132 77//116 190//221 189//222 
f 87//113 86//127 163//196 191//223 
f 76//115 75//128 165//198 192//224 
f 96//108 95//107 167//200 162//193 
f 85//110 84//109 169//202 164//195 
f 74//112 73//111 171//204 166//197 
f 94//123 93//64 173//206 168//199 
f 83//124 82//104 175//208 170//201 
f 72//125 71//106 177//210 172//203 
f 92//63 91//118 179//212 174//205 
f 70//105 69//120 181//214 178//209 
f 81//103 80//122 183//216 176//207 
f 90//117 89//129 185//218 180//211 
f 68//119 67//131 187//220 182//213 
f 79//121 78//132 189//222 184//215 
f 88//114 87//113 191//223 186//217 
f 66//130 65//126 161//194 188//219 
f 77//116 76//115 192//224 190//221 
f 161//194 162//193 193//100 208//99 
f 163//196 164//195 194//164 209//163 
f 165//198 166//197 195//166 210//165 
f 167//200 168//199 196//168 211//167 
f 169//202 170//201 197//170 212//169 
f 171//204 172//203 198//172 213//171 
f 173//206 174//205 199//174 214//173 
f 175//208 176//207 200//176 215//175 
f 177//210 178//209 201//178 216//177 
f 179//212 180//211 202//180 217//179 
f 181//214 182//213 203//182 218//181 
f 183//216 184//215 204//184 219//183 
f 185//218 186//217 205//186 220//185 
f 187//220 188//219 206//188 221//187 
f 189//222 190//221 207//190 222//189 
f 191//223 163//196 209//163 223//191 
f 192//224 165//198 210//165 224//192 
f 162//193 167//200 211//167 193//100 
f 164//195 169//202 212//169 194//164 
f 166//197 171//204 213//171 195//166 
f 168//199 173//206 214//173 196//168 
f 170//201 175//208 215//175 197//170 
f 172//203 177//210 216//177 198//172 
f 174//205 179//212 217//179 199//174 
f 178//209 181//214 218//181 201//178 
f 176//207 183//216 219//183 200//176 
f 180//211 185//218 220//185 202//180 
f 182//213 187//220 221//187 203//182 
f 184//215 189//222 222//189 204//184 
f 186//217 191//223 223//191 205//186 
f 188//219 161//194 208//99 206//188 
f 190//221 192//224 224//192 207//190 
f 1//67 256//1 225//4 3//68 
f 3//68 225//4 226//6 5//69 
f 5//69 226//6 227//8 7//70 
f 7//70 227//8 228//10 9//71 
f 9//71 228//10 229//12 11//72 
f 11//72 229//12 230//14 13//73 
f 13//73 230//14 231//16 15//74 
f 15//74 231//16 232//18 17//75 
f 17//75 232//18 233//20 19//76 
f 19//76 233//20 234//22 21//77 
f 21//77 234//22 235//24 23//78 
f 23//78 235//24 236//26 25//79 
f 25//79 236//26 237//28 27//80 
f 27//80 237//28 238//30 29//81 
f 29//81 238//30 239//32 31//82 
f 31//82 239//32 240//34 33//83 
f 33//83 240//34 241//36 35//84 
f 35//84 241//36 242//38 37//85 
f 37//85 242//38 243//40 39//86 
f 39//86 243//40 244//42 41//87 
f 41//87 244//42 245//44 43//88 
f 43//88 245//44 246//46 45//89 
f 45//89 246//46 247//48 47//90 
f 47//90 247//48 248//50 49//91 
f 49//91 248//50 249//52 51//92 
f 51//92 249//52 250//54 53//93 
f 53//93 250//54 251//56 55//94 
f 55//94 251//56 252//58 57//95 
f 57//95 252//58 253//60 59//96 
f 59//96 253//60 254//62 61//97 
f 63//98 255//65 256//1 1//67 
f 61//97 254//62 255//65 63//98 
