o GlassPanel_Cube.002
o GlassPanel_Cube.002
v -0.644231 2.677905 2.164996
v -0.932093 3.885142 -1.637597
v 2.917883 2.969322 -2.219798
v 3.205745 1.762085 1.582795
v -0.591914 2.862998 2.219798
v -0.879776 4.070236 -1.582795
v 2.970200 3.154416 -2.164996
v 3.258062 1.947178 1.637597
v -3.350081 4.224465 0.757003
v -3.474426 3.784542 0.626750
v 5.800395 2.047779 -0.626750
v 5.676051 1.607855 -0.757003
v -2.193148 4.170026 -0.399776
v 4.375186 2.265913 -1.501521
v -2.283634 3.849893 -0.494561
v 4.465672 2.586046 -1.406736
v -2.381692 3.291588 1.439441
v 4.851593 1.937114 0.461856
v -2.284718 3.634677 1.541023
v 4.754619 1.594025 0.360274
vn -0.603473 0.378387 -0.701886
vn -0.071966 0.301809 -0.950648
vn 0.548569 -0.376143 0.746718
vn 0.071965 -0.301809 0.950648
vn -0.266127 -0.901054 -0.342459
vn 0.255654 0.944975 0.204114
vn -0.612982 -0.059997 0.787816
vn 0.531492 0.098859 -0.841275
vn -0.257467 -0.939972 -0.223972
vn 0.264987 0.908436 0.323305
vn -0.645391 0.378812 -0.663304
vn -0.265686 -0.904044 -0.334837
vn 0.256390 0.943028 0.212044
vn 0.484748 0.119523 -0.866449
vn 0.717034 -0.376376 0.586688
vn -0.424376 -0.144701 0.893849
vn -0.254516 -0.947784 -0.192167
vn 0.266757 0.896445 0.353873
usemtl None
s off
f 13//1 6//1 2//1 15//1 
f 6//2 7//2 3//2 2//2 
f 18//3 8//3 4//3 20//3 
f 8//4 5//4 1//4 4//4 
f 15//5 2//5 3//5 14//5 
f 16//6 7//6 6//6 13//6 
f 19//7 9//7 10//7 17//7 
f 16//8 11//8 12//8 14//8 
f 17//9 10//9 12//9 20//9 
f 18//10 11//10 9//10 19//10 
f 9//11 13//11 15//11 10//11 
f 10//12 15//12 14//12 12//12 
f 11//13 16//13 13//13 9//13 
f 7//14 16//14 14//14 3//14 
f 11//15 18//15 20//15 12//15 
f 5//16 19//16 17//16 1//16 
f 1//17 17//17 20//17 4//17 
f 8//18 18//18 19//18 5//18 
