o Ground_Plane.001
o Ground_Plane.001
v -4.511312 -0.000001 4.511312
v 4.511312 -0.000001 4.511312
v 4.511312 0.000001 -4.511312
v -4.511312 0.000001 -4.511312
v -4.511312 6.555992 4.511313
v 4.511312 6.555992 4.511313
v 4.511312 6.555994 -4.511312
v -4.511312 6.555994 -4.511312
vn 0.000000 -1.000000 -0.000000
vn 0.000000 0.000000 -1.000000
vn 1.000000 0.000000 0.000000
vn 0.000000 -0.000000 1.000000
vn -1.000000 0.000000 0.000000
usemtl None.001
s off
f 1//1 4//1 2//1 
f 3//2 4//2 7//2 
f 2//3 3//3 6//3 
f 1//4 2//4 5//4 
f 4//5 1//5 8//5 
f 4//1 3//1 2//1 
f 4//2 8//2 7//2 
f 3//3 7//3 6//3 
f 2//4 6//4 5//4 
f 1//5 5//5 8//5 
