o Ground_Cube
o Ground_Cube
v -5.352531 -0.295045 5.352531
v -5.352531 -0.295045 -5.352531
v 5.352531 -0.295045 -5.352531
v 5.352531 -0.295045 5.352531
v -5.352531 0.295045 5.352531
v -5.352531 0.295045 -5.352531
v 5.352531 0.295045 -5.352531
v 5.352531 0.295045 5.352531
v -4.965277 0.295045 -5.352531
v -4.965277 -0.295045 -5.352531
v -4.965277 0.295045 5.352531
v -4.965277 -0.295045 5.352531
v 5.041901 0.295045 -5.352531
v 5.041901 -0.295045 5.352531
v 5.041901 -0.295045 -5.352531
v 5.041901 0.295045 5.352531
v -5.352531 0.295045 -4.984699
v -5.352531 -0.295045 -4.984699
v 5.352531 0.295045 -4.984699
v 5.352531 -0.295045 -4.984699
v -4.965277 -0.295045 -4.984699
v -4.965277 0.295045 -4.984699
v 5.041901 -0.295045 -4.984699
v 5.041901 0.295045 -4.984699
v -5.352531 -0.295045 4.894379
v 5.352531 0.295045 4.894379
v -4.965277 -0.295045 4.894379
v -4.965277 0.295045 4.894379
v 5.041901 -0.295045 4.894379
v 5.041901 0.295045 4.894379
v -5.352531 0.295045 4.894379
v 5.352531 -0.295045 4.894379
v -19.027437 4.754193 19.036156
v -19.027437 4.754193 -18.921188
v 18.929905 4.754193 -18.921188
v 18.929905 4.754193 19.036156
v -17.654333 4.754193 -18.921188
v -17.654333 4.754193 19.036156
v 17.828491 4.754193 -18.921188
v 17.828491 4.754193 19.036156
v -19.027437 4.754193 -17.616951
v 18.929905 4.754193 -17.616951
v -17.654333 4.754193 -17.616951
v 17.828491 4.754193 -17.616951
v 18.929905 4.754193 17.411665
v -17.654333 4.754193 17.411665
v 17.828491 4.754193 17.411665
v -19.027437 4.754193 17.411665
vn -1.000000 0.000000 0.000000
vn 0.000000 0.000000 -1.000000
vn 1.000000 0.000000 0.000000
vn 0.000000 0.000000 1.000000
vn 0.000000 -1.000000 0.000000
vn -0.310016 -0.950731 0.000000
vn 0.000000 0.942974 0.332867
vn 0.312029 -0.950072 0.000000
vn 0.000000 -0.950789 0.309838
vn 0.000000 1.000000 0.000000
vn 0.312028 -0.950073 0.000000
vn 0.000000 -0.950014 -0.312207
vn -0.310018 -0.950731 0.000000
vn -0.310017 -0.950731 0.000000
vn 0.000000 -0.950013 -0.312210
vn 0.000000 0.942011 -0.335581
vn 0.000000 -0.950014 -0.312209
vn -0.329287 0.944230 0.000000
vn 0.000000 -0.950789 0.309840
vn 0.331541 0.943441 0.000000
vn 0.000000 -0.950013 -0.312209
usemtl None
s off
f 17//1 6//1 18//1 
f 13//2 7//2 15//2 
f 26//3 8//3 32//3 
f 11//4 5//4 12//4 
f 23//5 15//5 20//5 
f 31//6 5//6 33//6 
f 6//2 9//2 2//2 
f 16//4 11//4 14//4 
f 18//5 2//5 21//5 
f 22//7 24//7 44//7 
f 9//2 13//2 10//2 
f 21//5 10//5 23//5 
f 8//4 16//4 4//4 
f 19//8 7//8 35//8 
f 31//1 17//1 25//1 
f 7//3 19//3 3//3 
f 29//5 23//5 32//5 
f 5//9 11//9 33//9 
f 25//5 18//5 27//5 
f 30//10 24//10 28//10 
f 27//5 21//5 29//5 
f 26//11 19//11 42//11 
f 19//3 26//3 20//3 
f 5//1 31//1 1//1 
f 14//5 29//5 4//5 
f 11//9 16//9 40//9 
f 1//5 25//5 12//5 
f 9//12 6//12 34//12 
f 12//5 27//5 14//5 
f 6//13 17//13 34//13 
f 43//10 37//10 41//10 
f 44//10 39//10 43//10 
f 42//10 35//10 44//10 
f 46//10 43//10 48//10 
f 45//10 42//10 47//10 
f 38//10 46//10 33//10 
f 40//10 47//10 38//10 
f 36//10 45//10 40//10 
f 17//14 31//14 41//14 
f 7//15 13//15 35//15 
f 30//16 28//16 47//16 
f 13//17 9//17 39//17 
f 8//11 26//11 36//11 
f 24//18 30//18 44//18 
f 16//19 8//19 36//19 
f 28//20 22//20 43//20 
f 6//1 2//1 18//1 
f 7//2 3//2 15//2 
f 8//3 4//3 32//3 
f 5//4 1//4 12//4 
f 15//5 3//5 20//5 
f 48//14 31//14 33//14 
f 9//2 10//2 2//2 
f 11//4 12//4 14//4 
f 2//5 10//5 21//5 
f 43//7 22//7 44//7 
f 13//2 15//2 10//2 
f 10//5 15//5 23//5 
f 16//4 14//4 4//4 
f 42//11 19//11 35//11 
f 17//1 18//1 25//1 
f 19//3 20//3 3//3 
f 23//5 20//5 32//5 
f 11//9 38//9 33//9 
f 18//5 21//5 27//5 
f 24//10 22//10 28//10 
f 21//5 23//5 29//5 
f 45//11 26//11 42//11 
f 26//3 32//3 20//3 
f 31//1 25//1 1//1 
f 29//5 32//5 4//5 
f 38//9 11//9 40//9 
f 25//5 27//5 12//5 
f 37//21 9//21 34//21 
f 27//5 29//5 14//5 
f 17//14 41//14 34//14 
f 37//10 34//10 41//10 
f 39//10 37//10 43//10 
f 35//10 39//10 44//10 
f 43//10 41//10 48//10 
f 42//10 44//10 47//10 
f 46//10 48//10 33//10 
f 47//10 46//10 38//10 
f 45//10 47//10 40//10 
f 31//14 48//14 41//14 
f 13//17 39//17 35//17 
f 28//16 46//16 47//16 
f 9//17 37//17 39//17 
f 26//11 45//11 36//11 
f 30//18 47//18 44//18 
f 40//9 16//9 36//9 
f 46//20 28//20 43//20 
