o Hood_Cube.007
o Hood_Cube.007
v -6.045907 4.085053 -2.197336
v -6.045907 4.085053 -2.771121
v -5.402276 4.085053 -2.771121
v -5.402276 4.085053 -2.197336
v -6.045907 6.020447 -2.197336
v -6.045907 6.020447 -2.771121
v -5.402276 6.020447 -2.771121
v -5.402276 6.020447 -2.197336
v -6.050277 4.085053 -1.443356
v -6.050277 4.085053 -3.498897
v -4.763016 4.085053 -3.498897
v -4.763016 4.085053 -1.443356
v -6.050277 3.989569 -1.443356
v -6.050277 3.885856 -3.498897
v -4.763016 3.885856 -3.498897
v -4.763016 3.989569 -1.443356
v -5.982173 3.920465 -1.247212
v -5.982173 3.885890 -3.622045
v -4.542173 3.885890 -3.622045
v -4.542173 3.920465 -1.247212
v -5.982173 3.942718 -1.245950
v -5.982173 3.926873 -3.611578
v -4.542173 3.926873 -3.611578
v -4.542173 3.942718 -1.245950
v -5.982173 3.995239 -1.546796
v -5.982173 3.966868 -1.915784
v -5.982173 3.937340 -2.284772
v -5.982173 3.894931 -2.653760
v -5.982173 3.894931 -3.022749
v -5.982173 3.908234 -3.391737
v -5.982173 3.859400 -3.391737
v -5.982173 3.819932 -3.022748
v -5.982173 3.819932 -2.653760
v -5.982173 3.862340 -2.284772
v -5.982173 3.897101 -1.915784
v -5.982173 3.936350 -1.546796
v -4.542173 3.908234 -3.391737
v -4.542173 3.894931 -3.022748
v -4.542173 3.894931 -2.653760
v -4.542173 3.937340 -2.284772
v -4.542173 3.966868 -1.915784
v -4.542173 3.995239 -1.546796
v -4.542173 3.936350 -1.546796
v -4.542173 3.897101 -1.915784
v -4.542173 3.862340 -2.284772
v -4.542173 3.819932 -2.653760
v -4.542173 3.819932 -3.022749
v -4.542173 3.859400 -3.391737
v -5.982173 3.928055 -1.362302
v -4.542173 3.972903 -1.362302
v -5.982173 3.972903 -1.362302
v -4.542173 3.928055 -1.362302
v -5.982173 3.923389 -1.177808
v -5.982173 3.923389 -3.760725
v -4.542173 3.923389 -3.760725
v -4.542173 3.923389 -1.177808
v -5.982173 3.960767 -1.546796
v -5.982173 3.937217 -1.915784
v -5.982173 3.899840 -2.284772
v -5.982173 3.857431 -2.653760
v -5.982173 3.857431 -3.022748
v -5.982173 3.883817 -3.391737
v -4.542173 3.883817 -3.391737
v -4.542173 3.857431 -3.022748
v -4.542173 3.857431 -2.653760
v -4.542173 3.899840 -2.284772
v -4.542173 3.937217 -1.915784
v -4.542173 3.960767 -1.546796
v -4.542173 3.946003 -1.362302
v -5.982173 3.946003 -1.362302
v -6.045907 6.020447 -2.510418
v -6.045907 4.085053 -2.510418
v -5.402276 6.020447 -2.510418
v -5.402276 4.085053 -2.510418
v -6.050277 4.085053 -2.564949
v -4.763016 4.085053 -2.564949
v -6.050277 3.882707 -2.564949
v -4.763016 3.882707 -2.564949
vn -1.000000 0.000000 0.000000
vn 0.000000 0.000000 -1.000000
vn 1.000000 0.000000 0.000000
vn 0.000000 0.000000 1.000000
vn 0.000000 1.000000 0.000000
vn 0.000000 -0.999994 -0.003372
vn 0.000000 -0.965331 -0.261031
vn 0.000000 -0.999114 0.042092
vn 0.000000 -0.993451 -0.114264
vn 0.000000 0.996425 0.084482
vn 0.000000 -0.998991 -0.044919
vn 0.000000 -0.994390 0.105774
vn 0.000000 -0.995592 0.093790
vn 0.000000 -0.993460 0.114180
vn 0.000000 -1.000000 0.000000
vn -0.000000 -0.994328 -0.106358
vn 0.000000 0.992752 0.120184
vn 0.000000 0.997057 -0.076662
vn 0.000000 0.996813 -0.079769
vn 0.000000 0.993460 -0.114181
vn -0.000000 0.999351 0.036029
vn 0.000000 -0.997833 -0.065800
vn 0.000000 0.967957 0.251118
vn 0.000000 0.999727 -0.023352
vn 1.000000 0.000023 0.000000
vn 0.000000 0.962046 0.272886
vn 0.000000 -0.995492 0.094847
usemtl Material.018
s off
f 71//1 6//1 2//1 72//1 
f 6//2 7//2 3//2 2//2 
f 73//3 8//3 4//3 74//3 
f 8//4 5//4 1//4 4//4 
f 4//5 1//5 9//5 12//5 
f 73//5 7//5 6//5 71//5 
f 12//4 9//4 13//4 16//4 
f 74//5 4//5 12//5 76//5 
f 2//5 3//5 11//5 10//5 
f 72//5 2//5 10//5 75//5 
f 77//6 14//6 15//6 78//6 
f 76//3 12//3 16//3 78//3 
f 10//2 11//2 15//2 14//2 
f 75//1 10//1 14//1 77//1 
f 62//1 54//1 18//1 31//1 
f 54//7 55//7 19//7 18//7 
f 69//3 56//3 20//3 52//3 
f 56//8 53//8 17//8 20//8 
f 31//9 18//9 19//9 48//9 
f 37//10 23//10 22//10 30//10 
f 70//1 57//1 36//1 49//1 
f 57//1 58//1 35//1 36//1 
f 58//1 59//1 34//1 35//1 
f 59//1 60//1 33//1 34//1 
f 60//1 61//1 32//1 33//1 
f 61//1 62//1 31//1 32//1 
f 55//3 63//3 48//3 19//3 
f 63//3 64//3 47//3 48//3 
f 64//3 65//3 46//3 47//3 
f 65//3 66//3 45//3 46//3 
f 66//3 67//3 44//3 45//3 
f 67//3 68//3 43//3 44//3 
f 49//11 36//11 43//11 52//11 
f 36//12 35//12 44//12 43//12 
f 35//13 34//13 45//13 44//13 
f 34//14 33//14 46//14 45//14 
f 33//15 32//15 47//15 46//15 
f 32//16 31//16 48//16 47//16 
f 50//17 42//17 25//17 51//17 
f 42//18 41//18 26//18 25//18 
f 41//19 40//19 27//19 26//19 
f 40//20 39//20 28//20 27//20 
f 39//5 38//5 29//5 28//5 
f 38//21 37//21 30//21 29//21 
f 68//3 69//3 52//3 43//3 
f 53//1 70//1 49//1 17//1 
f 17//22 49//22 52//22 20//22 
f 24//23 50//23 51//23 21//23 
f 30//1 22//1 54//1 62//1 
f 22//24 23//24 55//24 54//24 
f 50//25 24//25 56//25 69//25 
f 24//26 21//26 53//26 56//26 
f 51//1 25//1 57//1 70//1 
f 25//1 26//1 58//1 57//1 
f 26//1 27//1 59//1 58//1 
f 27//1 28//1 60//1 59//1 
f 28//1 29//1 61//1 60//1 
f 29//1 30//1 62//1 61//1 
f 23//3 37//3 63//3 55//3 
f 37//3 38//3 64//3 63//3 
f 38//3 39//3 65//3 64//3 
f 39//3 40//3 66//3 65//3 
f 40//3 41//3 67//3 66//3 
f 41//3 42//3 68//3 67//3 
f 42//3 50//3 69//3 68//3 
f 21//1 51//1 70//1 53//1 
f 5//1 71//1 72//1 1//1 
f 7//3 73//3 74//3 3//3 
f 8//5 73//5 71//5 5//5 
f 3//5 74//5 76//5 11//5 
f 1//5 72//5 75//5 9//5 
f 13//27 77//27 78//27 16//27 
f 11//3 76//3 78//3 15//3 
f 9//1 75//1 77//1 13//1 
