o Hood_Upper_Cube.010
o Hood_Upper_Cube.010
v -6.045907 4.085053 -2.197336
v -6.045907 4.085053 -2.771121
v -5.402276 4.085053 -2.771121
v -5.402276 4.085053 -2.197336
v -6.045907 6.020447 -2.197336
v -6.045907 6.020447 -2.771121
v -5.402276 6.020447 -2.771121
v -5.402276 6.020447 -2.197336
v -6.045907 6.020447 -2.510418
v -6.045907 4.085053 -2.510418
v -5.402276 6.020447 -2.510418
v -5.402276 4.085053 -2.510418
v -6.050277 4.085053 -2.564949
vt 1.000000 0.918313
vt 1.000000 0.972453
vt 0.598082 0.972453
vt 0.598082 0.918313
vt 0.464421 0.536202
vt 0.598082 0.536202
vt 0.598082 0.938121
vt 0.464421 0.938121
vt 0.065017 0.938266
vt 0.000000 0.938266
vt 0.000000 0.536348
vt 0.065017 0.536348
vt 0.299041 0.536202
vt 0.432702 0.536202
vt 0.432702 0.938120
vt 0.299041 0.938120
vt 0.234046 0.670009
vt 0.179926 0.670009
vt 0.179926 0.536348
vt 0.234046 0.536348
vt 1.000000 0.853296
vt 0.598082 0.853296
vt 0.119156 0.938266
vt 0.119156 0.536348
vt 0.299041 0.670009
vt 0.299041 0.536348
vn -1.000000 0.000000 0.000000
vn 0.000000 0.000000 -1.000000
vn 1.000000 0.000000 0.000000
vn 0.000000 0.000000 1.000000
vn 0.000000 1.000000 0.000000
usemtl Material.018
s off
f 9/1/1 6/2/1 2/3/1 10/4/1 
f 6/5/2 7/6/2 3/7/2 2/8/2 
f 11/9/3 8/10/3 4/11/3 12/12/3 
f 8/13/4 5/14/4 1/15/4 4/16/4 
f 11/17/5 7/18/5 6/19/5 9/20/5 
f 5/21/1 9/1/1 10/4/1 1/22/1 
f 7/23/3 11/9/3 12/12/3 3/24/3 
f 8/25/5 11/17/5 9/20/5 5/26/5 
l 7968 7971
