o HungLamps_Cylinder
o HungLamps_Cylinder
v 3.732324 2.309712 0.653681
v 3.732324 2.533409 0.716055
v 3.811413 2.309712 0.686441
v 3.767308 2.533409 0.730546
v 3.844173 2.309712 0.765529
v 3.781799 2.533409 0.765529
v 3.811413 2.309712 0.844618
v 3.767308 2.533409 0.800513
v 3.732324 2.309712 0.877378
v 3.732324 2.533409 0.815004
v 3.653236 2.309712 0.844618
v 3.697340 2.533409 0.800513
v 3.620476 2.309712 0.765529
v 3.682850 2.533409 0.765529
v 3.653236 2.309712 0.686441
v 3.697340 2.533409 0.730546
v 3.732324 2.373531 0.655663
v 3.810012 2.373531 0.687842
v 3.842191 2.373531 0.765529
v 3.810012 2.373531 0.843217
v 3.732324 2.373531 0.875396
v 3.654637 2.373531 0.843217
v 3.622458 2.373531 0.765529
v 3.654637 2.373531 0.687842
v 3.732324 2.533408 0.759446
v 3.736626 2.533408 0.761228
v 3.738408 2.533408 0.765529
v 3.736626 2.533408 0.769831
v 3.732324 2.533408 0.771613
v 3.728023 2.533408 0.769831
v 3.726241 2.533408 0.765529
v 3.728023 2.533408 0.761228
v 3.732324 4.360950 0.759446
v 3.736626 4.360950 0.761228
v 3.738408 4.360950 0.765529
v 3.736626 4.360950 0.769831
v 3.732324 4.360950 0.771613
v 3.728023 4.360950 0.769831
v 3.726241 4.360950 0.765529
v 3.728023 4.360950 0.761228
v 3.732324 2.453470 0.672184
v 3.798329 2.453470 0.699524
v 3.825670 2.453470 0.765529
v 3.798329 2.453470 0.831534
v 3.732324 2.453470 0.858875
v 3.666319 2.453470 0.831534
v 3.638979 2.453470 0.765529
v 3.666319 2.453470 0.699524
v 3.732324 2.309712 0.659474
v 3.807317 2.309712 0.690537
v 3.838380 2.309712 0.765529
v 3.807317 2.309712 0.840522
v 3.732324 2.309712 0.871585
v 3.657332 2.309712 0.840522
v 3.626269 2.309712 0.765529
v 3.657332 2.309712 0.690537
v 3.732324 2.400642 0.671245
v 3.798994 2.400642 0.698860
v 3.826609 2.400642 0.765529
v 3.798994 2.400642 0.832199
v 3.732324 2.400642 0.859814
v 3.665655 2.400642 0.832199
v 3.638040 2.400642 0.765529
v 3.665655 2.400642 0.698860
v 3.732324 2.522781 0.718390
v 3.765657 2.522781 0.732197
v 3.779464 2.522781 0.765529
v 3.765657 2.522781 0.798862
v 3.732324 2.522781 0.812669
v 3.698992 2.522781 0.798862
v 3.685185 2.522781 0.765529
v 3.698992 2.522781 0.732197
v 3.173083 2.309712 0.653681
v 3.173083 2.533409 0.716055
v 3.252172 2.309712 0.686441
v 3.208067 2.533409 0.730546
v 3.284931 2.309712 0.765529
v 3.222558 2.533409 0.765529
v 3.252172 2.309712 0.844618
v 3.208067 2.533409 0.800513
v 3.173083 2.309712 0.877378
v 3.173083 2.533409 0.815004
v 3.093994 2.309712 0.844618
v 3.138099 2.533409 0.800513
v 3.061234 2.309712 0.765529
v 3.123608 2.533409 0.765529
v 3.093994 2.309712 0.686441
v 3.138099 2.533409 0.730546
v 3.173083 2.373531 0.655663
v 3.250771 2.373531 0.687842
v 3.282950 2.373531 0.765529
v 3.250771 2.373531 0.843217
v 3.173083 2.373531 0.875396
v 3.095395 2.373531 0.843217
v 3.063216 2.373531 0.765529
v 3.095395 2.373531 0.687842
v 3.173083 2.533408 0.759446
v 3.177385 2.533408 0.761228
v 3.179167 2.533408 0.765529
v 3.177385 2.533408 0.769831
v 3.173083 2.533408 0.771613
v 3.168781 2.533408 0.769831
v 3.166999 2.533408 0.765529
v 3.168781 2.533408 0.761228
v 3.173083 4.360950 0.759446
v 3.177385 4.360950 0.761228
v 3.179167 4.360950 0.765529
v 3.177385 4.360950 0.769831
v 3.173083 4.360950 0.771613
v 3.168781 4.360950 0.769831
v 3.166999 4.360950 0.765529
v 3.168781 4.360950 0.761228
v 3.173083 2.453470 0.672184
v 3.239088 2.453470 0.699524
v 3.266428 2.453470 0.765529
v 3.239088 2.453470 0.831534
v 3.173083 2.453470 0.858875
v 3.107078 2.453470 0.831534
v 3.079738 2.453470 0.765529
v 3.107078 2.453470 0.699524
v 3.173083 2.309712 0.659474
v 3.248075 2.309712 0.690537
v 3.279138 2.309712 0.765529
v 3.248075 2.309712 0.840522
v 3.173083 2.309712 0.871585
v 3.098090 2.309712 0.840522
v 3.067028 2.309712 0.765529
v 3.098090 2.309712 0.690537
v 3.173083 2.400642 0.671245
v 3.239752 2.400642 0.698860
v 3.267367 2.400642 0.765529
v 3.239752 2.400642 0.832199
v 3.173083 2.400642 0.859814
v 3.106414 2.400642 0.832199
v 3.078798 2.400642 0.765529
v 3.106414 2.400642 0.698860
v 3.173083 2.522781 0.718390
v 3.206416 2.522781 0.732197
v 3.220222 2.522781 0.765529
v 3.206416 2.522781 0.798862
v 3.173083 2.522781 0.812669
v 3.139750 2.522781 0.798862
v 3.125943 2.522781 0.765529
v 3.139750 2.522781 0.732197
v 2.613842 2.309712 0.653681
v 2.613842 2.533409 0.716055
v 2.692930 2.309712 0.686441
v 2.648825 2.533409 0.730546
v 2.725690 2.309712 0.765529
v 2.663316 2.533409 0.765529
v 2.692930 2.309712 0.844618
v 2.648825 2.533409 0.800513
v 2.613842 2.309712 0.877378
v 2.613842 2.533409 0.815004
v 2.534753 2.309712 0.844618
v 2.578857 2.533409 0.800513
v 2.501993 2.309712 0.765529
v 2.564367 2.533409 0.765529
v 2.534753 2.309712 0.686441
v 2.578857 2.533409 0.730546
v 2.613842 2.373531 0.655663
v 2.691529 2.373531 0.687842
v 2.723708 2.373531 0.765529
v 2.691529 2.373531 0.843217
v 2.613842 2.373531 0.875396
v 2.536154 2.373531 0.843217
v 2.503974 2.373531 0.765529
v 2.536154 2.373531 0.687842
v 2.613842 2.533408 0.759446
v 2.618143 2.533408 0.761228
v 2.619925 2.533408 0.765529
v 2.618143 2.533408 0.769831
v 2.613842 2.533408 0.771613
v 2.609540 2.533408 0.769831
v 2.607758 2.533408 0.765529
v 2.609540 2.533408 0.761228
v 2.613842 4.360950 0.759446
v 2.618143 4.360950 0.761228
v 2.619925 4.360950 0.765529
v 2.618143 4.360950 0.769831
v 2.613842 4.360950 0.771613
v 2.609540 4.360950 0.769831
v 2.607758 4.360950 0.765529
v 2.609540 4.360950 0.761228
v 2.613842 2.453470 0.672184
v 2.679846 2.453470 0.699524
v 2.707187 2.453470 0.765529
v 2.679846 2.453470 0.831534
v 2.613842 2.453470 0.858875
v 2.547836 2.453470 0.831534
v 2.520496 2.453470 0.765529
v 2.547836 2.453470 0.699524
v 2.613842 2.309712 0.659474
v 2.688834 2.309712 0.690537
v 2.719897 2.309712 0.765529
v 2.688834 2.309712 0.840522
v 2.613842 2.309712 0.871585
v 2.538849 2.309712 0.840522
v 2.507786 2.309712 0.765529
v 2.538849 2.309712 0.690537
v 2.613842 2.400642 0.671245
v 2.680511 2.400642 0.698860
v 2.708126 2.400642 0.765529
v 2.680511 2.400642 0.832199
v 2.613842 2.400642 0.859814
v 2.547172 2.400642 0.832199
v 2.519557 2.400642 0.765529
v 2.547172 2.400642 0.698860
v 2.613842 2.522781 0.718390
v 2.647174 2.522781 0.732197
v 2.660981 2.522781 0.765529
v 2.647174 2.522781 0.798862
v 2.613842 2.522781 0.812669
v 2.580509 2.522781 0.798862
v 2.566702 2.522781 0.765529
v 2.580509 2.522781 0.732197
vn 0.000000 0.334330 -0.942442
vn 0.000000 0.806269 -0.591510
vn 0.418256 0.806269 -0.418256
vn 0.666402 0.334330 -0.666402
vn 0.591540 0.806269 0.000000
vn 0.942442 0.334330 0.000000
vn 0.418256 0.806269 0.418256
vn 0.666402 0.334330 0.666402
vn 0.000000 0.806269 0.591510
vn 0.000000 0.334330 0.942442
vn -0.418256 0.806269 0.418256
vn -0.666402 0.334330 0.666402
vn -0.591540 0.806269 0.000000
vn -0.942442 0.334330 0.000000
vn 0.000000 0.804193 -0.594348
vn 0.420270 0.804163 -0.420270
vn -0.666402 0.334330 -0.666402
vn -0.418256 0.806269 -0.418256
vn 0.000000 -0.618580 -0.785699
vn 0.000000 0.114780 -0.993378
vn 0.702414 0.114780 -0.702414
vn 0.555589 -0.618549 -0.555559
vn 0.993378 0.114780 0.000000
vn 0.785699 -0.618549 0.000000
vn 0.702414 0.114750 0.702414
vn 0.555589 -0.618549 0.555559
vn 0.000000 0.114750 0.993378
vn 0.000000 -0.618580 0.785699
vn -0.702414 0.114780 0.702414
vn -0.555589 -0.618549 0.555559
vn -0.993378 0.114780 0.000000
vn -0.785699 -0.618549 0.000000
vn -0.555589 -0.618549 -0.555559
vn -0.702414 0.114780 -0.702414
vn -0.594348 0.804193 0.000000
vn -0.420270 0.804163 0.420270
vn -0.548967 0.630268 0.548967
vn -0.776360 0.630238 0.000000
vn 0.420270 0.804163 0.420270
vn 0.000000 0.804193 0.594348
vn -0.420270 0.804163 -0.420270
vn 0.594348 0.804193 0.000000
vn 0.548967 0.630238 -0.548967
vn 0.000000 0.630238 -0.776360
vn -0.548967 0.630238 -0.548967
vn 0.000000 0.630238 0.776360
vn 0.548967 0.630268 0.548967
vn 0.776360 0.630238 0.000000
vn 0.000000 -0.838038 0.545579
vn 0.385754 -0.838038 0.385784
vn 0.545549 -0.838038 0.000000
vn 0.385754 -0.838038 -0.385784
vn 0.000000 -0.838038 -0.545579
vn -0.385754 -0.838038 -0.385784
vn -0.545579 -0.838038 0.000000
vn -0.385754 -0.838038 0.385784
vn 0.000000 -0.239296 0.970916
vn 0.686544 -0.239296 0.686544
vn 0.970916 -0.239296 0.000000
vn 0.686544 -0.239296 -0.686544
vn 0.000000 -0.239296 -0.970916
vn -0.686544 -0.239296 -0.686544
vn -0.970916 -0.239296 0.000000
vn -0.686544 -0.239296 0.686544
vn 0.000000 -0.360095 0.932915
vn 0.659670 -0.360098 0.659671
vn 0.932914 -0.360100 -0.000000
vn 0.659670 -0.360098 -0.659670
vn 0.000000 -0.360096 -0.932915
vn -0.659670 -0.360098 -0.659670
vn -0.932914 -0.360099 -0.000000
vn -0.659670 -0.360098 0.659670
vn 0.591510 0.806269 0.000000
vn -0.591510 0.806269 0.000000
vn 0.702414 0.114750 -0.702414
vn 0.555589 -0.618580 -0.555559
vn 0.993378 0.114750 0.000000
vn 0.702414 0.114780 0.702414
vn 0.000000 0.114780 0.993378
vn -0.993378 0.114750 0.000000
vn -0.594378 0.804163 0.000000
vn -0.420270 0.804193 0.420270
vn -0.548997 0.630238 0.548936
vn -0.420270 0.804193 -0.420270
vn 0.000000 -0.360098 0.932914
vn 0.659670 -0.360097 0.659670
vn 0.932915 -0.360096 -0.000000
vn 0.659671 -0.360097 -0.659670
vn 0.000000 -0.360097 -0.932915
vn -0.659671 -0.360098 -0.659670
vn -0.932914 -0.360098 -0.000000
vn -0.659670 -0.360099 0.659670
vn 0.000000 0.804163 -0.594348
vn -0.702414 0.114750 0.702414
vn -0.702414 0.114750 -0.702414
vn -0.548967 0.630238 0.548967
vn 0.000000 0.804163 0.594348
vn 0.548967 0.630238 0.548967
vn -0.545549 -0.838038 0.000000
vn -0.000001 -0.360098 0.932915
vn 0.932915 -0.360097 -0.000000
vn 0.659670 -0.360098 -0.659671
vn -0.000001 -0.360098 -0.932914
vn -0.659670 -0.360098 -0.659671
vn -0.932915 -0.360097 0.000000
vn -0.659669 -0.360097 0.659671
usemtl Material.006
s 1
f 41//1 2//2 4//3 42//4 
f 42//4 4//3 6//5 43//6 
f 43//6 6//5 8//7 44//8 
f 44//8 8//7 10//9 45//10 
f 45//10 10//9 12//11 46//12 
f 46//12 12//11 14//13 47//14 
f 4//3 2//2 25//15 26//16 
f 48//17 16//18 2//2 41//1 
f 47//14 14//13 16//18 48//17 
f 1//19 17//20 18//21 3//22 
f 3//22 18//21 19//23 5//24 
f 5//24 19//23 20//25 7//26 
f 7//26 20//25 21//27 9//28 
f 9//28 21//27 22//29 11//30 
f 11//30 22//29 23//31 13//32 
f 15//33 24//34 17//20 1//19 
f 13//32 23//31 24//34 15//33 
f 31//35 30//36 38//37 39//38 
f 10//9 8//7 28//39 29//40 
f 12//11 10//9 29//40 30//36 
f 14//13 12//11 30//36 31//35 
f 16//18 14//13 31//35 32//41 
f 2//2 16//18 32//41 25//15 
f 6//5 4//3 26//16 27//42 
f 8//7 6//5 27//42 28//39 
f 34//43 33//44 40//45 39//38 38//37 37//46 36//47 35//48 
f 27//42 26//16 34//43 35//48 
f 30//36 29//40 37//46 38//37 
f 25//15 32//41 40//45 33//44 
f 26//16 25//15 33//44 34//43 
f 29//40 28//39 36//47 37//46 
f 32//41 31//35 39//38 40//45 
f 28//39 27//42 35//48 36//47 
f 17//20 41//1 42//4 18//21 
f 18//21 42//4 43//6 19//23 
f 19//23 43//6 44//8 20//25 
f 20//25 44//8 45//10 21//27 
f 21//27 45//10 46//12 22//29 
f 22//29 46//12 47//14 23//31 
f 24//34 48//17 41//1 17//20 
f 23//31 47//14 48//17 24//34 
f 15//33 1//19 49//49 56//50 
f 13//32 15//33 56//50 55//51 
f 11//30 13//32 55//51 54//52 
f 9//28 11//30 54//52 53//53 
f 7//26 9//28 53//53 52//54 
f 5//24 7//26 52//54 51//55 
f 3//22 5//24 51//55 50//56 
f 1//19 3//22 50//56 49//49 
f 56//50 49//49 57//57 64//58 
f 55//51 56//50 64//58 63//59 
f 54//52 55//51 63//59 62//60 
f 53//53 54//52 62//60 61//61 
f 52//54 53//53 61//61 60//62 
f 51//55 52//54 60//62 59//63 
f 50//56 51//55 59//63 58//64 
f 49//49 50//56 58//64 57//57 
f 64//58 57//57 65//65 72//66 
f 63//59 64//58 72//66 71//67 
f 62//60 63//59 71//67 70//68 
f 61//61 62//60 70//68 69//69 
f 60//62 61//61 69//69 68//70 
f 59//63 60//62 68//70 67//71 
f 58//64 59//63 67//71 66//72 
f 57//57 58//64 66//72 65//65 
f 113//1 74//2 76//3 114//4 
f 114//4 76//3 78//73 115//6 
f 115//6 78//73 80//7 116//8 
f 116//8 80//7 82//9 117//10 
f 117//10 82//9 84//11 118//12 
f 118//12 84//11 86//74 119//14 
f 76//3 74//2 97//15 98//16 
f 120//17 88//18 74//2 113//1 
f 119//14 86//74 88//18 120//17 
f 73//19 89//20 90//75 75//76 
f 75//76 90//75 91//77 77//24 
f 77//24 91//77 92//78 79//26 
f 79//26 92//78 93//79 81//28 
f 81//28 93//79 94//29 83//30 
f 83//30 94//29 95//80 85//32 
f 87//33 96//34 89//20 73//19 
f 85//32 95//80 96//34 87//33 
f 103//81 102//82 110//83 111//38 
f 82//9 80//7 100//39 101//40 
f 84//11 82//9 101//40 102//82 
f 86//74 84//11 102//82 103//81 
f 88//18 86//74 103//81 104//84 
f 74//2 88//18 104//84 97//15 
f 78//73 76//3 98//16 99//42 
f 80//7 78//73 99//42 100//39 
f 106//43 105//44 112//45 111//38 110//83 109//46 108//47 107//48 
f 99//42 98//16 106//43 107//48 
f 102//82 101//40 109//46 110//83 
f 97//15 104//84 112//45 105//44 
f 98//16 97//15 105//44 106//43 
f 101//40 100//39 108//47 109//46 
f 104//84 103//81 111//38 112//45 
f 100//39 99//42 107//48 108//47 
f 89//20 113//1 114//4 90//75 
f 90//75 114//4 115//6 91//77 
f 91//77 115//6 116//8 92//78 
f 92//78 116//8 117//10 93//79 
f 93//79 117//10 118//12 94//29 
f 94//29 118//12 119//14 95//80 
f 96//34 120//17 113//1 89//20 
f 95//80 119//14 120//17 96//34 
f 87//33 73//19 121//49 128//50 
f 85//32 87//33 128//50 127//51 
f 83//30 85//32 127//51 126//52 
f 81//28 83//30 126//52 125//53 
f 79//26 81//28 125//53 124//54 
f 77//24 79//26 124//54 123//55 
f 75//76 77//24 123//55 122//56 
f 73//19 75//76 122//56 121//49 
f 128//50 121//49 129//57 136//58 
f 127//51 128//50 136//58 135//59 
f 126//52 127//51 135//59 134//60 
f 125//53 126//52 134//60 133//61 
f 124//54 125//53 133//61 132//62 
f 123//55 124//54 132//62 131//63 
f 122//56 123//55 131//63 130//64 
f 121//49 122//56 130//64 129//57 
f 136//58 129//57 137//85 144//86 
f 135//59 136//58 144//86 143//87 
f 134//60 135//59 143//87 142//88 
f 133//61 134//60 142//88 141//89 
f 132//62 133//61 141//89 140//90 
f 131//63 132//62 140//90 139//91 
f 130//64 131//63 139//91 138//92 
f 129//57 130//64 138//92 137//85 
f 185//1 146//2 148//3 186//4 
f 186//4 148//3 150//73 187//6 
f 187//6 150//73 152//7 188//8 
f 188//8 152//7 154//9 189//10 
f 189//10 154//9 156//11 190//12 
f 190//12 156//11 158//74 191//14 
f 148//3 146//2 169//93 170//16 
f 192//17 160//18 146//2 185//1 
f 191//14 158//74 160//18 192//17 
f 145//19 161//20 162//21 147//22 
f 147//22 162//21 163//23 149//24 
f 149//24 163//23 164//78 151//26 
f 151//26 164//78 165//27 153//28 
f 153//28 165//27 166//94 155//30 
f 155//30 166//94 167//80 157//32 
f 159//33 168//95 161//20 145//19 
f 157//32 167//80 168//95 159//33 
f 175//81 174//82 182//96 183//38 
f 154//9 152//7 172//39 173//97 
f 156//11 154//9 173//97 174//82 
f 158//74 156//11 174//82 175//81 
f 160//18 158//74 175//81 176//84 
f 146//2 160//18 176//84 169//93 
f 150//73 148//3 170//16 171//42 
f 152//7 150//73 171//42 172//39 
f 178//43 177//44 184//45 183//38 182//96 181//46 180//98 179//48 
f 171//42 170//16 178//43 179//48 
f 174//82 173//97 181//46 182//96 
f 169//93 176//84 184//45 177//44 
f 170//16 169//93 177//44 178//43 
f 173//97 172//39 180//98 181//46 
f 176//84 175//81 183//38 184//45 
f 172//39 171//42 179//48 180//98 
f 161//20 185//1 186//4 162//21 
f 162//21 186//4 187//6 163//23 
f 163//23 187//6 188//8 164//78 
f 164//78 188//8 189//10 165//27 
f 165//27 189//10 190//12 166//94 
f 166//94 190//12 191//14 167//80 
f 168//95 192//17 185//1 161//20 
f 167//80 191//14 192//17 168//95 
f 159//33 145//19 193//49 200//50 
f 157//32 159//33 200//50 199//51 
f 155//30 157//32 199//51 198//52 
f 153//28 155//30 198//52 197//53 
f 151//26 153//28 197//53 196//54 
f 149//24 151//26 196//54 195//99 
f 147//22 149//24 195//99 194//56 
f 145//19 147//22 194//56 193//49 
f 200//50 193//49 201//57 208//58 
f 199//51 200//50 208//58 207//59 
f 198//52 199//51 207//59 206//60 
f 197//53 198//52 206//60 205//61 
f 196//54 197//53 205//61 204//62 
f 195//99 196//54 204//62 203//63 
f 194//56 195//99 203//63 202//64 
f 193//49 194//56 202//64 201//57 
f 208//58 201//57 209//100 216//66 
f 207//59 208//58 216//66 215//101 
f 206//60 207//59 215//101 214//102 
f 205//61 206//60 214//102 213//103 
f 204//62 205//61 213//103 212//104 
f 203//63 204//62 212//104 211//105 
f 202//64 203//63 211//105 210//106 
f 201//57 202//64 210//106 209//100 
