o Icosphere_FallingCube
o Icosphere_FallingCube
v 8.322092 10.675783 -0.172369
v 9.045692 11.228568 0.353351
v 8.045707 11.228568 0.678271
v 7.427667 11.228568 -0.172369
v 8.045707 11.228568 -1.023009
v 9.045692 11.228568 -0.698089
v 8.598477 12.122998 0.678271
v 7.598492 12.122998 0.353351
v 7.598492 12.122998 -0.698089
v 8.598477 12.122998 -1.023009
v 9.216517 12.122998 -0.172369
v 8.322092 12.675783 -0.172369
vn 0.187596 -0.794651 0.577354
vn 0.607064 -0.794653 0.000000
vn -0.491122 -0.794652 0.356829
vn -0.491122 -0.794652 -0.356829
vn 0.187596 -0.794651 -0.577354
vn 0.982246 -0.187598 0.000000
vn 0.303536 -0.187589 0.934172
vn -0.794649 -0.187587 0.577359
vn -0.794650 -0.187586 -0.577359
vn 0.303536 -0.187589 -0.934172
vn 0.794649 0.187587 0.577360
vn -0.303536 0.187589 0.934171
vn -0.982246 0.187597 0.000000
vn -0.303536 0.187589 -0.934171
vn 0.794649 0.187587 -0.577360
vn 0.491122 0.794652 0.356830
vn -0.187596 0.794651 0.577354
vn -0.607065 0.794652 0.000000
vn -0.187596 0.794651 -0.577354
vn 0.491122 0.794652 -0.356829
usemtl Material.010
s off
f 1//1 2//1 3//1 
f 2//2 1//2 6//2 
f 1//3 3//3 4//3 
f 1//4 4//4 5//4 
f 1//5 5//5 6//5 
f 2//6 6//6 11//6 
f 3//7 2//7 7//7 
f 4//8 3//8 8//8 
f 5//9 4//9 9//9 
f 6//10 5//10 10//10 
f 2//11 11//11 7//11 
f 3//12 7//12 8//12 
f 4//13 8//13 9//13 
f 5//14 9//14 10//14 
f 6//15 10//15 11//15 
f 7//16 11//16 12//16 
f 8//17 7//17 12//17 
f 9//18 8//18 12//18 
f 10//19 9//19 12//19 
f 11//20 10//20 12//20 
