o Icosphere.002
o Icosphere.002
v 2.882499 14.753479 17.518717
v 2.855867 15.564425 18.312403
v 2.855867 15.708282 17.048491
v 2.855868 14.822490 16.401892
v 2.855867 13.732210 17.517622
v 2.855867 14.050880 18.348591
v 3.339476 15.873393 17.903236
v 3.339476 15.436379 16.320810
v 3.339476 14.197106 16.807095
v 3.339476 13.492796 18.495623
v 3.339473 14.746433 17.917217
v 3.846394 14.712290 17.497520
v 2.833072 15.272438 17.897415
v 2.839056 15.848256 17.941143
v 2.833072 15.379298 17.193611
v 2.833072 14.275757 17.971951
v 2.839057 14.804076 18.042397
v 2.839056 15.361824 16.495733
v 2.833071 14.816150 16.786348
v 2.839056 14.241833 16.814312
v 2.833072 14.092545 17.603628
v 2.839056 13.666762 18.239513
v 3.037479 14.339012 18.214653
v 3.037479 15.247190 18.239721
v 3.037479 15.915353 18.335220
v 3.037479 15.944493 17.502958
v 3.037478 15.681288 16.566298
v 3.037478 15.181285 16.203024
v 3.037478 14.484180 16.428963
v 3.037478 13.853364 17.063923
v 3.037478 13.447736 18.035809
v 3.037479 13.637894 18.601240
v 3.403182 15.491291 18.125660
v 3.403183 15.674919 16.949835
v 3.403182 14.854889 16.353100
v 3.403183 13.685910 17.688501
v 3.403182 13.986983 18.425053
v 3.697546 14.688416 17.765432
v 3.697549 15.379288 17.596134
v 3.697548 15.168949 16.763998
v 3.697548 14.383360 17.157194
v 3.697549 13.976669 18.015543
vn -0.999939 0.005982 -0.007355
vn -0.999878 -0.011292 0.009583
vn -0.999969 0.006256 -0.000092
vn -0.641499 -0.005585 0.767083
vn -0.911191 -0.002106 0.411908
vn -0.999908 -0.006195 -0.010346
vn -0.999939 -0.003967 -0.008515
vn -0.999817 0.014618 0.009674
vn 0.141026 -0.231574 0.962523
vn -0.846889 0.508499 -0.155461
vn -0.830378 0.552812 0.069643
vn -0.133427 0.980193 -0.146245
vn -0.816736 -0.167364 -0.552171
vn -0.876766 0.276040 -0.393719
vn -0.267281 0.114475 -0.956786
vn -0.794855 -0.560350 -0.232734
vn -0.846736 -0.375622 -0.376659
vn -0.120548 -0.824610 -0.552660
vn -0.725394 0.258705 0.637837
vn -0.893735 -0.401502 0.199988
vn -0.348155 -0.289956 0.891446
vn -0.038667 0.656423 0.753349
vn -0.234718 0.833369 -0.500320
vn -0.159581 -0.537950 -0.827723
vn -0.234962 -0.967559 -0.092776
vn 0.070132 0.397473 0.914914
vn 0.622669 0.762017 0.177709
vn 0.691610 0.079958 0.717795
vn 0.918821 0.360424 0.160741
vn 0.441572 0.493088 -0.749535
vn 0.600909 0.765679 -0.229377
vn 0.919584 0.187964 -0.344981
vn 0.508072 -0.623524 -0.594165
vn 0.564013 -0.250404 -0.786859
vn 0.859066 -0.380657 -0.342174
vn 0.435041 -0.692984 0.574847
vn 0.561449 -0.771569 -0.298990
vn 0.943876 -0.252907 0.212317
vn 0.478957 0.088717 0.873318
vn 0.463240 0.296548 0.835109
vn 0.749657 0.164525 0.641011
vn 0.995819 0.000305 0.091128
usemtl Material.001
s 1
f 1//1 13//2 15//3 
f 2//4 13//2 17//5 
f 1//1 15//3 19//6 
f 1//1 19//6 21//7 
f 1//1 21//7 16//8 
f 2//4 17//5 24//9 
f 3//10 14//11 26//12 
f 4//13 18//14 28//15 
f 5//16 20//17 30//18 
f 6//19 22//20 32//21 
f 2//4 24//9 25//22 
f 3//10 26//12 27//23 
f 4//13 28//15 29//24 
f 5//16 30//18 31//25 
f 6//19 32//21 23//26 
f 7//27 33//28 39//29 
f 8//30 34//31 40//32 
f 9//33 35//34 41//35 
f 10//36 36//37 42//38 
f 11//39 37//40 38//41 
f 15//3 14//11 3//10 
f 15//3 13//2 14//11 
f 13//2 2//4 14//11 
f 17//5 16//8 6//19 
f 17//5 13//2 16//8 
f 13//2 1//1 16//8 
f 19//6 18//14 4//13 
f 19//6 15//3 18//14 
f 15//3 3//10 18//14 
f 21//7 20//17 5//16 
f 21//7 19//6 20//17 
f 19//6 4//13 20//17 
f 16//8 22//20 6//19 
f 16//8 21//7 22//20 
f 21//7 5//16 22//20 
f 24//9 23//26 11//39 
f 24//9 17//5 23//26 
f 17//5 6//19 23//26 
f 26//12 25//22 7//27 
f 26//12 14//11 25//22 
f 14//11 2//4 25//22 
f 28//15 27//23 8//30 
f 28//15 18//14 27//23 
f 18//14 3//10 27//23 
f 30//18 29//24 9//33 
f 30//18 20//17 29//24 
f 20//17 4//13 29//24 
f 32//21 31//25 10//36 
f 32//21 22//20 31//25 
f 22//20 5//16 31//25 
f 25//22 33//28 7//27 
f 25//22 24//9 33//28 
f 24//9 11//39 33//28 
f 27//23 34//31 8//30 
f 27//23 26//12 34//31 
f 26//12 7//27 34//31 
f 29//24 35//34 9//33 
f 29//24 28//15 35//34 
f 28//15 8//30 35//34 
f 31//25 36//37 10//36 
f 31//25 30//18 36//37 
f 30//18 9//33 36//37 
f 23//26 37//40 11//39 
f 23//26 32//21 37//40 
f 32//21 10//36 37//40 
f 39//29 38//41 12//42 
f 39//29 33//28 38//41 
f 33//28 11//39 38//41 
f 40//32 39//29 12//42 
f 40//32 34//31 39//29 
f 34//31 7//27 39//29 
f 41//35 40//32 12//42 
f 41//35 35//34 40//32 
f 35//34 8//30 40//32 
f 42//38 41//35 12//42 
f 42//38 36//37 41//35 
f 36//37 9//33 41//35 
f 38//41 42//38 12//42 
f 38//41 37//40 42//38 
f 37//40 10//36 42//38 
