o Icosphere
o Icosphere
v 2.882498 20.310387 17.463993
v 2.855866 19.586779 17.989717
v 2.855866 20.586775 18.314642
v 2.855867 21.204813 17.463993
v 2.855866 20.586775 16.613344
v 2.855866 19.586779 16.938269
v 3.339475 20.033998 18.314642
v 3.339475 21.033995 17.989717
v 3.339475 21.033995 16.938267
v 3.339475 20.033998 16.613344
v 3.339472 19.415960 17.463993
v 3.846393 20.310387 17.463993
v 2.833071 19.885063 17.773005
v 2.839056 20.047518 18.273005
v 2.833071 20.472843 17.963989
v 2.833071 19.885063 17.154982
v 2.839056 19.459740 17.463993
v 2.839056 20.998575 17.963989
v 2.833070 20.836117 17.463993
v 2.839055 20.998575 16.963997
v 2.833071 20.472843 16.963997
v 2.839055 20.047518 16.654982
v 3.037478 19.359329 17.154980
v 3.037478 19.359329 17.773006
v 3.037478 19.722601 18.273010
v 3.037478 20.310387 18.463993
v 3.037477 20.898172 18.273010
v 3.037477 21.261444 17.773006
v 3.037477 21.261444 17.154980
v 3.037477 20.898172 16.654976
v 3.037477 20.310387 16.463993
v 3.037477 19.722601 16.654976
v 3.403181 19.622198 17.963989
v 3.403182 20.573256 18.273005
v 3.403181 21.161036 17.463993
v 3.403182 20.573256 16.654982
v 3.403181 19.622198 16.963997
v 3.697545 19.784657 17.463993
v 3.697548 20.147932 17.963987
v 3.697547 20.735710 17.773005
v 3.697547 20.735710 17.154982
v 3.697548 20.147932 16.963997
vn -1.000000 0.000000 0.000000
vn -0.783105 -0.503067 0.365490
vn -0.846919 -0.531693 0.000000
vn -0.118290 -0.945799 0.302347
vn -0.783135 0.192145 0.591388
vn -0.846919 -0.164281 0.505661
vn -0.118290 -0.004700 0.992950
vn -0.783105 0.621845 0.000000
vn -0.846919 0.430128 0.312510
vn -0.118290 0.942900 0.311319
vn -0.783105 0.192145 -0.591418
vn -0.846919 0.430158 -0.312510
vn -0.118290 0.587451 -0.800531
vn -0.783105 -0.503067 -0.365490
vn -0.846919 -0.164281 -0.505661
vn -0.118290 -0.579821 -0.806085
vn -0.118290 -0.579821 0.806085
vn -0.118290 0.587451 0.800531
vn -0.118290 0.942900 -0.311319
vn -0.118290 -0.004700 -0.992950
vn -0.118290 -0.945799 -0.302347
vn 0.510239 -0.265755 0.817927
vn 0.583911 -0.656728 0.477157
vn 0.866726 -0.154118 0.474349
vn 0.510239 0.695761 0.505478
vn 0.583911 0.250862 0.772057
vn 0.866726 0.403485 0.293161
vn 0.510239 0.695761 -0.505478
vn 0.583911 0.811792 0.000000
vn 0.866726 0.403485 -0.293161
vn 0.510239 -0.265755 -0.817927
vn 0.583911 0.250862 -0.772057
vn 0.866726 -0.154118 -0.474349
vn 0.510239 -0.860012 0.000000
vn 0.583911 -0.656758 -0.477157
vn 0.866726 -0.498764 0.000000
vn 1.000000 0.000000 0.000000
usemtl Material.001
s 1
f 1//1 13//1 15//1 
f 2//2 13//1 17//3 
f 1//1 15//1 19//1 
f 1//1 19//1 21//1 
f 1//1 21//1 16//1 
f 2//2 17//3 24//4 
f 3//5 14//6 26//7 
f 4//8 18//9 28//10 
f 5//11 20//12 30//13 
f 6//14 22//15 32//16 
f 2//2 24//4 25//17 
f 3//5 26//7 27//18 
f 4//8 28//10 29//19 
f 5//11 30//13 31//20 
f 6//14 32//16 23//21 
f 7//22 33//23 39//24 
f 8//25 34//26 40//27 
f 9//28 35//29 41//30 
f 10//31 36//32 42//33 
f 11//34 37//35 38//36 
f 15//1 14//6 3//5 
f 15//1 13//1 14//6 
f 13//1 2//2 14//6 
f 17//3 16//1 6//14 
f 17//3 13//1 16//1 
f 13//1 1//1 16//1 
f 19//1 18//9 4//8 
f 19//1 15//1 18//9 
f 15//1 3//5 18//9 
f 21//1 20//12 5//11 
f 21//1 19//1 20//12 
f 19//1 4//8 20//12 
f 16//1 22//15 6//14 
f 16//1 21//1 22//15 
f 21//1 5//11 22//15 
f 24//4 23//21 11//34 
f 24//4 17//3 23//21 
f 17//3 6//14 23//21 
f 26//7 25//17 7//22 
f 26//7 14//6 25//17 
f 14//6 2//2 25//17 
f 28//10 27//18 8//25 
f 28//10 18//9 27//18 
f 18//9 3//5 27//18 
f 30//13 29//19 9//28 
f 30//13 20//12 29//19 
f 20//12 4//8 29//19 
f 32//16 31//20 10//31 
f 32//16 22//15 31//20 
f 22//15 5//11 31//20 
f 25//17 33//23 7//22 
f 25//17 24//4 33//23 
f 24//4 11//34 33//23 
f 27//18 34//26 8//25 
f 27//18 26//7 34//26 
f 26//7 7//22 34//26 
f 29//19 35//29 9//28 
f 29//19 28//10 35//29 
f 28//10 8//25 35//29 
f 31//20 36//32 10//31 
f 31//20 30//13 36//32 
f 30//13 9//28 36//32 
f 23//21 37//35 11//34 
f 23//21 32//16 37//35 
f 32//16 10//31 37//35 
f 39//24 38//36 12//37 
f 39//24 33//23 38//36 
f 33//23 11//34 38//36 
f 40//27 39//24 12//37 
f 40//27 34//26 39//24 
f 34//26 7//22 39//24 
f 41//30 40//27 12//37 
f 41//30 35//29 40//27 
f 35//29 8//25 40//27 
f 42//33 41//30 12//37 
f 42//33 36//32 41//30 
f 36//32 9//28 41//30 
f 38//36 42//33 12//37 
f 38//36 37//35 42//33 
f 37//35 10//31 42//33 
