o MainStructure_Plane
o MainStructure_Plane
v 6.961946 0.000000 3.000000
v -0.393133 0.000000 3.000000
v 6.961946 0.000000 -1.535485
v -0.393133 0.000000 -1.535485
v 6.961946 3.940598 3.000000
v -0.393133 3.940598 3.000000
v -0.393133 3.940598 -1.535485
v 6.961946 3.940598 -1.535485
v -0.393133 3.294295 3.000000
v 6.961946 3.294295 3.000000
v -0.393133 3.294295 -1.535485
v 6.961946 3.294295 -1.535485
v 6.961946 0.468035 3.000000
v -0.393133 0.468035 3.000000
v -0.393133 0.468035 -1.535485
v 6.961946 0.468035 -1.535485
v 6.961946 0.000000 2.067214
v -0.393133 0.000000 2.067214
v -0.393133 3.940598 2.067214
v 6.961946 3.940598 2.067214
v -0.393133 3.294295 2.067214
v 6.961946 3.294295 2.067214
v -0.393133 0.468035 2.067214
v 6.961946 0.468035 2.067214
v 6.961946 0.000000 -1.220235
v -0.393133 3.940598 -1.220235
v 6.961946 3.940598 -1.220235
v 6.961946 3.294295 -1.220235
v 6.961946 0.468035 -1.220235
v -0.393133 0.000000 -1.220235
v -0.393133 3.294295 -1.220235
v -0.393133 0.468035 -1.220235
v -1.024601 0.000000 3.000000
v -1.024601 0.000000 -1.535485
v -1.024601 3.940598 3.000000
v -1.024601 3.940598 -1.535485
v -1.024601 3.294295 3.000000
v -1.024601 3.294295 -1.535485
v -1.024601 0.468035 3.000000
v -1.024601 0.468035 -1.535485
v -1.024601 0.000000 2.067214
v -1.024601 3.940598 2.067214
v -1.024601 3.294295 2.067214
v -1.024601 0.468035 2.067214
v -1.024601 3.940598 -1.220235
v -1.024601 0.000000 -1.220235
v -1.024601 3.294295 -1.220235
v -1.024601 0.468035 -1.220235
vn 1.000000 0.000000 0.000000
vn 0.000000 0.000000 -1.000000
vn 0.000000 0.000000 1.000000
vn -1.000000 0.000000 0.000000
vn 0.000000 1.000000 0.000000
vn 0.000000 -1.000000 0.000000
usemtl Material.014
s off
f 28//1 12//1 8//1 27//1 
f 12//2 11//2 7//2 8//2 
f 23//2 44//2 43//2 21//2 
f 29//1 16//1 12//1 28//1 
f 16//2 15//2 11//2 12//2 
f 25//1 3//1 16//1 29//1 
f 3//2 4//2 15//2 16//2 
f 31//3 47//3 48//3 32//3 
f 10//1 22//1 20//1 5//1 
f 43//4 37//4 35//4 42//4 
f 13//1 24//1 22//1 10//1 
f 7//5 36//5 45//5 26//5 
f 1//1 17//1 24//1 13//1 
f 22//1 28//1 27//1 20//1 
f 24//1 29//1 28//1 22//1 
f 17//1 25//1 29//1 24//1 
f 26//5 45//5 42//5 19//5 
f 8//5 7//5 26//5 27//5 
f 4//2 34//2 40//2 15//2 
f 32//5 48//5 44//5 23//5 
f 44//4 39//4 37//4 43//4 
f 41//4 33//4 39//4 44//4 
f 47//4 43//4 42//4 45//4 
f 46//4 41//4 44//4 48//4 
f 38//4 47//4 45//4 36//4 
f 40//4 48//4 47//4 38//4 
f 34//4 46//4 48//4 40//4 
f 15//2 40//2 38//2 11//2 
f 19//5 42//5 35//5 6//5 
f 21//6 43//6 47//6 31//6 
f 11//2 38//2 36//2 7//2 
f 6//1 9//1 21//1 19//1 
f 9//1 14//1 23//1 21//1 
f 2//1 18//1 23//1 14//1 
f 18//1 30//1 32//1 23//1 
f 19//1 21//1 31//1 26//1 
f 7//1 26//1 31//1 11//1 
f 11//1 31//1 32//1 15//1 
f 4//1 15//1 32//1 30//1 
