o Mesh5_Group1_Model
o Mesh5_Group1_Model
v 6.395425 5.798825 -0.851740
v 6.393103 5.156449 -0.794713
v 6.358901 5.197289 -0.729800
v 6.354560 5.819322 -0.750181
v 6.386012 6.429195 -0.786161
v 6.324827 6.400360 -0.709420
v 6.306109 5.787210 -0.678714
v 6.320334 5.717572 -0.615904
v 6.329057 5.085790 -0.602364
v 6.342891 5.090424 -0.643901
v 6.351046 5.044405 -0.612463
v 6.421527 5.031898 -0.600035
v 6.471439 5.047719 -0.694278
v 6.507530 5.104269 -0.713533
v 6.505134 5.718397 -0.666697
v 6.520967 6.367130 -0.706687
v 6.554270 5.809272 -0.735687
v 6.576459 6.411272 -0.763446
v 6.572712 5.830698 -0.812783
v 6.538694 6.446268 -0.844863
v 6.516155 5.816051 -0.895265
v 6.458731 6.431420 -0.886028
v 6.431907 5.772558 -0.905265
v 6.489509 5.113695 -0.917050
v 6.544183 5.149040 -0.897356
v 6.544519 5.131893 -0.852645
v 6.489845 5.096549 -0.872341
v 6.428851 5.080533 -0.803302
v 6.393842 5.101849 -0.750822
v 6.365710 5.119069 -0.654538
v 6.337652 5.184073 -0.675811
v 6.521816 5.167202 -0.836208
v 6.497089 5.164243 -0.788973
v 6.527996 5.220512 -0.771136
v 6.552723 5.223471 -0.818370
v 6.515214 6.259525 -0.612041
v 6.326001 6.259764 -0.576739
v 6.560489 6.130378 -0.831745
v 6.307150 6.094967 -0.697541
v 6.353973 5.106002 -0.649241
v 6.537615 6.089167 -0.720105
v 6.503818 5.152335 -0.817481
v 6.454655 5.093375 -0.855285
v 6.328498 5.100575 -0.628389
v 6.375450 6.116571 -0.764664
v 6.339664 6.117166 -0.728515
v 6.328796 5.250995 -0.598045
v 6.347211 5.191062 -0.699732
v 6.336653 5.054558 -0.596951
v 6.336014 6.980443 -0.700015
v 6.541187 5.373042 -0.749504
v 6.395460 5.129665 -0.783398
v 6.524711 5.100103 -0.854760
v 6.533999 6.943279 -0.698942
v 6.506409 6.879671 -0.620112
v 6.350081 5.366447 -0.751073
v 6.341396 5.913594 -0.528208
v 6.403595 5.086309 -0.785376
v 6.376082 5.038192 -0.604177
v 6.310579 5.906554 -0.650633
v 6.556849 5.149468 -0.871353
v 6.574556 6.127588 -0.787674
v 6.528983 5.928724 -0.577054
v 6.488506 5.105287 -0.895972
v 6.321668 5.990179 -0.601561
v 6.532570 5.150386 -0.843815
v 6.381563 5.176353 -0.746421
v 6.536281 5.203384 -0.835168
v 6.570525 5.381357 -0.816012
v 6.445446 5.063044 -0.746130
v 6.524290 5.121536 -0.910647
v 6.527365 6.145073 -0.867317
v 6.353466 5.153791 -0.657388
v 6.530819 5.329745 -0.903289
v 6.510098 5.264183 -0.674576
v 6.407299 5.939718 -0.879036
v 6.390663 6.126705 -0.817539
v 6.488567 6.117979 -0.900802
v 6.453105 5.036008 -0.638655
v 6.384005 5.102197 -0.683714
v 6.445325 6.100994 -0.896030
v 6.574659 6.108381 -0.746004
v 6.386812 7.039301 -0.781201
v 6.510212 5.979570 -0.639163
v 6.350486 5.059191 -0.638489
v 6.394499 5.320483 -0.841376
v 6.455083 5.283527 -0.925485
v 6.501665 5.062490 -0.706559
v 6.316720 5.345203 -0.679217
v 6.316437 6.874004 -0.595209
v 6.542451 5.222672 -0.795184
v 6.523500 7.057548 -0.835355
v 6.570896 6.993134 -0.760662
v 6.441169 7.082040 -0.850714
v 6.498596 5.140522 -0.761802
v 6.505372 5.199686 -0.776125
v 6.438976 5.025257 -0.567848
v 6.502169 6.055372 -0.694394
v 6.381005 5.444600 -0.789300
v 6.414603 5.183835 -0.894114
v 6.405398 7.065243 -0.826064
v 6.379840 5.147217 -0.693113
v 6.319432 5.458923 -0.718507
v 6.369115 7.009329 -0.733419
v 6.310718 6.939662 -0.660706
v 6.326065 5.236566 -0.638736
v 6.367658 5.250353 -0.543913
v 6.337728 5.070742 -0.621843
v 6.390144 5.055367 -0.669945
v 6.508403 5.248112 -0.584174
v 6.494713 5.091049 -0.812506
v 6.504871 5.360308 -0.725625
v 6.503940 6.916301 -0.670771
v 6.566385 6.966819 -0.722835
v 6.572208 5.473298 -0.774650
v 6.554335 7.023088 -0.801731
v 6.559246 5.335886 -0.859306
v 6.483932 7.082028 -0.854146
v 6.490976 5.393367 -0.928424
v 6.536738 5.111708 -0.879853
v 6.516129 5.195843 -0.810625
v 6.521419 6.621207 -0.578397
v 6.333291 6.594854 -0.539164
vt 30.007269 19.914467
vt 29.685951 22.960951
vt 29.500000 14.638200
vt 30.074951 14.229850
vt 30.649900 13.821500
vt 30.260900 22.552601
vt 29.871901 31.283703
vt 30.603500 15.210100
vt 30.599049 14.971900
vt 31.754299 14.858500
vt 31.183350 15.272499
vt 30.612400 15.686500
vt 30.028099 15.385900
vt 29.443800 15.085300
vt 22.546635 25.498302
vt 22.234249 25.420448
vt 22.197701 24.771299
vt 22.684551 25.212650
vt 23.171400 25.653999
vt 22.721100 25.861799
vt 22.270800 26.069599
vt 14.337833 19.366034
vt 14.104700 22.096849
vt 13.852500 14.183700
vt 14.328300 14.044050
vt 14.804100 13.904400
vt 14.580500 21.957199
vt 14.356900 30.010000
vt 29.248501 25.555733
vt 29.206100 31.013248
vt 28.706301 30.740299
vt 29.019800 22.690500
vt 29.333300 14.640700
vt 29.519600 22.963449
vt 29.705900 31.286200
vt 11.133234 24.626736
vt 11.331650 22.158350
vt 11.603900 30.070801
vt 11.170150 29.817150
vt 10.736400 29.563499
vt 10.897900 21.904699
vt 11.059400 14.245900
vt 30.586035 19.855400
vt 30.794050 22.618999
vt 30.560600 30.275999
vt 30.365299 22.302099
vt 30.170000 14.328200
vt 30.598751 14.645100
vt 31.027500 14.962000
vt 30.028601 19.216034
vt 29.949850 21.668100
vt 29.314501 13.076800
vt 29.750301 13.694350
vt 30.186100 14.311900
vt 30.385651 22.285650
vt 30.585199 30.259399
vt 29.887966 13.566768
vt 29.741100 13.193100
vt 30.172100 13.307100
vt 30.176899 13.810600
vt 30.181700 14.314100
vt 29.745899 13.696600
vt 29.310101 13.079100
vt 6.987460 13.910201
vt 7.094940 14.060801
vt 6.770370 14.616100
vt 6.771435 14.112551
vt 6.772500 13.609000
vt 7.096005 13.557250
vt 7.419510 13.505500
vt 19.733568 25.579300
vt 19.737949 25.408350
vt 20.296400 25.600901
vt 20.010601 25.761051
vt 19.724800 25.921200
vt 19.452150 25.568501
vt 19.179501 25.215799
vt 12.602934 28.819168
vt 12.212450 29.133549
vt 11.733200 28.788099
vt 12.558550 28.489250
vt 13.383900 28.190399
vt 13.037800 28.834700
vt 12.691700 29.479000
vt 1.677286 32.755733
vt 1.510249 33.263000
vt 0.877718 32.665600
vt 1.444539 32.203400
vt 2.011360 31.741199
vt 2.077070 32.800800
vt 2.142780 33.860401
vt -30.560600 13.738700
vt -31.097351 14.121000
vt -31.541901 13.509100
vt -30.514500 13.241600
vt -29.487101 12.974100
vt -30.069950 13.853500
vt -30.652800 14.732900
vt -29.977934 19.193100
vt -29.726749 21.445450
vt -30.152399 29.952198
vt -30.316349 22.320301
vt -30.480301 14.688400
vt -29.890701 13.813550
vt -29.301100 12.938700
vt -6.051514 24.412834
vt -6.229705 21.934551
vt -5.881980 14.103300
vt -5.788555 21.736351
vt -5.695130 29.369400
vt -6.136280 29.567600
vt -6.577430 29.765800
vt -9.863609 19.292435
vt -9.662865 21.805550
vt -9.989570 29.637699
vt -10.127335 21.951950
vt -10.265100 14.266200
vt -9.800630 14.119801
vt -9.336160 13.973400
vt -30.862036 25.406301
vt -31.073950 22.927700
vt -30.890900 14.996200
vt -30.664551 22.679850
vt -30.438200 30.363501
vt -30.847599 30.611351
vt -31.257000 30.859200
vt -31.311901 20.214367
vt -31.084549 22.929350
vt -31.267099 30.860901
vt -31.516850 22.822651
vt -31.766600 14.784400
vt -31.334301 14.891100
vt -30.902000 14.997800
vt -23.527836 25.139967
vt -23.718449 22.569149
vt -23.425900 14.199800
vt -23.286251 22.240700
vt -23.146601 30.281601
vt -23.578800 30.610050
vt -24.011000 30.938499
vt -27.338634 19.524401
vt -27.065151 22.593700
vt -27.312700 30.964500
vt -27.599150 22.175150
vt -27.885599 13.385800
vt -27.351601 13.804350
vt -26.817600 14.222900
vt 5.089267 24.229002
vt 5.005675 21.261700
vt 5.590140 12.578600
vt 5.423295 21.371101
vt 5.256450 30.163601
vt 4.838830 30.054199
vt 4.421210 29.944799
vt 6.193824 18.428768
vt 6.277380 21.360100
vt 5.678570 30.042202
vt 5.852640 21.304150
vt 6.026710 12.566100
vt 6.451450 12.622050
vt 6.876190 12.678000
vt -3.765500 35.013500
vt -3.792455 34.822548
vt -3.066940 34.539398
vt -3.389265 34.967400
vt -3.711590 35.395401
vt -4.114780 35.250549
vt -4.517970 35.105701
vt -27.082333 13.407001
vt -26.734449 13.491449
vt -26.710199 14.075500
vt -27.244148 13.656799
vt -27.778099 13.238100
vt -27.268398 13.072750
vt -26.758699 12.907400
vt -13.550700 12.635166
vt -13.410500 12.808250
vt -13.789300 13.457300
vt -13.810200 12.873150
vt -13.831100 12.289000
vt -13.431400 12.224100
vt -13.031700 12.159200
vt -1.732567 34.682434
vt -1.731130 34.920052
vt -2.438380 35.246201
vt -2.086910 34.726700
vt -1.735440 34.207199
vt -1.379660 34.400551
vt -1.023880 34.593899
vt 5.845350 33.547234
vt 5.752065 32.984501
vt 6.458220 33.492802
vt 6.245070 34.082748
vt 6.031920 34.672699
vt 5.538915 33.574448
vt 5.045910 32.476200
vt 30.065466 13.450600
vt 30.453201 13.704150
vt 29.297800 13.816100
vt 29.293900 13.379800
vt 29.290001 12.943500
vt 30.449301 13.267850
vt 31.608601 13.592200
vt 6.339746 13.656799
vt 6.221960 13.551200
vt 6.546560 12.995900
vt 6.560940 13.431950
vt 6.575320 13.868000
vt 6.236340 13.987249
vt 5.897360 14.106500
vt 17.300133 28.317467
vt 17.488100 28.415249
vt 17.426500 29.062500
vt 17.175350 28.592201
vt 16.924200 28.121901
vt 17.236950 27.944950
vt 17.549700 27.768000
vt -12.569834 13.372600
vt -12.680050 13.229600
vt -12.300600 12.580900
vt -12.325000 13.119750
vt -12.349400 13.658600
vt -12.704450 13.768450
vt -13.059500 13.878300
vt -30.373333 13.845000
vt -30.223598 13.688601
vt -29.775999 14.298200
vt -30.224400 14.228000
vt -30.672800 14.157800
vt -30.672001 13.618401
vt -30.671200 13.079000
vt -26.478100 -8.152707
vt -26.737150 -8.094405
vt -26.808800 -8.590910
vt -26.384399 -8.430110
vt -25.959999 -8.269310
vt -26.312750 -7.933605
vt -26.665501 -7.597900
vt -27.865433 -6.550847
vt -27.649151 -6.553200
vt -27.551100 -6.061230
vt -27.924549 -6.303685
vt -28.298000 -6.546140
vt -28.022600 -6.795655
vt -27.747200 -7.045170
vt -29.444401 24.032467
vt -29.687901 21.444099
vt -29.261299 12.937399
vt -29.109348 21.073299
vt -29.140026 27.267925
vt -29.535950 29.580000
vt -30.114500 29.950800
vt 29.665100 24.063536
vt 29.938400 21.665501
vt 30.574800 30.256701
vt 29.846649 29.558151
vt 29.323475 27.061073
vt 29.210251 20.966949
vt 29.302000 13.074300
vn 0.976460 -0.001731 0.215690
vn 0.928553 0.003380 0.371185
vn 0.954038 -0.013582 0.299378
vn 0.970186 0.074917 0.230493
vn 0.980926 0.037603 0.190710
vn 0.973837 0.176483 0.143164
vn 0.736074 0.572472 0.361207
vn 0.641512 0.124765 0.756899
vn 0.889262 0.115039 0.442695
vn 0.727083 -0.010538 0.686469
vn 0.761087 -0.013991 0.648499
vn 0.710390 -0.018599 0.703563
vn 0.934541 -0.005131 0.355819
vn 0.961291 -0.005767 0.275474
vn 0.947210 -0.008765 0.320493
vn 0.685186 -0.021138 0.728062
vn 0.845428 -0.026068 0.533453
vn 0.693610 -0.010927 0.720268
vn 0.996495 -0.002679 -0.083612
vn 0.979447 0.020929 -0.200615
vn 0.982101 0.017120 0.187573
vn 0.852280 0.005732 -0.523054
vn 0.992205 0.017677 -0.123353
vn 0.975547 -0.000381 -0.219792
vn 0.936595 0.295094 0.188969
vn 0.998756 0.007946 -0.049220
vn 0.795433 0.028446 -0.605374
vn 0.627034 0.044704 0.777708
vn 0.819292 0.319027 0.476427
vn 0.558385 0.145970 0.816639
vn 0.265217 0.897796 0.351600
vn 0.793792 0.516011 0.321911
vn -0.041334 0.318547 -0.947006
vn 0.522115 0.330716 -0.786144
vn -0.917316 0.377803 -0.125685
vn 0.142172 0.955880 0.257060
vn 0.159208 0.960043 0.230153
vn -0.814691 0.387376 -0.431530
vn -0.203025 0.931609 0.301472
vn -0.991390 0.047408 0.122056
vn -0.997621 0.049340 -0.048136
vn -0.990687 -0.003860 0.136106
vn -0.989660 -0.000498 0.143430
vn -0.998359 -0.008587 0.056619
vn -0.999500 -0.001405 0.031594
vn -0.602266 0.024637 -0.797915
vn -0.725556 0.022486 -0.687796
vn -0.542852 0.018505 -0.839624
vn -0.578171 0.015108 -0.815776
vn -0.746699 0.037150 -0.664124
vn -0.482841 0.033515 -0.875066
vn -0.999980 0.004479 0.004536
vn -0.988207 -0.006737 -0.152973
vn -0.946536 -0.014062 0.322293
vn -0.952818 -0.017493 0.303038
vn -0.942933 -0.005643 0.332934
vn -0.999610 0.004352 0.027591
vn -0.736256 -0.022425 0.676331
vn -0.760972 -0.027834 0.648187
vn -0.517965 -0.032135 0.854798
vn -0.636170 -0.041217 0.770447
vn -0.553625 -0.032302 0.832140
vn -0.811775 -0.029172 0.583242
vn 0.123809 -0.036655 0.991629
vn 0.033504 -0.050213 0.998176
vn 0.517833 -0.037286 0.854668
vn 0.544673 -0.040155 0.837687
vn 0.659706 -0.005156 0.751506
vn 0.171428 -0.033431 0.984629
vn -0.253948 0.893581 0.370168
vn -0.116850 0.040969 0.992304
vn 0.475196 0.229747 0.849355
vn -0.860434 -0.034166 0.508416
vn -0.546290 -0.012468 0.837503
vn -0.827665 0.364931 0.426375
vn -0.749159 0.032479 -0.661593
vn -0.850479 0.508623 -0.134123
vn -0.724296 0.252845 -0.641455
vn 0.519895 0.599871 0.608164
vn -0.095873 0.990474 0.098846
vn -0.242600 0.913001 0.327985
vn -0.117300 0.959352 0.256678
vn 0.645482 0.552560 0.527286
vn 0.276043 0.926700 0.255004
vn 0.982283 0.118186 0.145441
vn 0.968351 0.194694 0.156176
vn 0.957145 0.168859 0.235289
vn 0.754489 0.134010 0.642485
vn 0.837599 0.247190 0.487160
vn 0.676391 0.130751 0.724844
vn 0.902874 0.123804 0.411692
vn 0.980752 0.192204 0.034397
vn 0.688729 0.591655 0.419044
vn -0.674989 0.010616 -0.737751
vn -0.786830 0.316867 -0.529617
vn -0.884081 0.134907 -0.447437
vn -0.988049 0.081493 -0.130839
vn -0.891728 0.313968 -0.325954
vn -0.995011 0.058321 -0.080944
vn -0.606106 0.743567 -0.282390
vn -0.409307 0.220519 -0.885347
vn -0.857247 0.143058 -0.494633
vn -0.943893 0.126966 -0.304870
vn -0.950312 0.153720 0.270698
vn -0.616172 0.742396 -0.263021
vn -0.953738 0.014697 0.300279
vn -0.958910 -0.009925 0.283536
vn -0.993201 -0.006657 0.116224
vn 0.992044 0.006774 -0.125708
vn 0.967213 0.007426 -0.253860
vn 0.973217 0.032763 -0.227541
usemtl Asphalt_Painted_White
s off
f 1/1/1 77/2/1 99/3/1 86/4/1 
f 1/1/2 86/4/2 100/5/2 76/6/2 
f 1/1/3 76/6/3 101/7/3 77/2/3 
f 2/8/4 52/9/4 100/10/4 86/11/4 
f 2/8/5 86/11/5 99/12/5 67/13/5 
f 2/8/6 67/13/6 102/14/6 52/9/6 
f 3/15/7 48/16/7 102/17/7 67/18/7 
f 3/15/8 67/18/8 99/19/8 56/20/8 
f 3/15/9 56/20/9 103/21/9 48/16/9 
f 4/22/10 46/23/10 103/24/10 56/25/10 
f 4/22/11 56/25/11 99/26/11 45/27/11 
f 4/22/12 45/27/12 104/28/12 46/23/12 
f 5/29/13 83/30/13 104/31/13 45/32/13 
f 5/29/14 45/32/14 99/33/14 77/34/14 
f 5/29/15 77/34/15 101/35/15 83/30/15 
f 6/36/16 46/37/16 104/38/16 50/39/16 
f 6/36/17 50/39/17 105/40/17 39/41/17 
f 6/36/18 39/41/18 103/42/18 46/37/18 
f 7/43/19 39/44/19 105/45/19 60/46/19 
f 7/43/20 60/46/20 106/47/20 89/48/20 
f 7/43/21 89/48/21 103/49/21 39/44/21 
f 8/50/22 65/51/22 107/52/22 47/53/22 
f 8/50/23 47/53/23 106/54/23 60/55/23 
f 8/50/24 60/55/24 105/56/24 65/51/24 
f 9/57/25 49/58/25 108/59/25 44/60/25 
f 9/57/26 44/60/26 106/61/26 47/62/26 
f 9/57/27 47/62/27 107/63/27 49/58/27 
f 10/64/28 40/65/28 106/66/28 44/67/28 
f 10/64/29 44/67/29 108/68/29 85/69/29 
f 10/64/30 85/69/30 109/70/30 40/65/30 
f 11/71/31 59/72/31 109/73/31 85/74/31 
f 11/71/32 85/74/32 108/75/32 49/76/32 
f 11/71/33 49/76/33 107/77/33 59/72/33 
f 12/78/34 59/79/34 107/80/34 97/81/34 
f 12/78/35 97/81/35 110/82/35 79/83/35 
f 12/78/36 79/83/36 109/84/36 59/79/36 
f 13/85/37 70/86/37 109/87/37 79/88/37 
f 13/85/38 79/88/38 110/89/38 88/90/38 
f 13/85/39 88/90/39 111/91/39 70/86/39 
f 14/92/40 95/93/40 111/94/40 88/95/40 
f 14/92/41 88/95/41 110/96/41 75/97/41 
f 14/92/42 75/97/42 112/98/42 95/93/42 
f 15/99/43 84/100/43 113/101/43 98/102/43 
f 15/99/44 98/102/44 112/103/44 75/104/44 
f 15/99/45 75/104/45 110/105/45 84/100/45 
f 16/106/46 41/107/46 112/108/46 98/109/46 
f 16/106/47 98/109/47 113/110/47 54/111/47 
f 16/106/48 54/111/48 114/112/48 41/107/48 
f 17/113/49 41/114/49 114/115/49 82/116/49 
f 17/113/50 82/116/50 115/117/50 51/118/50 
f 17/113/51 51/118/51 112/119/51 41/114/51 
f 18/120/52 62/121/52 115/122/52 82/123/52 
f 18/120/53 82/123/53 114/124/53 93/125/53 
f 18/120/54 93/125/54 116/126/54 62/121/54 
f 19/127/55 62/128/55 116/129/55 38/130/55 
f 19/127/56 38/130/56 117/131/56 69/132/56 
f 19/127/57 69/132/57 115/133/57 62/128/57 
f 20/134/58 72/135/58 117/136/58 38/137/58 
f 20/134/59 38/137/59 116/138/59 92/139/59 
f 20/134/60 92/139/60 118/140/60 72/135/60 
f 21/141/61 72/142/61 118/143/61 78/144/61 
f 21/141/62 78/144/62 119/145/62 74/146/62 
f 21/141/63 74/146/63 117/147/63 72/142/63 
f 22/148/64 81/149/64 119/150/64 78/151/64 
f 22/148/65 78/151/65 118/152/65 94/153/65 
f 22/148/66 94/153/66 101/154/66 81/149/66 
f 23/155/67 81/156/67 101/157/67 76/158/67 
f 23/155/68 76/158/68 100/159/68 87/160/68 
f 23/155/69 87/160/69 119/161/69 81/156/69 
f 24/162/70 64/163/70 120/164/70 71/165/70 
f 24/162/71 71/165/71 119/166/71 87/167/71 
f 24/162/72 87/167/72 100/168/72 64/163/72 
f 25/169/73 61/170/73 117/171/73 74/172/73 
f 25/169/74 74/172/74 119/173/74 71/174/74 
f 25/169/75 71/174/75 120/175/75 61/170/75 
f 26/176/76 66/177/76 117/178/76 61/179/76 
f 26/176/77 61/179/77 120/180/77 53/181/77 
f 26/176/78 53/181/78 111/182/78 66/177/78 
f 27/183/79 64/184/79 100/185/79 43/186/79 
f 27/183/80 43/186/80 111/187/80 53/188/80 
f 27/183/81 53/188/81 120/189/81 64/184/81 
f 28/190/82 70/191/82 111/192/82 43/193/82 
f 28/190/83 43/193/83 100/194/83 58/195/83 
f 28/190/84 58/195/84 109/196/84 70/191/84 
f 29/197/85 52/198/85 102/199/85 80/200/85 
f 29/197/86 80/200/86 109/201/86 58/202/86 
f 29/197/87 58/202/87 100/203/87 52/198/87 
f 30/204/88 40/205/88 109/206/88 80/207/88 
f 30/204/89 80/207/89 102/208/89 73/209/89 
f 30/204/90 73/209/90 106/210/90 40/205/90 
f 31/211/91 48/212/91 103/213/91 89/214/91 
f 31/211/92 89/214/92 106/215/92 73/216/92 
f 31/211/93 73/216/93 102/217/93 48/212/93 
f 32/218/94 66/219/94 111/220/94 42/221/94 
f 32/218/95 42/221/95 121/222/95 68/223/95 
f 32/218/96 68/223/96 117/224/96 66/219/96 
f 33/225/97 95/226/97 112/227/97 96/228/97 
f 33/225/98 96/228/98 121/229/98 42/230/98 
f 33/225/99 42/230/99 111/231/99 95/226/99 
f 34/232/100 91/233/100 121/234/100 96/235/100 
f 34/232/101 96/235/101 112/236/101 51/237/101 
f 34/232/102 51/237/102 115/238/102 91/233/102 
f 35/239/103 91/240/103 115/241/103 69/242/103 
f 35/239/104 69/242/104 117/243/104 68/244/104 
f 35/239/105 68/244/105 121/245/105 91/240/105 
f 36/246/106 84/247/106 110/248/106 63/249/106 
f 36/246/107 63/249/107 122/250/107 55/251/107 
f 36/246/108 55/251/108 113/252/108 84/247/108 
f 37/253/109 65/254/109 105/255/109 90/256/109 
f 37/253/110 90/256/110 123/257/110 57/258/110 
f 37/253/111 57/258/111 107/259/111 65/254/111 
