o Pan_Cylinder.001
o Pan_Cylinder.001
v 0.000000 -0.616301 -1.000000
v 0.000000 0.594841 -1.000000
v 0.195090 -0.616301 -0.980785
v 0.195090 0.594841 -0.980785
v 0.382683 -0.616301 -0.923880
v 0.382683 0.594841 -0.923880
v 0.555570 -0.616301 -0.831470
v 0.555570 0.594841 -0.831470
v 0.707107 -0.616301 -0.707107
v 0.707107 0.594841 -0.707107
v 0.831470 -0.616301 -0.555570
v 0.831470 0.594841 -0.555570
v 0.923880 -0.616301 -0.382683
v 0.923880 0.594841 -0.382683
v 0.980785 -0.616301 -0.195090
v 0.980785 0.594841 -0.195090
v 1.000000 -0.616301 -0.000000
v 1.000000 0.594841 -0.000000
v 0.980785 -0.616301 0.195090
v 0.980785 0.594841 0.195090
v 0.923880 -0.616301 0.382683
v 0.923880 0.594841 0.382683
v 0.831470 -0.616301 0.555570
v 0.831470 0.594841 0.555570
v 0.707107 -0.616301 0.707107
v 0.707107 0.594841 0.707107
v 0.555570 -0.616301 0.831470
v 0.555570 0.594841 0.831470
v 0.382683 -0.616301 0.923880
v 0.382683 0.594841 0.923880
v 0.195090 -0.616301 0.980785
v 0.195090 0.594841 0.980785
v -0.000000 -0.616301 1.000000
v -0.000000 0.594841 1.000000
v -0.195091 -0.616301 0.980785
v -0.195091 0.594841 0.980785
v -0.382684 -0.616301 0.923879
v -0.382684 0.594841 0.923879
v -0.555571 -0.616301 0.831469
v -0.555571 0.594841 0.831469
v -0.707107 -0.616301 0.707106
v -0.707107 0.594841 0.707106
v -0.831470 -0.616301 0.555570
v -0.831470 0.594841 0.555570
v -0.923880 -0.616301 0.382683
v -0.923880 0.594841 0.382683
v -0.980785 -0.616301 0.195089
v -0.980785 0.594841 0.195089
v -1.000000 -0.616301 -0.000001
v -1.000000 0.594841 -0.000001
v -0.980785 -0.616301 -0.195091
v -0.980785 0.594841 -0.195091
v -0.923879 -0.616301 -0.382684
v -0.923879 0.594841 -0.382684
v -0.831469 -0.616301 -0.555571
v -0.831469 0.594841 -0.555571
v -0.707106 -0.616301 -0.707108
v -0.707106 0.594841 -0.707108
v -0.555569 -0.616301 -0.831470
v -0.555569 0.594841 -0.831470
v -0.382682 -0.616301 -0.923880
v -0.382682 0.594841 -0.923880
v -0.195089 -0.616301 -0.980786
v -0.195089 0.594841 -0.980786
vt 0.250126 0.000174
vt 0.250016 0.318903
vt 0.218775 0.318892
vt 0.218885 0.000164
vt 0.187534 0.318881
vt 0.187644 0.000153
vt 0.156293 0.318870
vt 0.156403 0.000142
vt 0.125052 0.318860
vt 0.125162 0.000131
vt 0.093811 0.318849
vt 0.093921 0.000121
vt 0.062570 0.318838
vt 0.062680 0.000110
vt 0.031329 0.318827
vt 0.031439 0.000099
vt 0.000088 0.318816
vt 0.000198 0.000088
vt 0.999912 0.000430
vt 0.999801 0.319159
vt 0.968560 0.319149
vt 0.968671 0.000419
vt 0.937320 0.319138
vt 0.937430 0.000408
vt 0.906079 0.319127
vt 0.906188 0.000397
vt 0.874838 0.319116
vt 0.874947 0.000386
vt 0.843597 0.319106
vt 0.843706 0.000376
vt 0.812356 0.319095
vt 0.812465 0.000365
vt 0.781114 0.319084
vt 0.781224 0.000354
vt 0.749873 0.319074
vt 0.749982 0.000343
vt 0.718632 0.319063
vt 0.718741 0.000333
vt 0.687391 0.319053
vt 0.687500 0.000322
vt 0.656150 0.319042
vt 0.656259 0.000311
vt 0.624908 0.319031
vt 0.625017 0.000301
vt 0.593667 0.319020
vt 0.593776 0.000290
vt 0.562426 0.319010
vt 0.562535 0.000279
vt 0.531185 0.318999
vt 0.531294 0.000269
vt 0.499943 0.318988
vt 0.500053 0.000258
vt 0.468702 0.318977
vt 0.468812 0.000248
vt 0.437461 0.318967
vt 0.437571 0.000237
vt 0.406220 0.318956
vt 0.406330 0.000227
vt 0.374979 0.318945
vt 0.375089 0.000216
vt 0.343738 0.318935
vt 0.343848 0.000206
vt 0.312497 0.318924
vt 0.312607 0.000195
vt 0.281366 0.000185
vt 0.281256 0.318913
vt 0.612945 0.460597
vt 0.651021 0.498673
vt 0.680938 0.543446
vt 0.701545 0.593196
vt 0.712050 0.646009
vt 0.712050 0.699857
vt 0.701545 0.752671
vt 0.680938 0.802420
vt 0.651022 0.847194
vt 0.612946 0.885270
vt 0.568172 0.915187
vt 0.518423 0.935793
vt 0.465609 0.946298
vt 0.411761 0.946298
vt 0.358949 0.935793
vt 0.309199 0.915186
vt 0.264426 0.885269
vt 0.226349 0.847192
vt 0.196432 0.802418
vt 0.175826 0.752669
vt 0.165321 0.699856
vt 0.165321 0.646007
vt 0.175827 0.593193
vt 0.196434 0.543444
vt 0.226350 0.498672
vt 0.264427 0.460596
vt 0.309200 0.430680
vt 0.358948 0.410073
vt 0.411761 0.399568
vt 0.465609 0.399568
vt 0.518423 0.410074
vt 0.568172 0.430680
vn 0.000000 -0.685690 -0.727866
vn 0.000000 0.000000 -1.000000
vn 0.195090 0.000000 -0.980785
vn 0.142003 -0.685690 -0.713889
vn 0.382683 0.000000 -0.923880
vn 0.278542 -0.685690 -0.672475
vn 0.555570 0.000000 -0.831470
vn 0.404370 -0.685690 -0.605213
vn 0.707107 0.000000 -0.707107
vn 0.514664 -0.685690 -0.514664
vn 0.831470 0.000000 -0.555570
vn 0.605213 -0.685690 -0.404370
vn 0.923880 0.000000 -0.382683
vn 0.672475 -0.685690 -0.278542
vn 0.980785 0.000000 -0.195090
vn 0.713889 -0.685690 -0.142003
vn 1.000000 0.000000 -0.000000
vn 0.727866 -0.685690 0.000000
vn 0.980785 0.000000 0.195090
vn 0.713889 -0.685690 0.142003
vn 0.923880 0.000000 0.382683
vn 0.672475 -0.685690 0.278542
vn 0.831470 0.000000 0.555570
vn 0.605213 -0.685690 0.404370
vn 0.707107 0.000000 0.707107
vn 0.514664 -0.685690 0.514664
vn 0.555570 0.000000 0.831470
vn 0.404370 -0.685690 0.605213
vn 0.382683 0.000000 0.923880
vn 0.278542 -0.685690 0.672475
vn 0.195090 0.000000 0.980785
vn 0.142003 -0.685690 0.713889
vn -0.000001 0.000000 1.000000
vn 0.000000 -0.685690 0.727866
vn -0.195091 0.000000 0.980785
vn -0.142003 -0.685690 0.713889
vn -0.382684 0.000000 0.923879
vn -0.278542 -0.685690 0.672475
vn -0.555571 0.000000 0.831469
vn -0.404370 -0.685690 0.605213
vn -0.707107 0.000000 0.707106
vn -0.514664 -0.685690 0.514664
vn -0.831470 0.000000 0.555570
vn -0.605213 -0.685690 0.404370
vn -0.923880 0.000000 0.382683
vn -0.672475 -0.685690 0.278542
vn -0.980785 0.000000 0.195089
vn -0.713889 -0.685690 0.142003
vn -1.000000 0.000000 -0.000001
vn -0.727866 -0.685690 0.000000
vn -0.980785 0.000000 -0.195091
vn -0.713889 -0.685690 -0.142003
vn -0.923879 0.000000 -0.382684
vn -0.672475 -0.685690 -0.278542
vn -0.831469 0.000000 -0.555571
vn -0.605213 -0.685690 -0.404370
vn -0.707106 0.000000 -0.707108
vn -0.514664 -0.685690 -0.514695
vn -0.555569 0.000000 -0.831470
vn -0.404370 -0.685690 -0.605213
vn -0.382682 0.000000 -0.923880
vn -0.278542 -0.685690 -0.672475
vn -0.142003 -0.685690 -0.713889
vn -0.195089 0.000000 -0.980786
usemtl None
s 1
f 1/1/1 2/2/2 4/3/3 3/4/4 
f 3/4/4 4/3/3 6/5/5 5/6/6 
f 5/6/6 6/5/5 8/7/7 7/8/8 
f 7/8/8 8/7/7 10/9/9 9/10/10 
f 9/10/10 10/9/9 12/11/11 11/12/12 
f 11/12/12 12/11/11 14/13/13 13/14/14 
f 13/14/14 14/13/13 16/15/15 15/16/16 
f 15/16/16 16/15/15 18/17/17 17/18/18 
f 17/19/18 18/20/17 20/21/19 19/22/20 
f 19/22/20 20/21/19 22/23/21 21/24/22 
f 21/24/22 22/23/21 24/25/23 23/26/24 
f 23/26/24 24/25/23 26/27/25 25/28/26 
f 25/28/26 26/27/25 28/29/27 27/30/28 
f 27/30/28 28/29/27 30/31/29 29/32/30 
f 29/32/30 30/31/29 32/33/31 31/34/32 
f 31/34/32 32/33/31 34/35/33 33/36/34 
f 33/36/34 34/35/33 36/37/35 35/38/36 
f 35/38/36 36/37/35 38/39/37 37/40/38 
f 37/40/38 38/39/37 40/41/39 39/42/40 
f 39/42/40 40/41/39 42/43/41 41/44/42 
f 41/44/42 42/43/41 44/45/43 43/46/44 
f 43/46/44 44/45/43 46/47/45 45/48/46 
f 45/48/46 46/47/45 48/49/47 47/50/48 
f 47/50/48 48/49/47 50/51/49 49/52/50 
f 49/52/50 50/51/49 52/53/51 51/54/52 
f 51/54/52 52/53/51 54/55/53 53/56/54 
f 53/56/54 54/55/53 56/57/55 55/58/56 
f 55/58/56 56/57/55 58/59/57 57/60/58 
f 57/60/58 58/59/57 60/61/59 59/62/60 
f 59/62/60 60/61/59 62/63/61 61/64/62 
f 63/65/63 64/66/64 2/2/2 1/1/1 
f 61/64/62 62/63/61 64/66/64 63/65/63 
f 1/67/1 3/68/4 5/69/6 7/70/8 9/71/10 11/72/12 13/73/14 15/74/16 17/75/18 19/76/20 21/77/22 23/78/24 25/79/26 27/80/28 29/81/30 31/82/32 33/83/34 35/84/36 37/85/38 39/86/40 41/87/42 43/88/44 45/89/46 47/90/48 49/91/50 51/92/52 53/93/54 55/94/56 57/95/58 59/96/60 61/97/62 63/98/63 
