o PlantMud_archmodel1.001
o PlantMud_archmodel1.001
v 0.051874 2.952536 0.750603
v 0.024101 2.952536 0.702271
v -0.011094 2.952536 0.699295
v 0.019409 2.952536 0.738699
v 0.078162 2.952536 0.793630
v 0.047788 2.952536 0.769824
v 0.103531 2.952536 0.812265
v 0.081838 2.952536 0.759921
v 0.059241 2.952536 0.704600
v 0.106799 2.952536 0.764068
v 0.094276 2.952770 0.705636
v 0.118896 2.952536 0.820559
v 0.129259 2.952536 0.822120
v 0.129259 2.952536 0.764849
v 0.129259 2.958601 0.705831
v 0.151718 2.952536 0.764068
v 0.164241 2.957774 0.705636
v 0.139622 2.952536 0.820559
v 0.154986 2.952536 0.812265
v 0.176679 2.952536 0.759921
v 0.199277 2.954347 0.704600
v 0.206643 2.952536 0.750603
v 0.234422 2.952536 0.702271
v 0.180356 2.952536 0.793630
v 0.210729 2.952536 0.769824
v 0.239108 2.952536 0.738699
v 0.269619 2.952536 0.699295
v -0.006644 2.952536 0.643327
v -0.032272 2.952536 0.587110
v -0.076185 2.952536 0.587110
v -0.045840 2.952536 0.643327
v 0.034842 2.960573 0.643327
v 0.015365 2.962034 0.587110
v 0.080906 2.967239 0.643327
v 0.070450 2.969798 0.587110
v 0.129259 2.963339 0.643327
v 0.129259 2.960591 0.587110
v 0.177612 2.954117 0.643327
v 0.188067 2.966946 0.587110
v 0.223680 2.952536 0.643327
v 0.243159 2.963244 0.587110
v 0.265178 2.952536 0.643327
v 0.290817 2.952945 0.587110
v 0.304393 2.952536 0.643327
v 0.334758 2.952536 0.587110
v -0.053852 2.952536 0.482706
v -0.058606 2.952536 0.447640
v -0.117451 2.952536 0.452598
v -0.111794 2.952536 0.482706
v -0.049895 2.952587 0.514830
v -0.103445 2.952536 0.514830
v 0.005967 2.961266 0.514830
v 0.005250 2.964416 0.482706
v 0.004470 2.963401 0.445872
v 0.066675 2.956214 0.482706
v 0.067001 2.952536 0.444786
v 0.066456 2.963066 0.514830
v 0.129258 2.963438 0.514830
v 0.129258 2.961495 0.482706
v 0.129259 2.953071 0.444413
v 0.191843 2.956548 0.482706
v 0.191516 2.957154 0.444786
v 0.192061 2.953403 0.514830
v 0.252554 2.961765 0.514830
v 0.253269 2.957783 0.482706
v 0.254048 2.958574 0.445872
v 0.312379 2.954103 0.482706
v 0.317126 2.952897 0.447640
v 0.308431 2.956058 0.514830
v 0.361997 2.952536 0.514830
v 0.370329 2.952536 0.482706
v 0.375973 2.952536 0.452598
v -0.066198 2.952536 0.406692
v -0.048639 2.952536 0.364917
v -0.102241 2.952536 0.383911
v -0.110788 2.952536 0.393188
v -0.119337 2.952536 0.426524
v -0.119337 2.952536 0.402465
v 0.002708 2.952536 0.399618
v 0.007098 2.952536 0.349183
v 0.067110 2.952536 0.395274
v 0.067110 2.952536 0.339967
v 0.129259 2.956091 0.393786
v 0.129259 2.952536 0.336990
v 0.191407 2.955823 0.395274
v 0.191407 2.952536 0.339967
v 0.255809 2.953543 0.399618
v 0.251419 2.952536 0.349183
v 0.324716 2.952536 0.406692
v 0.307157 2.952536 0.364917
v 0.377854 2.952536 0.426524
v 0.369306 2.952536 0.393188
v 0.377854 2.952536 0.402465
v 0.360758 2.952536 0.383911
v -0.044695 2.952536 0.546955
v -0.093480 2.952536 0.546955
v 0.007539 2.961513 0.546955
v 0.066675 2.967018 0.546955
v 0.129258 2.963815 0.546955
v 0.191843 2.962178 0.546955
v 0.250985 2.965635 0.546955
v 0.303238 2.959118 0.546955
v 0.352051 2.952536 0.546955
vt 0.344511 0.147771
vt 0.288707 0.247299
vt 0.217992 0.253427
vt 0.279279 0.172283
vt 0.397330 0.059169
vt 0.336303 0.108192
vt 0.448306 0.020794
vt 0.404717 0.128584
vt 0.359315 0.242502
vt 0.454871 0.120044
vt 0.429711 0.240368
vt 0.479178 0.003715
vt 0.500000 0.000500
vt 0.500000 0.118437
vt 0.500000 0.239965
vt 0.545129 0.120044
vt 0.570289 0.240367
vt 0.520821 0.003715
vt 0.551694 0.020794
vt 0.595283 0.128584
vt 0.640687 0.242502
vt 0.655489 0.147771
vt 0.711302 0.247299
vt 0.602670 0.059169
vt 0.663697 0.108192
vt 0.720721 0.172283
vt 0.782026 0.253427
vt 0.226932 0.368678
vt 0.175438 0.484443
vt 0.087205 0.484443
vt 0.148176 0.368678
vt 0.310289 0.368678
vt 0.271154 0.484443
vt 0.402844 0.368678
vt 0.381836 0.484443
vt 0.500000 0.368677
vt 0.500000 0.484443
vt 0.597155 0.368677
vt 0.618164 0.484443
vt 0.689720 0.368677
vt 0.728860 0.484443
vt 0.773103 0.368677
vt 0.824619 0.484443
vt 0.851894 0.368677
vt 0.912909 0.484443
vt 0.132077 0.699437
vt 0.122524 0.771645
vt 0.004288 0.761436
vt 0.015654 0.699437
vt 0.140027 0.633285
vt 0.032431 0.633285
vt 0.252271 0.633285
vt 0.250831 0.699437
vt 0.249264 0.775287
vt 0.374249 0.699437
vt 0.374906 0.777523
vt 0.373811 0.633285
vt 0.500000 0.633285
vt 0.500000 0.699436
vt 0.500000 0.778289
vt 0.625751 0.699436
vt 0.625094 0.777523
vt 0.626188 0.633285
vt 0.747737 0.633285
vt 0.749174 0.699436
vt 0.750738 0.775287
vt 0.867941 0.699436
vt 0.877481 0.771645
vt 0.860008 0.633285
vt 0.967639 0.633285
vt 0.984381 0.699436
vt 0.995721 0.761436
vt 0.107270 0.855966
vt 0.142550 0.941992
vt 0.034851 0.902878
vt 0.017675 0.883775
vt 0.000500 0.815130
vt 0.000500 0.864671
vt 0.245724 0.870535
vt 0.254544 0.974393
vt 0.375125 0.879479
vt 0.375125 0.993369
vt 0.500000 0.882544
vt 0.500000 0.999501
vt 0.624875 0.879478
vt 0.624875 0.993369
vt 0.754276 0.870534
vt 0.745456 0.974393
vt 0.892730 0.855966
vt 0.857450 0.941992
vt 0.999500 0.815129
vt 0.982325 0.883774
vt 0.999501 0.864671
vt 0.965149 0.902878
vt 0.150476 0.567133
vt 0.052452 0.567133
vt 0.255431 0.567133
vt 0.374249 0.567133
vt 0.500000 0.567133
vt 0.625751 0.567133
vt 0.744583 0.567133
vt 0.849577 0.567133
vt 0.947653 0.567133
vn 0.000000 0.999969 0.000000
vn 0.000000 1.000000 0.000000
vn 0.000000 1.000000 0.000006
vn 0.000000 1.000000 0.000027
vn 0.000000 1.000000 -0.000022
vn 0.000000 1.000000 0.000008
vn -0.017884 0.998169 0.057649
vn -0.000519 0.999969 0.001556
vn -0.088351 0.987518 0.130192
vn 0.000000 1.000000 0.000010
vn 0.000000 1.000000 0.000005
vn -0.013306 0.999298 0.034333
vn -0.045808 0.992340 0.114689
vn 0.005829 0.998901 0.046480
vn 0.074313 0.996185 0.045595
vn 0.015046 0.999268 0.034669
vn 0.064241 0.997833 0.012879
vn 0.008972 0.999847 0.013520
vn 0.020142 0.999786 0.002655
vn 0.000000 1.000000 -0.000003
vn 0.000000 1.000000 -0.000004
vn -0.083224 0.995148 0.052126
vn -0.093692 0.994995 0.034639
vn 0.000000 1.000000 0.000003
vn 0.000000 1.000000 -0.000001
vn -0.157720 0.976928 0.143834
vn -0.165502 0.984680 0.054628
vn -0.048006 0.990875 0.125889
vn 0.002686 0.999908 -0.012421
vn 0.130284 0.991424 0.007599
vn 0.041047 0.998474 0.036195
vn 0.074404 0.995178 0.063570
vn 0.001221 0.997711 0.067446
vn 0.025758 0.994659 0.099887
vn 0.096713 0.990173 0.100986
vn 0.027284 0.998321 0.050600
vn 0.089663 0.991211 0.096927
vn 0.002208 0.999988 0.004338
vn 0.053083 0.996259 0.068196
vn -0.092593 0.995544 0.017335
vn -0.061830 0.997864 -0.020844
vn -0.000259 1.000000 -0.000174
vn -0.078677 0.996826 0.009125
vn -0.000713 1.000000 0.000426
vn -0.110355 0.993316 0.033357
vn -0.055391 0.998321 0.016297
vn -0.007813 0.991058 -0.133030
vn 0.043580 0.989837 -0.135197
vn 0.041505 0.995727 -0.082369
vn 0.020112 0.990783 -0.133793
vn 0.039277 0.996979 -0.066958
vn 0.023103 0.993011 -0.115604
vn -0.021058 0.997711 -0.064241
vn -0.014161 0.999695 0.019196
vn -0.033784 0.999390 0.004395
vn 0.008515 0.996460 -0.083377
vn 0.007324 0.994873 -0.100803
vn 0.027314 0.998596 -0.045015
vn 0.038911 0.998535 -0.037385
vn 0.056612 0.997925 -0.029939
vn 0.039918 0.998901 -0.023957
vn 0.087832 0.994293 -0.060305
vn 0.050032 0.998747 0.001387
vn 0.019008 0.999816 -0.002400
vn 0.004367 0.999990 -0.001056
vn 0.000000 1.000000 -0.000002
vn 0.000000 1.000000 -0.000005
vn 0.000000 1.000000 0.000004
vn -0.001953 0.997650 -0.068453
vn 0.000000 1.000000 0.000002
vn -0.021424 0.999725 0.006561
vn -0.016882 0.999735 -0.015683
vn -0.028077 0.999573 -0.004212
vn 0.000717 0.998093 -0.061731
vn 0.013520 0.998566 -0.051454
vn 0.012795 0.998582 -0.051666
vn 0.035371 0.997650 -0.058138
vn 0.006418 0.999818 -0.017935
vn 0.006195 0.999969 -0.004547
vn 0.000000 1.000000 0.000007
vn 0.000000 1.000000 -0.000007
vn -0.084231 0.996277 0.016785
vn -0.136326 0.990631 0.003601
vn 0.003052 0.997314 -0.072756
vn 0.007935 0.999939 0.007080
vn 0.025758 0.987762 -0.153783
vn 0.036744 0.999084 -0.021699
vn 0.105960 0.993927 0.029603
vn 0.105971 0.994253 0.015189
usemtl Material.009
s 1
f 1/1/1 2/2/2 3/3/3 
f 4/4/4 1/1/1 3/3/3 
f 5/5/5 1/1/1 4/4/4 
f 4/4/4 6/6/2 5/5/5 
f 1/1/1 5/5/5 7/7/6 
f 8/8/2 1/1/1 7/7/6 
f 2/2/2 1/1/1 8/8/2 
f 8/8/2 9/9/7 2/2/2 
f 10/10/8 11/11/9 9/9/7 
f 9/9/7 8/8/2 10/10/8 
f 12/12/10 10/10/8 8/8/2 
f 8/8/2 7/7/6 12/12/10 
f 10/10/8 12/12/10 13/13/11 
f 13/13/11 14/14/12 10/10/8 
f 11/11/9 10/10/8 14/14/12 
f 14/14/12 15/15/13 11/11/9 
f 16/16/14 17/17/15 15/15/13 
f 15/15/13 14/14/12 16/16/14 
f 18/18/2 16/16/14 14/14/12 
f 14/14/12 13/13/11 18/18/2 
f 16/16/14 18/18/2 19/19/2 
f 19/19/2 20/20/16 16/16/14 
f 17/17/15 16/16/14 20/20/16 
f 20/20/16 21/21/17 17/17/15 
f 22/22/18 23/23/19 21/21/17 
f 21/21/17 20/20/16 22/22/18 
f 24/24/20 22/22/18 20/20/16 
f 20/20/16 19/19/2 24/24/20 
f 22/22/18 24/24/20 25/25/2 
f 25/25/2 26/26/2 22/22/18 
f 23/23/19 22/22/18 26/26/2 
f 26/26/2 27/27/21 23/23/19 
f 28/28/22 29/29/23 30/30/24 
f 30/30/24 31/31/25 28/28/22 
f 2/2/2 28/28/22 31/31/25 
f 31/31/25 3/3/3 2/2/2 
f 28/28/22 2/2/2 9/9/7 
f 9/9/7 32/32/26 28/28/22 
f 29/29/23 28/28/22 32/32/26 
f 32/32/26 33/33/27 29/29/23 
f 34/34/28 35/35/29 33/33/27 
f 33/33/27 32/32/26 34/34/28 
f 11/11/9 34/34/28 32/32/26 
f 32/32/26 9/9/7 11/11/9 
f 34/34/28 11/11/9 15/15/13 
f 15/15/13 36/36/30 34/34/28 
f 35/35/29 34/34/28 36/36/30 
f 36/36/30 37/37/31 35/35/29 
f 38/38/32 39/39/33 37/37/31 
f 37/37/31 36/36/30 38/38/32 
f 17/17/15 38/38/32 36/36/30 
f 36/36/30 15/15/13 17/17/15 
f 38/38/32 17/17/15 21/21/17 
f 21/21/17 40/40/34 38/38/32 
f 39/39/33 38/38/32 40/40/34 
f 40/40/34 41/41/35 39/39/33 
f 42/42/36 43/43/37 41/41/35 
f 41/41/35 40/40/34 42/42/36 
f 23/23/19 42/42/36 40/40/34 
f 40/40/34 21/21/17 23/23/19 
f 42/42/36 23/23/19 27/27/21 
f 27/27/21 44/44/38 42/42/36 
f 43/43/37 42/42/36 44/44/38 
f 44/44/38 45/45/39 43/43/37 
f 46/46/40 47/47/41 48/48/3 
f 48/48/3 49/49/42 46/46/40 
f 50/50/43 46/46/40 49/49/42 
f 49/49/42 51/51/44 50/50/43 
f 46/46/40 50/50/43 52/52/45 
f 52/52/45 53/53/46 46/46/40 
f 47/47/41 46/46/40 53/53/46 
f 53/53/46 54/54/47 47/47/41 
f 55/55/48 56/56/49 54/54/47 
f 54/54/47 53/53/46 55/55/48 
f 57/57/50 55/55/48 53/53/46 
f 53/53/46 52/52/45 57/57/50 
f 55/55/48 57/57/50 58/58/51 
f 58/58/51 59/59/52 55/55/48 
f 56/56/49 55/55/48 59/59/52 
f 59/59/52 60/60/53 56/56/49 
f 61/61/54 62/62/55 60/60/53 
f 60/60/53 59/59/52 61/61/54 
f 63/63/56 61/61/54 59/59/52 
f 59/59/52 58/58/51 63/63/56 
f 61/61/54 63/63/56 64/64/57 
f 64/64/57 65/65/58 61/61/54 
f 62/62/55 61/61/54 65/65/58 
f 65/65/58 66/66/59 62/62/55 
f 67/67/60 68/68/61 66/66/59 
f 66/66/59 65/65/58 67/67/60 
f 69/69/62 67/67/60 65/65/58 
f 65/65/58 64/64/57 69/69/62 
f 67/67/60 69/69/62 70/70/63 
f 70/70/63 71/71/64 67/67/60 
f 68/68/61 67/67/60 71/71/64 
f 71/71/64 72/72/65 68/68/61 
f 73/73/2 74/74/66 75/75/67 
f 75/75/67 76/76/2 73/73/2 
f 77/77/68 73/73/2 76/76/2 
f 76/76/2 78/78/2 77/77/68 
f 73/73/2 77/77/68 48/48/3 
f 48/48/3 47/47/41 73/73/2 
f 79/79/69 73/73/2 47/47/41 
f 47/47/41 54/54/47 79/79/69 
f 73/73/2 79/79/69 80/80/70 
f 80/80/70 74/74/66 73/73/2 
f 81/81/71 82/82/72 80/80/70 
f 80/80/70 79/79/69 81/81/71 
f 56/56/49 81/81/71 79/79/69 
f 79/79/69 54/54/47 56/56/49 
f 81/81/71 56/56/49 60/60/53 
f 60/60/53 83/83/73 81/81/71 
f 82/82/72 81/81/71 83/83/73 
f 83/83/73 84/84/74 82/82/72 
f 85/85/75 86/86/76 84/84/74 
f 84/84/74 83/83/73 85/85/75 
f 62/62/55 85/85/75 83/83/73 
f 83/83/73 60/60/53 62/62/55 
f 85/85/75 62/62/55 66/66/59 
f 66/66/59 87/87/77 85/85/75 
f 86/86/76 85/85/75 87/87/77 
f 87/87/77 88/88/78 86/86/76 
f 89/89/79 90/90/25 88/88/78 
f 88/88/78 87/87/77 89/89/79 
f 68/68/61 89/89/79 87/87/77 
f 87/87/77 66/66/59 68/68/61 
f 89/89/79 68/68/61 72/72/65 
f 72/72/65 91/91/80 89/89/79 
f 92/92/81 89/89/79 91/91/80 
f 91/91/80 93/93/2 92/92/81 
f 89/89/79 92/92/81 94/94/24 
f 94/94/24 90/90/25 89/89/79 
f 95/95/82 50/50/43 51/51/44 
f 51/51/44 96/96/20 95/95/82 
f 29/29/23 95/95/82 96/96/20 
f 96/96/20 30/30/24 29/29/23 
f 95/95/82 29/29/23 33/33/27 
f 33/33/27 97/97/83 95/95/82 
f 50/50/43 95/95/82 97/97/83 
f 97/97/83 52/52/45 50/50/43 
f 98/98/84 57/57/50 52/52/45 
f 52/52/45 97/97/83 98/98/84 
f 35/35/29 98/98/84 97/97/83 
f 97/97/83 33/33/27 35/35/29 
f 98/98/84 35/35/29 37/37/31 
f 37/37/31 99/99/85 98/98/84 
f 57/57/50 98/98/84 99/99/85 
f 99/99/85 58/58/51 57/57/50 
f 100/100/86 63/63/56 58/58/51 
f 58/58/51 99/99/85 100/100/86 
f 39/39/33 100/100/86 99/99/85 
f 99/99/85 37/37/31 39/39/33 
f 100/100/86 39/39/33 41/41/35 
f 41/41/35 101/101/87 100/100/86 
f 63/63/56 100/100/86 101/101/87 
f 101/101/87 64/64/57 63/63/56 
f 102/102/88 69/69/62 64/64/57 
f 64/64/57 101/101/87 102/102/88 
f 43/43/37 102/102/88 101/101/87 
f 101/101/87 41/41/35 43/43/37 
f 102/102/88 43/43/37 45/45/39 
f 45/45/39 103/103/89 102/102/88 
f 69/69/62 102/102/88 103/103/89 
f 103/103/89 70/70/63 69/69/62 
