o Pole_Cube.002
o Pole_Cube.002
v -0.100000 -0.332800 2.512118
v -0.100000 -0.332800 -6.487884
v 0.100000 -0.332800 -6.487884
v 0.100000 -0.332800 2.512118
v -0.100000 -0.132800 2.512118
v -0.100000 -0.132800 -6.487884
v 0.100000 -0.132800 -6.487884
v 0.100000 -0.132800 2.512118
v -0.441422 -0.674221 2.512118
v 0.441422 -0.674221 2.512118
v -0.441422 0.208622 2.512118
v 0.441422 0.208622 2.512118
v -0.441422 -0.674221 3.376337
v 0.441422 -0.674221 3.376337
v -0.441422 0.208622 3.376337
v 0.441422 0.208622 3.376337
vn -1.000000 0.000000 0.000000
vn 0.000000 0.000000 -1.000000
vn 1.000000 0.000000 0.000000
vn 0.000000 -1.000000 0.000000
vn 0.000000 1.000000 0.000000
vn 0.000003 0.000000 -1.000000
vn 0.000000 0.000000 1.000000
usemtl None
s off
f 5//1 6//1 1//1 
f 6//2 7//2 2//2 
f 7//3 8//3 3//3 
f 1//2 4//2 9//2 
f 1//4 2//4 4//4 
f 8//5 7//5 5//5 
f 9//4 10//4 13//4 
f 8//2 5//2 12//2 
f 4//6 8//6 10//6 
f 5//2 1//2 11//2 
f 16//7 15//7 14//7 
f 12//5 11//5 16//5 
f 10//3 12//3 14//3 
f 11//1 9//1 15//1 
f 6//1 2//1 1//1 
f 7//2 3//2 2//2 
f 8//3 4//3 3//3 
f 4//2 10//2 9//2 
f 2//4 3//4 4//4 
f 7//5 6//5 5//5 
f 10//4 14//4 13//4 
f 5//2 11//2 12//2 
f 8//2 12//2 10//2 
f 1//2 9//2 11//2 
f 15//7 13//7 14//7 
f 11//5 15//5 16//5 
f 12//3 16//3 14//3 
f 9//1 13//1 15//1 
