o RoofStructure_Cube.002
o RoofStructure_Cube.002
v -0.386932 3.740714 2.795132
v -0.386932 3.740714 1.995132
v 7.613068 3.740714 1.995132
v 7.613068 3.740714 2.795132
v -0.386932 3.940714 2.795132
v -0.386932 3.940714 1.995132
v 7.613068 3.940714 1.995132
v 7.613068 3.940714 2.795132
v -0.386932 3.940714 2.207496
v -0.386932 3.740714 2.207496
v 7.613068 3.940714 2.207496
v 7.613068 3.740714 2.207496
v -0.386932 3.650625 2.795132
v 7.613068 3.650625 2.795132
v -0.386932 3.650625 2.207496
v 7.613068 3.650625 2.207496
v 3.613023 3.940714 1.995132
v 3.613023 3.740714 1.995132
v 3.613023 3.940714 2.795132
v 3.613023 3.740714 2.795132
v 3.613023 3.740714 2.207496
v 3.613023 3.940714 2.207496
v 3.613023 3.650625 2.795132
v 3.613023 3.650625 2.207496
v 1.342506 3.740714 1.995132
v 1.342506 3.940714 2.795132
v 1.342506 3.940714 2.207496
v 1.342505 3.940714 1.995132
v 1.342505 3.740714 2.795132
v 1.342505 3.740714 2.207496
v 1.342505 3.650625 2.795132
v 1.342505 3.650625 2.207496
v -0.386932 3.790714 1.995132
v -0.386932 3.790714 2.795132
v 7.613068 3.790714 1.995132
v 7.613068 3.790714 2.795132
v -0.386932 3.790714 2.207496
v 7.613068 3.790714 2.207496
v 3.613023 3.790714 1.995132
v 3.613023 3.790714 2.795132
v 1.342506 3.790714 2.795132
v 1.342506 3.790714 1.995132
v 3.613023 3.940714 2.955373
v 1.342506 3.940714 2.955373
v 3.613023 3.790714 2.955373
v 1.342506 3.790714 2.955373
v 3.613023 3.940714 2.980860
v 1.342506 3.940714 2.980860
v 3.613023 3.790714 2.980860
v 1.342506 3.790714 2.980860
v 1.363390 3.740714 1.995132
v 1.363390 3.940714 2.795132
v 1.363390 3.940714 2.207496
v 1.363390 3.940714 1.995132
v 1.363390 3.740714 2.795132
v 1.363390 3.740714 2.207496
v 1.363390 3.650625 2.795132
v 1.363390 3.650625 2.207496
v 1.363390 3.790714 1.995132
v 1.363390 3.790714 2.795132
v 1.363390 3.940714 2.955373
v 1.363390 3.790714 2.955373
v 1.363390 3.940714 2.980860
v 1.363390 3.790714 2.980860
v 3.591426 3.740714 1.995132
v 3.591426 3.940714 2.795132
v 3.591426 3.940714 2.207496
v 3.591426 3.940714 1.995132
v 3.591426 3.740714 2.795132
v 3.591426 3.740714 2.207496
v 3.591426 3.650625 2.795132
v 3.591426 3.650625 2.207496
v 3.591426 3.790714 2.795132
v 3.591426 3.940714 2.955373
v 3.591426 3.790714 2.955373
v 3.591426 3.940714 2.980860
v 3.591426 3.790714 2.980860
v 3.591426 3.790714 1.995132
v 3.613023 3.677310 2.795132
v 1.342506 3.677310 2.795132
v 3.613023 3.677310 2.955373
v 1.342506 3.677310 2.955373
v 3.613023 3.677310 2.980860
v 1.342506 3.677310 2.980860
v 1.363390 3.677310 2.795132
v 1.363390 3.677310 2.955373
v 1.363390 3.677310 2.980860
v 3.591426 3.677310 2.795132
v 3.591426 3.677310 2.955373
v 3.591426 3.677310 2.980860
v -0.386932 3.740714 2.795132
v 7.613068 3.740714 2.795132
v 3.613023 3.740714 2.795132
v 1.342505 3.740714 2.795132
v -0.386932 3.790714 2.795132
v 7.613068 3.790714 2.795132
v 3.613023 3.790714 2.795132
v 1.342506 3.790714 2.795132
v -0.350934 3.740714 1.995132
v -0.350934 3.940714 2.795132
v -0.350934 3.940714 2.207496
v -0.350934 3.940714 1.995132
v -0.350934 3.740714 2.795132
v -0.350934 3.740714 2.207496
v -0.350934 3.650625 2.795132
v -0.350934 3.650625 2.207496
v -0.350934 3.790714 2.795132
v -0.350934 3.790714 1.995132
v -0.350934 3.740714 2.795132
v -0.350934 3.790714 2.795132
v 1.303611 3.790714 2.795132
v 1.303611 3.790714 2.795132
v 1.303611 3.740714 1.995132
v 1.303611 3.940714 2.795132
v 1.303611 3.940714 2.207496
v 1.303610 3.940714 1.995132
v 1.303610 3.740714 2.795132
v 1.303610 3.740714 2.207496
v 1.303610 3.650625 2.795132
v 1.303610 3.650625 2.207496
v 1.303611 3.790714 1.995132
v 1.303610 3.740714 2.795132
v 5.158378 3.940714 1.995132
v 5.158378 3.740714 2.795132
v 5.158378 3.740714 2.207496
v 5.158378 3.650625 2.795132
v 5.158378 3.650625 2.207496
v 5.158379 3.740714 1.995132
v 5.158379 3.940714 2.795132
v 5.158379 3.940714 2.207496
v 5.158379 3.790714 1.995132
v 5.158378 3.790714 2.795132
v 5.158378 3.740714 2.795132
v 5.158378 3.790714 2.795132
v 3.640364 3.790714 1.995132
v 3.640364 3.940714 1.995132
v 3.640364 3.740714 2.795132
v 3.640364 3.740714 2.207496
v 3.640364 3.650625 2.795132
v 3.640364 3.650625 2.207496
v 3.640364 3.740714 1.995132
v 3.640364 3.940714 2.795132
v 3.640364 3.940714 2.207496
v 3.640364 3.790714 2.795132
v 3.640364 3.740714 2.795132
v 3.640364 3.790714 2.795132
v 3.682686 3.790714 1.995132
v 3.682685 3.940714 1.995132
v 3.682685 3.740714 2.795132
v 3.682685 3.740714 2.207496
v 3.682685 3.650625 2.795132
v 3.682685 3.650625 2.207496
v 3.682686 3.740714 1.995132
v 3.682686 3.940714 2.795132
v 3.682686 3.940714 2.207496
v 3.682686 3.790714 2.795132
v 3.682685 3.740714 2.795132
v 3.682686 3.790714 2.795132
v 5.204555 3.940714 1.995132
v 5.204555 3.740714 2.795132
v 5.204555 3.740714 2.207496
v 5.204555 3.650625 2.795132
v 5.204555 3.650625 2.207496
v 5.204555 3.740714 1.995132
v 5.204555 3.940714 2.795132
v 5.204555 3.940714 2.207496
v 5.204555 3.790714 2.795132
v 5.204555 3.740714 2.795132
v 5.204555 3.790714 2.795132
v 5.204555 3.790714 1.995132
v -0.386932 3.940714 2.826280
v 1.342506 3.940714 2.826280
v -0.386932 3.790714 2.826280
v 1.342506 3.790714 2.826280
v -0.386932 3.740714 2.826280
v 1.342505 3.740714 2.826280
v -0.386932 3.790714 2.826280
v 1.342506 3.790714 2.826280
v -0.350934 3.940714 2.826280
v -0.350934 3.790714 2.826280
v -0.350934 3.740714 2.826280
v -0.350934 3.790714 2.826280
v 1.303611 3.790714 2.826280
v 1.303611 3.790714 2.826280
v 1.303611 3.940714 2.826280
v 1.303610 3.740714 2.826280
v 5.158379 3.940714 2.826280
v 5.158378 3.790714 2.826280
v 5.158378 3.740714 2.826280
v 5.158378 3.790714 2.826280
v 3.640364 3.940714 2.826280
v 3.640364 3.790714 2.826280
v 3.640364 3.740714 2.826280
v 3.640364 3.790714 2.826280
v 3.682686 3.940714 2.826280
v 3.682686 3.790714 2.826280
v 3.682685 3.740714 2.826280
v 3.682686 3.790714 2.826280
v 5.204555 3.940714 2.826280
v 5.204555 3.790714 2.826280
v 5.204555 3.740714 2.826280
v 5.204555 3.790714 2.826280
vn -1.000000 0.000000 0.000000
vn 0.000000 0.000000 -1.000000
vn 1.000000 0.000000 0.000000
vn 0.000000 0.000000 1.000000
vn 0.000000 -1.000000 0.000000
vn 0.000000 1.000000 0.000000
vn 1.000000 -0.000002 0.000000
vn 0.000000 -1.000000 0.000001
vn 0.000000 -1.000000 -0.000002
vn -1.000000 0.000002 0.000000
vn -1.000000 0.000003 0.000000
vn 1.000000 -0.000005 0.000000
usemtl Material.004
s off
f 37//1 33//1 2//1 10//1 
f 170//2 35//2 3//2 164//2 
f 38//3 36//3 4//3 12//3 
f 107//4 34//4 95//4 110//4 
f 161//5 164//5 3//5 12//5 
f 101//6 102//6 6//6 9//6 
f 34//1 37//1 10//1 1//1 
f 35//3 38//3 12//3 3//3 
f 161//2 12//2 16//2 163//2 
f 100//6 101//6 9//6 5//6 
f 162//5 163//5 16//5 14//5 
f 103//4 1//4 13//4 105//4 
f 12//3 4//3 14//3 16//3 
f 1//1 10//1 15//1 13//1 
f 78//2 39//2 18//2 65//2 
f 144//4 40//4 97//4 146//4 
f 70//5 65//5 18//5 21//5 
f 143//6 136//6 17//6 22//6 
f 70//2 21//2 24//2 72//2 
f 142//6 143//6 22//6 19//6 
f 71//5 72//5 24//5 23//5 
f 137//4 20//4 23//4 139//4 
f 60//4 41//4 29//4 55//4 
f 53//6 54//6 28//6 27//6 
f 52//6 53//6 27//6 26//6 
f 55//4 29//4 31//4 57//4 
f 121//2 42//2 25//2 113//2 
f 118//5 113//5 25//5 30//5 
f 118//2 30//2 32//2 120//2 
f 119//5 120//5 32//5 31//5 
f 9//1 6//1 33//1 37//1 
f 159//2 7//2 35//2 170//2 
f 11//3 8//3 36//3 38//3 
f 111//5 41//5 174//5 183//5 
f 5//1 9//1 37//1 34//1 
f 7//3 11//3 38//3 35//3 
f 68//2 17//2 39//2 78//2 
f 142//4 19//4 40//4 144//4 
f 49//4 77//4 90//4 83//4 
f 116//2 28//2 42//2 121//2 
f 44//1 46//1 50//1 48//1 
f 52//6 26//6 44//6 61//6 
f 40//3 19//3 43//3 45//3 
f 26//1 41//1 46//1 44//1 
f 63//4 48//4 50//4 64//4 
f 62//2 75//2 89//2 86//2 
f 61//6 44//6 48//6 63//6 
f 45//7 43//7 47//7 49//7 
f 42//2 59//2 51//2 25//2 
f 30//5 25//5 51//5 56//5 
f 30//2 56//2 58//2 32//2 
f 31//5 32//5 58//5 57//5 
f 73//4 60//4 55//4 69//4 
f 67//6 68//6 54//6 53//6 
f 66//6 67//6 53//6 52//6 
f 69//4 55//4 57//4 71//4 
f 28//2 54//2 59//2 42//2 
f 64//4 50//4 84//4 87//4 
f 66//6 52//6 61//6 74//6 
f 76//4 63//4 64//4 77//4 
f 73//2 40//2 79//2 88//2 
f 74//6 61//6 63//6 76//6 
f 59//2 78//2 65//2 51//2 
f 56//5 51//5 65//5 70//5 
f 56//2 70//2 72//2 58//2 
f 57//5 58//5 72//5 71//5 
f 54//2 68//2 78//2 59//2 
f 60//5 73//5 75//5 62//5 
f 40//3 45//3 81//3 79//3 
f 40//4 73//4 69//4 20//4 
f 22//6 17//6 68//6 67//6 
f 19//6 22//6 67//6 66//6 
f 20//4 69//4 71//4 23//4 
f 19//6 66//6 74//6 43//6 
f 47//4 76//4 77//4 49//4 
f 43//6 74//6 76//6 47//6 
f 88//5 79//5 81//5 89//5 
f 89//5 81//5 83//5 90//5 
f 80//5 85//5 86//5 82//5 
f 82//5 86//5 87//5 84//5 
f 86//5 89//5 90//5 87//5 
f 46//1 41//1 80//1 82//1 
f 50//1 46//1 82//1 84//1 
f 41//2 60//2 85//2 80//2 
f 77//4 64//4 87//4 90//4 
f 75//1 73//1 88//1 89//1 
f 45//3 49//3 83//3 81//3 
f 60//3 62//3 86//3 85//3 
f 154//6 142//6 191//6 195//6 
f 146//4 97//4 93//4 145//4 
f 34//4 1//4 91//4 95//4 
f 29//4 41//4 98//4 94//4 
f 40//4 20//4 93//4 97//4 
f 117//4 29//4 94//4 122//4 
f 160//4 4//4 92//4 168//4 
f 4//4 36//4 96//4 92//4 
f 111//4 107//4 110//4 112//4 
f 115//6 116//6 102//6 101//6 
f 114//6 115//6 101//6 100//6 
f 117//4 103//4 105//4 119//4 
f 33//2 108//2 99//2 2//2 
f 10//5 2//5 99//5 104//5 
f 10//2 104//2 106//2 15//2 
f 13//5 15//5 106//5 105//5 
f 114//4 100//4 107//4 111//4 
f 6//2 102//2 108//2 33//2 
f 134//6 158//6 198//6 190//6 
f 1//4 103//4 109//4 91//4 
f 108//2 121//2 113//2 99//2 
f 104//8 99//8 113//8 118//8 
f 104//2 118//2 120//2 106//2 
f 105//5 106//5 120//5 119//5 
f 102//2 116//2 121//2 108//2 
f 103//4 117//4 122//4 109//4 
f 41//4 111//4 112//4 98//4 
f 27//6 28//6 116//6 115//6 
f 26//6 27//6 115//6 114//6 
f 29//4 117//4 119//4 31//4 
f 144//5 156//5 196//5 192//5 
f 34//5 107//5 180//5 173//5 
f 147//2 131//2 128//2 153//2 
f 150//5 153//5 128//5 125//5 
f 150//2 125//2 127//2 152//2 
f 151//5 152//5 127//5 126//5 
f 167//4 132//4 134//4 169//4 
f 166//6 159//6 123//6 130//6 
f 165//6 166//6 130//6 129//6 
f 160//4 124//4 126//4 162//4 
f 148//2 123//2 131//2 147//2 
f 91//5 109//5 181//5 175//5 
f 41//3 26//3 172//3 174//3 
f 149//4 124//4 133//4 157//4 
f 156//4 144//4 146//4 158//4 
f 155//6 148//6 136//6 143//6 
f 154//6 155//6 143//6 142//6 
f 149//4 137//4 139//4 151//4 
f 158//6 146//6 194//6 198//6 
f 156//7 154//7 195//7 196//7 
f 39//2 135//2 141//2 18//2 
f 21//5 18//5 141//5 138//5 
f 21//2 138//2 140//2 24//2 
f 23//5 24//5 140//5 139//5 
f 17//2 136//2 135//2 39//2 
f 20//4 137//4 145//4 93//4 
f 135//2 147//2 153//2 141//2 
f 138//5 141//5 153//5 150//5 
f 138//2 150//2 152//2 140//2 
f 139//5 140//5 152//5 151//5 
f 136//2 148//2 147//2 135//2 
f 137//4 149//4 157//4 145//4 
f 132//4 156//4 158//4 134//4 
f 130//6 123//6 148//6 155//6 
f 129//6 130//6 155//6 154//6 
f 124//4 149//4 151//4 126//4 
f 129//4 154//4 156//4 132//4 
f 133//5 168//5 201//5 189//5 
f 131//2 170//2 164//2 128//2 
f 125//9 128//9 164//9 161//9 
f 125//2 161//2 163//2 127//2 
f 126//5 127//5 163//5 162//5 
f 123//2 159//2 170//2 131//2 
f 124//4 160//4 168//4 133//4 
f 36//4 167//4 169//4 96//4 
f 11//6 7//6 159//6 166//6 
f 8//6 11//6 166//6 165//6 
f 4//4 160//4 162//4 14//4 
f 8//4 165//4 167//4 36//4 
f 96//4 169//4 168//4 92//4 
f 179//4 171//4 173//4 180//4 
f 182//4 177//4 175//4 181//4 
f 184//4 182//4 181//4 186//4 
f 172//4 185//4 183//4 174//4 
f 178//4 184//4 186//4 176//4 
f 199//4 187//4 188//4 200//4 
f 202//4 190//4 189//4 201//4 
f 195//4 191//4 192//4 196//4 
f 198//4 194//4 193//4 197//4 
f 190//4 198//4 197//4 189//4 
f 109//5 122//5 186//5 181//5 
f 114//1 111//1 183//1 185//1 
f 168//3 169//3 202//3 201//3 
f 142//10 144//10 192//10 191//10 
f 95//1 91//1 175//1 177//1 
f 110//6 95//6 177//6 182//6 
f 169//6 134//6 190//6 202//6 
f 5//1 34//1 173//1 171//1 
f 107//3 100//3 179//3 180//3 
f 132//5 167//5 200//5 188//5 
f 145//5 157//5 197//5 193//5 
f 165//6 129//6 187//6 199//6 
f 157//5 133//5 189//5 197//5 
f 100//6 5//6 171//6 179//6 
f 129//11 132//11 188//11 187//11 
f 112//6 110//6 182//6 184//6 
f 146//1 145//1 193//1 194//1 
f 98//6 112//6 184//6 178//6 
f 26//6 114//6 185//6 172//6 
f 167//3 165//3 199//3 200//3 
f 94//12 98//12 178//12 176//12 
f 122//5 94//5 176//5 186//5 
