o TablePillar_Cube.007
o TablePillar_Cube.007
v 2.478572 1.221351 0.638428
v 2.478572 1.221351 0.558428
v 2.558572 1.221351 0.558428
v 2.558572 1.221351 0.638428
v 2.478572 0.035268 0.558428
v 2.478572 0.035268 0.638428
v 2.558572 0.035268 0.558428
v 2.558572 0.035268 0.638428
v 2.273806 -0.003015 0.843194
v 2.273806 -0.003015 0.353662
v 2.763338 -0.003015 0.353662
v 2.763338 -0.003015 0.843194
v 2.273806 0.035268 0.353662
v 2.273806 0.035268 0.843194
v 2.763338 0.035268 0.353662
v 2.763338 0.035268 0.843194
vn 0.000000 1.000000 0.000000
vn -1.000000 0.000000 0.000000
vn 0.000000 0.000000 -1.000000
vn 1.000000 0.000000 0.000000
vn 0.000000 0.000000 1.000000
vn 0.000000 -1.000000 0.000000
usemtl Material.011
s off
f 6//1 5//1 13//1 14//1 
f 5//1 7//1 15//1 13//1 
f 7//1 8//1 16//1 15//1 
f 8//1 6//1 14//1 16//1 
f 4//1 3//1 2//1 1//1 
f 1//2 2//2 5//2 6//2 
f 2//3 3//3 7//3 5//3 
f 3//4 4//4 8//4 7//4 
f 4//5 1//5 6//5 8//5 
f 14//2 13//2 10//2 9//2 
f 13//3 15//3 11//3 10//3 
f 15//4 16//4 12//4 11//4 
f 16//5 14//5 9//5 12//5 
f 9//6 10//6 11//6 12//6 
