o TableGlass_Cube.006
o TableGlass_Cube.006
v 1.957257 1.223822 1.204237
v 1.957257 1.223822 0.004236
v 3.157257 1.223822 0.004236
v 3.157257 1.223822 1.204237
v 1.957257 1.241822 1.204237
v 1.957257 1.241822 0.004236
v 3.157257 1.241822 0.004236
v 3.157257 1.241822 1.204237
vn -1.000000 0.000000 0.000000
vn 0.000000 0.000000 -1.000000
vn 1.000000 0.000000 0.000000
vn 0.000000 0.000000 1.000000
vn 0.000000 -1.000000 0.000000
vn 0.000000 1.000000 0.000000
usemtl Material.010
s off
f 5//1 6//1 2//1 1//1 
f 6//2 7//2 3//2 2//2 
f 7//3 8//3 4//3 3//3 
f 8//4 5//4 1//4 4//4 
f 1//5 2//5 3//5 4//5 
f 8//6 7//6 6//6 5//6 
