o TableTop_Cube
o TableTop_Cube
v -1.414106 2.345935 2.135567
v -1.414106 2.345935 -2.135567
v 1.414106 2.345935 -2.135567
v 1.414106 2.345935 2.135567
v -1.414106 2.394971 2.135567
v -1.414106 2.394971 -2.135567
v 1.414106 2.394971 -2.135567
v 1.414106 2.394971 2.135567
vn -1.000000 0.000000 0.000000
vn 0.000000 0.000000 -1.000000
vn 1.000000 0.000000 0.000000
vn 0.000000 0.000000 1.000000
vn 0.000000 -1.000000 0.000000
vn 0.000000 1.000000 0.000000
usemtl Material
s off
f 5//1 6//1 2//1 1//1 
f 6//2 7//2 3//2 2//2 
f 7//3 8//3 4//3 3//3 
f 8//4 5//4 1//4 4//4 
f 1//5 2//5 3//5 4//5 
f 8//6 7//6 6//6 5//6 
