o TablePillar_Cube.007
o TablePillar_Cube.007
v 2.478572 -0.024981 0.638428
v 2.478572 -0.024981 0.558428
v 2.558572 -0.024981 0.558428
v 2.558572 -0.024981 0.638428
v 2.478572 1.229850 0.638428
v 2.478572 1.229850 0.558428
v 2.558572 1.229850 0.558428
v 2.558572 1.229850 0.638428
vn -1.000000 0.000000 0.000000
vn 0.000000 0.000000 -1.000000
vn 1.000000 0.000000 0.000000
vn 0.000000 0.000000 1.000000
vn 0.000000 -1.000000 0.000000
vn 0.000000 1.000000 0.000000
usemtl Material.011
s off
f 5//1 6//1 2//1 1//1 
f 6//2 7//2 3//2 2//2 
f 7//3 8//3 4//3 3//3 
f 8//4 5//4 1//4 4//4 
f 1//5 2//5 3//5 4//5 
f 8//6 7//6 6//6 5//6 
