o UpperCabinet_Cube.005
o UpperCabinet_Cube.005
v -4.247096 5.982200 1.904164
v -4.247096 5.982200 0.184074
v -5.995518 5.982203 0.184074
v -5.995518 5.982203 1.904164
v -4.247100 3.823185 1.904164
v -4.247100 3.823185 0.184074
v -5.995522 3.823188 0.184074
v -5.995522 3.823188 1.904164
v -4.247096 5.795323 1.904164
v -5.995518 5.795326 1.904164
v -4.247100 3.823185 1.904164
v -5.995522 3.823188 1.904164
v -4.247096 5.982200 3.624255
v -4.247096 5.982200 1.904164
v -5.995518 5.982203 1.904164
v -5.995518 5.982203 3.624255
v -4.247100 3.823185 3.624255
v -4.247100 3.823185 1.904164
v -5.995522 3.823188 1.904164
v -5.995522 3.823188 3.624255
v -4.247096 5.795323 3.624255
v -5.995518 5.795326 3.624255
v -4.247100 3.823185 3.624255
v -5.995522 3.823188 3.624255
v -4.247096 5.982200 5.344345
v -4.247096 5.982200 3.624255
v -5.995518 5.982203 3.624255
v -5.995518 5.982203 5.344345
v -4.247100 3.823185 5.344345
v -4.247100 3.823185 3.624255
v -5.995522 3.823188 3.624255
v -5.995522 3.823188 5.344345
v -4.247096 5.795323 5.344345
v -5.995518 5.795326 5.344345
v -4.247100 3.823185 5.344345
v -5.995522 3.823188 5.344345
vt -0.000328 -0.002984
vt 1.004200 -0.002984
vt 1.004200 0.738435
vt -0.000328 0.738435
vt 1.004200 -0.002982
vt 1.004200 0.738436
vt -0.000328 -0.002982
vt -0.000328 0.738436
vt -0.000328 0.676325
vt -0.000328 0.676324
vn 1.000000 -0.000002 0.000000
vn -0.000000 0.000000 -1.000000
vn -1.000000 0.000002 0.000000
vn -0.000000 0.000000 1.000000
vn 0.000002 1.000000 0.000000
vn -0.000002 -1.000000 0.000000
vn -0.555980 0.000000 -0.831196
vn 0.800958 0.000000 0.598720
usemtl Material.013
s off
f 5/1/1 6/2/1 2/3/1 1/4/1 
f 6/2/2 7/5/2 3/6/2 2/3/2 
f 7/5/3 8/7/3 4/8/3 3/6/3 
f 1/4/4 4/8/4 10/9/4 9/10/4 
f 1/4/5 2/3/5 3/6/5 4/8/5 
f 8/7/6 7/5/6 6/2/6 5/1/6 
f 12/7/4 11/1/4 9/10/4 10/9/4 
f 8/7/4 5/1/4 11/1/4 12/7/4 
f 4/8/4 8/7/4 12/7/4 10/9/4 
f 5/1/7 1/4/7 9/10/7 11/1/7 
f 17/1/1 18/2/1 14/3/1 13/4/1 
f 18/2/2 19/5/2 15/6/2 14/3/2 
f 19/5/3 20/7/3 16/8/3 15/6/3 
f 13/4/4 16/8/4 22/9/4 21/10/4 
f 13/4/5 14/3/5 15/6/5 16/8/5 
f 20/7/6 19/5/6 18/2/6 17/1/6 
f 24/7/4 23/1/4 21/10/4 22/9/4 
f 20/7/4 17/1/4 23/1/4 24/7/4 
f 16/8/8 20/7/8 24/7/8 22/9/8 
f 17/1/2 13/4/2 21/10/2 23/1/2 
f 29/1/1 30/2/1 26/3/1 25/4/1 
f 30/2/2 31/5/2 27/6/2 26/3/2 
f 31/5/3 32/7/3 28/8/3 27/6/3 
f 25/4/4 28/8/4 34/9/4 33/10/4 
f 25/4/5 26/3/5 27/6/5 28/8/5 
f 32/7/6 31/5/6 30/2/6 29/1/6 
f 36/7/4 35/1/4 33/10/4 34/9/4 
f 32/7/4 29/1/4 35/1/4 36/7/4 
f 28/8/4 32/7/4 36/7/4 34/9/4 
f 29/1/2 25/4/2 33/10/2 35/1/2 
