o WallPainting_Cube.001
o WallPainting_Cube.001
v 1.487641 1.910628 2.969667
v 1.487641 1.910628 2.944667
v 3.487641 1.910628 2.944667
v 3.487641 1.910628 2.969667
v 1.487641 3.310628 2.969667
v 1.487641 3.310628 2.944667
v 3.487641 3.310628 2.944667
v 3.487641 3.310628 2.969667
vt 0.009529 0.554250
vt 0.009617 0.554420
vt 0.010026 0.560664
vt 0.009943 0.560805
vt 0.996598 0.992019
vt 0.037185 0.992019
vt 0.037185 0.009050
vt 0.996598 0.009050
vt 0.014333 0.554390
vt 0.014417 0.554250
vt 0.014830 0.560805
vt 0.014743 0.560634
vt 0.014830 0.566677
vt 0.009684 0.566677
vt 0.009684 0.560808
vt 0.014830 0.560808
vn -1.000000 0.000000 0.000000
vn 0.000000 0.000000 -1.000000
vn 1.000000 0.000000 0.000000
vn 0.000000 0.000000 1.000000
vn 0.000000 -1.000000 0.000000
vn 0.000000 1.000000 0.000000
usemtl Material.003
s off
f 5/1/1 6/2/1 2/3/1 1/4/1 
f 6/5/2 7/6/2 3/7/2 2/8/2 
f 7/9/3 8/10/3 4/11/3 3/12/3 
f 8/13/4 5/14/4 1/15/4 4/16/4 
f 1/4/5 2/3/5 3/12/5 4/11/5 
f 8/10/6 7/9/6 6/2/6 5/1/6 
