o WindowGlass_Plane.004
o WindowGlass_Plane.004
v -3.892074 0.265220 -5.198085
v -3.892074 0.265220 -5.238084
v 5.410888 0.265220 -5.238084
v 5.410888 0.265220 -5.198085
v -3.892074 7.200131 -5.198085
v -3.892074 7.200131 -5.238084
v 5.410888 7.200131 -5.238084
v 5.410888 7.200131 -5.198085
vt 0.000000 0.000000
vn -1.000000 0.000000 0.000000
vn 0.000000 0.000000 -1.000000
vn 1.000000 0.000000 0.000000
vn 0.000000 0.000000 1.000000
vn 0.000000 -1.000000 0.000000
vn 0.000000 1.000000 0.000000
usemtl Material.011
s off
f 5/1/1 6/1/1 2/1/1 1/1/1 
f 6/1/2 7/1/2 3/1/2 2/1/2 
f 7/1/3 8/1/3 4/1/3 3/1/3 
f 8/1/4 5/1/4 1/1/4 4/1/4 
f 1/1/5 2/1/5 3/1/5 4/1/5 
f 8/1/6 7/1/6 6/1/6 5/1/6 
