o WindowFrame_Cube.011
o WindowFrame_Cube.011
v -1.103923 0.307023 2.243112
v -1.103923 0.307023 -1.401363
v -0.981839 0.307023 -1.401363
v -0.981839 0.307023 2.243112
v -1.103923 3.425573 2.243112
v -1.103923 3.425573 -1.401363
v -0.981839 3.425573 -1.401363
v -0.981839 3.425573 2.243112
v -1.103923 3.425573 -1.167856
v -1.103923 0.307023 -1.167856
v -0.981839 3.425573 -1.167856
v -0.981839 0.307023 -1.167856
v -1.103923 0.307023 2.043004
v -0.981839 3.425573 2.043004
v -1.103923 3.425573 2.043004
v -0.981839 0.307023 2.043004
v -1.103923 3.252212 -1.401363
v -1.103923 3.252212 2.243112
v -0.981839 3.252212 -1.401363
v -0.981839 3.252212 2.243112
v -1.103923 3.252212 -1.167856
v -0.981839 3.252212 -1.167856
v -0.981839 3.252212 2.043004
v -1.103923 3.252212 2.043004
v -1.103923 0.507630 -1.401363
v -0.981839 0.507630 -1.401363
v -0.981839 0.507630 2.243112
v -1.103923 0.507630 -1.167856
v -0.981839 0.507630 -1.167856
v -0.981839 0.507630 2.043004
v -1.103923 0.507630 2.043004
v -1.103923 0.507630 2.243112
vn -1.000000 0.000000 0.000000
vn 0.000000 0.000000 -1.000000
vn 1.000000 0.000000 0.000000
vn 0.000000 0.000000 1.000000
vn 0.000000 -1.000000 0.000000
vn 0.000000 1.000000 0.000000
usemtl Material.020
s off
f 28//1 25//1 2//1 10//1 
f 25//2 26//2 3//2 2//2 
f 30//3 27//3 4//3 16//3 
f 27//4 32//4 1//4 4//4 
f 10//5 2//5 3//5 12//5 
f 11//6 7//6 6//6 9//6 
f 31//1 28//1 10//1 13//1 
f 26//3 29//3 12//3 3//3 
f 13//5 10//5 12//5 16//5 
f 14//6 11//6 9//6 15//6 
f 29//3 30//3 16//3 12//3 
f 32//1 31//1 13//1 1//1 
f 1//5 13//5 16//5 4//5 
f 8//6 14//6 15//6 5//6 
f 9//1 6//1 17//1 21//1 
f 6//2 7//2 19//2 17//2 
f 14//3 8//3 20//3 23//3 
f 8//4 5//4 18//4 20//4 
f 15//1 9//1 21//1 24//1 
f 7//3 11//3 22//3 19//3 
f 11//3 14//3 23//3 22//3 
f 5//1 15//1 24//1 18//1 
f 21//1 17//1 25//1 28//1 
f 17//2 19//2 26//2 25//2 
f 23//3 20//3 27//3 30//3 
f 20//4 18//4 32//4 27//4 
f 29//6 28//6 31//6 30//6 
f 19//3 22//3 29//3 26//3 
f 30//2 31//2 24//2 23//2 
f 18//1 24//1 31//1 32//1 
f 28//4 29//4 22//4 21//4 
f 21//5 22//5 23//5 24//5 
